<svg xmlns="http://www.w3.org/2000/svg" xmlns:xlink="http://www.w3.org/1999/xlink" width="540.86" height="429.349" version="1.1" viewBox="0 0 405.645 322.012"><metadata><rdf:RDF xmlns:cc="http://creativecommons.org/ns#" xmlns:dc="http://purl.org/dc/elements/1.1/" xmlns:rdf="http://www.w3.org/1999/02/22-rdf-syntax-ns#"><cc:Work><dc:type rdf:resource="http://purl.org/dc/dcmitype/StillImage"/><dc:date>2023-02-04T20:10:19.199571</dc:date><dc:format>image/svg+xml</dc:format><dc:creator><cc:Agent><dc:title>Matplotlib v3.5.3, https://matplotlib.org/</dc:title></cc:Agent></dc:creator></cc:Work></rdf:RDF></metadata><defs><style type="text/css">*{stroke-linejoin:round;stroke-linecap:butt}</style></defs><g id="figure_1"><g id="patch_1"><path d="M 0 322.012 L 405.645 322.012 L 405.645 0 L 0 0 z" style="fill:#fff"/></g><g id="axes_1"><g id="patch_2"><path d="M 41.325 287.562 L 398.445 287.562 L 398.445 21.45 L 41.325 21.45 z" style="fill:#fff"/></g><g id="matplotlib.axis_1"><g id="xtick_1"><g id="line2d_1"><defs><path id="mca8ef0ec6c" d="M 0 0 L 0 3.5" style="stroke:#000;stroke-width:.8"/></defs><g><use x="57.558" y="287.562" xlink:href="#mca8ef0ec6c" style="stroke:#000;stroke-width:.8"/></g></g><g id="text_1"><g transform="translate(50.057727 301.437)scale(0.1 -0.1)"><defs><path id="SimHei-30" d="M 225 2537 Q 250 3200 412 3587 Q 575 3975 875 4225 Q 1175 4475 1612 4475 Q 2050 4475 2375 4112 Q 2700 3750 2800 3200 Q 2900 2650 2862 1937 Q 2825 1225 2612 775 Q 2400 325 1975 150 Q 1550 -25 1125 187 Q 700 400 525 750 Q 350 1100 275 1487 Q 200 1875 225 2537 z M 750 2687 Q 675 2000 800 1462 Q 925 925 1212 700 Q 1500 475 1800 612 Q 2100 750 2237 1162 Q 2375 1575 2375 2062 Q 2375 2550 2337 2950 Q 2300 3350 2112 3675 Q 1925 4000 1612 4012 Q 1300 4025 1062 3700 Q 825 3375 750 2687 z" transform="scale(0.015625)"/><path id="SimHei-2e" d="M 1075 125 L 500 125 L 500 675 L 1075 675 L 1075 125 z" transform="scale(0.015625)"/></defs><use xlink:href="#SimHei-30"/><use x="50" xlink:href="#SimHei-2e"/><use x="100" xlink:href="#SimHei-30"/></g></g></g><g id="xtick_2"><g id="line2d_2"><g><use x="122.489" y="287.562" xlink:href="#mca8ef0ec6c" style="stroke:#000;stroke-width:.8"/></g></g><g id="text_2"><g transform="translate(114.988636 301.437)scale(0.1 -0.1)"><defs><path id="SimHei-32" d="M 300 250 Q 325 625 650 925 Q 975 1225 1475 1862 Q 1975 2500 2125 2850 Q 2275 3200 2237 3450 Q 2200 3700 2000 3862 Q 1800 4025 1537 4000 Q 1275 3975 1037 3800 Q 800 3625 675 3275 L 200 3350 Q 400 3925 712 4187 Q 1025 4450 1450 4475 Q 1700 4500 1900 4462 Q 2100 4425 2312 4287 Q 2525 4150 2662 3875 Q 2800 3600 2762 3212 Q 2725 2825 2375 2287 Q 2025 1750 1025 600 L 2825 600 L 2825 150 L 300 150 L 300 250 z" transform="scale(0.015625)"/></defs><use xlink:href="#SimHei-30"/><use x="50" xlink:href="#SimHei-2e"/><use x="100" xlink:href="#SimHei-32"/></g></g></g><g id="xtick_3"><g id="line2d_3"><g><use x="187.42" y="287.562" xlink:href="#mca8ef0ec6c" style="stroke:#000;stroke-width:.8"/></g></g><g id="text_3"><g transform="translate(179.919545 301.437)scale(0.1 -0.1)"><defs><path id="SimHei-34" d="M 2000 1100 L 75 1100 L 75 1525 L 2100 4450 L 2475 4450 L 2475 1525 L 3075 1525 L 3075 1100 L 2475 1100 L 2475 150 L 2000 150 L 2000 1100 z M 2000 1525 L 2000 3500 L 600 1525 L 2000 1525 z" transform="scale(0.015625)"/></defs><use xlink:href="#SimHei-30"/><use x="50" xlink:href="#SimHei-2e"/><use x="100" xlink:href="#SimHei-34"/></g></g></g><g id="xtick_4"><g id="line2d_4"><g><use x="252.35" y="287.562" xlink:href="#mca8ef0ec6c" style="stroke:#000;stroke-width:.8"/></g></g><g id="text_4"><g transform="translate(244.850455 301.437)scale(0.1 -0.1)"><defs><path id="SimHei-36" d="M 250 1612 Q 275 1975 387 2225 Q 500 2475 725 2850 L 1750 4450 L 2325 4450 L 1275 2800 Q 1950 2975 2350 2750 Q 2750 2525 2887 2237 Q 3025 1950 3037 1612 Q 3050 1275 2937 950 Q 2825 625 2537 362 Q 2250 100 1737 75 Q 1225 50 862 262 Q 500 475 362 862 Q 225 1250 250 1612 z M 1025 787 Q 1250 550 1625 525 Q 2000 500 2250 775 Q 2500 1050 2500 1575 Q 2500 2100 2187 2300 Q 1875 2500 1487 2450 Q 1100 2400 925 2075 Q 750 1750 775 1387 Q 800 1025 1025 787 z" transform="scale(0.015625)"/></defs><use xlink:href="#SimHei-30"/><use x="50" xlink:href="#SimHei-2e"/><use x="100" xlink:href="#SimHei-36"/></g></g></g><g id="xtick_5"><g id="line2d_5"><g><use x="317.281" y="287.562" xlink:href="#mca8ef0ec6c" style="stroke:#000;stroke-width:.8"/></g></g><g id="text_5"><g transform="translate(309.781364 301.437)scale(0.1 -0.1)"><defs><path id="SimHei-38" d="M 175 1375 Q 175 1675 325 1962 Q 475 2250 825 2425 Q 525 2600 425 2812 Q 325 3025 312 3300 Q 300 3575 387 3775 Q 475 3975 650 4150 Q 825 4325 1037 4387 Q 1250 4450 1500 4450 Q 1750 4450 1950 4400 Q 2150 4350 2375 4187 Q 2600 4025 2700 3725 Q 2800 3425 2687 3025 Q 2575 2625 2100 2400 Q 2525 2275 2700 2012 Q 2875 1750 2875 1375 Q 2875 1000 2762 775 Q 2650 550 2512 400 Q 2375 250 2137 162 Q 1900 75 1537 75 Q 1175 75 912 162 Q 650 250 475 425 Q 300 600 237 837 Q 175 1075 175 1375 z M 687 1400 Q 675 1100 787 875 Q 900 650 1200 587 Q 1500 525 1825 600 Q 2150 675 2275 950 Q 2400 1225 2362 1500 Q 2325 1775 2050 1962 Q 1775 2150 1450 2125 Q 1125 2100 912 1900 Q 700 1700 687 1400 z M 775 3350 Q 775 3100 950 2875 Q 1125 2650 1500 2650 Q 1875 2650 2062 2875 Q 2250 3100 2237 3412 Q 2225 3725 2012 3875 Q 1800 4025 1437 4000 Q 1075 3975 925 3787 Q 775 3600 775 3350 z" transform="scale(0.015625)"/></defs><use xlink:href="#SimHei-30"/><use x="50" xlink:href="#SimHei-2e"/><use x="100" xlink:href="#SimHei-38"/></g></g></g><g id="xtick_6"><g id="line2d_6"><g><use x="382.212" y="287.562" xlink:href="#mca8ef0ec6c" style="stroke:#000;stroke-width:.8"/></g></g><g id="text_6"><g transform="translate(374.712273 301.437)scale(0.1 -0.1)"><defs><path id="SimHei-31" d="M 1400 3600 Q 1075 3275 575 2975 L 575 3450 Q 1200 3875 1600 4450 L 1900 4450 L 1900 150 L 1400 150 L 1400 3600 z" transform="scale(0.015625)"/></defs><use xlink:href="#SimHei-31"/><use x="50" xlink:href="#SimHei-2e"/><use x="100" xlink:href="#SimHei-30"/></g></g></g><g id="text_7"><g transform="translate(172.385 313.562)scale(0.1 -0.1)"><defs><path id="SimHei-46" d="M 2925 3925 L 875 3925 L 875 2525 L 2425 2525 L 2425 2050 L 875 2050 L 875 125 L 300 125 L 300 4400 L 2925 4400 L 2925 3925 z" transform="scale(0.015625)"/><path id="SimHei-61" d="M 2875 125 L 2275 125 Q 2225 175 2200 262 Q 2175 350 2175 475 Q 2000 275 1750 175 Q 1500 75 1225 75 Q 825 75 550 275 Q 275 475 275 850 Q 275 1225 525 1450 Q 775 1675 1300 1750 Q 1650 1800 1912 1875 Q 2175 1950 2175 2075 Q 2175 2225 2062 2375 Q 1950 2525 1575 2525 Q 1275 2525 1137 2412 Q 1000 2300 950 2100 L 400 2100 Q 450 2500 762 2737 Q 1075 2975 1575 2975 Q 2125 2975 2400 2725 Q 2675 2475 2675 2025 L 2675 650 Q 2675 500 2725 375 Q 2775 250 2875 125 z M 2175 1050 L 2175 1550 Q 2025 1500 1887 1462 Q 1750 1425 1425 1375 Q 1050 1325 937 1200 Q 825 1075 825 900 Q 825 750 937 637 Q 1050 525 1275 525 Q 1500 525 1762 650 Q 2025 775 2175 1050 z" transform="scale(0.015625)"/><path id="SimHei-6c" d="M 1825 125 L 1325 125 L 1325 4400 L 1825 4400 L 1825 125 z" transform="scale(0.015625)"/><path id="SimHei-73" d="M 2750 900 Q 2750 500 2437 287 Q 2125 75 1650 75 Q 1050 75 725 312 Q 400 550 400 1000 L 900 1000 Q 900 700 1112 600 Q 1325 500 1625 500 Q 1925 500 2075 612 Q 2225 725 2225 900 Q 2225 1025 2100 1150 Q 1975 1275 1475 1350 Q 900 1425 687 1637 Q 475 1850 475 2200 Q 475 2500 762 2737 Q 1050 2975 1600 2975 Q 2100 2975 2387 2750 Q 2675 2525 2675 2150 L 2175 2150 Q 2175 2375 2012 2462 Q 1850 2550 1600 2550 Q 1275 2550 1137 2437 Q 1000 2325 1000 2175 Q 1000 2000 1125 1900 Q 1250 1800 1650 1750 Q 2300 1650 2525 1437 Q 2750 1225 2750 900 z" transform="scale(0.015625)"/><path id="SimHei-65" d="M 2850 1075 Q 2800 625 2450 350 Q 2100 75 1625 75 Q 1025 75 637 462 Q 250 850 250 1525 Q 250 2200 637 2587 Q 1025 2975 1625 2975 Q 2150 2975 2487 2637 Q 2825 2300 2825 1525 L 800 1525 Q 800 975 1037 750 Q 1275 525 1625 525 Q 1900 525 2075 662 Q 2250 800 2300 1075 L 2850 1075 z M 2250 1925 Q 2200 2275 2025 2412 Q 1850 2550 1575 2550 Q 1325 2550 1125 2412 Q 925 2275 825 1925 L 2250 1925 z" transform="scale(0.015625)"/><path id="SimHei-20" transform="scale(0.015625)"/><path id="SimHei-50" d="M 2950 3100 Q 2950 2500 2600 2150 Q 2250 1800 1625 1800 L 900 1800 L 900 125 L 325 125 L 325 4400 L 1625 4400 Q 2250 4400 2600 4050 Q 2950 3700 2950 3100 z M 2375 3100 Q 2375 3575 2150 3750 Q 1925 3925 1475 3925 L 900 3925 L 900 2275 L 1475 2275 Q 1925 2275 2150 2450 Q 2375 2625 2375 3100 z" transform="scale(0.015625)"/><path id="SimHei-6f" d="M 2925 1525 Q 2925 875 2525 475 Q 2125 75 1575 75 Q 1025 75 625 475 Q 225 875 225 1525 Q 225 2175 625 2575 Q 1025 2975 1575 2975 Q 2125 2975 2525 2575 Q 2925 2175 2925 1525 z M 2375 1525 Q 2375 2025 2125 2275 Q 1875 2525 1575 2525 Q 1275 2525 1025 2275 Q 775 2025 775 1525 Q 775 1025 1025 775 Q 1275 525 1575 525 Q 1875 525 2125 775 Q 2375 1025 2375 1525 z" transform="scale(0.015625)"/><path id="SimHei-69" d="M 1800 3725 L 1300 3725 L 1300 4375 L 1800 4375 L 1800 3725 z M 1800 125 L 1300 125 L 1300 2925 L 1800 2925 L 1800 125 z" transform="scale(0.015625)"/><path id="SimHei-74" d="M 2750 200 Q 2625 150 2462 112 Q 2300 75 2025 75 Q 1575 75 1300 325 Q 1025 575 1025 1025 L 1025 2525 L 175 2525 L 175 2925 L 1025 2925 L 1025 3900 L 1525 3900 L 1525 2925 L 2550 2925 L 2550 2525 L 1525 2525 L 1525 1000 Q 1525 800 1625 662 Q 1725 525 2000 525 Q 2275 525 2450 575 Q 2625 625 2750 700 L 2750 200 z" transform="scale(0.015625)"/><path id="SimHei-76" d="M 2875 2925 L 1825 75 L 1275 75 L 225 2925 L 750 2925 L 1525 750 L 1575 750 L 2350 2925 L 2875 2925 z" transform="scale(0.015625)"/><path id="SimHei-52" d="M 3000 125 L 2400 125 L 1500 1975 L 850 1975 L 850 125 L 275 125 L 275 4400 L 1525 4400 Q 2125 4400 2500 4112 Q 2875 3825 2875 3175 Q 2875 2675 2625 2400 Q 2375 2125 2050 2050 L 3000 125 z M 2300 3175 Q 2300 3525 2087 3725 Q 1875 3925 1400 3925 L 850 3925 L 850 2450 L 1550 2450 Q 1850 2450 2075 2612 Q 2300 2775 2300 3175 z" transform="scale(0.015625)"/></defs><use xlink:href="#SimHei-46"/><use x="50" xlink:href="#SimHei-61"/><use x="100" xlink:href="#SimHei-6c"/><use x="150" xlink:href="#SimHei-73"/><use x="200" xlink:href="#SimHei-65"/><use x="250" xlink:href="#SimHei-20"/><use x="300" xlink:href="#SimHei-50"/><use x="350" xlink:href="#SimHei-6f"/><use x="400" xlink:href="#SimHei-73"/><use x="450" xlink:href="#SimHei-69"/><use x="500" xlink:href="#SimHei-74"/><use x="550" xlink:href="#SimHei-69"/><use x="600" xlink:href="#SimHei-76"/><use x="650" xlink:href="#SimHei-65"/><use x="700" xlink:href="#SimHei-20"/><use x="750" xlink:href="#SimHei-52"/><use x="800" xlink:href="#SimHei-61"/><use x="850" xlink:href="#SimHei-74"/><use x="900" xlink:href="#SimHei-65"/></g></g></g><g id="matplotlib.axis_2"><g id="ytick_1"><g id="line2d_7"><defs><path id="m87c5538f2c" d="M 0 0 L -3.5 0" style="stroke:#000;stroke-width:.8"/></defs><g><use x="41.325" y="275.466" xlink:href="#m87c5538f2c" style="stroke:#000;stroke-width:.8"/></g></g><g id="text_8"><g transform="translate(19.325 278.9035)scale(0.1 -0.1)"><use xlink:href="#SimHei-30"/><use x="50" xlink:href="#SimHei-2e"/><use x="100" xlink:href="#SimHei-30"/></g></g></g><g id="ytick_2"><g id="line2d_8"><g><use x="41.325" y="227.082" xlink:href="#m87c5538f2c" style="stroke:#000;stroke-width:.8"/></g></g><g id="text_9"><g transform="translate(19.325 230.5195)scale(0.1 -0.1)"><use xlink:href="#SimHei-30"/><use x="50" xlink:href="#SimHei-2e"/><use x="100" xlink:href="#SimHei-32"/></g></g></g><g id="ytick_3"><g id="line2d_9"><g><use x="41.325" y="178.698" xlink:href="#m87c5538f2c" style="stroke:#000;stroke-width:.8"/></g></g><g id="text_10"><g transform="translate(19.325 182.1355)scale(0.1 -0.1)"><use xlink:href="#SimHei-30"/><use x="50" xlink:href="#SimHei-2e"/><use x="100" xlink:href="#SimHei-34"/></g></g></g><g id="ytick_4"><g id="line2d_10"><g><use x="41.325" y="130.314" xlink:href="#m87c5538f2c" style="stroke:#000;stroke-width:.8"/></g></g><g id="text_11"><g transform="translate(19.325 133.7515)scale(0.1 -0.1)"><use xlink:href="#SimHei-30"/><use x="50" xlink:href="#SimHei-2e"/><use x="100" xlink:href="#SimHei-36"/></g></g></g><g id="ytick_5"><g id="line2d_11"><g><use x="41.325" y="81.93" xlink:href="#m87c5538f2c" style="stroke:#000;stroke-width:.8"/></g></g><g id="text_12"><g transform="translate(19.325 85.3675)scale(0.1 -0.1)"><use xlink:href="#SimHei-30"/><use x="50" xlink:href="#SimHei-2e"/><use x="100" xlink:href="#SimHei-38"/></g></g></g><g id="ytick_6"><g id="line2d_12"><g><use x="41.325" y="33.546" xlink:href="#m87c5538f2c" style="stroke:#000;stroke-width:.8"/></g></g><g id="text_13"><g transform="translate(19.325 36.9835)scale(0.1 -0.1)"><use xlink:href="#SimHei-31"/><use x="50" xlink:href="#SimHei-2e"/><use x="100" xlink:href="#SimHei-30"/></g></g></g><g id="text_14"><g transform="translate(14.075 199.506)rotate(-90)scale(0.1 -0.1)"><defs><path id="SimHei-54" d="M 2850 3925 L 1850 3925 L 1850 125 L 1275 125 L 1275 3925 L 275 3925 L 275 4400 L 2850 4400 L 2850 3925 z" transform="scale(0.015625)"/><path id="SimHei-72" d="M 2500 2425 Q 2025 2500 1700 2287 Q 1375 2075 1150 1550 L 1150 125 L 650 125 L 650 2925 L 1150 2925 L 1150 2200 Q 1375 2600 1712 2787 Q 2050 2975 2500 2975 L 2500 2425 z" transform="scale(0.015625)"/><path id="SimHei-75" d="M 2800 125 L 2300 125 L 2300 650 Q 2100 375 1862 225 Q 1625 75 1250 75 Q 800 75 575 325 Q 350 575 350 950 L 350 2925 L 850 2925 L 850 1125 Q 850 825 1000 650 Q 1150 475 1400 475 Q 1725 475 2012 812 Q 2300 1150 2300 1650 L 2300 2925 L 2800 2925 L 2800 125 z" transform="scale(0.015625)"/></defs><use xlink:href="#SimHei-54"/><use x="50" xlink:href="#SimHei-72"/><use x="100" xlink:href="#SimHei-75"/><use x="150" xlink:href="#SimHei-65"/><use x="200" xlink:href="#SimHei-20"/><use x="250" xlink:href="#SimHei-50"/><use x="300" xlink:href="#SimHei-6f"/><use x="350" xlink:href="#SimHei-73"/><use x="400" xlink:href="#SimHei-69"/><use x="450" xlink:href="#SimHei-74"/><use x="500" xlink:href="#SimHei-69"/><use x="550" xlink:href="#SimHei-76"/><use x="600" xlink:href="#SimHei-65"/><use x="650" xlink:href="#SimHei-20"/><use x="700" xlink:href="#SimHei-52"/><use x="750" xlink:href="#SimHei-61"/><use x="800" xlink:href="#SimHei-74"/><use x="850" xlink:href="#SimHei-65"/></g></g></g><g id="line2d_13"><path d="M 57.557727 275.466 L 57.557727 269.706 L 57.557727 194.826 L 63.722054 194.826 L 63.722054 177.546 L 69.886381 177.546 L 69.886381 171.786 L 73.995932 171.786 L 73.995932 160.266 L 76.050708 160.266 L 76.050708 154.506 L 78.105483 154.506 L 78.105483 131.466 L 80.160259 131.466 L 80.160259 125.706 L 84.26981 125.706 L 84.26981 102.666 L 86.324586 102.666 L 86.324586 91.146 L 88.379361 91.146 L 88.379361 85.386 L 115.091444 85.386 L 115.091444 79.626 L 123.310547 79.626 L 123.310547 73.866 L 158.241732 73.866 L 158.241732 68.106 L 187.00859 68.106 L 187.00859 62.346 L 211.665898 62.346 L 211.665898 56.586 L 213.720673 56.586 L 213.720673 50.826 L 234.268429 50.826 L 234.268429 45.066 L 283.583044 45.066 L 283.583044 39.306 L 351.390639 39.306 L 351.390639 33.546 L 382.212273 33.546" clip-path="url(#pdba06589b7)" style="fill:none;stroke:#1f77b4;stroke-width:2;stroke-linecap:square"/></g><g id="line2d_14"><path d="M 57.557727 275.466 L 57.557727 269.706 L 57.557727 194.826 L 63.722054 194.826 L 63.722054 177.546 L 71.941157 177.546 L 71.941157 171.786 L 73.995932 171.786 L 73.995932 160.266 L 78.105483 160.266 L 78.105483 148.746 L 80.160259 148.746 L 80.160259 142.986 L 82.215035 142.986 L 82.215035 119.946 L 84.26981 119.946 L 84.26981 108.426 L 88.379361 108.426 L 88.379361 96.906 L 92.488913 96.906 L 92.488913 91.146 L 102.762791 91.146 L 102.762791 85.386 L 115.091444 85.386 L 115.091444 79.626 L 117.14622 79.626 L 117.14622 73.866 L 164.406059 73.866 L 164.406059 68.106 L 201.39202 68.106 L 201.39202 62.346 L 213.720673 62.346 L 213.720673 56.586 L 217.830224 56.586 L 217.830224 50.826 L 244.542307 50.826 L 244.542307 45.066 L 281.528268 45.066 L 281.528268 39.306 L 351.390639 39.306 L 351.390639 33.546 L 382.212273 33.546" clip-path="url(#pdba06589b7)" style="fill:none;stroke:#ff7f0e;stroke-width:2;stroke-linecap:square"/></g><g id="line2d_15"><path d="M 57.557727 275.466 L 57.557727 269.706 L 57.557727 194.826 L 63.722054 194.826 L 63.722054 177.546 L 67.831605 177.546 L 67.831605 171.786 L 71.941157 171.786 L 71.941157 154.506 L 78.105483 154.506 L 78.105483 131.466 L 80.160259 131.466 L 80.160259 125.706 L 82.215035 125.706 L 82.215035 119.946 L 90.434137 119.946 L 90.434137 108.426 L 98.653239 108.426 L 98.653239 102.666 L 100.708015 102.666 L 100.708015 85.386 L 113.036669 85.386 L 113.036669 79.626 L 125.365322 79.626 L 125.365322 73.866 L 164.406059 73.866 L 164.406059 68.106 L 174.679937 68.106 L 174.679937 62.346 L 189.063366 62.346 L 189.063366 56.586 L 219.885 56.586 L 219.885 50.826 L 226.049327 50.826 L 226.049327 45.066 L 293.856922 45.066 L 293.856922 39.306 L 347.281087 39.306 L 347.281087 33.546 L 382.212273 33.546" clip-path="url(#pdba06589b7)" style="fill:none;stroke:#2ca02c;stroke-width:2;stroke-linecap:square"/></g><g id="line2d_16"><path d="M 57.557727 275.466 L 57.557727 269.706 L 57.557727 212.106 L 59.612503 212.106 L 59.612503 189.066 L 61.667278 189.066 L 61.667278 183.306 L 63.722054 183.306 L 63.722054 177.546 L 67.831605 177.546 L 67.831605 171.786 L 69.886381 171.786 L 69.886381 166.026 L 71.941157 166.026 L 71.941157 160.266 L 73.995932 160.266 L 73.995932 131.466 L 84.26981 131.466 L 84.26981 125.706 L 86.324586 125.706 L 86.324586 96.906 L 92.488913 96.906 L 92.488913 79.626 L 121.255771 79.626 L 121.255771 73.866 L 150.022629 73.866 L 150.022629 68.106 L 170.570386 68.106 L 170.570386 62.346 L 221.939776 62.346 L 221.939776 56.586 L 228.104102 56.586 L 228.104102 50.826 L 236.323205 50.826 L 236.323205 45.066 L 289.747371 45.066 L 289.747371 39.306 L 353.445414 39.306 L 353.445414 33.546 L 382.212273 33.546" clip-path="url(#pdba06589b7)" style="fill:none;stroke:#d62728;stroke-width:2;stroke-linecap:square"/></g><g id="line2d_17"><path d="M 57.557727 275.466 L 382.212273 33.546" clip-path="url(#pdba06589b7)" style="fill:none;stroke-dasharray:7.4,3.2;stroke-dashoffset:0;stroke:navy;stroke-width:2"/></g><g id="patch_3"><path d="M 41.325 287.562 L 41.325 21.45" style="fill:none;stroke:#000;stroke-width:.8;stroke-linejoin:miter;stroke-linecap:square"/></g><g id="patch_4"><path d="M 398.445 287.562 L 398.445 21.45" style="fill:none;stroke:#000;stroke-width:.8;stroke-linejoin:miter;stroke-linecap:square"/></g><g id="patch_5"><path d="M 41.325 287.562 L 398.445 287.562" style="fill:none;stroke:#000;stroke-width:.8;stroke-linejoin:miter;stroke-linecap:square"/></g><g id="patch_6"><path d="M 41.325 21.45 L 398.445 21.45" style="fill:none;stroke:#000;stroke-width:.8;stroke-linejoin:miter;stroke-linecap:square"/></g><g id="text_15"><g transform="translate(192.885 15.45)scale(0.12 -0.12)"><defs><path id="SimHei-4f" d="M 2950 2275 Q 2950 1100 2587 587 Q 2225 75 1575 75 Q 925 75 550 587 Q 175 1100 175 2275 Q 175 3450 550 3950 Q 925 4450 1575 4450 Q 2225 4450 2587 3950 Q 2950 3450 2950 2275 z M 2350 2275 Q 2350 3325 2125 3650 Q 1900 3975 1575 3975 Q 1250 3975 1012 3650 Q 775 3325 775 2275 Q 775 1225 1012 887 Q 1250 550 1575 550 Q 1900 550 2125 887 Q 2350 1225 2350 2275 z" transform="scale(0.015625)"/><path id="SimHei-43" d="M 2975 1825 Q 2950 875 2575 475 Q 2200 75 1675 75 Q 1075 75 650 562 Q 225 1050 225 2125 Q 225 3300 637 3875 Q 1050 4450 1700 4450 Q 2250 4450 2612 4037 Q 2975 3625 2950 2875 L 2400 2875 Q 2400 3425 2225 3700 Q 2050 3975 1700 3975 Q 1300 3975 1062 3562 Q 825 3150 825 2175 Q 825 1275 1062 912 Q 1300 550 1675 550 Q 1950 550 2175 812 Q 2400 1075 2400 1825 L 2975 1825 z" transform="scale(0.015625)"/></defs><use xlink:href="#SimHei-52"/><use x="50" xlink:href="#SimHei-4f"/><use x="100" xlink:href="#SimHei-43"/><use x="150" xlink:href="#SimHei-20"/><use x="200" xlink:href="#SimHei-43"/><use x="250" xlink:href="#SimHei-75"/><use x="300" xlink:href="#SimHei-72"/><use x="350" xlink:href="#SimHei-76"/><use x="400" xlink:href="#SimHei-65"/></g></g><g id="legend_1"><g id="patch_7"><path d="M 289.445 282.562 L 391.445 282.562 Q 393.445 282.562 393.445 280.562 L 393.445 225.382312 Q 393.445 223.382312 391.445 223.382312 L 289.445 223.382312 Q 287.445 223.382312 287.445 225.382312 L 287.445 280.562 Q 287.445 282.562 289.445 282.562 z" style="fill:#fff;opacity:.8;stroke:#ccc;stroke-linejoin:miter"/></g><g id="line2d_18"><path d="M 291.445 231.96825 L 301.445 231.96825 L 311.445 231.96825" style="fill:none;stroke:#1f77b4;stroke-width:2;stroke-linecap:square"/></g><g id="text_16"><g transform="translate(319.445 235.46825)scale(0.1 -0.1)"><defs><path id="SimHei-68af" d="M 4225 4225 Q 4500 4800 4600 5225 Q 4900 5100 5175 5025 Q 5025 4900 4887 4687 Q 4750 4475 4625 4225 L 5675 4225 Q 5650 3850 5650 3475 Q 5650 3100 5675 2750 L 4300 2750 L 4300 2025 L 5850 2025 Q 5825 1725 5825 1350 L 5825 675 Q 5825 350 5625 225 Q 5425 100 4950 25 Q 4925 275 4700 525 Q 5125 525 5262 575 Q 5400 625 5400 875 L 5400 1650 L 4300 1650 L 4300 450 Q 4300 -50 4325 -525 L 3850 -525 Q 3875 -100 3875 425 L 3875 1600 Q 3575 950 3187 537 Q 2800 125 2150 -325 Q 2050 -75 1775 100 Q 2375 375 2787 787 Q 3200 1200 3450 1650 L 2575 1650 Q 2650 2375 2700 3125 L 3875 3125 L 3875 3850 L 3325 3850 Q 2975 3850 2575 3825 L 2575 4250 Q 3000 4225 3325 4225 L 4225 4225 z M 1125 3725 Q 1125 4700 1100 5075 L 1625 5075 Q 1550 4725 1550 3725 Q 1975 3725 2250 3750 L 2250 3325 Q 1925 3350 1550 3350 L 1550 2375 Q 1750 2450 1950 2600 Q 2225 2100 2425 1725 Q 2200 1600 2000 1450 Q 1875 1800 1550 2275 L 1550 325 Q 1550 -75 1575 -525 L 1100 -525 Q 1125 -100 1125 325 L 1125 2275 Q 925 1675 525 975 Q 400 1225 200 1400 Q 425 1675 700 2275 Q 975 2875 1050 3350 Q 675 3350 350 3325 L 350 3750 Q 725 3725 1125 3725 z M 5200 3125 L 5200 3850 L 4300 3850 L 4300 3125 L 5200 3125 z M 3875 2025 L 3875 2750 L 3100 2750 L 3050 2025 L 3875 2025 z M 3375 5225 Q 3575 4900 3750 4550 Q 3550 4475 3350 4325 Q 3200 4700 2975 5025 Q 3175 5100 3375 5225 z" transform="scale(0.015625)"/><path id="SimHei-5ea6" d="M 1750 1675 Q 2450 1650 2875 1650 L 5200 1650 Q 4975 1250 4650 850 Q 4325 450 4025 200 Q 4350 50 4950 -50 Q 5550 -150 6100 -150 Q 5950 -300 5825 -650 Q 5100 -550 4550 -412 Q 4000 -275 3625 -100 Q 3100 -325 2587 -462 Q 2075 -600 1525 -675 Q 1450 -475 1225 -250 Q 1675 -250 2250 -125 Q 2825 0 3250 200 Q 2825 550 2400 1275 L 1750 1250 L 1750 1675 z M 2975 5075 Q 3250 5150 3475 5250 Q 3625 4975 3775 4525 L 4700 4525 Q 4975 4525 5700 4550 L 5700 4100 Q 5000 4125 4650 4125 L 1375 4125 Q 1375 3000 1350 2312 Q 1325 1625 1212 950 Q 1100 275 725 -525 Q 500 -375 250 -300 Q 650 400 762 1075 Q 875 1750 887 2800 Q 900 3850 875 4525 L 3200 4525 Q 3100 4850 2975 5075 z M 2475 3300 Q 2475 3700 2450 3925 L 2975 3925 Q 2950 3725 2950 3300 L 4300 3300 Q 4300 3700 4275 3950 L 4800 3950 Q 4775 3650 4775 3300 Q 5325 3300 5725 3325 L 5725 2900 Q 5350 2925 4775 2925 Q 4775 2250 4800 1950 L 2450 1950 Q 2475 2350 2475 2925 Q 2175 2925 1600 2900 L 1600 3325 Q 2175 3300 2475 3300 z M 4300 2350 L 4300 2925 L 2950 2925 L 2950 2350 L 4300 2350 z M 2875 1275 Q 3200 775 3650 425 Q 4025 700 4425 1275 L 2900 1275 L 2875 1275 z" transform="scale(0.015625)"/><path id="SimHei-4e0b" d="M 5000 4700 Q 5475 4700 5975 4725 L 5975 4200 Q 5425 4225 5000 4225 L 3275 4225 L 3275 375 Q 3275 50 3300 -450 L 2725 -450 Q 2750 0 2750 375 L 2750 4225 L 1375 4225 Q 875 4225 400 4200 L 400 4725 Q 875 4700 1375 4700 L 5000 4700 z M 5650 1400 Q 5400 1225 5200 1000 Q 4800 1525 3650 2575 L 4025 2950 Q 4700 2400 5650 1400 z" transform="scale(0.015625)"/><path id="SimHei-964d" d="M 4075 5050 Q 3850 4800 3775 4625 L 5650 4625 Q 5425 4175 5187 3837 Q 4950 3500 4650 3200 Q 4900 3025 5275 2925 Q 5650 2825 6200 2800 Q 6025 2525 5975 2300 Q 5375 2400 4950 2562 Q 4525 2725 4275 2900 Q 3950 2700 3550 2500 Q 3150 2300 2525 2125 Q 2450 2350 2250 2550 Q 2775 2650 3212 2825 Q 3650 3000 3875 3200 Q 3550 3525 3325 3875 Q 3000 3450 2825 3275 Q 2650 3450 2450 3550 Q 2775 3850 3075 4325 Q 3375 4800 3575 5300 Q 3950 5100 4075 5050 z M 2350 4975 Q 2225 4650 2025 4062 Q 1825 3475 1675 2975 Q 2075 2450 2200 2175 Q 2325 1900 2287 1550 Q 2250 1200 2012 1012 Q 1775 825 1350 775 Q 1300 1025 1150 1325 Q 1650 1300 1737 1512 Q 1825 1725 1787 1962 Q 1750 2200 1200 2925 L 1450 3600 Q 1600 4025 1725 4550 L 975 4550 L 975 -600 L 500 -600 Q 525 325 525 875 L 525 3750 Q 525 4325 500 4975 L 2350 4975 z M 5100 2075 Q 5275 2075 5725 2100 L 5725 1650 Q 5450 1675 5150 1675 L 4575 1675 L 4575 900 L 5200 900 Q 5675 900 6050 925 L 6050 475 Q 5700 500 5225 500 L 4575 500 L 4575 125 Q 4575 -250 4600 -600 L 4100 -600 Q 4125 -225 4125 100 L 4125 500 L 2375 500 Q 2500 1100 2500 1400 L 3025 1325 Q 2925 1025 2925 900 L 4125 900 L 4125 1675 L 3475 1675 Q 3100 1675 2775 1650 L 2775 2100 Q 3225 2075 3475 2075 L 4125 2075 Q 4125 2375 4100 2625 L 4575 2625 Q 4550 2225 4550 2075 L 5100 2075 z M 4275 3475 Q 4600 3725 4925 4250 L 3550 4250 Q 4025 3650 4275 3475 z" transform="scale(0.015625)"/><path id="SimHei-6cd5" d="M 6075 -300 Q 5850 -425 5625 -625 Q 5450 -300 5325 -125 Q 4525 -175 3587 -262 Q 2650 -350 2325 -450 Q 2250 -150 2125 75 Q 2450 175 2825 725 Q 3200 1275 3500 2100 L 2800 2100 Q 2350 2100 1950 2075 L 1950 2525 Q 2350 2500 2825 2500 L 3725 2500 L 3725 3600 L 3150 3600 Q 2675 3600 2325 3575 L 2325 4025 Q 2725 4000 3125 4000 L 3725 4000 Q 3725 4700 3700 5150 L 4250 5150 Q 4225 4775 4225 4000 L 4975 4000 Q 5350 4000 5750 4025 L 5750 3575 Q 5350 3600 5025 3600 L 4225 3600 L 4225 2500 L 5125 2500 Q 5575 2500 6025 2525 L 6025 2075 Q 5575 2100 5125 2100 L 3850 2100 L 4100 1950 Q 3950 1775 3625 1200 Q 3300 625 2900 100 Q 4000 150 5075 225 Q 4775 675 4450 1025 Q 4650 1175 4825 1350 Q 5275 800 6075 -300 z M 300 -250 Q 650 100 1012 625 Q 1375 1150 1725 1725 Q 1850 1500 2075 1375 Q 1850 1075 1500 487 Q 1150 -100 850 -625 Q 650 -425 300 -250 z M 675 3425 Q 1200 3100 1800 2650 Q 1575 2500 1400 2250 Q 925 2675 350 3050 Q 525 3200 675 3425 z M 1050 4900 Q 1550 4575 2100 4125 Q 1900 3975 1725 3725 Q 1250 4175 725 4525 Q 900 4700 1050 4900 z" transform="scale(0.015625)"/></defs><use xlink:href="#SimHei-68af"/><use x="100" xlink:href="#SimHei-5ea6"/><use x="200" xlink:href="#SimHei-4e0b"/><use x="300" xlink:href="#SimHei-964d"/><use x="400" xlink:href="#SimHei-6cd5"/></g></g><g id="line2d_19"><path d="M 291.445 246.304187 L 301.445 246.304187 L 311.445 246.304187" style="fill:none;stroke:#ff7f0e;stroke-width:2;stroke-linecap:square"/></g><g id="text_17"><g transform="translate(319.445 249.804187)scale(0.1 -0.1)"><defs><path id="SimHei-968f" d="M 4050 4425 Q 4325 5025 4350 5300 Q 4675 5150 4950 5075 Q 4825 4925 4525 4400 L 5350 4400 Q 5725 4400 6075 4425 L 6075 4000 Q 5775 4025 5350 4025 L 4400 4025 Q 4200 3675 3975 3350 L 5800 3350 Q 5775 3000 5775 2525 L 5775 850 Q 5775 600 5612 525 Q 5450 450 5050 375 Q 5025 600 4900 850 Q 5350 775 5300 1250 L 4175 1250 L 4175 425 L 3700 425 Q 3725 775 3725 1200 L 3725 3000 L 3550 2725 Q 3350 2900 3125 3000 Q 3525 3350 3875 4025 Q 3675 4025 3325 4000 L 3325 4450 Q 3675 4425 4050 4425 z M 2225 4900 Q 2125 4725 1575 2925 Q 1875 2525 2037 2150 Q 2200 1775 2187 1462 Q 2175 1150 1900 937 Q 1625 725 1325 650 Q 1275 875 1075 1200 Q 1500 1200 1612 1350 Q 1725 1500 1625 1900 Q 1525 2300 1075 2875 Q 1475 4025 1575 4550 L 875 4550 L 875 -625 L 400 -625 Q 425 0 425 675 L 425 3800 Q 425 4425 400 4900 L 2225 4900 z M 3100 2825 Q 3075 2475 3075 2050 L 3075 525 Q 3125 300 3750 175 Q 4375 50 4787 37 Q 5200 25 5500 37 Q 5800 50 6175 125 Q 6025 -150 6025 -425 Q 5350 -425 4837 -387 Q 4325 -350 3912 -262 Q 3500 -175 3200 -25 Q 2900 125 2737 -12 Q 2575 -150 2300 -475 Q 2150 -275 1950 -125 Q 2275 175 2625 400 L 2625 2425 L 2175 2425 L 2175 2850 Q 2425 2825 3100 2825 z M 5300 1600 L 5300 2125 L 4175 2125 L 4175 1600 L 5300 1600 z M 5300 2475 L 5300 3000 L 4175 3000 L 4175 2475 L 5300 2475 z M 2750 4575 Q 2975 4000 3125 3425 Q 2875 3400 2625 3275 Q 2500 3900 2275 4425 Q 2525 4475 2750 4575 z" transform="scale(0.015625)"/><path id="SimHei-673a" d="M 5100 4775 Q 5075 4075 5075 3575 L 5075 325 Q 5075 0 5225 -25 Q 5375 -50 5475 -37 Q 5575 -25 5612 137 Q 5650 300 5650 625 Q 5875 500 6175 425 Q 6075 -100 5975 -275 Q 5875 -450 5650 -450 L 5125 -450 Q 4825 -450 4687 -312 Q 4550 -175 4575 250 L 4575 4350 L 3625 4350 Q 3625 2925 3587 2137 Q 3550 1350 3362 712 Q 3175 75 2625 -575 Q 2500 -425 2175 -175 Q 2525 100 2737 500 Q 2950 900 3025 1325 Q 3100 1750 3125 2225 Q 3150 2700 3150 3425 Q 3150 4175 3125 4775 L 5100 4775 z M 2150 2725 Q 2550 2175 2750 1875 Q 2575 1725 2325 1550 Q 2175 1875 1800 2425 L 1800 600 Q 1800 100 1825 -525 L 1275 -525 Q 1300 100 1300 600 L 1300 2200 Q 1175 1825 1025 1487 Q 875 1150 600 725 Q 375 975 200 1125 Q 400 1350 725 2000 Q 1050 2650 1225 3450 L 1075 3450 Q 725 3450 375 3400 L 375 3875 Q 725 3850 1050 3850 L 1300 3850 L 1300 4350 Q 1300 4750 1275 5100 L 1850 5100 Q 1800 4850 1800 4350 L 1800 3850 L 2075 3850 Q 2350 3850 2700 3875 L 2700 3425 Q 2150 3450 1800 3450 L 1800 2450 Q 1950 2575 2150 2725 z" transform="scale(0.015625)"/></defs><use xlink:href="#SimHei-968f"/><use x="100" xlink:href="#SimHei-673a"/><use x="200" xlink:href="#SimHei-68af"/><use x="300" xlink:href="#SimHei-5ea6"/><use x="400" xlink:href="#SimHei-4e0b"/><use x="500" xlink:href="#SimHei-964d"/><use x="600" xlink:href="#SimHei-6cd5"/></g></g><g id="line2d_20"><path d="M 291.445 260.562 L 301.445 260.562 L 311.445 260.562" style="fill:none;stroke:#2ca02c;stroke-width:2;stroke-linecap:square"/></g><g id="text_18"><g transform="translate(319.445 264.062)scale(0.1 -0.1)"><defs><path id="SimHei-5750" d="M 3450 5100 Q 3425 4675 3425 4150 L 3425 1500 L 4550 1500 Q 4975 1500 5450 1525 L 5450 1075 Q 5000 1100 4500 1100 L 3425 1100 L 3425 50 L 5075 50 Q 5500 50 5975 75 L 5975 -375 Q 5525 -350 5075 -350 L 1475 -350 Q 925 -350 400 -375 L 400 75 Q 925 50 1475 50 L 2925 50 L 2925 1100 L 2050 1100 Q 1450 1100 950 1075 L 950 1525 Q 1450 1500 2050 1500 L 2925 1500 L 2925 4150 Q 2925 4675 2900 5100 L 3450 5100 z M 5200 4450 Q 5050 4250 4825 3600 Q 5200 3300 5975 2500 Q 5775 2400 5575 2150 Q 5075 2800 4650 3150 Q 4375 2500 3975 1925 Q 3725 2125 3525 2200 Q 3875 2575 4212 3362 Q 4550 4150 4600 4650 Q 4900 4525 5200 4450 z M 350 2150 Q 600 2375 950 3087 Q 1300 3800 1450 4575 Q 1625 4475 2050 4400 Q 1950 4275 1862 4050 Q 1775 3825 1700 3575 Q 2400 2950 2700 2475 Q 2425 2325 2250 2150 Q 2025 2550 1887 2725 Q 1750 2900 1500 3125 Q 1250 2525 800 1875 Q 575 2050 350 2150 z" transform="scale(0.015625)"/><path id="SimHei-6807" d="M 1275 4400 Q 1275 4800 1250 5175 L 1750 5175 Q 1725 4825 1725 4400 L 1725 3800 Q 2125 3800 2575 3825 L 2575 3350 Q 2125 3375 1725 3375 L 1725 2525 Q 1900 2650 2075 2800 Q 2400 2275 2650 1775 Q 2375 1650 2175 1500 Q 2025 2000 1725 2425 L 1725 475 Q 1725 -50 1750 -575 L 1250 -575 Q 1275 -25 1275 475 L 1275 2100 Q 1025 1400 500 750 Q 350 950 125 1125 Q 550 1550 812 2187 Q 1075 2825 1150 3375 Q 675 3375 325 3325 L 325 3825 Q 800 3800 1275 3800 L 1275 4400 z M 5175 3125 Q 5675 3125 6050 3150 L 6050 2675 Q 5675 2700 5275 2700 L 4500 2700 L 4500 175 Q 4500 -225 4275 -350 Q 4050 -475 3475 -550 Q 3425 -250 3275 25 Q 3775 25 3900 62 Q 4025 100 4025 350 L 4025 2700 L 3400 2700 Q 2775 2700 2500 2650 L 2500 3150 Q 2825 3125 3400 3125 L 5175 3125 z M 4900 4775 Q 5425 4775 5750 4800 L 5750 4300 Q 5275 4350 4750 4350 L 3525 4350 Q 3125 4350 2750 4300 L 2750 4800 Q 3100 4775 3525 4775 L 4900 4775 z M 5275 2025 Q 5825 1175 6200 500 Q 5925 375 5650 200 Q 5375 925 4825 1725 Q 5075 1850 5275 2025 z M 3600 1775 Q 3500 1625 3225 975 Q 2950 325 2800 50 Q 2575 175 2300 275 Q 2625 775 2787 1187 Q 2950 1600 3050 2000 Q 3325 1875 3600 1775 z" transform="scale(0.015625)"/></defs><use xlink:href="#SimHei-5750"/><use x="100" xlink:href="#SimHei-6807"/><use x="200" xlink:href="#SimHei-4e0b"/><use x="300" xlink:href="#SimHei-964d"/><use x="400" xlink:href="#SimHei-6cd5"/></g></g><g id="line2d_21"><path d="M 291.445 273.812 L 301.445 273.812 L 311.445 273.812" style="fill:none;stroke:#d62728;stroke-width:2;stroke-linecap:square"/></g><g id="text_19"><g transform="translate(319.445 277.312)scale(0.1 -0.1)"><defs><path id="SimHei-4d" d="M 2925 125 L 2425 125 L 2425 3175 L 2375 3175 L 1775 125 L 1375 125 L 775 3175 L 725 3175 L 725 125 L 225 125 L 225 4400 L 1000 4400 L 1550 1575 L 1600 1575 L 2150 4400 L 2925 4400 L 2925 125 z" transform="scale(0.015625)"/></defs><use xlink:href="#SimHei-4d"/><use x="50" xlink:href="#SimHei-43"/><use x="100" xlink:href="#SimHei-4d"/><use x="150" xlink:href="#SimHei-43"/></g></g></g></g></g><defs><clipPath id="pdba06589b7"><rect width="357.12" height="266.112" x="41.325" y="21.45"/></clipPath></defs></svg>