<svg xmlns="http://www.w3.org/2000/svg" xmlns:xlink="http://www.w3.org/1999/xlink" width="444.877" height="353.088" stroke-linejoin="round" viewBox="0 0 333.658 264.816"><defs stroke-linejoin="round"><clipPath id="a" stroke-linejoin="round"><path d="m47.457813 7.2h279v221.76h-279z"/></clipPath><path id="b" stroke="#000" stroke-linejoin="round" stroke-width=".8" d="m0 0v3.5"/><path id="c" stroke-linejoin="round" d="m25 66.015625q-5.46875 0-9.1875-8.40625-3.703125-8.390625-3.703125-22.453125 0-14.84375 3.703125-23.046875 3.71875-8.203125 9.1875-8.203125 5.859375 0 9.171875 8.203125 3.328125 8.203125 3.328125 23.046875 0 14.0625-3.125 22.453125-3.125 8.40625-9.375 8.40625zm0-65.234375q-8.59375 0-14.453125 8.984375-5.859375 8.984375-5.859375 25.390625 0 15.234375 5.65625 24.609375 5.671875 9.375 14.65625 9.375 8.59375 0 14.25-8.984375 5.671875-8.984375 5.671875-25 0-16.015625-5.671875-25.203125-5.65625-9.171875-14.25-9.171875z"/><path id="d" stroke-linejoin="round" d="m36.328125 51.953125q0 7.03125-3.125 10.734375-3.125 3.71875-9.375 3.71875-4.6875 0-8.015625-2.546875-3.3125-2.53125-3.3125-6.4375 0-2.34375 1.5625-3.90625 1.171875-1.5625 1.171875-3.125 0-1.953125-.984375-2.9375-.96875-.96875-2.921875-.96875-2.34375 0-3.71875 1.359375-1.359375 1.375-1.359375 4.5 0 8.203125 5.859375 12.5 5.859375 4.296875 12.5 4.296875 9.375 0 13.859375-4.6875 4.5-4.6875 4.5-11.71875 0-4.6875-2.15625-9.375-2.140625-4.6875-6.828125-8.984375-11.328125-10.9375-17.390625-17.78125-6.046875-6.828125-7.21875-9.171875h23.046875q3.515625 0 5.859375 2.734375 2.34375 2.734375 3.125 8.203125h2.34375l-2.34375-16.796875h-36.328125v5.078125q1.953125 3.515625 6.4375 8.984375 4.5 5.46875 11.921875 12.890625 6.640625 6.640625 9.765625 12.5 3.125 5.859375 3.125 10.9375z"/><path id="e" stroke-linejoin="round" d="m28.515625 69.53125v-59.375q0-3.125 1.953125-4.6875 1.953125-1.5625 5.46875-1.5625h3.90625v-2.34375h-28.515625v2.34375h3.515625q3.90625 0 5.65625 1.5625 1.765625 1.5625 1.765625 4.6875v47.265625q0 1.5625-.984375 2.53125-.96875.984375-2.921875.984375h-7.03125v2.34375h3.515625q4.6875 0 7.609375 1.5625 2.9375 1.5625 4.5 4.6875z"/><path id="f" stroke="#000" stroke-linejoin="round" stroke-width=".8" d="m0 0h-3.5"/><path id="g" stroke-linejoin="round" d="m12.5.390625q-2.34375 0-4.109375 1.5625-1.75 1.5625-1.75 4.296875 0 2.734375 1.75 4.296875 1.765625 1.5625 4.109375 1.5625 2.34375 0 4.09375-1.765625 1.765625-1.75 1.765625-4.09375 0-2.734375-1.765625-4.296875-1.75-1.5625-4.09375-1.5625z"/><path id="h" stroke-linejoin="round" d="m26.953125 44.53125q7.421875 0 12.109375-5.671875 4.6875-5.65625 4.6875-15.03125 0-10.546875-4.890625-16.796875-4.875-6.25-15.03125-6.25-7.03125 0-12.5 4.09375-5.46875 4.109375-5.46875 9.96875 0 2.34375 1.359375 4.09375 1.375 1.765625 3.71875 1.765625 2.34375 0 3.125-1.5625.78125-1.5625.78125-2.734375 0-2.34375-1.171875-3.515625-1.171875-1.5625-1.171875-3.125 0-3.125 3.703125-4.6875 3.71875-1.5625 8.015625-1.5625 6.25 0 9.5625 5.078125 3.328125 5.078125 3.328125 14.453125 0 7.8125-2.9375 12.6875-2.921875 4.890625-8.78125 4.890625-4.296875 0-7.421875-1.5625-3.125-1.5625-5.859375-6.640625l-3.515625.390625 1.953125 35.546875h32.03125l-1.171875-5.859375h-28.125l-1.5625-25.78125q3.90625 5.46875 7.609375 6.640625 3.71875 1.171875 7.625 1.171875z"/><path id="i" stroke-linejoin="round" d="m44.140625 65.625q-8.203125-13.28125-13.09375-25.984375-4.875-12.6875-4.875-22.0625 0-1.5625.390625-4.296875 0-3.125 0-7.03125 0-3.125-.984375-4.296875-.96875-1.171875-3.3125-1.171875-1.953125 0-3.328125 1.359375-1.359375 1.375-1.359375 4.890625 0 7.421875 3.3125 18.359375 3.328125 10.9375 17.78125 37.109375h-19.53125q-4.296875 0-6.84375-2.734375-2.53125-2.734375-3.703125-8.203125l-2.34375.390625 2.734375 16.40625h35.15625z"/><path id="j" stroke="red" stroke-linejoin="round" d="m0 3c.795609 0 1.55874-.316099 2.12132-.87868.562581-.56258.87868-1.325711.87868-2.12132s-.316099-1.55874-.87868-2.12132c-.56258-.562581-1.325711-.87868-2.12132-.87868s-1.55874.316099-2.12132.87868c-.562581.56258-.87868 1.325711-.87868 2.12132s.316099 1.55874.87868 2.12132c.56258.562581 1.325711.87868 2.12132.87868z"/><path id="k" stroke="#00f" stroke-linejoin="round" d="m0 3c.795609 0 1.55874-.316099 2.12132-.87868.562581-.56258.87868-1.325711.87868-2.12132s-.316099-1.55874-.87868-2.12132c-.56258-.562581-1.325711-.87868-2.12132-.87868s-1.55874.316099-2.12132.87868c-.562581.56258-.87868 1.325711-.87868 2.12132s.316099 1.55874.87868 2.12132c.56258.562581 1.325711.87868 2.12132.87868z"/></defs><g stroke-linejoin="round"><path fill="#fff" d="m0 264.81625h333.657813v-264.81625h-333.657813z"/><g><path fill="#fff" stroke-linejoin="round" d="m47.457813 228.96h278.999999v-221.76h-278.999999z"/><g stroke-linejoin="round"><g><use x="60.14" y="228.96" stroke="#000" stroke-width=".8" xlink:href="#b"/><use transform="matrix(.1 0 0 -.1 57.639631 243.108437)" xlink:href="#c"/></g><g><use x="105.432" y="228.96" stroke="#000" stroke-width=".8" xlink:href="#b"/><g transform="matrix(.1 0 0 -.1 100.431838 243.108437)"><use xlink:href="#d"/><use x="50" xlink:href="#c"/></g></g><g><use x="150.724" y="228.96" stroke="#000" stroke-width=".8" xlink:href="#b"/><g transform="matrix(.1 0 0 -.1 145.724046 243.108437)"><path d="m35.9375 8.984375q0-2.734375 1.5625-3.90625 1.5625-1.171875 4.296875-1.171875h3.515625v-2.34375h-25.78125v2.34375h4.296875q3.125 0 4.484375 1.171875 1.375 1.171875 1.375 3.90625v12.890625h-26.171875v1.953125l28.515625 45.3125h3.90625v-44.921875h10.546875v-2.34375h-10.546875zm-6.640625 50.390625-22.265625-35.15625h22.65625v35.15625z"/><use x="50" xlink:href="#c"/></g></g><g><use x="196.016" y="228.96" stroke="#000" stroke-width=".8" xlink:href="#b"/><g transform="matrix(.1 0 0 -.1 191.016254 243.108437)"><path d="m12.109375 28.125q0-11.71875 4.09375-18.171875 4.109375-6.4375 9.96875-6.4375 5.859375 0 8.984375 4.296875 3.125 4.296875 3.125 16.015625 0 7.8125-3.328125 12.109375-3.3125 4.296875-8 4.296875-4.296875 0-8.015625-2.546875-3.703125-2.53125-6.828125-9.5625zm15.234375 16.015625q9.375 0 13.46875-6.25 4.109375-6.25 4.109375-14.0625 0-11.71875-5.671875-17.390625-5.65625-5.65625-13.078125-5.65625-10.546875 0-16.015625 8-5.46875 8.015625-5.46875 23.25 0 17.96875 6.640625 27.53125 6.640625 9.578125 17.96875 9.578125 5.46875 0 8.78125-3.125 3.328125-3.125 3.328125-5.46875 0-2.34375-.984375-3.515625-.96875-1.171875-3.3125-1.171875-1.953125 0-2.9375.96875-.96875.984375-.96875 2.9375 0 .78125.390625 1.5625 0 .78125 0 1.5625 0 1.5625-1.171875 2.53125-1.171875.984375-4.296875.984375-6.640625 0-11.328125-6.0625-4.6875-6.046875-4.6875-26.359375 2.34375 5.078125 6.4375 7.609375 4.109375 2.546875 8.796875 2.546875z"/><use x="50" xlink:href="#c"/></g></g><g><use x="241.308" y="228.96" stroke="#000" stroke-width=".8" xlink:href="#b"/><g transform="matrix(.1 0 0 -.1 236.308462 243.108437)"><path d="m9.765625 17.578125q0-6.25 4.09375-10.15625 4.109375-3.90625 10.359375-3.90625 7.421875 0 10.734375 3.90625 3.328125 3.90625 3.328125 9.765625 0 5.078125-4.6875 9.765625-4.6875 4.6875-14.0625 8.59375-4.6875-3.125-7.234375-7.8125-2.53125-4.6875-2.53125-10.15625zm34.375.78125q0-7.421875-5.46875-12.5-5.46875-5.078125-14.453125-5.078125-8.203125 0-14.0625 5.078125-5.859375 5.078125-5.859375 11.71875 0 6.640625 3.3125 11.328125 3.328125 4.6875 9.578125 8.203125-5.46875 2.734375-8.40625 6.828125-2.921875 4.109375-2.921875 9.1875 0 6.640625 5.078125 11.328125 5.078125 4.6875 14.0625 4.6875 8.203125 0 13.28125-4.6875 5.078125-4.6875 5.078125-11.328125 0-4.6875-2.9375-8.796875-2.921875-4.09375-9.171875-7.21875 6.640625-3.90625 9.765625-8.59375 3.125-4.6875 3.125-10.15625zm-6.25 34.375q0 5.46875-3.125 9.5625-3.125 4.109375-9.765625 4.109375-7.421875 0-10.546875-3.90625-3.125-3.90625-3.125-8.203125 0-4.296875 4.484375-8.40625 4.5-4.09375 12.703125-7.21875 4.6875 2.34375 7.03125 5.859375 2.34375 3.515625 2.34375 8.203125z"/><use x="50" xlink:href="#c"/></g></g><g><use x="286.601" y="228.96" stroke="#000" stroke-width=".8" xlink:href="#b"/><g transform="matrix(.1 0 0 -.1 279.10067 243.108437)"><use xlink:href="#e"/><use x="50" xlink:href="#c"/><use x="100" xlink:href="#c"/></g></g><g><path d="m63.671875 37.890625-1.5625-6.25q16.796875-7.8125 21.484375-11.71875 4.6875-3.90625 4.6875-7.421875 0-1.5625-.78125-3.328125-.78125-1.75-1.5625-1.75-1.171875 0-3.125 3.515625-3.515625 5.46875-9.375 10.34375-5.859375 4.890625-11.71875 9.1875-7.03125-16.40625-27.734375-23.828125l-.78125 1.171875q21.875 11.71875 25 30.078125h-16.40625q-3.515625 0-7.8125-1.171875l-3.515625 3.515625h28.125q1.171875 8.984375 1.171875 18.359375h-14.453125q-4.6875-9.375-11.71875-16.015625l-.78125.78125q4.6875 7.8125 7.21875 15.03125 2.546875 7.234375 3.71875 15.4375l7.421875-3.90625q-2.34375-1.953125-5.078125-8.984375h13.671875q0 7.8125-.390625 19.53125l8.984375-3.90625-3.125-2.734375v-12.890625h11.328125l4.6875 4.6875 6.640625-7.03125h-22.65625q-.390625-11.328125-1.171875-18.359375h18.75l4.6875 4.6875 6.640625-7.03125zm-39.0625-24.21875q3.515625-3.90625 10.15625-8.203125 6.640625-4.296875 23.4375-4.890625 16.796875-.578125 37.5 2.15625v-1.5625q-7.03125-2.34375-7.421875-6.25-18.359375-.390625-30.078125.203125-11.71875.578125-18.171875 3.3125-6.4375 2.734375-11.125 7.8125-5.078125 5.078125-6.453125 5.46875-1.359375.390625-6.046875-4.296875-4.6875-4.6875-7.421875-9.375l-5.078125 5.46875q7.421875 5.078125 15.625 10.15625v32.03125h-5.078125q-3.125 0-7.421875-1.171875l-3.515625 3.515625h14.0625l4.6875 4.6875 6.640625-6.25-4.296875-2.34375zm-9.765625 64.84375.390625 1.171875q5.859375-3.125 9.375-5.859375 3.515625-2.734375 3.515625-5.671875 0-2.921875-1.375-4.09375-1.359375-1.171875-1.75-1.171875-1.5625 0-3.125 4.296875-1.953125 5.859375-7.03125 11.328125z" transform="matrix(.1 0 0 -.1 166.957812 256.327187)"/><path d="m86.71875-1.171875 5.078125 17.1875h1.5625q-1.5625-13.28125-.984375-17.1875.59375-3.90625 1.765625-7.03125.78125-1.953125-1.171875-1.953125-.78125 0-4.5.984375-3.703125.96875-11.515625 6.828125-7.8125 5.859375-12.890625 15.625-5.078125 9.765625-7.8125 33.203125l-16.015625-.78125-3.515625-1.171875-3.90625 3.125 23.046875 1.171875q-.78125 9.765625-1.171875 16.40625-.390625 6.640625-.78125 14.0625l9.375-4.6875-3.125-2.734375q.390625-15.234375 1.171875-22.65625l19.140625 1.171875 5.078125 5.078125 7.8125-6.640625-31.640625-1.953125q2.34375-23.046875 9.375-33.40625 7.03125-10.34375 15.625-14.640625zm-16.796875 74.609375.390625 1.5625q14.84375-5.078125 16.203125-7.8125 1.375-2.734375 1.375-3.90625 0-1.5625-1.171875-3.328125-1.171875-1.75-1.953125-1.75-1.5625 0-3.125 3.515625-3.125 5.078125-11.71875 11.71875zm-41.796875-25v-42.1875q0-6.25.390625-13.671875l-6.25-2.734375q.390625 9.765625.390625 16.015625v42.96875q-9.375-14.84375-17.96875-22.65625l-1.171875 1.171875q5.078125 6.640625 9.5625 14.25 4.5 7.625 8.984375 17.578125 4.5 9.96875 8.015625 22.859375l8.59375-5.46875q-3.125-1.5625-6.640625-8.59375-3.515625-7.421875-6.640625-13.28125l5.46875-3.515625z" transform="matrix(.1 0 0 -.1 166.957812 256.327187) translate(100)"/><path d="m76.171875 42.578125 6.25 13.671875h-32.03125q-3.125-5.46875-6.640625-11.140625-3.515625-5.65625-11.328125-13.46875l-1.171875 1.171875q8.984375 11.328125 14.453125 25.78125 5.46875 14.453125 6.640625 23.046875l9.375-4.6875q-3.125-1.5625-4.6875-5.078125-1.5625-3.515625-5.859375-13.28125h30.859375l4.296875 4.296875 7.03125-7.421875q-3.90625-.78125-6.640625-3.125-2.734375-2.34375-9.375-10.546875zm-12.890625 2.734375q-2.34375-26.171875-13.671875-38.484375-11.328125-12.296875-26.953125-16.984375l-.78125 1.171875q19.921875 8.984375 27.734375 23.234375 7.8125 14.265625 8.203125 38.875l8.984375-4.6875-2.34375-1.953125q2.734375-19.921875 10.734375-32.234375 8.015625-12.296875 20.90625-16.984375l-.390625-1.171875q-5.859375.390625-8.59375-3.90625-9.765625 7.421875-16.21875 20.703125-6.4375 13.28125-7.609375 32.421875zm-51.5625 32.03125q8.203125-4.296875 11.515625-7.8125 3.328125-3.515625 3.328125-5.859375 0-2.34375-1.765625-4.6875-1.75-2.34375-2.140625-2.34375-1.5625 0-2.734375 5.078125-1.953125 7.03125-8.984375 14.453125zm-5.078125-51.5625q2.734375-.390625 5.078125-.390625 3.515625 0 5.46875 1.5625 1.953125 1.5625 18.359375 40.234375l1.5625-.78125q-15.234375-39.84375-16.015625-41.40625-.78125-1.5625-.78125-6.453125 0-4.875 1.171875-13.078125 1.171875-8.59375-2.546875-8.203125-3.703125.390625-4.484375 2.34375-.78125 1.953125-.78125 3.515625 0 1.5625.78125 5.859375 1.171875 6.25.78125 9.5625-.390625 3.328125-8.59375 5.671875z" transform="matrix(.1 0 0 -.1 166.957812 256.327187) translate(200)"/><path d="m29.296875 23.828125q-3.125-5.078125-5.859375-9.765625 5.078125-1.171875 12.109375-2.734375 3.515625 3.90625 7.03125 12.5zm-16.015625 52.734375q7.421875-4.6875 8.984375-7.03125 1.5625-2.34375 1.5625-3.515625 0-1.953125-1.375-3.90625-1.359375-1.953125-2.140625-1.953125-1.171875 0-2.34375 3.90625-1.5625 5.46875-5.859375 11.71875zm33.59375 1.171875 7.03125-4.6875q-3.125-.78125-5.46875-3.90625-2.734375-3.125-8.984375-9.375l-1.171875.78125q7.421875 11.71875 8.59375 17.1875zm-17.578125 4.296875 8.59375-3.90625-3.125-2.734375v-17.96875h9.765625l4.296875 4.296875 6.640625-6.640625h-20.703125v-3.515625q8.984375-1.953125 11.125-3.71875 2.15625-1.75 2.15625-4.484375 0-1.171875-.390625-2.9375-.390625-1.75-1.171875-1.75-.78125 0-2.734375 2.734375-3.125 4.296875-8.984375 8.203125v-12.109375l-4.6875-3.125 5.46875-2.34375q-1.953125-.78125-5.078125-5.859375h12.109375l2.734375 3.515625 5.859375-5.078125-3.515625-1.953125q-3.90625-8.984375-7.03125-12.5 6.25-1.5625 8.390625-3.328125 2.15625-1.75 2.15625-4.484375 0-2.734375-1.171875-2.734375-1.171875 0-2.734375 1.5625-4.296875 3.125-9.765625 5.46875-13.671875-10.9375-32.421875-14.453125l-.390625 1.171875q17.96875 5.859375 28.125 15.234375-7.8125 2.734375-15.234375 3.90625 1.5625 2.34375 6.25 11.328125h-5.078125q-5.078125 0-9.375-1.171875l-3.515625 3.515625h18.75q1.5625 3.90625 3.125 9.375l1.953125-.78125v16.015625q-10.546875-12.109375-24.21875-18.75l-.78125 1.171875q14.453125 10.15625 21.875 21.875h-7.03125q-5.078125 0-9.375-1.171875l-3.515625 3.515625h23.046875q0 14.0625-.390625 24.609375zm32.03125-26.953125q1.953125-22.65625 9.375-37.890625 6.25 13.28125 7.8125 37.890625zm1.953125 26.953125 8.984375-5.078125q-3.125-1.171875-4.6875-4.6875-1.5625-3.515625-5.859375-14.84375h22.265625l4.6875 4.6875 7.03125-7.03125h-11.328125q-2.34375-28.90625-10.15625-42.96875 8.984375-10.9375 21.09375-13.671875v-1.5625q-7.421875-1.171875-7.8125-4.6875-10.15625 7.03125-16.796875 16.015625-12.890625-12.5-30.859375-18.359375l-.78125 1.171875q17.96875 8.203125 28.515625 21.484375-7.421875 18.359375-7.8125 40.234375-3.90625-10.15625-11.328125-19.140625l-1.171875.78125q9.375 15.625 16.015625 47.65625z" transform="matrix(.1 0 0 -.1 166.957812 256.327187) translate(300)"/></g></g><g stroke-linejoin="round"><g><use x="47.458" y="215.407" stroke="#000" stroke-width=".8" xlink:href="#f"/><g transform="matrix(.1 0 0 -.1 20.457813 218.980782)"><use xlink:href="#c"/><use x="50" xlink:href="#g"/><use x="100" xlink:href="#c"/><use x="150" xlink:href="#c"/></g></g><g><use x="47.458" y="190.641" stroke="#000" stroke-width=".8" xlink:href="#f"/><g transform="matrix(.1 0 0 -.1 20.457813 194.214962)"><use xlink:href="#c"/><use x="50" xlink:href="#g"/><use x="100" xlink:href="#d"/><use x="150" xlink:href="#h"/></g></g><g><use x="47.458" y="165.875" stroke="#000" stroke-width=".8" xlink:href="#f"/><g transform="matrix(.1 0 0 -.1 20.457813 169.449141)"><use xlink:href="#c"/><use x="50" xlink:href="#g"/><use x="100" xlink:href="#h"/><use x="150" xlink:href="#c"/></g></g><g><use x="47.458" y="141.109" stroke="#000" stroke-width=".8" xlink:href="#f"/><g transform="matrix(.1 0 0 -.1 20.457813 144.683321)"><use xlink:href="#c"/><use x="50" xlink:href="#g"/><use x="100" xlink:href="#i"/><use x="150" xlink:href="#h"/></g></g><g><use x="47.458" y="116.343" stroke="#000" stroke-width=".8" xlink:href="#f"/><g transform="matrix(.1 0 0 -.1 20.457813 119.9175)"><use xlink:href="#e"/><use x="50" xlink:href="#g"/><use x="100" xlink:href="#c"/><use x="150" xlink:href="#c"/></g></g><g><use x="47.458" y="91.577" stroke="#000" stroke-width=".8" xlink:href="#f"/><g transform="matrix(.1 0 0 -.1 20.457813 95.15168)"><use xlink:href="#e"/><use x="50" xlink:href="#g"/><use x="100" xlink:href="#d"/><use x="150" xlink:href="#h"/></g></g><g><use x="47.458" y="66.812" stroke="#000" stroke-width=".8" xlink:href="#f"/><g transform="matrix(.1 0 0 -.1 20.457813 70.38586)"><use xlink:href="#e"/><use x="50" xlink:href="#g"/><use x="100" xlink:href="#h"/><use x="150" xlink:href="#c"/></g></g><g><use x="47.458" y="42.046" stroke="#000" stroke-width=".8" xlink:href="#f"/><g transform="matrix(.1 0 0 -.1 20.457813 45.620039)"><use xlink:href="#e"/><use x="50" xlink:href="#g"/><use x="100" xlink:href="#i"/><use x="150" xlink:href="#h"/></g></g><g><use x="47.458" y="17.28" stroke="#000" stroke-width=".8" xlink:href="#f"/><g transform="matrix(.1 0 0 -.1 20.457813 20.854219)"><use xlink:href="#d"/><use x="50" xlink:href="#g"/><use x="100" xlink:href="#c"/><use x="150" xlink:href="#c"/></g></g><g><path d="m79.296875.390625q0-3.90625.390625-7.8125l-6.25-2.34375v8.203125h-46.875v-6.25l-6.25-1.953125q.390625 6.640625.390625 38.28125 0 31.640625-.390625 37.890625l6.25-3.515625h11.71875q4.296875 9.765625 5.859375 18.75l9.375-4.296875q-3.515625-1.953125-7.234375-6.84375-3.703125-4.875-5.265625-7.609375h31.640625l3.125 4.6875 7.421875-5.46875-3.90625-3.125zm-52.734375 60.15625v-17.1875h46.875v17.1875zm0-19.53125v-19.53125h46.875v19.53125zm0-21.875v-18.359375h46.875v18.359375z" transform="matrix(0 -.1 -.1 0 15.16875 148.08)"/><path d="m42.96875 66.015625v-31.25h14.0625v31.25zm-37.109375 2.34375h42.578125q-.78125 5.859375-7.03125 12.890625l.78125 1.171875q7.03125-3.125 9.765625-5.46875 2.734375-2.34375 2.734375-3.515625 0-2.34375-3.125-5.078125h28.515625l6.25 6.25 8.59375-8.59375h-32.421875v-31.25h6.640625l3.90625 4.296875 6.640625-6.25-4.296875-1.953125q-8.203125-10.15625-20.3125-20.703125 15.234375-10.9375 40.625-12.890625v-1.5625q-5.859375-.78125-7.8125-4.6875-22.65625 5.078125-36.328125 16.015625-17.96875-11.71875-46.09375-16.40625l-.390625 1.5625q26.953125 6.25 42.96875 18.359375-8.59375 8.984375-15.234375 21.875h-7.03125l-4.296875-.78125-3.125 3.125h19.140625v31.25h-18.75q-5.078125 0-9.375-1.171875zm29.6875-35.9375q7.03125-11.328125 16.015625-19.140625 7.8125 7.03125 17.578125 19.140625zm-9.375 27.734375 7.03125-6.25-3.90625-1.5625q-11.328125-12.109375-24.21875-21.875l-1.171875 1.171875q7.03125 6.25 13.078125 14.25 6.0625 8.015625 9.1875 14.265625zm41.796875-2.34375q20.703125-10.15625 22.84375-12.890625 2.15625-2.734375 2.15625-4.6875 0-1.5625-.78125-3.125-.78125-1.5625-1.5625-1.5625-1.5625 0-4.6875 4.296875-4.6875 6.25-19.140625 16.796875z" transform="matrix(0 -.1 -.1 0 15.16875 148.08) translate(100)"/><path d="m26.5625 37.5v-8.203125h20.703125v8.203125zm25.78125 0v-8.203125h19.921875v8.203125zm-25.78125-10.546875v-7.8125h20.703125v7.8125zm25.78125 0v-7.8125h19.921875v7.8125zm25 9.375q0-15.234375.390625-20.3125l-5.46875-2.34375v3.125h-19.921875v-8.59375h21.09375l5.46875 4.6875 6.25-7.03125h-32.8125v-9.375h30.078125l5.859375 5.46875 6.640625-7.8125h-76.5625q-5.078125 0-9.375-1.171875l-3.515625 3.515625h41.796875v9.375h-20.3125q-5.078125 0-9.375-1.171875l-3.515625 3.515625h33.203125v8.59375h-20.703125v-2.34375l-5.46875-1.953125q.390625 7.8125.390625 15.421875 0 7.625-.390625 15.046875l5.46875-3.125h45.3125l2.34375 3.125 5.859375-4.296875zm-49.609375 38.671875v-6.640625h43.359375v6.640625zm0-8.984375v-7.03125h43.359375v7.03125zm48.4375 8.203125q0-14.453125.390625-19.140625l-5.46875-2.34375v3.90625h-43.359375v-3.515625l-5.46875-2.34375q.390625 6.25.390625 15.8125 0 9.578125-.390625 13.484375l5.859375-2.734375h42.1875l2.34375 3.515625 6.25-4.296875zm-72.265625-25.390625h80.078125l5.46875 5.078125 6.640625-7.421875h-81.25q-3.125 0-7.421875-1.171875z" transform="matrix(0 -.1 -.1 0 15.16875 148.08) translate(200)"/><path d="m17.578125 58.984375v-25h20.3125v25zm0-27.34375v-27.34375h20.3125v27.34375zm25.390625 25q0-45.703125.390625-59.765625l-5.46875-3.125v8.203125h-20.3125v-6.640625l-5.46875-3.125q.390625 18.359375.390625 36.515625 0 18.171875-.390625 36.140625l5.859375-3.515625h3.90625q3.90625 13.28125 4.296875 20.3125l8.59375-4.6875q-3.90625-1.953125-10.546875-15.625h12.890625l3.90625 3.90625 5.859375-5.859375zm19.140625 24.609375 8.59375-5.078125q-3.125-1.953125-9.765625-16.015625h21.09375l4.296875 4.296875 5.859375-5.859375-3.515625-2.734375q-.78125-45.703125-2.15625-51.765625-1.359375-6.046875-3.90625-8.390625-2.53125-2.34375-8-4.296875-1.953125 6.25-12.890625 9.375v1.953125q9.765625-1.953125 14.0625-1.953125 4.296875 0 5.265625 6.640625.984375 6.640625 1.765625 50.390625h-22.65625q-7.03125-11.328125-14.84375-19.140625l-1.171875.78125q8.203125 12.5 12.109375 22.265625 3.90625 9.765625 5.859375 19.53125zm-7.03125-38.28125q9.375-7.03125 10.9375-10.359375 1.5625-3.3125 1.5625-4.875 0-2.734375-1.5625-4.6875-1.5625-1.953125-2.34375-1.953125-1.5625 0-2.34375 5.46875-1.5625 7.8125-7.03125 15.234375z" transform="matrix(0 -.1 -.1 0 15.16875 148.08) translate(300)"/><path d="m20.3125 34.765625v-17.1875l17.578125 3.515625v13.671875zm22.65625-15.625q0-17.578125.390625-24.609375l-5.859375-3.515625q.390625 10.9375.390625 26.953125-25.78125-7.03125-28.90625-11.328125l-3.90625 7.8125q4.6875.78125 10.15625 1.953125v56.25h-3.125l-3.90625-.78125-3.125 3.125h36.71875l4.6875 4.6875 7.03125-7.03125h-10.546875v-50.390625l11.71875 2.34375.390625-1.5625zm-22.65625 53.515625v-16.40625h17.578125v16.40625zm17.578125-18.75h-17.578125v-16.796875h17.578125zm7.8125 11.328125h33.203125l3.125 3.90625 7.03125-5.46875-3.515625-2.34375q-5.859375-24.609375-14.453125-41.40625 10.15625-14.0625 24.21875-17.96875v-1.5625q-5.078125-.78125-7.8125-4.6875-11.328125 7.8125-19.140625 19.53125-10.546875-14.84375-24.21875-23.4375l-.78125 1.171875q13.671875 12.109375 21.875 26.5625-8.203125 21.484375-10.15625 43.359375h-2.734375l-3.515625-.78125zm11.328125-2.34375q3.90625-23.4375 10.9375-37.890625 7.421875 16.40625 11.328125 37.890625z" transform="matrix(0 -.1 -.1 0 15.16875 148.08) translate(400)"/><path d="m23.828125 10.15625q0-13.671875.390625-18.359375l-5.859375-1.953125q.390625 14.0625.390625 18.75v38.671875q-7.03125-11.328125-13.671875-18.359375l-1.171875.78125q7.421875 11.328125 13.28125 25.390625 5.859375 14.0625 8.984375 26.171875l8.203125-5.078125-3.90625-2.34375q-6.25-14.453125-8.203125-19.53125l4.6875-2.734375-3.125-2.34375zm21.09375 40.234375v-11.71875h30.078125v11.71875zm0-14.0625v-11.71875h30.078125v11.71875zm0-14.0625v-11.71875h30.078125v11.71875zm0-14.0625v-11.71875h30.078125v11.71875zm10.546875 58.203125q.390625 8.984375 0 15.234375l8.984375-4.296875-3.125-2.34375-.390625-8.59375h17.578125l5.078125 5.078125 7.421875-7.421875h-30.078125l-.390625-11.328125h13.671875l3.515625 3.90625 5.859375-5.078125-3.515625-2.34375v-52.734375h3.515625l5.078125 5.078125 7.421875-7.421875h-57.8125q-5.078125 0-9.375-1.171875l-3.515625 3.515625h14.453125v43.359375q0 4.6875-.390625 16.015625l5.46875-3.125h10.15625l.390625 11.328125h-11.71875q-5.078125 0-9.375-1.171875l-3.515625 3.515625z" transform="matrix(0 -.1 -.1 0 15.16875 148.08) translate(500)"/></g></g><g fill="none"><g stroke="red" stroke-linejoin="round"><path stroke-linecap="square" stroke-width="1.5" d="m60.139631 17.28 2.26461 141.212305 2.26461 8.482413 2.264611 6.344709 2.26461 5.180728 2.264611 4.418837 2.26461 3.843856 2.26461 3.372151 2.264611 2.968939 2.26461 2.617858 2.264611 2.309738 2.26461 2.038413 2.26461 1.799157 2.264611 1.588053 2.26461 1.401747 2.264611 1.237306 2.26461 1.092161 2.26461.964043 2.264611.850955 2.26461.751132 2.26461.663021 2.264611.585244 2.26461.516591 2.264611.455992 2.26461.402502 2.26461.355286 2.264611.313609 2.26461.27682 2.264611.244348 2.26461.215684 2.26461.190384 2.264611.16805 2.26461.148337 2.264611.130936 2.26461.115577 2.26461.102019 2.264611.090051 2.26461.079488 2.26461.070163 2.264611.061933 2.26461.054668 2.264611.048255 2.26461.042594 2.26461.037598 2.264611.033187 2.26461.029294 2.264611.025858 2.26461.022825 2.26461.020147 2.264611.017784 2.26461.015697 2.264611.013856 2.26461.012231 2.26461.010796 2.264611.00953 2.26461.008412 2.264611.007425 2.26461.006553 2.26461.005786 2.264611.005106 2.26461.004508 2.26461.003978 2.264611.003512 2.26461.0031 2.264611.002737 2.26461.002415 2.26461.002132 2.264611.001882 2.26461.001661 2.264611.001467 2.26461.001294 2.26461.001143 2.264611.001008 2.26461.00089 2.264611.000786 2.26461.000693 2.26461.000613 2.264611.00054 2.26461.000477 2.26461.000421 2.264611.000372 2.26461.000328 2.264611.000289 2.26461.000256 2.26461.000226 2.264611.000199 2.26461.000176 2.264611.000155 2.26461.000137 2.26461.000121 2.264611.000106 2.26461.000095 2.264611.000083 2.26461.000073 2.26461.000065 2.264611.000057 2.26461.000051 2.26461.000044 2.264611.000039 2.26461.000035 2.264611.000031 2.26461.000027 2.26461.000024 2.264611.000021 2.26461.000018 2.264611.000017 2.26461.000014 2.26461.000013 2.264611.000011 2.26461.00001 2.264611.000009 2.26461.000008 2.26461.000007" clip-path="url(#a)"/><g clip-path="url(#a)"><use x="60.14" y="17.28" xlink:href="#j"/><use x="62.404" y="158.492" xlink:href="#j"/><use x="64.669" y="166.975" xlink:href="#j"/><use x="66.933" y="173.319" xlink:href="#j"/><use x="69.198" y="178.5" xlink:href="#j"/><use x="71.463" y="182.919" xlink:href="#j"/><use x="73.727" y="186.763" xlink:href="#j"/><use x="75.992" y="190.135" xlink:href="#j"/><use x="78.257" y="193.104" xlink:href="#j"/><use x="80.521" y="195.722" xlink:href="#j"/><use x="82.786" y="198.032" xlink:href="#j"/><use x="85.05" y="200.07" xlink:href="#j"/><use x="87.315" y="201.869" xlink:href="#j"/><use x="89.58" y="203.457" xlink:href="#j"/><use x="91.844" y="204.859" xlink:href="#j"/><use x="94.109" y="206.096" xlink:href="#j"/><use x="96.373" y="207.188" xlink:href="#j"/><use x="98.638" y="208.152" xlink:href="#j"/><use x="100.903" y="209.003" xlink:href="#j"/><use x="103.167" y="209.755" xlink:href="#j"/><use x="105.432" y="210.418" xlink:href="#j"/><use x="107.696" y="211.003" xlink:href="#j"/><use x="109.961" y="211.519" xlink:href="#j"/><use x="112.226" y="211.975" xlink:href="#j"/><use x="114.49" y="212.378" xlink:href="#j"/><use x="116.755" y="212.733" xlink:href="#j"/><use x="119.02" y="213.047" xlink:href="#j"/><use x="121.284" y="213.324" xlink:href="#j"/><use x="123.549" y="213.568" xlink:href="#j"/><use x="125.813" y="213.784" xlink:href="#j"/><use x="128.078" y="213.974" xlink:href="#j"/><use x="130.343" y="214.142" xlink:href="#j"/><use x="132.607" y="214.29" xlink:href="#j"/><use x="134.872" y="214.421" xlink:href="#j"/><use x="137.136" y="214.537" xlink:href="#j"/><use x="139.401" y="214.639" xlink:href="#j"/><use x="141.666" y="214.729" xlink:href="#j"/><use x="143.93" y="214.808" xlink:href="#j"/><use x="146.195" y="214.879" xlink:href="#j"/><use x="148.459" y="214.941" xlink:href="#j"/><use x="150.724" y="214.995" xlink:href="#j"/><use x="152.989" y="215.043" xlink:href="#j"/><use x="155.253" y="215.086" xlink:href="#j"/><use x="157.518" y="215.124" xlink:href="#j"/><use x="159.782" y="215.157" xlink:href="#j"/><use x="162.047" y="215.186" xlink:href="#j"/><use x="164.312" y="215.212" xlink:href="#j"/><use x="166.576" y="215.235" xlink:href="#j"/><use x="168.841" y="215.255" xlink:href="#j"/><use x="171.106" y="215.273" xlink:href="#j"/><use x="173.37" y="215.288" xlink:href="#j"/><use x="175.635" y="215.302" xlink:href="#j"/><use x="177.899" y="215.315" xlink:href="#j"/><use x="180.164" y="215.325" xlink:href="#j"/><use x="182.429" y="215.335" xlink:href="#j"/><use x="184.693" y="215.343" xlink:href="#j"/><use x="186.958" y="215.351" xlink:href="#j"/><use x="189.222" y="215.357" xlink:href="#j"/><use x="191.487" y="215.363" xlink:href="#j"/><use x="193.752" y="215.368" xlink:href="#j"/><use x="196.016" y="215.373" xlink:href="#j"/><use x="198.281" y="215.377" xlink:href="#j"/><use x="200.545" y="215.38" xlink:href="#j"/><use x="202.81" y="215.383" xlink:href="#j"/><use x="205.075" y="215.386" xlink:href="#j"/><use x="207.339" y="215.388" xlink:href="#j"/><use x="209.604" y="215.391" xlink:href="#j"/><use x="211.869" y="215.392" xlink:href="#j"/><use x="214.133" y="215.394" xlink:href="#j"/><use x="216.398" y="215.396" xlink:href="#j"/><use x="218.662" y="215.397" xlink:href="#j"/><use x="220.927" y="215.398" xlink:href="#j"/><use x="223.192" y="215.399" xlink:href="#j"/><use x="225.456" y="215.4" xlink:href="#j"/><use x="227.721" y="215.401" xlink:href="#j"/><use x="229.985" y="215.401" xlink:href="#j"/><use x="232.25" y="215.402" xlink:href="#j"/><use x="234.515" y="215.402" xlink:href="#j"/><use x="236.779" y="215.403" xlink:href="#j"/><use x="239.044" y="215.403" xlink:href="#j"/><use x="241.308" y="215.404" xlink:href="#j"/><use x="243.573" y="215.404" xlink:href="#j"/><use x="245.838" y="215.404" xlink:href="#j"/><use x="248.102" y="215.405" xlink:href="#j"/><use x="250.367" y="215.405" xlink:href="#j"/><use x="252.632" y="215.405" xlink:href="#j"/><use x="254.896" y="215.405" xlink:href="#j"/><use x="257.161" y="215.405" xlink:href="#j"/><use x="259.425" y="215.406" xlink:href="#j"/><use x="261.69" y="215.406" xlink:href="#j"/><use x="263.955" y="215.406" xlink:href="#j"/><use x="266.219" y="215.406" xlink:href="#j"/><use x="268.484" y="215.406" xlink:href="#j"/><use x="270.748" y="215.406" xlink:href="#j"/><use x="273.013" y="215.406" xlink:href="#j"/><use x="275.278" y="215.406" xlink:href="#j"/><use x="277.542" y="215.406" xlink:href="#j"/><use x="279.807" y="215.406" xlink:href="#j"/><use x="282.071" y="215.406" xlink:href="#j"/><use x="284.336" y="215.406" xlink:href="#j"/><use x="286.601" y="215.406" xlink:href="#j"/><use x="288.865" y="215.406" xlink:href="#j"/><use x="291.13" y="215.406" xlink:href="#j"/><use x="293.395" y="215.406" xlink:href="#j"/><use x="295.659" y="215.406" xlink:href="#j"/><use x="297.924" y="215.406" xlink:href="#j"/><use x="300.188" y="215.406" xlink:href="#j"/><use x="302.453" y="215.406" xlink:href="#j"/><use x="304.718" y="215.406" xlink:href="#j"/><use x="306.982" y="215.406" xlink:href="#j"/><use x="309.247" y="215.406" xlink:href="#j"/><use x="311.511" y="215.407" xlink:href="#j"/><use x="313.776" y="215.407" xlink:href="#j"/></g></g><g stroke="#00f" stroke-linejoin="round"><path stroke-linecap="square" stroke-width="1.5" d="m60.139631 17.28 2.26461 176.236464 2.26461 17.238453 2.264611 5.934269 2.26461 1.828807 2.264611.362007 2.26461-.140425 2.26461-.2929 2.264611-.320597 2.26461-.305783 2.264611-.278284 2.26461-.248716 2.26461-.220669 2.264611-.195198 2.26461-.172452 2.264611-.152279 2.26461-.134437 2.26461-.118673 2.264611-.104756 2.26461-.092467 2.26461-.081622 2.264611-.072046 2.26461-.063596 2.264611-.056135 2.26461-.04955 2.26461-.043738 2.264611-.038607 2.26461-.034078 2.264611-.030081 2.26461-.026552 2.26461-.023437 2.264611-.020688 2.26461-.018261 2.264611-.016119 2.26461-.014228 2.26461-.012559 2.264611-.011086 2.26461-.009785 2.26461-.008638 2.264611-.007624 2.26461-.00673 2.264611-.00594 2.26461-.005244 2.26461-.004629 2.264611-.004085 2.26461-.003606 2.264611-.003184 2.26461-.002809 2.26461-.002481 2.264611-.002189 2.26461-.001932 2.264611-.001706 2.26461-.001506 2.26461-.001329 2.264611-.001173 2.26461-.001036 2.264611-.000914 2.26461-.000806 2.26461-.000713 2.264611-.000628 2.26461-.000555 2.26461-.00049 2.264611-.000432 2.26461-.000382 2.264611-.000337 2.26461-.000297 2.26461-.000263 2.264611-.000231 2.26461-.000205 2.264611-.00018 2.26461-.00016 2.26461-.00014 2.264611-.000124 2.26461-.00011 2.264611-.000097 2.26461-.000085 2.26461-.000076 2.264611-.000066 2.26461-.000059 2.26461-.000052 2.264611-.000045 2.26461-.000041 2.264611-.000035 2.26461-.000032 2.26461-.000028 2.264611-.000024 2.26461-.000022 2.264611-.000019 2.26461-.000017 2.26461-.000015 2.264611-.000013 2.26461-.000011 2.264611-.000011 2.26461-.000009 2.26461-.000008 2.264611-.000007 2.26461-.000006 2.26461-.000005 2.264611-.000005 2.26461-.000004 2.264611-.000004 2.26461-.000004 2.26461-.000003 2.264611-.000002 2.26461-.000002 2.264611-.000002 2.26461-.000002 2.26461-.000002 2.264611-.000001 2.26461-.000001 2.264611-.000001 2.26461-.000001 2.26461-.000001" clip-path="url(#a)"/><g clip-path="url(#a)"><use x="60.14" y="17.28" xlink:href="#k"/><use x="62.404" y="193.516" xlink:href="#k"/><use x="64.669" y="210.755" xlink:href="#k"/><use x="66.933" y="216.689" xlink:href="#k"/><use x="69.198" y="218.518" xlink:href="#k"/><use x="71.463" y="218.88" xlink:href="#k"/><use x="73.727" y="218.74" xlink:href="#k"/><use x="75.992" y="218.447" xlink:href="#k"/><use x="78.257" y="218.126" xlink:href="#k"/><use x="80.521" y="217.82" xlink:href="#k"/><use x="82.786" y="217.542" xlink:href="#k"/><use x="85.05" y="217.293" xlink:href="#k"/><use x="87.315" y="217.073" xlink:href="#k"/><use x="89.58" y="216.877" xlink:href="#k"/><use x="91.844" y="216.705" xlink:href="#k"/><use x="94.109" y="216.553" xlink:href="#k"/><use x="96.373" y="216.418" xlink:href="#k"/><use x="98.638" y="216.3" xlink:href="#k"/><use x="100.903" y="216.195" xlink:href="#k"/><use x="103.167" y="216.102" xlink:href="#k"/><use x="105.432" y="216.021" xlink:href="#k"/><use x="107.696" y="215.949" xlink:href="#k"/><use x="109.961" y="215.885" xlink:href="#k"/><use x="112.226" y="215.829" xlink:href="#k"/><use x="114.49" y="215.779" xlink:href="#k"/><use x="116.755" y="215.736" xlink:href="#k"/><use x="119.02" y="215.697" xlink:href="#k"/><use x="121.284" y="215.663" xlink:href="#k"/><use x="123.549" y="215.633" xlink:href="#k"/><use x="125.813" y="215.606" xlink:href="#k"/><use x="128.078" y="215.583" xlink:href="#k"/><use x="130.343" y="215.562" xlink:href="#k"/><use x="132.607" y="215.544" xlink:href="#k"/><use x="134.872" y="215.528" xlink:href="#k"/><use x="137.136" y="215.514" xlink:href="#k"/><use x="139.401" y="215.501" xlink:href="#k"/><use x="141.666" y="215.49" xlink:href="#k"/><use x="143.93" y="215.48" xlink:href="#k"/><use x="146.195" y="215.472" xlink:href="#k"/><use x="148.459" y="215.464" xlink:href="#k"/><use x="150.724" y="215.457" xlink:href="#k"/><use x="152.989" y="215.451" xlink:href="#k"/><use x="155.253" y="215.446" xlink:href="#k"/><use x="157.518" y="215.441" xlink:href="#k"/><use x="159.782" y="215.437" xlink:href="#k"/><use x="162.047" y="215.434" xlink:href="#k"/><use x="164.312" y="215.431" xlink:href="#k"/><use x="166.576" y="215.428" xlink:href="#k"/><use x="168.841" y="215.425" xlink:href="#k"/><use x="171.106" y="215.423" xlink:href="#k"/><use x="173.37" y="215.421" xlink:href="#k"/><use x="175.635" y="215.419" xlink:href="#k"/><use x="177.899" y="215.418" xlink:href="#k"/><use x="180.164" y="215.417" xlink:href="#k"/><use x="182.429" y="215.415" xlink:href="#k"/><use x="184.693" y="215.414" xlink:href="#k"/><use x="186.958" y="215.413" xlink:href="#k"/><use x="189.222" y="215.413" xlink:href="#k"/><use x="191.487" y="215.412" xlink:href="#k"/><use x="193.752" y="215.411" xlink:href="#k"/><use x="196.016" y="215.411" xlink:href="#k"/><use x="198.281" y="215.41" xlink:href="#k"/><use x="200.545" y="215.41" xlink:href="#k"/><use x="202.81" y="215.409" xlink:href="#k"/><use x="205.075" y="215.409" xlink:href="#k"/><use x="207.339" y="215.409" xlink:href="#k"/><use x="209.604" y="215.409" xlink:href="#k"/><use x="211.869" y="215.408" xlink:href="#k"/><use x="214.133" y="215.408" xlink:href="#k"/><use x="216.398" y="215.408" xlink:href="#k"/><use x="218.662" y="215.408" xlink:href="#k"/><use x="220.927" y="215.408" xlink:href="#k"/><use x="223.192" y="215.407" xlink:href="#k"/><use x="225.456" y="215.407" xlink:href="#k"/><use x="227.721" y="215.407" xlink:href="#k"/><use x="229.985" y="215.407" xlink:href="#k"/><use x="232.25" y="215.407" xlink:href="#k"/><use x="234.515" y="215.407" xlink:href="#k"/><use x="236.779" y="215.407" xlink:href="#k"/><use x="239.044" y="215.407" xlink:href="#k"/><use x="241.308" y="215.407" xlink:href="#k"/><use x="243.573" y="215.407" xlink:href="#k"/><use x="245.838" y="215.407" xlink:href="#k"/><use x="248.102" y="215.407" xlink:href="#k"/><use x="250.367" y="215.407" xlink:href="#k"/><use x="252.632" y="215.407" xlink:href="#k"/><use x="254.896" y="215.407" xlink:href="#k"/><use x="257.161" y="215.407" xlink:href="#k"/><use x="259.425" y="215.407" xlink:href="#k"/><use x="261.69" y="215.407" xlink:href="#k"/><use x="263.955" y="215.407" xlink:href="#k"/><use x="266.219" y="215.407" xlink:href="#k"/><use x="268.484" y="215.407" xlink:href="#k"/><use x="270.748" y="215.407" xlink:href="#k"/><use x="273.013" y="215.407" xlink:href="#k"/><use x="275.278" y="215.407" xlink:href="#k"/><use x="277.542" y="215.407" xlink:href="#k"/><use x="279.807" y="215.407" xlink:href="#k"/><use x="282.071" y="215.407" xlink:href="#k"/><use x="284.336" y="215.407" xlink:href="#k"/><use x="286.601" y="215.407" xlink:href="#k"/><use x="288.865" y="215.407" xlink:href="#k"/><use x="291.13" y="215.407" xlink:href="#k"/><use x="293.395" y="215.407" xlink:href="#k"/><use x="295.659" y="215.407" xlink:href="#k"/><use x="297.924" y="215.407" xlink:href="#k"/><use x="300.188" y="215.407" xlink:href="#k"/><use x="302.453" y="215.407" xlink:href="#k"/><use x="304.718" y="215.407" xlink:href="#k"/><use x="306.982" y="215.407" xlink:href="#k"/><use x="309.247" y="215.407" xlink:href="#k"/><use x="311.511" y="215.407" xlink:href="#k"/><use x="313.776" y="215.407" xlink:href="#k"/></g></g><path stroke="#000" stroke-linecap="square" stroke-linejoin="miter" stroke-width=".8" d="m47.457813 228.96v-221.76"/><path stroke="#000" stroke-linecap="square" stroke-linejoin="miter" stroke-width=".8" d="m326.457812 228.96v-221.76"/><path stroke="#000" stroke-linecap="square" stroke-linejoin="miter" stroke-width=".8" d="m47.457813 228.96h279"/><path stroke="#000" stroke-linecap="square" stroke-linejoin="miter" stroke-width=".8" d="m47.457813 7.2h279"/></g><g stroke-linejoin="round"><path fill="#fff" stroke="#ccc" stroke-linejoin="miter" d="m281.457812 42.885937h38q2 0 2-2v-26.685937q0-2-2-2h-38q-2 0-2 2v26.685937q0 2 2 2z" opacity=".8"/><g stroke-linejoin="round"><path fill="none" stroke="red" stroke-linecap="square" stroke-width="1.5" d="m283.457812 19.848437h20"/><use x="293.458" y="19.848" fill="none" stroke="red" xlink:href="#j"/><path d="m60.015625 54.6875-25.109375-26.8125 15.390625-27.875h-10.3125l-11.5625 21.6875-20.125-21.6875h-10.890625l26.90625 28.8125-14.296875 25.875h10.296875l10.5-19.78125 18.3125 19.78125z" transform="matrix(.1 0 0 -.1 311.457812 23.317187)"/><path fill="none" stroke="#00f" stroke-linecap="square" stroke-width="1.5" d="m283.457812 33.285937h20"/><use x="293.458" y="33.286" fill="none" stroke="#00f" xlink:href="#k"/><path d="m24.8125-5.078125q-6.25-10.5-10.1875-13.109375-3.9375-2.609375-10.03125-2.609375h-7.078125l1.5 7.515625h5.1875q3.75 0 6.390625 2.046875 2.640625 2.046875 5.90625 8.015625l2.78125 5.21875-12.109375 52.6875h9.53125l9.078125-41.890625 25.09375 41.890625h9.421875z" transform="matrix(.1 0 0 -.1 311.457812 36.754687)"/></g></g></g></g></svg>