<svg xmlns="http://www.w3.org/2000/svg" xmlns:xlink="http://www.w3.org/1999/xlink" width="1344" height="576" version="1.1" viewBox="0 0 1008 432"><metadata><rdf:RDF xmlns:cc="http://creativecommons.org/ns#" xmlns:dc="http://purl.org/dc/elements/1.1/" xmlns:rdf="http://www.w3.org/1999/02/22-rdf-syntax-ns#"><cc:Work><dc:type rdf:resource="http://purl.org/dc/dcmitype/StillImage"/><dc:date>2024-04-11T23:36:31.982464</dc:date><dc:format>image/svg+xml</dc:format><dc:creator><cc:Agent><dc:title>Matplotlib v3.7.1, https://matplotlib.org/</dc:title></cc:Agent></dc:creator></cc:Work></rdf:RDF></metadata><defs><style type="text/css">*{stroke-linejoin:round;stroke-linecap:butt}</style></defs><g id="figure_1"><g id="patch_1"><path d="M 0 432 L 1008 432 L 1008 0 L 0 0 z" style="fill:#fff"/></g><g id="axes_1"><g id="patch_2"><path d="M 100.8 388.8 L 705.6 388.8 L 705.6 64.8 L 100.8 64.8 z" style="fill:#fff"/></g><g id="matplotlib.axis_1"><g id="xtick_1"><g id="line2d_1"><path d="M 153.225678 388.8 L 153.225678 64.8" clip-path="url(#pedb0e18c75)" style="fill:none;stroke:#b0b0b0;stroke-width:.8;stroke-linecap:square"/></g><g id="line2d_2"><defs><path id="m7d109eafff" d="M 0 0 L 0 3.5" style="stroke:#000;stroke-width:.8"/></defs><g><use x="153.226" y="388.8" xlink:href="#m7d109eafff" style="stroke:#000;stroke-width:.8"/></g></g><g id="text_1"><g transform="translate(150.044428 403.398438) scale(0.1 -0.1)"><defs><path id="DejaVuSans-30" d="M 2034 4250 Q 1547 4250 1301 3770 Q 1056 3291 1056 2328 Q 1056 1369 1301 889 Q 1547 409 2034 409 Q 2525 409 2770 889 Q 3016 1369 3016 2328 Q 3016 3291 2770 3770 Q 2525 4250 2034 4250 z M 2034 4750 Q 2819 4750 3233 4129 Q 3647 3509 3647 2328 Q 3647 1150 3233 529 Q 2819 -91 2034 -91 Q 1250 -91 836 529 Q 422 1150 422 2328 Q 422 3509 836 4129 Q 1250 4750 2034 4750 z" transform="scale(0.015625)"/></defs><use xlink:href="#DejaVuSans-30"/></g></g></g><g id="xtick_2"><g id="line2d_3"><path d="M 278.551218 388.8 L 278.551218 64.8" clip-path="url(#pedb0e18c75)" style="fill:none;stroke:#b0b0b0;stroke-width:.8;stroke-linecap:square"/></g><g id="line2d_4"><g><use x="278.551" y="388.8" xlink:href="#m7d109eafff" style="stroke:#000;stroke-width:.8"/></g></g><g id="text_2"><g transform="translate(275.369968 403.398438) scale(0.1 -0.1)"><defs><path id="DejaVuSans-32" d="M 1228 531 L 3431 531 L 3431 0 L 469 0 L 469 531 Q 828 903 1448 1529 Q 2069 2156 2228 2338 Q 2531 2678 2651 2914 Q 2772 3150 2772 3378 Q 2772 3750 2511 3984 Q 2250 4219 1831 4219 Q 1534 4219 1204 4116 Q 875 4013 500 3803 L 500 4441 Q 881 4594 1212 4672 Q 1544 4750 1819 4750 Q 2544 4750 2975 4387 Q 3406 4025 3406 3419 Q 3406 3131 3298 2873 Q 3191 2616 2906 2266 Q 2828 2175 2409 1742 Q 1991 1309 1228 531 z" transform="scale(0.015625)"/></defs><use xlink:href="#DejaVuSans-32"/></g></g></g><g id="xtick_3"><g id="line2d_5"><path d="M 403.876758 388.8 L 403.876758 64.8" clip-path="url(#pedb0e18c75)" style="fill:none;stroke:#b0b0b0;stroke-width:.8;stroke-linecap:square"/></g><g id="line2d_6"><g><use x="403.877" y="388.8" xlink:href="#m7d109eafff" style="stroke:#000;stroke-width:.8"/></g></g><g id="text_3"><g transform="translate(400.695508 403.398438) scale(0.1 -0.1)"><defs><path id="DejaVuSans-34" d="M 2419 4116 L 825 1625 L 2419 1625 L 2419 4116 z M 2253 4666 L 3047 4666 L 3047 1625 L 3713 1625 L 3713 1100 L 3047 1100 L 3047 0 L 2419 0 L 2419 1100 L 313 1100 L 313 1709 L 2253 4666 z" transform="scale(0.015625)"/></defs><use xlink:href="#DejaVuSans-34"/></g></g></g><g id="xtick_4"><g id="line2d_7"><path d="M 529.202298 388.8 L 529.202298 64.8" clip-path="url(#pedb0e18c75)" style="fill:none;stroke:#b0b0b0;stroke-width:.8;stroke-linecap:square"/></g><g id="line2d_8"><g><use x="529.202" y="388.8" xlink:href="#m7d109eafff" style="stroke:#000;stroke-width:.8"/></g></g><g id="text_4"><g transform="translate(526.021048 403.398438) scale(0.1 -0.1)"><defs><path id="DejaVuSans-36" d="M 2113 2584 Q 1688 2584 1439 2293 Q 1191 2003 1191 1497 Q 1191 994 1439 701 Q 1688 409 2113 409 Q 2538 409 2786 701 Q 3034 994 3034 1497 Q 3034 2003 2786 2293 Q 2538 2584 2113 2584 z M 3366 4563 L 3366 3988 Q 3128 4100 2886 4159 Q 2644 4219 2406 4219 Q 1781 4219 1451 3797 Q 1122 3375 1075 2522 Q 1259 2794 1537 2939 Q 1816 3084 2150 3084 Q 2853 3084 3261 2657 Q 3669 2231 3669 1497 Q 3669 778 3244 343 Q 2819 -91 2113 -91 Q 1303 -91 875 529 Q 447 1150 447 2328 Q 447 3434 972 4092 Q 1497 4750 2381 4750 Q 2619 4750 2861 4703 Q 3103 4656 3366 4563 z" transform="scale(0.015625)"/></defs><use xlink:href="#DejaVuSans-36"/></g></g></g><g id="xtick_5"><g id="line2d_9"><path d="M 654.527838 388.8 L 654.527838 64.8" clip-path="url(#pedb0e18c75)" style="fill:none;stroke:#b0b0b0;stroke-width:.8;stroke-linecap:square"/></g><g id="line2d_10"><g><use x="654.528" y="388.8" xlink:href="#m7d109eafff" style="stroke:#000;stroke-width:.8"/></g></g><g id="text_5"><g transform="translate(651.346588 403.398438) scale(0.1 -0.1)"><defs><path id="DejaVuSans-38" d="M 2034 2216 Q 1584 2216 1326 1975 Q 1069 1734 1069 1313 Q 1069 891 1326 650 Q 1584 409 2034 409 Q 2484 409 2743 651 Q 3003 894 3003 1313 Q 3003 1734 2745 1975 Q 2488 2216 2034 2216 z M 1403 2484 Q 997 2584 770 2862 Q 544 3141 544 3541 Q 544 4100 942 4425 Q 1341 4750 2034 4750 Q 2731 4750 3128 4425 Q 3525 4100 3525 3541 Q 3525 3141 3298 2862 Q 3072 2584 2669 2484 Q 3125 2378 3379 2068 Q 3634 1759 3634 1313 Q 3634 634 3220 271 Q 2806 -91 2034 -91 Q 1263 -91 848 271 Q 434 634 434 1313 Q 434 1759 690 2068 Q 947 2378 1403 2484 z M 1172 3481 Q 1172 3119 1398 2916 Q 1625 2713 2034 2713 Q 2441 2713 2670 2916 Q 2900 3119 2900 3481 Q 2900 3844 2670 4047 Q 2441 4250 2034 4250 Q 1625 4250 1398 4047 Q 1172 3844 1172 3481 z" transform="scale(0.015625)"/></defs><use xlink:href="#DejaVuSans-38"/></g></g></g><g id="text_6"><g transform="translate(359.828906 417.076563) scale(0.1 -0.1)"><defs><path id="DejaVuSans-74" d="M 1172 4494 L 1172 3500 L 2356 3500 L 2356 3053 L 1172 3053 L 1172 1153 Q 1172 725 1289 603 Q 1406 481 1766 481 L 2356 481 L 2356 0 L 1766 0 Q 1100 0 847 248 Q 594 497 594 1153 L 594 3053 L 172 3053 L 172 3500 L 594 3500 L 594 4494 L 1172 4494 z" transform="scale(0.015625)"/><path id="DejaVuSans-69" d="M 603 3500 L 1178 3500 L 1178 0 L 603 0 L 603 3500 z M 603 4863 L 1178 4863 L 1178 4134 L 603 4134 L 603 4863 z" transform="scale(0.015625)"/><path id="DejaVuSans-6d" d="M 3328 2828 Q 3544 3216 3844 3400 Q 4144 3584 4550 3584 Q 5097 3584 5394 3201 Q 5691 2819 5691 2113 L 5691 0 L 5113 0 L 5113 2094 Q 5113 2597 4934 2840 Q 4756 3084 4391 3084 Q 3944 3084 3684 2787 Q 3425 2491 3425 1978 L 3425 0 L 2847 0 L 2847 2094 Q 2847 2600 2669 2842 Q 2491 3084 2119 3084 Q 1678 3084 1418 2786 Q 1159 2488 1159 1978 L 1159 0 L 581 0 L 581 3500 L 1159 3500 L 1159 2956 Q 1356 3278 1631 3431 Q 1906 3584 2284 3584 Q 2666 3584 2933 3390 Q 3200 3197 3328 2828 z" transform="scale(0.015625)"/><path id="DejaVuSans-65" d="M 3597 1894 L 3597 1613 L 953 1613 Q 991 1019 1311 708 Q 1631 397 2203 397 Q 2534 397 2845 478 Q 3156 559 3463 722 L 3463 178 Q 3153 47 2828 -22 Q 2503 -91 2169 -91 Q 1331 -91 842 396 Q 353 884 353 1716 Q 353 2575 817 3079 Q 1281 3584 2069 3584 Q 2775 3584 3186 3129 Q 3597 2675 3597 1894 z M 3022 2063 Q 3016 2534 2758 2815 Q 2500 3097 2075 3097 Q 1594 3097 1305 2825 Q 1016 2553 972 2059 L 3022 2063 z" transform="scale(0.015625)"/><path id="DejaVuSans-20" transform="scale(0.015625)"/><path id="DejaVuSans-28" d="M 1984 4856 Q 1566 4138 1362 3434 Q 1159 2731 1159 2009 Q 1159 1288 1364 580 Q 1569 -128 1984 -844 L 1484 -844 Q 1016 -109 783 600 Q 550 1309 550 2009 Q 550 2706 781 3412 Q 1013 4119 1484 4856 L 1984 4856 z" transform="scale(0.015625)"/><path id="DejaVuSans-6e" d="M 3513 2113 L 3513 0 L 2938 0 L 2938 2094 Q 2938 2591 2744 2837 Q 2550 3084 2163 3084 Q 1697 3084 1428 2787 Q 1159 2491 1159 1978 L 1159 0 L 581 0 L 581 3500 L 1159 3500 L 1159 2956 Q 1366 3272 1645 3428 Q 1925 3584 2291 3584 Q 2894 3584 3203 3211 Q 3513 2838 3513 2113 z" transform="scale(0.015625)"/><path id="DejaVuSans-73" d="M 2834 3397 L 2834 2853 Q 2591 2978 2328 3040 Q 2066 3103 1784 3103 Q 1356 3103 1142 2972 Q 928 2841 928 2578 Q 928 2378 1081 2264 Q 1234 2150 1697 2047 L 1894 2003 Q 2506 1872 2764 1633 Q 3022 1394 3022 966 Q 3022 478 2636 193 Q 2250 -91 1575 -91 Q 1294 -91 989 -36 Q 684 19 347 128 L 347 722 Q 666 556 975 473 Q 1284 391 1588 391 Q 1994 391 2212 530 Q 2431 669 2431 922 Q 2431 1156 2273 1281 Q 2116 1406 1581 1522 L 1381 1569 Q 847 1681 609 1914 Q 372 2147 372 2553 Q 372 3047 722 3315 Q 1072 3584 1716 3584 Q 2034 3584 2315 3537 Q 2597 3491 2834 3397 z" transform="scale(0.015625)"/><path id="DejaVuSans-63" d="M 3122 3366 L 3122 2828 Q 2878 2963 2633 3030 Q 2388 3097 2138 3097 Q 1578 3097 1268 2742 Q 959 2388 959 1747 Q 959 1106 1268 751 Q 1578 397 2138 397 Q 2388 397 2633 464 Q 2878 531 3122 666 L 3122 134 Q 2881 22 2623 -34 Q 2366 -91 2075 -91 Q 1284 -91 818 406 Q 353 903 353 1747 Q 353 2603 823 3093 Q 1294 3584 2113 3584 Q 2378 3584 2631 3529 Q 2884 3475 3122 3366 z" transform="scale(0.015625)"/><path id="DejaVuSans-6f" d="M 1959 3097 Q 1497 3097 1228 2736 Q 959 2375 959 1747 Q 959 1119 1226 758 Q 1494 397 1959 397 Q 2419 397 2687 759 Q 2956 1122 2956 1747 Q 2956 2369 2687 2733 Q 2419 3097 1959 3097 z M 1959 3584 Q 2709 3584 3137 3096 Q 3566 2609 3566 1747 Q 3566 888 3137 398 Q 2709 -91 1959 -91 Q 1206 -91 779 398 Q 353 888 353 1747 Q 353 2609 779 3096 Q 1206 3584 1959 3584 z" transform="scale(0.015625)"/><path id="DejaVuSans-64" d="M 2906 2969 L 2906 4863 L 3481 4863 L 3481 0 L 2906 0 L 2906 525 Q 2725 213 2448 61 Q 2172 -91 1784 -91 Q 1150 -91 751 415 Q 353 922 353 1747 Q 353 2572 751 3078 Q 1150 3584 1784 3584 Q 2172 3584 2448 3432 Q 2725 3281 2906 2969 z M 947 1747 Q 947 1113 1208 752 Q 1469 391 1925 391 Q 2381 391 2643 752 Q 2906 1113 2906 1747 Q 2906 2381 2643 2742 Q 2381 3103 1925 3103 Q 1469 3103 1208 2742 Q 947 2381 947 1747 z" transform="scale(0.015625)"/><path id="DejaVuSans-29" d="M 513 4856 L 1013 4856 Q 1481 4119 1714 3412 Q 1947 2706 1947 2009 Q 1947 1309 1714 600 Q 1481 -109 1013 -844 L 513 -844 Q 928 -128 1133 580 Q 1338 1288 1338 2009 Q 1338 2731 1133 3434 Q 928 4138 513 4856 z" transform="scale(0.015625)"/></defs><use xlink:href="#DejaVuSans-74"/><use x="39.209" xlink:href="#DejaVuSans-69"/><use x="66.992" xlink:href="#DejaVuSans-6d"/><use x="164.404" xlink:href="#DejaVuSans-65"/><use x="225.928" xlink:href="#DejaVuSans-20"/><use x="257.715" xlink:href="#DejaVuSans-28"/><use x="296.729" xlink:href="#DejaVuSans-69"/><use x="324.512" xlink:href="#DejaVuSans-6e"/><use x="387.891" xlink:href="#DejaVuSans-20"/><use x="419.678" xlink:href="#DejaVuSans-73"/><use x="471.777" xlink:href="#DejaVuSans-65"/><use x="533.301" xlink:href="#DejaVuSans-63"/><use x="588.281" xlink:href="#DejaVuSans-6f"/><use x="649.463" xlink:href="#DejaVuSans-6e"/><use x="712.842" xlink:href="#DejaVuSans-64"/><use x="776.318" xlink:href="#DejaVuSans-73"/><use x="828.418" xlink:href="#DejaVuSans-29"/></g></g></g><g id="matplotlib.axis_2"><g id="ytick_1"><g id="line2d_11"><path d="M 100.8 360.693579 L 705.6 360.693579" clip-path="url(#pedb0e18c75)" style="fill:none;stroke:#b0b0b0;stroke-width:.8;stroke-linecap:square"/></g><g id="line2d_12"><defs><path id="m3a0f0408d9" d="M 0 0 L -3.5 0" style="stroke:#000;stroke-width:.8"/></defs><g><use x="100.8" y="360.694" xlink:href="#m3a0f0408d9" style="stroke:#000;stroke-width:.8"/></g></g><g id="text_7"><g transform="translate(87.4375 364.492798) scale(0.1 -0.1)"><use xlink:href="#DejaVuSans-30"/></g></g></g><g id="ytick_2"><g id="line2d_13"><path d="M 100.8 311.429936 L 705.6 311.429936" clip-path="url(#pedb0e18c75)" style="fill:none;stroke:#b0b0b0;stroke-width:.8;stroke-linecap:square"/></g><g id="line2d_14"><g><use x="100.8" y="311.43" xlink:href="#m3a0f0408d9" style="stroke:#000;stroke-width:.8"/></g></g><g id="text_8"><g transform="translate(68.35 315.229155) scale(0.1 -0.1)"><defs><path id="DejaVuSans-31" d="M 794 531 L 1825 531 L 1825 4091 L 703 3866 L 703 4441 L 1819 4666 L 2450 4666 L 2450 531 L 3481 531 L 3481 0 L 794 0 L 794 531 z" transform="scale(0.015625)"/></defs><use xlink:href="#DejaVuSans-31"/><use x="63.623" xlink:href="#DejaVuSans-30"/><use x="127.246" xlink:href="#DejaVuSans-30"/><use x="190.869" xlink:href="#DejaVuSans-30"/></g></g></g><g id="ytick_3"><g id="line2d_15"><path d="M 100.8 262.166293 L 705.6 262.166293" clip-path="url(#pedb0e18c75)" style="fill:none;stroke:#b0b0b0;stroke-width:.8;stroke-linecap:square"/></g><g id="line2d_16"><g><use x="100.8" y="262.166" xlink:href="#m3a0f0408d9" style="stroke:#000;stroke-width:.8"/></g></g><g id="text_9"><g transform="translate(68.35 265.965511) scale(0.1 -0.1)"><use xlink:href="#DejaVuSans-32"/><use x="63.623" xlink:href="#DejaVuSans-30"/><use x="127.246" xlink:href="#DejaVuSans-30"/><use x="190.869" xlink:href="#DejaVuSans-30"/></g></g></g><g id="ytick_4"><g id="line2d_17"><path d="M 100.8 212.902649 L 705.6 212.902649" clip-path="url(#pedb0e18c75)" style="fill:none;stroke:#b0b0b0;stroke-width:.8;stroke-linecap:square"/></g><g id="line2d_18"><g><use x="100.8" y="212.903" xlink:href="#m3a0f0408d9" style="stroke:#000;stroke-width:.8"/></g></g><g id="text_10"><g transform="translate(68.35 216.701868) scale(0.1 -0.1)"><defs><path id="DejaVuSans-33" d="M 2597 2516 Q 3050 2419 3304 2112 Q 3559 1806 3559 1356 Q 3559 666 3084 287 Q 2609 -91 1734 -91 Q 1441 -91 1130 -33 Q 819 25 488 141 L 488 750 Q 750 597 1062 519 Q 1375 441 1716 441 Q 2309 441 2620 675 Q 2931 909 2931 1356 Q 2931 1769 2642 2001 Q 2353 2234 1838 2234 L 1294 2234 L 1294 2753 L 1863 2753 Q 2328 2753 2575 2939 Q 2822 3125 2822 3475 Q 2822 3834 2567 4026 Q 2313 4219 1838 4219 Q 1578 4219 1281 4162 Q 984 4106 628 3988 L 628 4550 Q 988 4650 1302 4700 Q 1616 4750 1894 4750 Q 2613 4750 3031 4423 Q 3450 4097 3450 3541 Q 3450 3153 3228 2886 Q 3006 2619 2597 2516 z" transform="scale(0.015625)"/></defs><use xlink:href="#DejaVuSans-33"/><use x="63.623" xlink:href="#DejaVuSans-30"/><use x="127.246" xlink:href="#DejaVuSans-30"/><use x="190.869" xlink:href="#DejaVuSans-30"/></g></g></g><g id="ytick_5"><g id="line2d_19"><path d="M 100.8 163.639006 L 705.6 163.639006" clip-path="url(#pedb0e18c75)" style="fill:none;stroke:#b0b0b0;stroke-width:.8;stroke-linecap:square"/></g><g id="line2d_20"><g><use x="100.8" y="163.639" xlink:href="#m3a0f0408d9" style="stroke:#000;stroke-width:.8"/></g></g><g id="text_11"><g transform="translate(68.35 167.438225) scale(0.1 -0.1)"><use xlink:href="#DejaVuSans-34"/><use x="63.623" xlink:href="#DejaVuSans-30"/><use x="127.246" xlink:href="#DejaVuSans-30"/><use x="190.869" xlink:href="#DejaVuSans-30"/></g></g></g><g id="ytick_6"><g id="line2d_21"><path d="M 100.8 114.375363 L 705.6 114.375363" clip-path="url(#pedb0e18c75)" style="fill:none;stroke:#b0b0b0;stroke-width:.8;stroke-linecap:square"/></g><g id="line2d_22"><g><use x="100.8" y="114.375" xlink:href="#m3a0f0408d9" style="stroke:#000;stroke-width:.8"/></g></g><g id="text_12"><g transform="translate(68.35 118.174581) scale(0.1 -0.1)"><defs><path id="DejaVuSans-35" d="M 691 4666 L 3169 4666 L 3169 4134 L 1269 4134 L 1269 2991 Q 1406 3038 1543 3061 Q 1681 3084 1819 3084 Q 2600 3084 3056 2656 Q 3513 2228 3513 1497 Q 3513 744 3044 326 Q 2575 -91 1722 -91 Q 1428 -91 1123 -41 Q 819 9 494 109 L 494 744 Q 775 591 1075 516 Q 1375 441 1709 441 Q 2250 441 2565 725 Q 2881 1009 2881 1497 Q 2881 1984 2565 2268 Q 2250 2553 1709 2553 Q 1456 2553 1204 2497 Q 953 2441 691 2322 L 691 4666 z" transform="scale(0.015625)"/></defs><use xlink:href="#DejaVuSans-35"/><use x="63.623" xlink:href="#DejaVuSans-30"/><use x="127.246" xlink:href="#DejaVuSans-30"/><use x="190.869" xlink:href="#DejaVuSans-30"/></g></g></g><g id="ytick_7"><g id="line2d_23"><path d="M 100.8 65.111719 L 705.6 65.111719" clip-path="url(#pedb0e18c75)" style="fill:none;stroke:#b0b0b0;stroke-width:.8;stroke-linecap:square"/></g><g id="line2d_24"><g><use x="100.8" y="65.112" xlink:href="#m3a0f0408d9" style="stroke:#000;stroke-width:.8"/></g></g><g id="text_13"><g transform="translate(68.35 68.910938) scale(0.1 -0.1)"><use xlink:href="#DejaVuSans-36"/><use x="63.623" xlink:href="#DejaVuSans-30"/><use x="127.246" xlink:href="#DejaVuSans-30"/><use x="190.869" xlink:href="#DejaVuSans-30"/></g></g></g><g id="text_14"><g transform="translate(62.270313 282.075781) rotate(-90) scale(0.1 -0.1)"><defs><path id="DejaVuSans-72" d="M 2631 2963 Q 2534 3019 2420 3045 Q 2306 3072 2169 3072 Q 1681 3072 1420 2755 Q 1159 2438 1159 1844 L 1159 0 L 581 0 L 581 3500 L 1159 3500 L 1159 2956 Q 1341 3275 1631 3429 Q 1922 3584 2338 3584 Q 2397 3584 2469 3576 Q 2541 3569 2628 3553 L 2631 2963 z" transform="scale(0.015625)"/><path id="DejaVuSans-79" d="M 2059 -325 Q 1816 -950 1584 -1140 Q 1353 -1331 966 -1331 L 506 -1331 L 506 -850 L 844 -850 Q 1081 -850 1212 -737 Q 1344 -625 1503 -206 L 1606 56 L 191 3500 L 800 3500 L 1894 763 L 2988 3500 L 3597 3500 L 2059 -325 z" transform="scale(0.015625)"/><path id="DejaVuSans-75" d="M 544 1381 L 544 3500 L 1119 3500 L 1119 1403 Q 1119 906 1312 657 Q 1506 409 1894 409 Q 2359 409 2629 706 Q 2900 1003 2900 1516 L 2900 3500 L 3475 3500 L 3475 0 L 2900 0 L 2900 538 Q 2691 219 2414 64 Q 2138 -91 1772 -91 Q 1169 -91 856 284 Q 544 659 544 1381 z M 1991 3584 L 1991 3584 z" transform="scale(0.015625)"/><path id="DejaVuSans-4d" d="M 628 4666 L 1569 4666 L 2759 1491 L 3956 4666 L 4897 4666 L 4897 0 L 4281 0 L 4281 4097 L 3078 897 L 2444 897 L 1241 4097 L 1241 0 L 628 0 L 628 4666 z" transform="scale(0.015625)"/><path id="DejaVuSans-42" d="M 1259 2228 L 1259 519 L 2272 519 Q 2781 519 3026 730 Q 3272 941 3272 1375 Q 3272 1813 3026 2020 Q 2781 2228 2272 2228 L 1259 2228 z M 1259 4147 L 1259 2741 L 2194 2741 Q 2656 2741 2882 2914 Q 3109 3088 3109 3444 Q 3109 3797 2882 3972 Q 2656 4147 2194 4147 L 1259 4147 z M 628 4666 L 2241 4666 Q 2963 4666 3353 4366 Q 3744 4066 3744 3513 Q 3744 3084 3544 2831 Q 3344 2578 2956 2516 Q 3422 2416 3680 2098 Q 3938 1781 3938 1306 Q 3938 681 3513 340 Q 3088 0 2303 0 L 628 0 L 628 4666 z" transform="scale(0.015625)"/></defs><use xlink:href="#DejaVuSans-6d"/><use x="97.412" xlink:href="#DejaVuSans-65"/><use x="158.936" xlink:href="#DejaVuSans-6d"/><use x="256.348" xlink:href="#DejaVuSans-6f"/><use x="317.529" xlink:href="#DejaVuSans-72"/><use x="358.643" xlink:href="#DejaVuSans-79"/><use x="417.822" xlink:href="#DejaVuSans-20"/><use x="449.609" xlink:href="#DejaVuSans-75"/><use x="512.988" xlink:href="#DejaVuSans-73"/><use x="565.088" xlink:href="#DejaVuSans-65"/><use x="626.611" xlink:href="#DejaVuSans-64"/><use x="690.088" xlink:href="#DejaVuSans-20"/><use x="721.875" xlink:href="#DejaVuSans-28"/><use x="760.889" xlink:href="#DejaVuSans-69"/><use x="788.672" xlink:href="#DejaVuSans-6e"/><use x="852.051" xlink:href="#DejaVuSans-20"/><use x="883.838" xlink:href="#DejaVuSans-4d"/><use x="970.117" xlink:href="#DejaVuSans-69"/><use x="997.9" xlink:href="#DejaVuSans-42"/><use x="1066.504" xlink:href="#DejaVuSans-29"/></g></g></g><g id="line2d_25"><path d="M 153.225678 360.684342 L 159.83034 359.18642 L 166.66058 358.204226 L 173.434421 357.839367 L 180.026548 357.138899 L 186.512138 356.135153 L 192.903755 351.615983 L 199.458278 342.083468 L 206.025335 332.545565 L 212.304141 323.394074 L 218.758401 314.043218 L 225.275335 304.740087 L 231.873722 295.349205 L 238.265324 286.104575 L 244.631857 277.170921 L 250.979596 268.060226 L 257.571723 248.50025 L 264.163849 225.176224 L 270.730907 176.042668 L 277.323033 165.864337 L 283.720896 120.681109 L 290.093704 98.69105 L 296.68583 139.144968 L 303.089967 102.767617 L 309.581832 92.915658 L 315.9609 110.383468 L 322.396366 134.635036 L 328.988492 123.706974 L 335.586879 105.766541 L 342.178991 107.507703 L 348.48914 110.306494 L 354.824344 109.170351 L 361.416471 110.381159 L 367.745415 112.868973 L 374.180881 111.714356 L 380.484756 112.895144 L 387.083143 125.04556 L 393.462211 138.470672 L 400.016733 146.936322 L 406.60886 168.44606 L 413.194712 196.21382 L 419.598849 207.891613 L 426.159647 202.251696 L 432.638976 190.628555 L 439.16217 180.983657 L 445.585102 174.900367 L 451.876442 166.994322 L 458.468569 332.216884 L 464.828842 304.436038 L 471.264308 281.938718 L 477.781227 254.034712 L 484.216693 231.102486 L 490.833889 211.162257 L 497.426016 187.565742 L 503.892811 165.648809 L 510.39721 143.746501 L 516.69481 121.386965 L 523.199209 131.157331 L 529.791336 136.39852 L 536.377188 138.733925 L 542.837723 137.367629 L 549.141598 137.993431 L 555.733725 144.433882 L 562.332112 144.000516 L 568.704905 142.96444 L 575.309566 141.344128 L 581.682374 142.129268 L 588.111565 141.667421 L 594.547031 140.873045 L 601.132898 142.096938 L 607.55583 137.522347 L 614.147956 143.195364 L 620.614752 148.153288 L 627.206878 146.928624 L 633.585946 170.532837 L 640.196867 308.681948 L 646.74513 355.946565 L 653.174322 355.905769" clip-path="url(#pedb0e18c75)" style="fill:none;stroke:#000;stroke-width:1.5;stroke-linecap:square"/><defs><path id="m909e7dfd97" d="M -3 0 L 3 0 M 0 3 L 0 -3" style="stroke:#000"/></defs><g clip-path="url(#pedb0e18c75)"><use x="153.226" y="360.684" xlink:href="#m909e7dfd97" style="stroke:#000"/><use x="159.83" y="359.186" xlink:href="#m909e7dfd97" style="stroke:#000"/><use x="166.661" y="358.204" xlink:href="#m909e7dfd97" style="stroke:#000"/><use x="173.434" y="357.839" xlink:href="#m909e7dfd97" style="stroke:#000"/><use x="180.027" y="357.139" xlink:href="#m909e7dfd97" style="stroke:#000"/><use x="186.512" y="356.135" xlink:href="#m909e7dfd97" style="stroke:#000"/><use x="192.904" y="351.616" xlink:href="#m909e7dfd97" style="stroke:#000"/><use x="199.458" y="342.083" xlink:href="#m909e7dfd97" style="stroke:#000"/><use x="206.025" y="332.546" xlink:href="#m909e7dfd97" style="stroke:#000"/><use x="212.304" y="323.394" xlink:href="#m909e7dfd97" style="stroke:#000"/><use x="218.758" y="314.043" xlink:href="#m909e7dfd97" style="stroke:#000"/><use x="225.275" y="304.74" xlink:href="#m909e7dfd97" style="stroke:#000"/><use x="231.874" y="295.349" xlink:href="#m909e7dfd97" style="stroke:#000"/><use x="238.265" y="286.105" xlink:href="#m909e7dfd97" style="stroke:#000"/><use x="244.632" y="277.171" xlink:href="#m909e7dfd97" style="stroke:#000"/><use x="250.98" y="268.06" xlink:href="#m909e7dfd97" style="stroke:#000"/><use x="257.572" y="248.5" xlink:href="#m909e7dfd97" style="stroke:#000"/><use x="264.164" y="225.176" xlink:href="#m909e7dfd97" style="stroke:#000"/><use x="270.731" y="176.043" xlink:href="#m909e7dfd97" style="stroke:#000"/><use x="277.323" y="165.864" xlink:href="#m909e7dfd97" style="stroke:#000"/><use x="283.721" y="120.681" xlink:href="#m909e7dfd97" style="stroke:#000"/><use x="290.094" y="98.691" xlink:href="#m909e7dfd97" style="stroke:#000"/><use x="296.686" y="139.145" xlink:href="#m909e7dfd97" style="stroke:#000"/><use x="303.09" y="102.768" xlink:href="#m909e7dfd97" style="stroke:#000"/><use x="309.582" y="92.916" xlink:href="#m909e7dfd97" style="stroke:#000"/><use x="315.961" y="110.383" xlink:href="#m909e7dfd97" style="stroke:#000"/><use x="322.396" y="134.635" xlink:href="#m909e7dfd97" style="stroke:#000"/><use x="328.988" y="123.707" xlink:href="#m909e7dfd97" style="stroke:#000"/><use x="335.587" y="105.767" xlink:href="#m909e7dfd97" style="stroke:#000"/><use x="342.179" y="107.508" xlink:href="#m909e7dfd97" style="stroke:#000"/><use x="348.489" y="110.306" xlink:href="#m909e7dfd97" style="stroke:#000"/><use x="354.824" y="109.17" xlink:href="#m909e7dfd97" style="stroke:#000"/><use x="361.416" y="110.381" xlink:href="#m909e7dfd97" style="stroke:#000"/><use x="367.745" y="112.869" xlink:href="#m909e7dfd97" style="stroke:#000"/><use x="374.181" y="111.714" xlink:href="#m909e7dfd97" style="stroke:#000"/><use x="380.485" y="112.895" xlink:href="#m909e7dfd97" style="stroke:#000"/><use x="387.083" y="125.046" xlink:href="#m909e7dfd97" style="stroke:#000"/><use x="393.462" y="138.471" xlink:href="#m909e7dfd97" style="stroke:#000"/><use x="400.017" y="146.936" xlink:href="#m909e7dfd97" style="stroke:#000"/><use x="406.609" y="168.446" xlink:href="#m909e7dfd97" style="stroke:#000"/><use x="413.195" y="196.214" xlink:href="#m909e7dfd97" style="stroke:#000"/><use x="419.599" y="207.892" xlink:href="#m909e7dfd97" style="stroke:#000"/><use x="426.16" y="202.252" xlink:href="#m909e7dfd97" style="stroke:#000"/><use x="432.639" y="190.629" xlink:href="#m909e7dfd97" style="stroke:#000"/><use x="439.162" y="180.984" xlink:href="#m909e7dfd97" style="stroke:#000"/><use x="445.585" y="174.9" xlink:href="#m909e7dfd97" style="stroke:#000"/><use x="451.876" y="166.994" xlink:href="#m909e7dfd97" style="stroke:#000"/><use x="458.469" y="332.217" xlink:href="#m909e7dfd97" style="stroke:#000"/><use x="464.829" y="304.436" xlink:href="#m909e7dfd97" style="stroke:#000"/><use x="471.264" y="281.939" xlink:href="#m909e7dfd97" style="stroke:#000"/><use x="477.781" y="254.035" xlink:href="#m909e7dfd97" style="stroke:#000"/><use x="484.217" y="231.102" xlink:href="#m909e7dfd97" style="stroke:#000"/><use x="490.834" y="211.162" xlink:href="#m909e7dfd97" style="stroke:#000"/><use x="497.426" y="187.566" xlink:href="#m909e7dfd97" style="stroke:#000"/><use x="503.893" y="165.649" xlink:href="#m909e7dfd97" style="stroke:#000"/><use x="510.397" y="143.747" xlink:href="#m909e7dfd97" style="stroke:#000"/><use x="516.695" y="121.387" xlink:href="#m909e7dfd97" style="stroke:#000"/><use x="523.199" y="131.157" xlink:href="#m909e7dfd97" style="stroke:#000"/><use x="529.791" y="136.399" xlink:href="#m909e7dfd97" style="stroke:#000"/><use x="536.377" y="138.734" xlink:href="#m909e7dfd97" style="stroke:#000"/><use x="542.838" y="137.368" xlink:href="#m909e7dfd97" style="stroke:#000"/><use x="549.142" y="137.993" xlink:href="#m909e7dfd97" style="stroke:#000"/><use x="555.734" y="144.434" xlink:href="#m909e7dfd97" style="stroke:#000"/><use x="562.332" y="144.001" xlink:href="#m909e7dfd97" style="stroke:#000"/><use x="568.705" y="142.964" xlink:href="#m909e7dfd97" style="stroke:#000"/><use x="575.31" y="141.344" xlink:href="#m909e7dfd97" style="stroke:#000"/><use x="581.682" y="142.129" xlink:href="#m909e7dfd97" style="stroke:#000"/><use x="588.112" y="141.667" xlink:href="#m909e7dfd97" style="stroke:#000"/><use x="594.547" y="140.873" xlink:href="#m909e7dfd97" style="stroke:#000"/><use x="601.133" y="142.097" xlink:href="#m909e7dfd97" style="stroke:#000"/><use x="607.556" y="137.522" xlink:href="#m909e7dfd97" style="stroke:#000"/><use x="614.148" y="143.195" xlink:href="#m909e7dfd97" style="stroke:#000"/><use x="620.615" y="148.153" xlink:href="#m909e7dfd97" style="stroke:#000"/><use x="627.207" y="146.929" xlink:href="#m909e7dfd97" style="stroke:#000"/><use x="633.586" y="170.533" xlink:href="#m909e7dfd97" style="stroke:#000"/><use x="640.197" y="308.682" xlink:href="#m909e7dfd97" style="stroke:#000"/><use x="646.745" y="355.947" xlink:href="#m909e7dfd97" style="stroke:#000"/><use x="653.174" y="355.906" xlink:href="#m909e7dfd97" style="stroke:#000"/></g></g><g id="LineCollection_1"><path d="M 128.290909 92.915658 L 678.109091 92.915658" clip-path="url(#pedb0e18c75)" style="fill:none;stroke-dasharray:5.55,2.4;stroke-dashoffset:0;stroke:red;stroke-width:1.5"/></g><g id="LineCollection_2"><path d="M 309.581832 374.072727 L 309.581832 79.527273" clip-path="url(#pedb0e18c75)" style="fill:none;stroke-dasharray:5.55,2.4;stroke-dashoffset:0;stroke:red;stroke-width:1.5"/></g><g id="patch_3"><path d="M 100.8 388.8 L 100.8 64.8" style="fill:none;stroke:#000;stroke-width:.8;stroke-linejoin:miter;stroke-linecap:square"/></g><g id="patch_4"><path d="M 705.6 388.8 L 705.6 64.8" style="fill:none;stroke:#000;stroke-width:.8;stroke-linejoin:miter;stroke-linecap:square"/></g><g id="patch_5"><path d="M 100.8 388.8 L 705.6 388.8" style="fill:none;stroke:#000;stroke-width:.8;stroke-linejoin:miter;stroke-linecap:square"/></g><g id="patch_6"><path d="M 100.8 64.8 L 705.6 64.8" style="fill:none;stroke:#000;stroke-width:.8;stroke-linejoin:miter;stroke-linecap:square"/></g><g id="text_15"><g transform="translate(228.135937 45.362625) scale(0.12 -0.12)"><defs><path id="DejaVuSans-2f" d="M 1625 4666 L 2156 4666 L 531 -594 L 0 -594 L 1625 4666 z" transform="scale(0.015625)"/><path id="DejaVuSans-55" d="M 556 4666 L 1191 4666 L 1191 1831 Q 1191 1081 1462 751 Q 1734 422 2344 422 Q 2950 422 3222 751 Q 3494 1081 3494 1831 L 3494 4666 L 4128 4666 L 4128 1753 Q 4128 841 3676 375 Q 3225 -91 2344 -91 Q 1459 -91 1007 375 Q 556 841 556 1753 L 556 4666 z" transform="scale(0.015625)"/><path id="DejaVuSans-6a" d="M 603 3500 L 1178 3500 L 1178 -63 Q 1178 -731 923 -1031 Q 669 -1331 103 -1331 L -116 -1331 L -116 -844 L 38 -844 Q 366 -844 484 -692 Q 603 -541 603 -63 L 603 3500 z M 603 4863 L 1178 4863 L 1178 4134 L 603 4134 L 603 4863 z" transform="scale(0.015625)"/><path id="DejaVuSans-61" d="M 2194 1759 Q 1497 1759 1228 1600 Q 959 1441 959 1056 Q 959 750 1161 570 Q 1363 391 1709 391 Q 2188 391 2477 730 Q 2766 1069 2766 1631 L 2766 1759 L 2194 1759 z M 3341 1997 L 3341 0 L 2766 0 L 2766 531 Q 2569 213 2275 61 Q 1981 -91 1556 -91 Q 1019 -91 701 211 Q 384 513 384 1019 Q 384 1609 779 1909 Q 1175 2209 1959 2209 L 2766 2209 L 2766 2266 Q 2766 2663 2505 2880 Q 2244 3097 1772 3097 Q 1472 3097 1187 3025 Q 903 2953 641 2809 L 641 3341 Q 956 3463 1253 3523 Q 1550 3584 1831 3584 Q 2591 3584 2966 3190 Q 3341 2797 3341 1997 z" transform="scale(0.015625)"/><path id="DejaVuSans-62" d="M 3116 1747 Q 3116 2381 2855 2742 Q 2594 3103 2138 3103 Q 1681 3103 1420 2742 Q 1159 2381 1159 1747 Q 1159 1113 1420 752 Q 1681 391 2138 391 Q 2594 391 2855 752 Q 3116 1113 3116 1747 z M 1159 2969 Q 1341 3281 1617 3432 Q 1894 3584 2278 3584 Q 2916 3584 3314 3078 Q 3713 2572 3713 1747 Q 3713 922 3314 415 Q 2916 -91 2278 -91 Q 1894 -91 1617 61 Q 1341 213 1159 525 L 1159 0 L 581 0 L 581 4863 L 1159 4863 L 1159 2969 z" transform="scale(0.015625)"/><path id="DejaVuSans-70" d="M 1159 525 L 1159 -1331 L 581 -1331 L 581 3500 L 1159 3500 L 1159 2969 Q 1341 3281 1617 3432 Q 1894 3584 2278 3584 Q 2916 3584 3314 3078 Q 3713 2572 3713 1747 Q 3713 922 3314 415 Q 2916 -91 2278 -91 Q 1894 -91 1617 61 Q 1341 213 1159 525 z M 3116 1747 Q 3116 2381 2855 2742 Q 2594 3103 2138 3103 Q 1681 3103 1420 2742 Q 1159 2381 1159 1747 Q 1159 1113 1420 752 Q 1681 391 2138 391 Q 2594 391 2855 752 Q 3116 1113 3116 1747 z" transform="scale(0.015625)"/><path id="DejaVuSans-68" d="M 3513 2113 L 3513 0 L 2938 0 L 2938 2094 Q 2938 2591 2744 2837 Q 2550 3084 2163 3084 Q 1697 3084 1428 2787 Q 1159 2491 1159 1978 L 1159 0 L 581 0 L 581 4863 L 1159 4863 L 1159 2956 Q 1366 3272 1645 3428 Q 1925 3584 2291 3584 Q 2894 3584 3203 3211 Q 3513 2838 3513 2113 z" transform="scale(0.015625)"/><path id="DejaVuSans-67" d="M 2906 1791 Q 2906 2416 2648 2759 Q 2391 3103 1925 3103 Q 1463 3103 1205 2759 Q 947 2416 947 1791 Q 947 1169 1205 825 Q 1463 481 1925 481 Q 2391 481 2648 825 Q 2906 1169 2906 1791 z M 3481 434 Q 3481 -459 3084 -895 Q 2688 -1331 1869 -1331 Q 1566 -1331 1297 -1286 Q 1028 -1241 775 -1147 L 775 -588 Q 1028 -725 1275 -790 Q 1522 -856 1778 -856 Q 2344 -856 2625 -561 Q 2906 -266 2906 331 L 2906 616 Q 2728 306 2450 153 Q 2172 0 1784 0 Q 1141 0 747 490 Q 353 981 353 1791 Q 353 2603 747 3093 Q 1141 3584 1784 3584 Q 2172 3584 2450 3431 Q 2728 3278 2906 2969 L 2906 3500 L 3481 3500 L 3481 434 z" transform="scale(0.015625)"/><path id="DejaVuSans-2d" d="M 313 2009 L 1997 2009 L 1997 1497 L 313 1497 L 313 2009 z" transform="scale(0.015625)"/><path id="DejaVuSans-2e" d="M 684 794 L 1344 794 L 1344 0 L 684 0 L 684 794 z" transform="scale(0.015625)"/></defs><use xlink:href="#DejaVuSans-2f"/><use x="33.691" xlink:href="#DejaVuSans-55"/><use x="106.885" xlink:href="#DejaVuSans-73"/><use x="158.984" xlink:href="#DejaVuSans-65"/><use x="220.508" xlink:href="#DejaVuSans-72"/><use x="261.621" xlink:href="#DejaVuSans-73"/><use x="313.721" xlink:href="#DejaVuSans-2f"/><use x="347.412" xlink:href="#DejaVuSans-6a"/><use x="375.195" xlink:href="#DejaVuSans-65"/><use x="436.719" xlink:href="#DejaVuSans-72"/><use x="475.582" xlink:href="#DejaVuSans-65"/><use x="537.105" xlink:href="#DejaVuSans-6d"/><use x="634.518" xlink:href="#DejaVuSans-79"/><use x="693.697" xlink:href="#DejaVuSans-2f"/><use x="727.389" xlink:href="#DejaVuSans-6d"/><use x="824.801" xlink:href="#DejaVuSans-69"/><use x="852.584" xlink:href="#DejaVuSans-6e"/><use x="915.963" xlink:href="#DejaVuSans-69"/><use x="943.746" xlink:href="#DejaVuSans-63"/><use x="998.727" xlink:href="#DejaVuSans-6f"/><use x="1059.908" xlink:href="#DejaVuSans-6e"/><use x="1123.287" xlink:href="#DejaVuSans-64"/><use x="1186.764" xlink:href="#DejaVuSans-61"/><use x="1248.043" xlink:href="#DejaVuSans-33"/><use x="1311.666" xlink:href="#DejaVuSans-2f"/><use x="1345.357" xlink:href="#DejaVuSans-62"/><use x="1408.834" xlink:href="#DejaVuSans-69"/><use x="1436.617" xlink:href="#DejaVuSans-6e"/><use x="1499.996" xlink:href="#DejaVuSans-2f"/><use x="1533.688" xlink:href="#DejaVuSans-70"/><use x="1597.164" xlink:href="#DejaVuSans-79"/><use x="1656.344" xlink:href="#DejaVuSans-74"/><use x="1695.553" xlink:href="#DejaVuSans-68"/><use x="1758.932" xlink:href="#DejaVuSans-6f"/><use x="1820.113" xlink:href="#DejaVuSans-6e"/><use x="1883.492" xlink:href="#DejaVuSans-20"/><use x="1915.279" xlink:href="#DejaVuSans-6d"/><use x="2012.691" xlink:href="#DejaVuSans-61"/><use x="2073.971" xlink:href="#DejaVuSans-6e"/><use x="2137.35" xlink:href="#DejaVuSans-61"/><use x="2198.629" xlink:href="#DejaVuSans-67"/><use x="2262.105" xlink:href="#DejaVuSans-65"/><use x="2323.629" xlink:href="#DejaVuSans-2d"/><use x="2359.713" xlink:href="#DejaVuSans-6d"/><use x="2457.125" xlink:href="#DejaVuSans-65"/><use x="2518.648" xlink:href="#DejaVuSans-6d"/><use x="2616.061" xlink:href="#DejaVuSans-6f"/><use x="2677.242" xlink:href="#DejaVuSans-72"/><use x="2718.355" xlink:href="#DejaVuSans-79"/><use x="2763.285" xlink:href="#DejaVuSans-2e"/><use x="2795.072" xlink:href="#DejaVuSans-70"/><use x="2858.549" xlink:href="#DejaVuSans-79"/></g></g><g id="legend_1"><g id="patch_7"><path d="M 712.6 235.639063 L 931.785937 235.639063 Q 933.785937 235.639063 933.785937 233.639063 L 933.785937 219.960938 Q 933.785937 217.960938 931.785937 217.960938 L 712.6 217.960938 Q 710.6 217.960938 710.6 219.960938 L 710.6 233.639063 Q 710.6 235.639063 712.6 235.639063 z" style="fill:#fff;opacity:.5;stroke:#ccc;stroke-linejoin:miter"/></g><g id="line2d_26"><path d="M 714.6 226.059375 L 724.6 226.059375 L 734.6 226.059375" style="fill:none;stroke:#000;stroke-width:1.5;stroke-linecap:square"/><g><use x="724.6" y="226.059" xlink:href="#m909e7dfd97" style="stroke:#000"/></g></g><g id="text_16"><g transform="translate(742.6 229.559375) scale(0.1 -0.1)"><defs><path id="DejaVuSans-3a" d="M 750 794 L 1409 794 L 1409 0 L 750 0 L 750 794 z M 750 3309 L 1409 3309 L 1409 2516 L 750 2516 L 750 3309 z" transform="scale(0.015625)"/></defs><use xlink:href="#DejaVuSans-31"/><use x="63.623" xlink:href="#DejaVuSans-31"/><use x="127.246" xlink:href="#DejaVuSans-20"/><use x="159.033" xlink:href="#DejaVuSans-2f"/><use x="192.725" xlink:href="#DejaVuSans-20"/><use x="224.512" xlink:href="#DejaVuSans-30"/><use x="288.135" xlink:href="#DejaVuSans-34"/><use x="351.758" xlink:href="#DejaVuSans-20"/><use x="383.545" xlink:href="#DejaVuSans-2f"/><use x="417.236" xlink:href="#DejaVuSans-20"/><use x="449.023" xlink:href="#DejaVuSans-32"/><use x="512.646" xlink:href="#DejaVuSans-30"/><use x="576.27" xlink:href="#DejaVuSans-32"/><use x="639.893" xlink:href="#DejaVuSans-34"/><use x="703.516" xlink:href="#DejaVuSans-20"/><use x="735.303" xlink:href="#DejaVuSans-2d"/><use x="771.387" xlink:href="#DejaVuSans-20"/><use x="803.174" xlink:href="#DejaVuSans-73"/><use x="855.273" xlink:href="#DejaVuSans-74"/><use x="894.482" xlink:href="#DejaVuSans-61"/><use x="955.762" xlink:href="#DejaVuSans-72"/><use x="996.875" xlink:href="#DejaVuSans-74"/><use x="1036.084" xlink:href="#DejaVuSans-20"/><use x="1067.871" xlink:href="#DejaVuSans-61"/><use x="1129.15" xlink:href="#DejaVuSans-74"/><use x="1168.359" xlink:href="#DejaVuSans-20"/><use x="1200.146" xlink:href="#DejaVuSans-32"/><use x="1263.77" xlink:href="#DejaVuSans-33"/><use x="1327.393" xlink:href="#DejaVuSans-3a"/><use x="1361.084" xlink:href="#DejaVuSans-33"/><use x="1424.707" xlink:href="#DejaVuSans-36"/><use x="1488.33" xlink:href="#DejaVuSans-3a"/><use x="1522.021" xlink:href="#DejaVuSans-30"/><use x="1585.645" xlink:href="#DejaVuSans-33"/><use x="1649.268" xlink:href="#DejaVuSans-2e"/><use x="1681.055" xlink:href="#DejaVuSans-31"/><use x="1744.678" xlink:href="#DejaVuSans-38"/><use x="1808.301" xlink:href="#DejaVuSans-34"/></g></g></g></g></g><defs><clipPath id="pedb0e18c75"><rect width="604.8" height="324" x="100.8" y="64.8"/></clipPath></defs></svg>