<svg xmlns="http://www.w3.org/2000/svg" xmlns:xlink="http://www.w3.org/1999/xlink" width="908.822" height="1390.527" version="1.1" viewBox="0 0 681.616 1042.895"><metadata><rdf:RDF xmlns:cc="http://creativecommons.org/ns#" xmlns:dc="http://purl.org/dc/elements/1.1/" xmlns:rdf="http://www.w3.org/1999/02/22-rdf-syntax-ns#"><cc:Work><dc:type rdf:resource="http://purl.org/dc/dcmitype/StillImage"/><dc:date>2022-11-09T00:40:46.545208</dc:date><dc:format>image/svg+xml</dc:format><dc:creator><cc:Agent><dc:title>Matplotlib v3.5.1, https://matplotlib.org/</dc:title></cc:Agent></dc:creator></cc:Work></rdf:RDF></metadata><defs><style type="text/css">*{stroke-linejoin:round;stroke-linecap:butt}</style></defs><g id="figure_1"><g id="patch_1"><path d="M 0 1042.895114 L 681.616446 1042.895114 L 681.616446 0 L 0 0 z" style="fill:#fff"/></g><g id="axes_1"><g id="patch_2"><path d="M 69.41517 321.289412 L 571.61517 321.289412 L 571.61517 41.76 L 69.41517 41.76 z" style="fill:#fff"/></g><g id="matplotlib.axis_1"><g id="xtick_1"><g id="line2d_1"><defs><path id="mf8703b9b00" d="M 0 0 L 0 3.5" style="stroke:#000;stroke-width:.8"/></defs><g><use x="92.242" y="321.289" xlink:href="#mf8703b9b00" style="stroke:#000;stroke-width:.8"/></g></g><g id="text_1"><g transform="translate(88.130299 340.742712)scale(0.18 -0.18)"><defs><path id="CMR17-30" d="M 2688 2038 C 2688 2430 2682 3099 2413 3613 C 2176 4063 1798 4224 1466 4224 C 1158 4224 768 4082 525 3620 C 269 3137 243 2539 243 2038 C 243 1671 250 1112 448 623 C 723 -39 1216 -128 1466 -128 C 1760 -128 2208 -7 2470 604 C 2662 1048 2688 1568 2688 2038 z M 1466 -26 C 1056 -26 813 328 723 816 C 653 1196 653 1749 653 2109 C 653 2604 653 3015 736 3407 C 858 3954 1216 4121 1466 4121 C 1728 4121 2067 3947 2189 3420 C 2272 3054 2278 2623 2278 2109 C 2278 1691 2278 1176 2202 797 C 2067 96 1690 -26 1466 -26 z" transform="scale(0.015625)"/></defs><use transform="scale(0.996264)" xlink:href="#CMR17-30"/></g></g></g><g id="xtick_2"><g id="line2d_2"><g><use x="119.098" y="321.289" xlink:href="#mf8703b9b00" style="stroke:#000;stroke-width:.8"/></g></g><g id="text_2"><g transform="translate(114.985914 340.742712)scale(0.18 -0.18)"><defs><path id="CMR17-31" d="M 1702 4083 C 1702 4217 1696 4224 1606 4224 C 1357 3927 979 3833 621 3820 C 602 3820 570 3820 563 3808 C 557 3795 557 3782 557 3648 C 755 3648 1088 3686 1344 3839 L 1344 467 C 1344 243 1331 166 781 166 L 589 166 L 589 0 C 896 6 1216 12 1523 12 C 1830 12 2150 6 2458 0 L 2458 166 L 2266 166 C 1715 166 1702 236 1702 467 L 1702 4083 z" transform="scale(0.015625)"/></defs><use transform="scale(0.996264)" xlink:href="#CMR17-31"/></g></g></g><g id="xtick_3"><g id="line2d_3"><g><use x="145.954" y="321.289" xlink:href="#mf8703b9b00" style="stroke:#000;stroke-width:.8"/></g></g><g id="text_3"><g transform="translate(141.841529 340.742712)scale(0.18 -0.18)"><defs><path id="CMR17-32" d="M 2669 990 L 2554 990 C 2490 537 2438 460 2413 422 C 2381 371 1920 371 1830 371 L 602 371 C 832 620 1280 1073 1824 1596 C 2214 1966 2669 2400 2669 3033 C 2669 3788 2067 4224 1395 4224 C 691 4224 262 3603 262 3027 C 262 2777 448 2745 525 2745 C 589 2745 781 2783 781 3007 C 781 3206 614 3264 525 3264 C 486 3264 448 3257 422 3244 C 544 3788 915 4057 1306 4057 C 1862 4057 2227 3616 2227 3033 C 2227 2477 1901 1998 1536 1583 L 262 147 L 262 0 L 2515 0 L 2669 990 z" transform="scale(0.015625)"/></defs><use transform="scale(0.996264)" xlink:href="#CMR17-32"/></g></g></g><g id="xtick_4"><g id="line2d_4"><g><use x="172.809" y="321.289" xlink:href="#mf8703b9b00" style="stroke:#000;stroke-width:.8"/></g></g><g id="text_4"><g transform="translate(168.697144 340.742712)scale(0.18 -0.18)"><defs><path id="CMR17-33" d="M 1414 2176 C 1984 2176 2234 1673 2234 1094 C 2234 322 1824 25 1453 25 C 1114 25 563 193 390 691 C 422 678 454 678 486 678 C 640 678 755 780 755 947 C 755 1132 614 1216 486 1216 C 378 1216 211 1164 211 927 C 211 335 787 -128 1466 -128 C 2176 -128 2720 432 2720 1087 C 2720 1718 2208 2176 1600 2246 C 2086 2347 2554 2776 2554 3353 C 2554 3856 2048 4224 1472 4224 C 890 4224 378 3862 378 3347 C 378 3123 544 3084 627 3084 C 762 3084 877 3167 877 3334 C 877 3500 762 3584 627 3584 C 602 3584 570 3584 544 3571 C 730 3999 1235 4076 1459 4076 C 1683 4076 2106 3966 2106 3347 C 2106 3167 2080 2851 1862 2574 C 1670 2329 1453 2316 1242 2297 C 1210 2297 1062 2284 1037 2284 C 992 2278 966 2272 966 2227 C 966 2182 973 2176 1101 2176 L 1414 2176 z" transform="scale(0.015625)"/></defs><use transform="scale(0.996264)" xlink:href="#CMR17-33"/></g></g></g><g id="xtick_5"><g id="line2d_5"><g><use x="199.665" y="321.289" xlink:href="#mf8703b9b00" style="stroke:#000;stroke-width:.8"/></g></g><g id="text_5"><g transform="translate(195.552759 340.742712)scale(0.18 -0.18)"><defs><path id="CMR17-34" d="M 2150 4147 C 2150 4281 2144 4288 2029 4288 L 128 1254 L 128 1088 L 1779 1088 L 1779 460 C 1779 230 1766 166 1318 166 L 1197 166 L 1197 0 C 1402 12 1747 12 1965 12 C 2182 12 2528 12 2733 0 L 2733 166 L 2611 166 C 2163 166 2150 230 2150 460 L 2150 1088 L 2803 1088 L 2803 1254 L 2150 1254 L 2150 4147 z M 1798 3723 L 1798 1254 L 256 1254 L 1798 3723 z" transform="scale(0.015625)"/></defs><use transform="scale(0.996264)" xlink:href="#CMR17-34"/></g></g></g><g id="xtick_6"><g id="line2d_6"><g><use x="226.521" y="321.289" xlink:href="#mf8703b9b00" style="stroke:#000;stroke-width:.8"/></g></g><g id="text_6"><g transform="translate(222.408374 340.742712)scale(0.18 -0.18)"><defs><path id="CMR17-35" d="M 730 3750 C 794 3724 1056 3641 1325 3641 C 1920 3641 2246 3961 2432 4140 C 2432 4191 2432 4224 2394 4224 C 2387 4224 2374 4224 2323 4198 C 2099 4102 1837 4032 1517 4032 C 1325 4032 1037 4055 723 4191 C 653 4224 640 4224 634 4224 C 602 4224 595 4217 595 4090 L 595 2231 C 595 2113 595 2080 659 2080 C 691 2080 704 2093 736 2139 C 941 2435 1222 2560 1542 2560 C 1766 2560 2246 2415 2246 1293 C 2246 1087 2246 716 2054 422 C 1894 159 1645 25 1370 25 C 947 25 518 319 403 812 C 429 806 480 793 506 793 C 589 793 749 838 749 1036 C 749 1209 627 1280 506 1280 C 358 1280 262 1190 262 1011 C 262 454 704 -128 1382 -128 C 2042 -128 2669 441 2669 1267 C 2669 2054 2170 2662 1549 2662 C 1222 2662 947 2540 730 2304 L 730 3750 z" transform="scale(0.015625)"/></defs><use transform="scale(0.996264)" xlink:href="#CMR17-35"/></g></g></g><g id="xtick_7"><g id="line2d_7"><g><use x="253.376" y="321.289" xlink:href="#mf8703b9b00" style="stroke:#000;stroke-width:.8"/></g></g><g id="text_7"><g transform="translate(249.263989 340.742712)scale(0.18 -0.18)"><defs><path id="CMR17-36" d="M 678 2198 C 678 3712 1395 4076 1811 4076 C 1946 4076 2272 4049 2400 3782 C 2298 3782 2106 3782 2106 3558 C 2106 3385 2246 3328 2336 3328 C 2394 3328 2566 3353 2566 3571 C 2566 3987 2246 4224 1805 4224 C 1043 4224 243 3411 243 2011 C 243 257 966 -128 1478 -128 C 2099 -128 2688 431 2688 1295 C 2688 2101 2170 2688 1517 2688 C 1126 2688 838 2430 678 1979 L 678 2198 z M 1478 25 C 691 25 691 1212 691 1450 C 691 1914 909 2585 1504 2585 C 1613 2585 1926 2585 2138 2140 C 2253 1889 2253 1624 2253 1302 C 2253 954 2253 696 2118 438 C 1978 173 1773 25 1478 25 z" transform="scale(0.015625)"/></defs><use transform="scale(0.996264)" xlink:href="#CMR17-36"/></g></g></g><g id="xtick_8"><g id="line2d_8"><g><use x="280.232" y="321.289" xlink:href="#mf8703b9b00" style="stroke:#000;stroke-width:.8"/></g></g><g id="text_8"><g transform="translate(276.119604 340.742712)scale(0.18 -0.18)"><defs><path id="CMR17-37" d="M 2886 3955 L 2886 4096 L 1382 4096 C 634 4096 621 4166 595 4288 L 480 4288 L 294 3104 L 410 3104 C 429 3226 474 3552 550 3673 C 589 3724 1062 3724 1171 3724 L 2579 3724 L 1869 2670 C 1395 1961 1069 1003 1069 166 C 1069 89 1069 -128 1299 -128 C 1530 -128 1530 89 1530 172 L 1530 466 C 1530 1514 1709 2204 2003 2644 L 2886 3955 z" transform="scale(0.015625)"/></defs><use transform="scale(0.996264)" xlink:href="#CMR17-37"/></g></g></g><g id="xtick_9"><g id="line2d_9"><g><use x="307.087" y="321.289" xlink:href="#mf8703b9b00" style="stroke:#000;stroke-width:.8"/></g></g><g id="text_9"><g transform="translate(302.975219 340.742712)scale(0.18 -0.18)"><defs><path id="CMR17-38" d="M 1741 2289 C 2144 2494 2554 2803 2554 3298 C 2554 3884 1990 4224 1472 4224 C 890 4224 378 3800 378 3215 C 378 3054 416 2777 666 2533 C 730 2469 998 2276 1171 2154 C 883 2006 211 1652 211 945 C 211 282 838 -128 1459 -128 C 2144 -128 2720 366 2720 1022 C 2720 1607 2330 1877 2074 2051 L 1741 2289 z M 902 2855 C 851 2887 595 3086 595 3388 C 595 3781 998 4076 1459 4076 C 1965 4076 2336 3716 2336 3298 C 2336 2700 1670 2359 1638 2359 C 1632 2359 1626 2359 1574 2398 L 902 2855 z M 2080 1536 C 2176 1466 2483 1253 2483 861 C 2483 385 2010 25 1472 25 C 890 25 448 443 448 951 C 448 1459 838 1884 1280 2083 L 2080 1536 z" transform="scale(0.015625)"/></defs><use transform="scale(0.996264)" xlink:href="#CMR17-38"/></g></g></g><g id="xtick_10"><g id="line2d_10"><g><use x="333.943" y="321.289" xlink:href="#mf8703b9b00" style="stroke:#000;stroke-width:.8"/></g></g><g id="text_10"><g transform="translate(329.830834 340.742712)scale(0.18 -0.18)"><defs><path id="CMR17-39" d="M 2253 1871 C 2253 448 1670 25 1190 25 C 1043 25 685 43 538 281 C 704 256 826 345 826 505 C 826 678 685 736 595 736 C 538 736 365 710 365 492 C 365 68 742 -128 1203 -128 C 1939 -128 2688 665 2688 2090 C 2688 3857 1971 4224 1485 4224 C 851 4224 243 3664 243 2800 C 243 2000 762 1408 1414 1408 C 1952 1408 2189 1910 2253 2122 L 2253 1871 z M 1427 1510 C 1254 1510 1011 1542 813 1929 C 678 2181 678 2477 678 2793 C 678 3174 678 3438 858 3722 C 947 3857 1114 4076 1485 4076 C 2240 4076 2240 2909 2240 2651 C 2240 2193 2035 1510 1427 1510 z" transform="scale(0.015625)"/></defs><use transform="scale(0.996264)" xlink:href="#CMR17-39"/></g></g></g><g id="xtick_11"><g id="line2d_11"><g><use x="360.799" y="321.289" xlink:href="#mf8703b9b00" style="stroke:#000;stroke-width:.8"/></g></g><g id="text_11"><g transform="translate(352.574306 340.742712)scale(0.18 -0.18)"><use transform="scale(0.996264)" xlink:href="#CMR17-31"/><use transform="translate(45.690477 0)scale(0.996264)" xlink:href="#CMR17-30"/></g></g></g><g id="xtick_12"><g id="line2d_12"><g><use x="387.654" y="321.289" xlink:href="#mf8703b9b00" style="stroke:#000;stroke-width:.8"/></g></g><g id="text_12"><g transform="translate(379.429921 340.742712)scale(0.18 -0.18)"><use transform="scale(0.996264)" xlink:href="#CMR17-31"/><use transform="translate(45.690477 0)scale(0.996264)" xlink:href="#CMR17-31"/></g></g></g><g id="xtick_13"><g id="line2d_13"><g><use x="414.51" y="321.289" xlink:href="#mf8703b9b00" style="stroke:#000;stroke-width:.8"/></g></g><g id="text_13"><g transform="translate(406.285536 340.742712)scale(0.18 -0.18)"><use transform="scale(0.996264)" xlink:href="#CMR17-31"/><use transform="translate(45.690477 0)scale(0.996264)" xlink:href="#CMR17-32"/></g></g></g><g id="xtick_14"><g id="line2d_14"><g><use x="441.365" y="321.289" xlink:href="#mf8703b9b00" style="stroke:#000;stroke-width:.8"/></g></g><g id="text_14"><g transform="translate(433.141151 340.742712)scale(0.18 -0.18)"><use transform="scale(0.996264)" xlink:href="#CMR17-31"/><use transform="translate(45.690477 0)scale(0.996264)" xlink:href="#CMR17-33"/></g></g></g><g id="xtick_15"><g id="line2d_15"><g><use x="468.221" y="321.289" xlink:href="#mf8703b9b00" style="stroke:#000;stroke-width:.8"/></g></g><g id="text_15"><g transform="translate(459.996766 340.742712)scale(0.18 -0.18)"><use transform="scale(0.996264)" xlink:href="#CMR17-31"/><use transform="translate(45.690477 0)scale(0.996264)" xlink:href="#CMR17-34"/></g></g></g><g id="xtick_16"><g id="line2d_16"><g><use x="495.077" y="321.289" xlink:href="#mf8703b9b00" style="stroke:#000;stroke-width:.8"/></g></g><g id="text_16"><g transform="translate(486.852381 340.742712)scale(0.18 -0.18)"><use transform="scale(0.996264)" xlink:href="#CMR17-31"/><use transform="translate(45.690477 0)scale(0.996264)" xlink:href="#CMR17-35"/></g></g></g><g id="xtick_17"><g id="line2d_17"><g><use x="521.932" y="321.289" xlink:href="#mf8703b9b00" style="stroke:#000;stroke-width:.8"/></g></g><g id="text_17"><g transform="translate(513.707996 340.742712)scale(0.18 -0.18)"><use transform="scale(0.996264)" xlink:href="#CMR17-31"/><use transform="translate(45.690477 0)scale(0.996264)" xlink:href="#CMR17-36"/></g></g></g><g id="xtick_18"><g id="line2d_18"><g><use x="548.788" y="321.289" xlink:href="#mf8703b9b00" style="stroke:#000;stroke-width:.8"/></g></g><g id="text_18"><g transform="translate(540.563611 340.742712)scale(0.18 -0.18)"><use transform="scale(0.996264)" xlink:href="#CMR17-31"/><use transform="translate(45.690477 0)scale(0.996264)" xlink:href="#CMR17-37"/></g></g></g></g><g id="matplotlib.axis_2"><g id="ytick_1"><g id="line2d_19"><defs><path id="m705b559d60" d="M 0 0 L -3.5 0" style="stroke:#000;stroke-width:.8"/></defs><g><use x="69.415" y="298.276" xlink:href="#m705b559d60" style="stroke:#000;stroke-width:.8"/></g></g><g id="text_19"><g transform="translate(32.86482 304.502912)scale(0.18 -0.18)"><defs><path id="CMMI12-3a" d="M 1178 307 C 1178 492 1024 620 870 620 C 685 620 557 467 557 313 C 557 128 710 0 864 0 C 1050 0 1178 153 1178 307 z" transform="scale(0.015625)"/></defs><use transform="scale(0.996264)" xlink:href="#CMR17-30"/><use transform="translate(45.690477 0)scale(0.996264)" xlink:href="#CMMI12-3a"/><use transform="translate(72.787654 0)scale(0.996264)" xlink:href="#CMR17-34"/><use transform="translate(118.478131 0)scale(0.996264)" xlink:href="#CMR17-30"/></g></g></g><g id="ytick_2"><g id="line2d_20"><g><use x="69.415" y="239.9" xlink:href="#m705b559d60" style="stroke:#000;stroke-width:.8"/></g></g><g id="text_20"><g transform="translate(32.86482 246.127134)scale(0.18 -0.18)"><use transform="scale(0.996264)" xlink:href="#CMR17-30"/><use transform="translate(45.690477 0)scale(0.996264)" xlink:href="#CMMI12-3a"/><use transform="translate(72.787654 0)scale(0.996264)" xlink:href="#CMR17-34"/><use transform="translate(118.478131 0)scale(0.996264)" xlink:href="#CMR17-35"/></g></g></g><g id="ytick_3"><g id="line2d_21"><g><use x="69.415" y="181.525" xlink:href="#m705b559d60" style="stroke:#000;stroke-width:.8"/></g></g><g id="text_21"><g transform="translate(32.86482 187.751356)scale(0.18 -0.18)"><use transform="scale(0.996264)" xlink:href="#CMR17-30"/><use transform="translate(45.690477 0)scale(0.996264)" xlink:href="#CMMI12-3a"/><use transform="translate(72.787654 0)scale(0.996264)" xlink:href="#CMR17-35"/><use transform="translate(118.478131 0)scale(0.996264)" xlink:href="#CMR17-30"/></g></g></g><g id="ytick_4"><g id="line2d_22"><g><use x="69.415" y="123.149" xlink:href="#m705b559d60" style="stroke:#000;stroke-width:.8"/></g></g><g id="text_22"><g transform="translate(32.86482 129.375578)scale(0.18 -0.18)"><use transform="scale(0.996264)" xlink:href="#CMR17-30"/><use transform="translate(45.690477 0)scale(0.996264)" xlink:href="#CMMI12-3a"/><use transform="translate(72.787654 0)scale(0.996264)" xlink:href="#CMR17-35"/><use transform="translate(118.478131 0)scale(0.996264)" xlink:href="#CMR17-35"/></g></g></g><g id="ytick_5"><g id="line2d_23"><g><use x="69.415" y="64.773" xlink:href="#m705b559d60" style="stroke:#000;stroke-width:.8"/></g></g><g id="text_23"><g transform="translate(32.86482 70.9998)scale(0.18 -0.18)"><use transform="scale(0.996264)" xlink:href="#CMR17-30"/><use transform="translate(45.690477 0)scale(0.996264)" xlink:href="#CMMI12-3a"/><use transform="translate(72.787654 0)scale(0.996264)" xlink:href="#CMR17-36"/><use transform="translate(118.478131 0)scale(0.996264)" xlink:href="#CMR17-30"/></g></g></g><g id="text_24"><g transform="translate(25.376756 186.504947)rotate(-90)scale(0.18 -0.18)"><defs><path id="CMMI12-19" d="M 1658 2406 L 2381 2406 C 2208 1691 2099 1225 2099 715 C 2099 625 2099 -64 2362 -64 C 2496 -64 2611 57 2611 166 C 2611 198 2611 210 2566 306 C 2394 746 2394 1295 2394 1340 C 2394 1378 2394 1832 2528 2406 L 3245 2406 C 3328 2406 3539 2406 3539 2611 C 3539 2752 3418 2752 3302 2752 L 1197 2752 C 1050 2752 832 2752 538 2438 C 371 2253 166 1915 166 1876 C 166 1838 198 1825 237 1825 C 282 1825 288 1844 320 1883 C 653 2406 986 2406 1146 2406 L 1510 2406 C 1370 1927 1210 1372 685 255 C 634 153 634 140 634 102 C 634 -32 749 -64 806 -64 C 992 -64 1043 102 1120 370 C 1222 695 1222 708 1286 964 L 1658 2406 z" transform="scale(0.015625)"/></defs><use transform="scale(0.996264)" xlink:href="#CMMI12-19"/></g></g></g><g id="line2d_24"><path d="M 92.242442 181.524706 L 119.098057 54.465882 L 145.953672 63.409441 L 172.809287 69.449892 L 199.664902 72.989483 L 226.520517 74.990661 L 253.376132 76.128554 L 280.231747 76.793766 L 307.087362 77.196532 L 333.942977 77.449504 L 360.798592 77.614175 L 387.654207 77.724973 L 414.509822 77.801725 L 441.365437 77.856207 L 468.221052 77.895648 L 495.076667 77.92464 L 521.932282 77.946199 L 548.787897 77.962368" clip-path="url(#pf39bebdf0c)" style="fill:none;stroke:#1f77b4;stroke-width:1.5;stroke-linecap:square"/></g><g id="line2d_25"><path d="M 92.242442 181.524706 L 119.098057 308.583529 L 145.953672 299.63997 L 172.809287 293.59952 L 199.664902 290.059928 L 226.520517 288.058751 L 253.376132 286.920858 L 280.231747 286.255646 L 307.087362 285.85288 L 333.942977 285.599908 L 360.798592 285.435237 L 387.654207 285.324438 L 414.509822 285.247687 L 441.365437 285.193205 L 468.221052 285.153764 L 495.076667 285.124772 L 521.932282 285.103213 L 548.787897 285.087044" clip-path="url(#pf39bebdf0c)" style="fill:none;stroke:#ff7f0e;stroke-width:1.5;stroke-linecap:square"/></g><g id="patch_3"><path d="M 69.41517 321.289412 L 69.41517 41.76" style="fill:none;stroke:#000;stroke-width:.8;stroke-linejoin:miter;stroke-linecap:square"/></g><g id="patch_4"><path d="M 571.61517 321.289412 L 571.61517 41.76" style="fill:none;stroke:#000;stroke-width:.8;stroke-linejoin:miter;stroke-linecap:square"/></g><g id="patch_5"><path d="M 69.41517 321.289412 L 571.61517 321.289412" style="fill:none;stroke:#000;stroke-width:.8;stroke-linejoin:miter;stroke-linecap:square"/></g><g id="patch_6"><path d="M 69.41517 41.76 L 571.61517 41.76" style="fill:none;stroke:#000;stroke-width:.8;stroke-linejoin:miter;stroke-linecap:square"/></g><g id="legend_1"><g id="patch_7"><path d="M 584.21517 106.336128 L 657.92126 106.336128 Q 661.52126 106.336128 661.52126 102.736128 L 661.52126 54.36 Q 661.52126 50.76 657.92126 50.76 L 584.21517 50.76 Q 580.61517 50.76 580.61517 54.36 L 580.61517 102.736128 Q 580.61517 106.336128 584.21517 106.336128 z" style="fill:#fff;opacity:.8;stroke:#ccc;stroke-linejoin:miter"/></g><g id="line2d_26"><path d="M 587.81517 64.26 L 605.81517 64.26 L 623.81517 64.26" style="fill:none;stroke:#1f77b4;stroke-width:1.5;stroke-linecap:square"/></g><g id="text_25"><g transform="translate(638.21517 70.56)scale(0.18 -0.18)"><use transform="scale(0.996264)" xlink:href="#CMMI12-19"/><use transform="translate(55.336008 -14.943915)scale(0.697382)" xlink:href="#CMR17-31"/></g></g><g id="line2d_27"><path d="M 587.81517 89.348064 L 605.81517 89.348064 L 623.81517 89.348064" style="fill:none;stroke:#ff7f0e;stroke-width:1.5;stroke-linecap:square"/></g><g id="text_26"><g transform="translate(638.21517 95.648064)scale(0.18 -0.18)"><use transform="scale(0.996264)" xlink:href="#CMMI12-19"/><use transform="translate(55.336008 -14.943915)scale(0.697382)" xlink:href="#CMR17-32"/></g></g></g></g><g id="axes_2"><g id="patch_8"><path d="M 69.41517 656.724706 L 571.61517 656.724706 L 571.61517 377.195294 L 69.41517 377.195294 z" style="fill:#fff"/></g><g id="matplotlib.axis_3"><g id="xtick_19"><g id="line2d_28"><g><use x="92.242" y="656.725" xlink:href="#mf8703b9b00" style="stroke:#000;stroke-width:.8"/></g></g><g id="text_27"><g transform="translate(88.130299 676.178006)scale(0.18 -0.18)"><use transform="scale(0.996264)" xlink:href="#CMR17-30"/></g></g></g><g id="xtick_20"><g id="line2d_29"><g><use x="119.098" y="656.725" xlink:href="#mf8703b9b00" style="stroke:#000;stroke-width:.8"/></g></g><g id="text_28"><g transform="translate(114.985914 676.178006)scale(0.18 -0.18)"><use transform="scale(0.996264)" xlink:href="#CMR17-31"/></g></g></g><g id="xtick_21"><g id="line2d_30"><g><use x="145.954" y="656.725" xlink:href="#mf8703b9b00" style="stroke:#000;stroke-width:.8"/></g></g><g id="text_29"><g transform="translate(141.841529 676.178006)scale(0.18 -0.18)"><use transform="scale(0.996264)" xlink:href="#CMR17-32"/></g></g></g><g id="xtick_22"><g id="line2d_31"><g><use x="172.809" y="656.725" xlink:href="#mf8703b9b00" style="stroke:#000;stroke-width:.8"/></g></g><g id="text_30"><g transform="translate(168.697144 676.178006)scale(0.18 -0.18)"><use transform="scale(0.996264)" xlink:href="#CMR17-33"/></g></g></g><g id="xtick_23"><g id="line2d_32"><g><use x="199.665" y="656.725" xlink:href="#mf8703b9b00" style="stroke:#000;stroke-width:.8"/></g></g><g id="text_31"><g transform="translate(195.552759 676.178006)scale(0.18 -0.18)"><use transform="scale(0.996264)" xlink:href="#CMR17-34"/></g></g></g><g id="xtick_24"><g id="line2d_33"><g><use x="226.521" y="656.725" xlink:href="#mf8703b9b00" style="stroke:#000;stroke-width:.8"/></g></g><g id="text_32"><g transform="translate(222.408374 676.178006)scale(0.18 -0.18)"><use transform="scale(0.996264)" xlink:href="#CMR17-35"/></g></g></g><g id="xtick_25"><g id="line2d_34"><g><use x="253.376" y="656.725" xlink:href="#mf8703b9b00" style="stroke:#000;stroke-width:.8"/></g></g><g id="text_33"><g transform="translate(249.263989 676.178006)scale(0.18 -0.18)"><use transform="scale(0.996264)" xlink:href="#CMR17-36"/></g></g></g><g id="xtick_26"><g id="line2d_35"><g><use x="280.232" y="656.725" xlink:href="#mf8703b9b00" style="stroke:#000;stroke-width:.8"/></g></g><g id="text_34"><g transform="translate(276.119604 676.178006)scale(0.18 -0.18)"><use transform="scale(0.996264)" xlink:href="#CMR17-37"/></g></g></g><g id="xtick_27"><g id="line2d_36"><g><use x="307.087" y="656.725" xlink:href="#mf8703b9b00" style="stroke:#000;stroke-width:.8"/></g></g><g id="text_35"><g transform="translate(302.975219 676.178006)scale(0.18 -0.18)"><use transform="scale(0.996264)" xlink:href="#CMR17-38"/></g></g></g><g id="xtick_28"><g id="line2d_37"><g><use x="333.943" y="656.725" xlink:href="#mf8703b9b00" style="stroke:#000;stroke-width:.8"/></g></g><g id="text_36"><g transform="translate(329.830834 676.178006)scale(0.18 -0.18)"><use transform="scale(0.996264)" xlink:href="#CMR17-39"/></g></g></g><g id="xtick_29"><g id="line2d_38"><g><use x="360.799" y="656.725" xlink:href="#mf8703b9b00" style="stroke:#000;stroke-width:.8"/></g></g><g id="text_37"><g transform="translate(352.574306 676.178006)scale(0.18 -0.18)"><use transform="scale(0.996264)" xlink:href="#CMR17-31"/><use transform="translate(45.690477 0)scale(0.996264)" xlink:href="#CMR17-30"/></g></g></g><g id="xtick_30"><g id="line2d_39"><g><use x="387.654" y="656.725" xlink:href="#mf8703b9b00" style="stroke:#000;stroke-width:.8"/></g></g><g id="text_38"><g transform="translate(379.429921 676.178006)scale(0.18 -0.18)"><use transform="scale(0.996264)" xlink:href="#CMR17-31"/><use transform="translate(45.690477 0)scale(0.996264)" xlink:href="#CMR17-31"/></g></g></g><g id="xtick_31"><g id="line2d_40"><g><use x="414.51" y="656.725" xlink:href="#mf8703b9b00" style="stroke:#000;stroke-width:.8"/></g></g><g id="text_39"><g transform="translate(406.285536 676.178006)scale(0.18 -0.18)"><use transform="scale(0.996264)" xlink:href="#CMR17-31"/><use transform="translate(45.690477 0)scale(0.996264)" xlink:href="#CMR17-32"/></g></g></g><g id="xtick_32"><g id="line2d_41"><g><use x="441.365" y="656.725" xlink:href="#mf8703b9b00" style="stroke:#000;stroke-width:.8"/></g></g><g id="text_40"><g transform="translate(433.141151 676.178006)scale(0.18 -0.18)"><use transform="scale(0.996264)" xlink:href="#CMR17-31"/><use transform="translate(45.690477 0)scale(0.996264)" xlink:href="#CMR17-33"/></g></g></g><g id="xtick_33"><g id="line2d_42"><g><use x="468.221" y="656.725" xlink:href="#mf8703b9b00" style="stroke:#000;stroke-width:.8"/></g></g><g id="text_41"><g transform="translate(459.996766 676.178006)scale(0.18 -0.18)"><use transform="scale(0.996264)" xlink:href="#CMR17-31"/><use transform="translate(45.690477 0)scale(0.996264)" xlink:href="#CMR17-34"/></g></g></g><g id="xtick_34"><g id="line2d_43"><g><use x="495.077" y="656.725" xlink:href="#mf8703b9b00" style="stroke:#000;stroke-width:.8"/></g></g><g id="text_42"><g transform="translate(486.852381 676.178006)scale(0.18 -0.18)"><use transform="scale(0.996264)" xlink:href="#CMR17-31"/><use transform="translate(45.690477 0)scale(0.996264)" xlink:href="#CMR17-35"/></g></g></g><g id="xtick_35"><g id="line2d_44"><g><use x="521.932" y="656.725" xlink:href="#mf8703b9b00" style="stroke:#000;stroke-width:.8"/></g></g><g id="text_43"><g transform="translate(513.707996 676.178006)scale(0.18 -0.18)"><use transform="scale(0.996264)" xlink:href="#CMR17-31"/><use transform="translate(45.690477 0)scale(0.996264)" xlink:href="#CMR17-36"/></g></g></g><g id="xtick_36"><g id="line2d_45"><g><use x="548.788" y="656.725" xlink:href="#mf8703b9b00" style="stroke:#000;stroke-width:.8"/></g></g><g id="text_44"><g transform="translate(540.563611 676.178006)scale(0.18 -0.18)"><use transform="scale(0.996264)" xlink:href="#CMR17-31"/><use transform="translate(45.690477 0)scale(0.996264)" xlink:href="#CMR17-37"/></g></g></g></g><g id="matplotlib.axis_4"><g id="ytick_6"><g id="line2d_46"><g><use x="69.415" y="638.291" xlink:href="#m705b559d60" style="stroke:#000;stroke-width:.8"/></g></g><g id="text_45"><g transform="translate(32.86482 644.518077)scale(0.18 -0.18)"><use transform="scale(0.996264)" xlink:href="#CMR17-30"/><use transform="translate(45.690477 0)scale(0.996264)" xlink:href="#CMMI12-3a"/><use transform="translate(72.787654 0)scale(0.996264)" xlink:href="#CMR17-39"/><use transform="translate(118.478131 0)scale(0.996264)" xlink:href="#CMR17-32"/></g></g></g><g id="ytick_7"><g id="line2d_47"><g><use x="69.415" y="598.302" xlink:href="#m705b559d60" style="stroke:#000;stroke-width:.8"/></g></g><g id="text_46"><g transform="translate(32.86482 604.528767)scale(0.18 -0.18)"><use transform="scale(0.996264)" xlink:href="#CMR17-30"/><use transform="translate(45.690477 0)scale(0.996264)" xlink:href="#CMMI12-3a"/><use transform="translate(72.787654 0)scale(0.996264)" xlink:href="#CMR17-39"/><use transform="translate(118.478131 0)scale(0.996264)" xlink:href="#CMR17-34"/></g></g></g><g id="ytick_8"><g id="line2d_48"><g><use x="69.415" y="558.313" xlink:href="#m705b559d60" style="stroke:#000;stroke-width:.8"/></g></g><g id="text_47"><g transform="translate(32.86482 564.539457)scale(0.18 -0.18)"><use transform="scale(0.996264)" xlink:href="#CMR17-30"/><use transform="translate(45.690477 0)scale(0.996264)" xlink:href="#CMMI12-3a"/><use transform="translate(72.787654 0)scale(0.996264)" xlink:href="#CMR17-39"/><use transform="translate(118.478131 0)scale(0.996264)" xlink:href="#CMR17-36"/></g></g></g><g id="ytick_9"><g id="line2d_49"><g><use x="69.415" y="518.323" xlink:href="#m705b559d60" style="stroke:#000;stroke-width:.8"/></g></g><g id="text_48"><g transform="translate(32.86482 524.550147)scale(0.18 -0.18)"><use transform="scale(0.996264)" xlink:href="#CMR17-30"/><use transform="translate(45.690477 0)scale(0.996264)" xlink:href="#CMMI12-3a"/><use transform="translate(72.787654 0)scale(0.996264)" xlink:href="#CMR17-39"/><use transform="translate(118.478131 0)scale(0.996264)" xlink:href="#CMR17-38"/></g></g></g><g id="ytick_10"><g id="line2d_50"><g><use x="69.415" y="478.334" xlink:href="#m705b559d60" style="stroke:#000;stroke-width:.8"/></g></g><g id="text_49"><g transform="translate(32.86482 484.560837)scale(0.18 -0.18)"><use transform="scale(0.996264)" xlink:href="#CMR17-31"/><use transform="translate(45.690477 0)scale(0.996264)" xlink:href="#CMMI12-3a"/><use transform="translate(72.787654 0)scale(0.996264)" xlink:href="#CMR17-30"/><use transform="translate(118.478131 0)scale(0.996264)" xlink:href="#CMR17-30"/></g></g></g><g id="ytick_11"><g id="line2d_51"><g><use x="69.415" y="438.345" xlink:href="#m705b559d60" style="stroke:#000;stroke-width:.8"/></g></g><g id="text_50"><g transform="translate(32.86482 444.571528)scale(0.18 -0.18)"><use transform="scale(0.996264)" xlink:href="#CMR17-31"/><use transform="translate(45.690477 0)scale(0.996264)" xlink:href="#CMMI12-3a"/><use transform="translate(72.787654 0)scale(0.996264)" xlink:href="#CMR17-30"/><use transform="translate(118.478131 0)scale(0.996264)" xlink:href="#CMR17-32"/></g></g></g><g id="ytick_12"><g id="line2d_52"><g><use x="69.415" y="398.356" xlink:href="#m705b559d60" style="stroke:#000;stroke-width:.8"/></g></g><g id="text_51"><g transform="translate(32.86482 404.582218)scale(0.18 -0.18)"><use transform="scale(0.996264)" xlink:href="#CMR17-31"/><use transform="translate(45.690477 0)scale(0.996264)" xlink:href="#CMMI12-3a"/><use transform="translate(72.787654 0)scale(0.996264)" xlink:href="#CMR17-30"/><use transform="translate(118.478131 0)scale(0.996264)" xlink:href="#CMR17-34"/></g></g></g><g id="text_52"><g transform="translate(25.376756 525.315029)rotate(-90)scale(0.18 -0.18)"><defs><path id="CMMI12-16" d="M 922 140 C 1082 -7 1318 -64 1536 -64 C 1946 -64 2227 210 2374 408 C 2438 70 2707 -64 2931 -64 C 3123 -64 3277 51 3392 281 C 3494 498 3584 887 3584 913 C 3584 944 3558 970 3520 970 C 3462 970 3456 938 3430 842 C 3334 466 3213 64 2950 64 C 2765 64 2752 229 2752 357 C 2752 504 2810 734 2854 925 L 3034 1615 C 3059 1736 3130 2023 3162 2138 C 3200 2291 3270 2566 3270 2591 C 3270 2687 3194 2752 3098 2752 C 3040 2752 2906 2726 2854 2534 L 2406 759 C 2374 632 2374 619 2291 517 C 2214 408 1965 64 1562 64 C 1203 64 1088 325 1088 625 C 1088 811 1146 1034 1171 1143 L 1459 2292 C 1491 2413 1542 2617 1542 2656 C 1542 2758 1459 2816 1376 2816 C 1318 2816 1178 2796 1126 2592 L 198 -1085 C 192 -1116 179 -1154 179 -1191 C 179 -1287 256 -1351 352 -1351 C 538 -1351 576 -1204 621 -1029 L 922 140 z" transform="scale(0.015625)"/></defs><use transform="scale(0.996264)" xlink:href="#CMMI12-16"/><use transform="translate(58.691421 -14.943915)scale(0.697382)" xlink:href="#CMR17-31"/></g></g></g><g id="line2d_53"><path d="M 92.242442 478.334187 L 119.098057 456.946582 L 145.953672 457.326017 L 172.809287 453.064896 L 199.664902 450.224834 L 226.520517 448.790536 L 253.376132 448.171749 L 280.231747 447.954773 L 307.087362 447.920375 L 333.942977 447.961364 L 360.798592 448.027374 L 387.654207 448.095859 L 414.509822 448.157655 L 441.365437 448.209882 L 468.221052 448.252461 L 495.076667 448.286437 L 521.932282 448.313184 L 548.787897 448.334059" clip-path="url(#pc394fffb50)" style="fill:none;stroke:#1f77b4;stroke-width:1.5;stroke-linecap:square"/></g><g id="line2d_54"><path d="M 92.242442 478.334187 L 119.098057 550.095084 L 145.953672 532.474088 L 172.809287 526.628336 L 199.664902 523.770488 L 226.520517 522.076571 L 253.376132 521.017589 L 280.231747 520.320628 L 307.087362 519.844779 L 333.942977 519.511487 L 360.798592 519.273382 L 387.654207 519.100503 L 414.509822 518.973316 L 441.365437 518.87876 L 468.221052 518.807893 L 495.076667 518.754455 L 521.932282 518.713977 L 548.787897 518.683214" clip-path="url(#pc394fffb50)" style="fill:none;stroke:#ff7f0e;stroke-width:1.5;stroke-linecap:square"/></g><g id="line2d_55"><path d="M 92.242442 478.334187 L 119.098057 509.296949 L 145.953672 472.4304 L 172.809287 464.189158 L 199.664902 462.410936 L 226.520517 461.864075 L 253.376132 461.622181 L 280.231747 461.485699 L 307.087362 461.397518 L 333.942977 461.336288 L 360.798592 461.292089 L 387.654207 461.259486 L 414.509822 461.235132 L 441.365437 461.216799 L 468.221052 461.20293 L 495.076667 461.192402 L 521.932282 461.184389 L 548.787897 461.17828" clip-path="url(#pc394fffb50)" style="fill:none;stroke:#2ca02c;stroke-width:1.5;stroke-linecap:square"/></g><g id="line2d_56"><path d="M 92.242442 478.334187 L 119.098057 498.139286 L 145.953672 453.622975 L 172.809287 443.639744 L 199.664902 439.323032 L 226.520517 436.617526 L 253.376132 434.867893 L 280.231747 433.745305 L 307.087362 433.020899 L 333.942977 432.544721 L 360.798592 432.223913 L 387.654207 432.002194 L 414.509822 431.845342 L 441.365437 431.732175 L 468.221052 431.64923 L 495.076667 431.587695 L 521.932282 431.541627 L 548.787897 431.506907" clip-path="url(#pc394fffb50)" style="fill:none;stroke:#d62728;stroke-width:1.5;stroke-linecap:square"/></g><g id="line2d_57"><path d="M 92.242442 478.334187 L 119.098057 470.863277 L 145.953672 425.592597 L 172.809287 405.679326 L 199.664902 396.71751 L 226.520517 392.693994 L 253.376132 390.959122 L 280.231747 390.244346 L 307.087362 389.976292 L 333.942977 389.901176 L 360.798592 389.906152 L 387.654207 389.940785 L 414.509822 389.982827 L 441.365437 390.022958 L 468.221052 390.057791 L 495.076667 390.086605 L 521.932282 390.109794 L 548.787897 390.128146" clip-path="url(#pc394fffb50)" style="fill:none;stroke:#9467bd;stroke-width:1.5;stroke-linecap:square"/></g><g id="line2d_58"><path d="M 92.242442 478.334187 L 119.098057 458.700825 L 145.953672 444.616279 L 172.809287 438.387446 L 199.664902 435.385775 L 226.520517 433.878309 L 253.376132 433.099126 L 280.231747 432.697368 L 307.087362 432.496478 L 333.942977 432.401563 L 360.798592 432.361096 L 387.654207 432.347524 L 414.509822 432.346463 L 441.365437 432.350622 L 468.221052 432.356446 L 495.076667 432.362304 L 521.932282 432.367532 L 548.787897 432.371929" clip-path="url(#pc394fffb50)" style="fill:none;stroke:#8c564b;stroke-width:1.5;stroke-linecap:square"/></g><g id="line2d_59"><path d="M 92.242442 478.334187 L 119.098057 533.125999 L 145.953672 481.996692 L 172.809287 464.925215 L 199.664902 458.480929 L 226.520517 455.502388 L 253.376132 453.890575 L 280.231747 452.90293 L 307.087362 452.244958 L 333.942977 451.783903 L 360.798592 451.451002 L 387.654207 451.206154 L 414.509822 451.02389 L 441.365437 450.887097 L 468.221052 450.783835 L 495.076667 450.70556 L 521.932282 450.646045 L 548.787897 450.600693" clip-path="url(#pc394fffb50)" style="fill:none;stroke:#e377c2;stroke-width:1.5;stroke-linecap:square"/></g><g id="line2d_60"><path d="M 92.242442 478.334187 L 119.098057 586.72967 L 145.953672 559.172727 L 172.809287 547.011626 L 199.664902 540.384395 L 226.520517 537.037172 L 253.376132 535.335743 L 280.231747 534.424265 L 307.087362 533.90734 L 333.942977 533.599092 L 360.798592 533.407059 L 387.654207 533.282673 L 414.509822 533.199262 L 441.365437 533.141623 L 468.221052 533.10078 L 495.076667 533.07125 L 521.932282 533.04956 L 548.787897 533.033439" clip-path="url(#pc394fffb50)" style="fill:none;stroke:#7f7f7f;stroke-width:1.5;stroke-linecap:square"/></g><g id="line2d_61"><path d="M 92.242442 478.334187 L 119.098057 506.927727 L 145.953672 500.965615 L 172.809287 494.025845 L 199.664902 489.285338 L 226.520517 486.638899 L 253.376132 485.09648 L 280.231747 484.12973 L 307.087362 483.483145 L 333.942977 483.02931 L 360.798592 482.700352 L 387.654207 482.457041 L 414.509822 482.274826 L 441.365437 482.13731 L 468.221052 482.033019 L 495.076667 481.953671 L 521.932282 481.89317 L 548.787897 481.846969" clip-path="url(#pc394fffb50)" style="fill:none;stroke:#bcbd22;stroke-width:1.5;stroke-linecap:square"/></g><g id="line2d_62"><path d="M 92.242442 478.334187 L 119.098057 644.018824 L 145.953672 636.748284 L 172.809287 634.669729 L 199.664902 632.892758 L 226.520517 631.285275 L 253.376132 630.057664 L 280.231747 629.209281 L 307.087362 628.649249 L 333.942977 628.284212 L 360.798592 628.044584 L 387.654207 627.884437 L 414.509822 627.774969 L 441.365437 627.698405 L 468.221052 627.643726 L 495.076667 627.603986 L 521.932282 627.574698 L 548.787897 627.552879" clip-path="url(#pc394fffb50)" style="fill:none;stroke:#17becf;stroke-width:1.5;stroke-linecap:square"/></g><g id="patch_9"><path d="M 69.41517 656.724706 L 69.41517 377.195294" style="fill:none;stroke:#000;stroke-width:.8;stroke-linejoin:miter;stroke-linecap:square"/></g><g id="patch_10"><path d="M 571.61517 656.724706 L 571.61517 377.195294" style="fill:none;stroke:#000;stroke-width:.8;stroke-linejoin:miter;stroke-linecap:square"/></g><g id="patch_11"><path d="M 69.41517 656.724706 L 571.61517 656.724706" style="fill:none;stroke:#000;stroke-width:.8;stroke-linejoin:miter;stroke-linecap:square"/></g><g id="patch_12"><path d="M 69.41517 377.195294 L 571.61517 377.195294" style="fill:none;stroke:#000;stroke-width:.8;stroke-linejoin:miter;stroke-linecap:square"/></g><g id="legend_2"><g id="patch_13"><path d="M 584.21517 642.475936 L 670.816446 642.475936 Q 674.416446 642.475936 674.416446 638.875936 L 674.416446 389.795294 Q 674.416446 386.195294 670.816446 386.195294 L 584.21517 386.195294 Q 580.61517 386.195294 580.61517 389.795294 L 580.61517 638.875936 Q 580.61517 642.475936 584.21517 642.475936 z" style="fill:#fff;opacity:.8;stroke:#ccc;stroke-linejoin:miter"/></g><g id="line2d_63"><path d="M 587.81517 399.695294 L 605.81517 399.695294 L 623.81517 399.695294" style="fill:none;stroke:#1f77b4;stroke-width:1.5;stroke-linecap:square"/></g><g id="text_53"><g transform="translate(638.21517 405.995294)scale(0.18 -0.18)"><use transform="scale(0.996264)" xlink:href="#CMMI12-16"/><use transform="translate(58.691421 -14.943915)scale(0.697382)" xlink:href="#CMR17-31"/><use transform="translate(90.674603 -14.943915)scale(0.697382)" xlink:href="#CMR17-31"/></g></g><g id="line2d_64"><path d="M 587.81517 424.783358 L 605.81517 424.783358 L 623.81517 424.783358" style="fill:none;stroke:#ff7f0e;stroke-width:1.5;stroke-linecap:square"/></g><g id="text_54"><g transform="translate(638.21517 431.083358)scale(0.18 -0.18)"><use transform="scale(0.996264)" xlink:href="#CMMI12-16"/><use transform="translate(58.691421 -14.943915)scale(0.697382)" xlink:href="#CMR17-31"/><use transform="translate(90.674603 -14.943915)scale(0.697382)" xlink:href="#CMR17-32"/></g></g><g id="line2d_65"><path d="M 587.81517 449.871422 L 605.81517 449.871422 L 623.81517 449.871422" style="fill:none;stroke:#2ca02c;stroke-width:1.5;stroke-linecap:square"/></g><g id="text_55"><g transform="translate(638.21517 456.171422)scale(0.18 -0.18)"><use transform="scale(0.996264)" xlink:href="#CMMI12-16"/><use transform="translate(58.691421 -14.943915)scale(0.697382)" xlink:href="#CMR17-31"/><use transform="translate(90.674603 -14.943915)scale(0.697382)" xlink:href="#CMR17-33"/></g></g><g id="line2d_66"><path d="M 587.81517 474.959487 L 605.81517 474.959487 L 623.81517 474.959487" style="fill:none;stroke:#d62728;stroke-width:1.5;stroke-linecap:square"/></g><g id="text_56"><g transform="translate(638.21517 481.259487)scale(0.18 -0.18)"><use transform="scale(0.996264)" xlink:href="#CMMI12-16"/><use transform="translate(58.691421 -14.943915)scale(0.697382)" xlink:href="#CMR17-31"/><use transform="translate(90.674603 -14.943915)scale(0.697382)" xlink:href="#CMR17-34"/></g></g><g id="line2d_67"><path d="M 587.81517 500.047551 L 605.81517 500.047551 L 623.81517 500.047551" style="fill:none;stroke:#9467bd;stroke-width:1.5;stroke-linecap:square"/></g><g id="text_57"><g transform="translate(638.21517 506.347551)scale(0.18 -0.18)"><use transform="scale(0.996264)" xlink:href="#CMMI12-16"/><use transform="translate(58.691421 -14.943915)scale(0.697382)" xlink:href="#CMR17-31"/><use transform="translate(90.674603 -14.943915)scale(0.697382)" xlink:href="#CMR17-35"/></g></g><g id="line2d_68"><path d="M 587.81517 525.135615 L 605.81517 525.135615 L 623.81517 525.135615" style="fill:none;stroke:#8c564b;stroke-width:1.5;stroke-linecap:square"/></g><g id="text_58"><g transform="translate(638.21517 531.435615)scale(0.18 -0.18)"><use transform="scale(0.996264)" xlink:href="#CMMI12-16"/><use transform="translate(58.691421 -14.943915)scale(0.697382)" xlink:href="#CMR17-31"/><use transform="translate(90.674603 -14.943915)scale(0.697382)" xlink:href="#CMR17-36"/></g></g><g id="line2d_69"><path d="M 587.81517 550.223679 L 605.81517 550.223679 L 623.81517 550.223679" style="fill:none;stroke:#e377c2;stroke-width:1.5;stroke-linecap:square"/></g><g id="text_59"><g transform="translate(638.21517 556.523679)scale(0.18 -0.18)"><use transform="scale(0.996264)" xlink:href="#CMMI12-16"/><use transform="translate(58.691421 -14.943915)scale(0.697382)" xlink:href="#CMR17-31"/><use transform="translate(90.674603 -14.943915)scale(0.697382)" xlink:href="#CMR17-37"/></g></g><g id="line2d_70"><path d="M 587.81517 575.311743 L 605.81517 575.311743 L 623.81517 575.311743" style="fill:none;stroke:#7f7f7f;stroke-width:1.5;stroke-linecap:square"/></g><g id="text_60"><g transform="translate(638.21517 581.611743)scale(0.18 -0.18)"><use transform="scale(0.996264)" xlink:href="#CMMI12-16"/><use transform="translate(58.691421 -14.943915)scale(0.697382)" xlink:href="#CMR17-31"/><use transform="translate(90.674603 -14.943915)scale(0.697382)" xlink:href="#CMR17-38"/></g></g><g id="line2d_71"><path d="M 587.81517 600.399807 L 605.81517 600.399807 L 623.81517 600.399807" style="fill:none;stroke:#bcbd22;stroke-width:1.5;stroke-linecap:square"/></g><g id="text_61"><g transform="translate(638.21517 606.699807)scale(0.18 -0.18)"><use transform="scale(0.996264)" xlink:href="#CMMI12-16"/><use transform="translate(58.691421 -14.943915)scale(0.697382)" xlink:href="#CMR17-31"/><use transform="translate(90.674603 -14.943915)scale(0.697382)" xlink:href="#CMR17-39"/></g></g><g id="line2d_72"><path d="M 587.81517 625.487872 L 605.81517 625.487872 L 623.81517 625.487872" style="fill:none;stroke:#17becf;stroke-width:1.5;stroke-linecap:square"/></g><g id="text_62"><g transform="translate(638.21517 631.787872)scale(0.18 -0.18)"><use transform="scale(0.996264)" xlink:href="#CMMI12-16"/><use transform="translate(58.691421 -14.943915)scale(0.697382)" xlink:href="#CMR17-31"/><use transform="translate(90.674603 -14.943915)scale(0.697382)" xlink:href="#CMR17-31"/><use transform="translate(122.657785 -14.943915)scale(0.697382)" xlink:href="#CMR17-30"/></g></g></g></g><g id="axes_3"><g id="patch_14"><path d="M 69.41517 992.16 L 571.61517 992.16 L 571.61517 712.630588 L 69.41517 712.630588 z" style="fill:#fff"/></g><g id="matplotlib.axis_5"><g id="xtick_37"><g id="line2d_73"><g><use x="92.242" y="992.16" xlink:href="#mf8703b9b00" style="stroke:#000;stroke-width:.8"/></g></g><g id="text_63"><g transform="translate(88.130299 1011.6133)scale(0.18 -0.18)"><use transform="scale(0.996264)" xlink:href="#CMR17-30"/></g></g></g><g id="xtick_38"><g id="line2d_74"><g><use x="119.098" y="992.16" xlink:href="#mf8703b9b00" style="stroke:#000;stroke-width:.8"/></g></g><g id="text_64"><g transform="translate(114.985914 1011.6133)scale(0.18 -0.18)"><use transform="scale(0.996264)" xlink:href="#CMR17-31"/></g></g></g><g id="xtick_39"><g id="line2d_75"><g><use x="145.954" y="992.16" xlink:href="#mf8703b9b00" style="stroke:#000;stroke-width:.8"/></g></g><g id="text_65"><g transform="translate(141.841529 1011.6133)scale(0.18 -0.18)"><use transform="scale(0.996264)" xlink:href="#CMR17-32"/></g></g></g><g id="xtick_40"><g id="line2d_76"><g><use x="172.809" y="992.16" xlink:href="#mf8703b9b00" style="stroke:#000;stroke-width:.8"/></g></g><g id="text_66"><g transform="translate(168.697144 1011.6133)scale(0.18 -0.18)"><use transform="scale(0.996264)" xlink:href="#CMR17-33"/></g></g></g><g id="xtick_41"><g id="line2d_77"><g><use x="199.665" y="992.16" xlink:href="#mf8703b9b00" style="stroke:#000;stroke-width:.8"/></g></g><g id="text_67"><g transform="translate(195.552759 1011.6133)scale(0.18 -0.18)"><use transform="scale(0.996264)" xlink:href="#CMR17-34"/></g></g></g><g id="xtick_42"><g id="line2d_78"><g><use x="226.521" y="992.16" xlink:href="#mf8703b9b00" style="stroke:#000;stroke-width:.8"/></g></g><g id="text_68"><g transform="translate(222.408374 1011.6133)scale(0.18 -0.18)"><use transform="scale(0.996264)" xlink:href="#CMR17-35"/></g></g></g><g id="xtick_43"><g id="line2d_79"><g><use x="253.376" y="992.16" xlink:href="#mf8703b9b00" style="stroke:#000;stroke-width:.8"/></g></g><g id="text_69"><g transform="translate(249.263989 1011.6133)scale(0.18 -0.18)"><use transform="scale(0.996264)" xlink:href="#CMR17-36"/></g></g></g><g id="xtick_44"><g id="line2d_80"><g><use x="280.232" y="992.16" xlink:href="#mf8703b9b00" style="stroke:#000;stroke-width:.8"/></g></g><g id="text_70"><g transform="translate(276.119604 1011.6133)scale(0.18 -0.18)"><use transform="scale(0.996264)" xlink:href="#CMR17-37"/></g></g></g><g id="xtick_45"><g id="line2d_81"><g><use x="307.087" y="992.16" xlink:href="#mf8703b9b00" style="stroke:#000;stroke-width:.8"/></g></g><g id="text_71"><g transform="translate(302.975219 1011.6133)scale(0.18 -0.18)"><use transform="scale(0.996264)" xlink:href="#CMR17-38"/></g></g></g><g id="xtick_46"><g id="line2d_82"><g><use x="333.943" y="992.16" xlink:href="#mf8703b9b00" style="stroke:#000;stroke-width:.8"/></g></g><g id="text_72"><g transform="translate(329.830834 1011.6133)scale(0.18 -0.18)"><use transform="scale(0.996264)" xlink:href="#CMR17-39"/></g></g></g><g id="xtick_47"><g id="line2d_83"><g><use x="360.799" y="992.16" xlink:href="#mf8703b9b00" style="stroke:#000;stroke-width:.8"/></g></g><g id="text_73"><g transform="translate(352.574306 1011.6133)scale(0.18 -0.18)"><use transform="scale(0.996264)" xlink:href="#CMR17-31"/><use transform="translate(45.690477 0)scale(0.996264)" xlink:href="#CMR17-30"/></g></g></g><g id="xtick_48"><g id="line2d_84"><g><use x="387.654" y="992.16" xlink:href="#mf8703b9b00" style="stroke:#000;stroke-width:.8"/></g></g><g id="text_74"><g transform="translate(379.429921 1011.6133)scale(0.18 -0.18)"><use transform="scale(0.996264)" xlink:href="#CMR17-31"/><use transform="translate(45.690477 0)scale(0.996264)" xlink:href="#CMR17-31"/></g></g></g><g id="xtick_49"><g id="line2d_85"><g><use x="414.51" y="992.16" xlink:href="#mf8703b9b00" style="stroke:#000;stroke-width:.8"/></g></g><g id="text_75"><g transform="translate(406.285536 1011.6133)scale(0.18 -0.18)"><use transform="scale(0.996264)" xlink:href="#CMR17-31"/><use transform="translate(45.690477 0)scale(0.996264)" xlink:href="#CMR17-32"/></g></g></g><g id="xtick_50"><g id="line2d_86"><g><use x="441.365" y="992.16" xlink:href="#mf8703b9b00" style="stroke:#000;stroke-width:.8"/></g></g><g id="text_76"><g transform="translate(433.141151 1011.6133)scale(0.18 -0.18)"><use transform="scale(0.996264)" xlink:href="#CMR17-31"/><use transform="translate(45.690477 0)scale(0.996264)" xlink:href="#CMR17-33"/></g></g></g><g id="xtick_51"><g id="line2d_87"><g><use x="468.221" y="992.16" xlink:href="#mf8703b9b00" style="stroke:#000;stroke-width:.8"/></g></g><g id="text_77"><g transform="translate(459.996766 1011.6133)scale(0.18 -0.18)"><use transform="scale(0.996264)" xlink:href="#CMR17-31"/><use transform="translate(45.690477 0)scale(0.996264)" xlink:href="#CMR17-34"/></g></g></g><g id="xtick_52"><g id="line2d_88"><g><use x="495.077" y="992.16" xlink:href="#mf8703b9b00" style="stroke:#000;stroke-width:.8"/></g></g><g id="text_78"><g transform="translate(486.852381 1011.6133)scale(0.18 -0.18)"><use transform="scale(0.996264)" xlink:href="#CMR17-31"/><use transform="translate(45.690477 0)scale(0.996264)" xlink:href="#CMR17-35"/></g></g></g><g id="xtick_53"><g id="line2d_89"><g><use x="521.932" y="992.16" xlink:href="#mf8703b9b00" style="stroke:#000;stroke-width:.8"/></g></g><g id="text_79"><g transform="translate(513.707996 1011.6133)scale(0.18 -0.18)"><use transform="scale(0.996264)" xlink:href="#CMR17-31"/><use transform="translate(45.690477 0)scale(0.996264)" xlink:href="#CMR17-36"/></g></g></g><g id="xtick_54"><g id="line2d_90"><g><use x="548.788" y="992.16" xlink:href="#mf8703b9b00" style="stroke:#000;stroke-width:.8"/></g></g><g id="text_80"><g transform="translate(540.563611 1011.6133)scale(0.18 -0.18)"><use transform="scale(0.996264)" xlink:href="#CMR17-31"/><use transform="translate(45.690477 0)scale(0.996264)" xlink:href="#CMR17-37"/></g></g></g><g id="text_81"><g transform="translate(284.51517 1033.374802)scale(0.18 -0.18)"><defs><path id="SimSun-8fed" d="M 4075 2425 L 3975 2025 Q 5050 1525 5350 1275 Q 5650 1025 5650 800 Q 5650 700 5600 587 Q 5550 475 5500 475 Q 5425 475 5300 700 Q 5075 1050 4700 1362 Q 4325 1675 3950 1950 Q 3500 900 2175 425 L 2125 500 Q 3525 1250 3725 2425 L 2675 2425 Q 2450 2425 2175 2350 L 1950 2575 L 3750 2575 Q 3825 3150 3825 3750 L 2900 3750 Q 2600 3150 2150 2725 L 2100 2775 Q 2400 3275 2562 3737 Q 2725 4200 2800 4725 L 3275 4475 Q 3125 4350 2950 3900 L 3825 3900 Q 3825 4400 3800 5150 L 4375 4900 L 4175 4725 L 4175 3900 L 4900 3900 L 5200 4200 L 5625 3750 L 4175 3750 Q 4150 3025 4100 2575 L 5300 2575 L 5600 2875 L 6025 2425 L 4075 2425 z M 1575 875 Q 1800 625 2225 350 Q 2650 75 3725 37 Q 4800 0 6125 175 L 6125 75 Q 5675 -75 5650 -325 Q 4475 -350 3725 -312 Q 2975 -275 2562 -100 Q 2150 75 1850 400 Q 1525 725 1437 750 Q 1350 775 1050 475 Q 750 175 575 -125 L 250 225 Q 725 550 1250 875 L 1250 2925 L 925 2925 Q 725 2925 450 2850 L 225 3075 L 1125 3075 L 1425 3375 L 1850 2975 L 1575 2825 L 1575 875 z M 950 5025 L 975 5100 Q 1350 4900 1575 4725 Q 1800 4550 1800 4362 Q 1800 4175 1712 4100 Q 1625 4025 1600 4025 Q 1500 4025 1400 4300 Q 1275 4675 950 5025 z" transform="scale(0.015625)"/><path id="SimSun-4ee3" d="M 5550 -75 L 5875 1025 L 5975 1025 Q 5875 175 5912 -75 Q 5950 -325 6025 -525 Q 6075 -650 5950 -650 Q 5900 -650 5662 -587 Q 5425 -525 4925 -150 Q 4425 225 4100 850 Q 3775 1475 3600 2975 L 2575 2925 L 2350 2850 L 2100 3050 L 3575 3125 Q 3525 3750 3500 4175 Q 3475 4600 3450 5075 L 4050 4775 L 3850 4600 Q 3875 3625 3925 3150 L 5150 3225 L 5475 3550 L 5975 3125 L 3950 3000 Q 4100 1525 4550 862 Q 5000 200 5550 -75 z M 4475 4700 L 4500 4800 Q 5450 4475 5537 4300 Q 5625 4125 5625 4050 Q 5625 3950 5550 3837 Q 5475 3725 5425 3725 Q 5325 3725 5225 3950 Q 5025 4275 4475 4700 z M 1800 3100 L 1800 400 Q 1800 0 1825 -475 L 1425 -650 Q 1450 -25 1450 375 L 1450 3125 Q 850 2175 300 1675 L 225 1750 Q 550 2175 837 2662 Q 1125 3150 1412 3787 Q 1700 4425 1925 5250 L 2475 4900 Q 2275 4800 2050 4350 Q 1825 3875 1625 3500 L 1975 3275 L 1800 3100 z" transform="scale(0.015625)"/><path id="SimSun-6b21" d="M 4875 2725 L 5275 3600 L 3225 3600 Q 3025 3250 2800 2887 Q 2575 2525 2075 2025 L 2000 2100 Q 2575 2825 2925 3750 Q 3275 4675 3350 5225 L 3950 4925 Q 3750 4825 3650 4600 Q 3550 4375 3275 3750 L 5250 3750 L 5525 4025 L 5975 3550 Q 5725 3500 5550 3350 Q 5375 3200 4950 2675 L 4875 2725 z M 4050 2900 Q 3900 1225 3175 437 Q 2450 -350 1450 -650 L 1400 -575 Q 2675 0 3175 912 Q 3675 1825 3700 3400 L 4275 3100 L 4125 2975 Q 4300 1700 4812 912 Q 5325 125 6150 -175 L 6125 -250 Q 5750 -225 5575 -500 Q 4950 -25 4537 825 Q 4125 1675 4050 2900 z M 750 4950 Q 1275 4675 1487 4450 Q 1700 4225 1700 4075 Q 1700 3925 1587 3775 Q 1475 3625 1450 3625 Q 1350 3625 1275 3950 Q 1150 4400 700 4875 L 750 4950 z M 425 1650 Q 600 1625 750 1625 Q 975 1625 1100 1725 Q 1225 1825 2275 4300 L 2375 4250 Q 1400 1700 1350 1600 Q 1300 1500 1300 1187 Q 1300 875 1375 350 Q 1450 -200 1212 -175 Q 975 -150 925 -25 Q 875 100 875 200 Q 875 300 925 575 Q 1000 975 975 1187 Q 950 1400 425 1550 L 425 1650 z" transform="scale(0.015625)"/><path id="SimSun-6570" d="M 1875 1525 Q 1675 1200 1500 900 Q 1825 825 2275 725 Q 2500 975 2725 1525 L 1875 1525 z M 850 4900 Q 1325 4600 1425 4450 Q 1525 4300 1525 4225 Q 1525 4100 1437 3975 Q 1350 3850 1300 3850 Q 1225 3850 1150 4100 Q 1050 4450 775 4850 L 850 4900 z M 3000 4975 L 3450 4675 Q 3250 4625 3100 4425 Q 2925 4225 2525 3825 L 2450 3875 Q 2925 4625 3000 4975 z M 1875 5250 L 2425 5000 L 2225 4825 L 2225 3675 L 2850 3675 L 3125 3950 L 3550 3525 L 2225 3525 L 2225 3300 Q 2800 3175 2937 3062 Q 3075 2950 3075 2775 Q 3075 2700 3050 2587 Q 3025 2475 2975 2475 Q 2925 2475 2800 2650 Q 2600 2925 2225 3175 L 2225 2400 L 1925 2200 L 2275 2050 Q 2150 2000 1950 1675 L 2725 1675 L 2900 1900 L 3275 1575 L 3050 1450 Q 2800 875 2600 650 Q 3000 550 3137 437 Q 3275 325 3275 150 Q 3275 -25 3200 -25 Q 3125 -25 3025 75 Q 2750 275 2400 425 Q 1525 -275 325 -500 L 300 -425 Q 1450 -50 2100 550 Q 1600 725 1125 800 Q 1225 950 1525 1525 L 1200 1525 Q 875 1525 600 1450 L 375 1675 L 1575 1675 Q 1675 1925 1775 2275 L 1900 2225 L 1900 3250 Q 1225 2475 350 2050 L 300 2125 Q 1225 2775 1700 3525 L 1250 3525 Q 925 3525 650 3450 L 425 3675 L 1900 3675 Q 1900 4575 1875 5250 z M 3925 3525 Q 4050 2075 4525 1100 Q 4925 1950 5025 3525 L 3925 3525 z M 4050 5250 L 4625 4925 Q 4425 4850 4325 4625 Q 4225 4400 3950 3675 L 5375 3675 L 5675 3975 L 6125 3525 L 5400 3525 Q 5250 1675 4750 775 Q 5325 75 6100 -100 L 6100 -200 Q 5625 -275 5600 -500 Q 4950 -50 4525 525 Q 3700 -275 2550 -650 L 2500 -575 Q 3650 -50 4325 800 Q 3850 1975 3825 3375 Q 3575 2725 3100 2150 L 3025 2200 Q 3625 3200 4050 5250 z" transform="scale(0.015625)"/></defs><use xlink:href="#SimSun-8fed"/><use x="100" xlink:href="#SimSun-4ee3"/><use x="200" xlink:href="#SimSun-6b21"/><use x="300" xlink:href="#SimSun-6570"/></g></g></g><g id="matplotlib.axis_6"><g id="ytick_13"><g id="line2d_91"><g><use x="69.415" y="942.792" xlink:href="#m705b559d60" style="stroke:#000;stroke-width:.8"/></g></g><g id="text_82"><g transform="translate(27.141364 949.018369)scale(0.18 -0.18)"><defs><path id="CMSY10-0" d="M 4218 1472 C 4326 1472 4442 1472 4442 1600 C 4442 1728 4326 1728 4218 1728 L 755 1728 C 646 1728 531 1728 531 1600 C 531 1472 646 1472 755 1472 L 4218 1472 z" transform="scale(0.015625)"/></defs><use transform="scale(0.996264)" xlink:href="#CMSY10-0"/><use transform="translate(77.487468 0)scale(0.996264)" xlink:href="#CMR17-30"/><use transform="translate(123.177945 0)scale(0.996264)" xlink:href="#CMMI12-3a"/><use transform="translate(150.275122 0)scale(0.996264)" xlink:href="#CMR17-31"/></g></g></g><g id="ytick_14"><g id="line2d_92"><g><use x="69.415" y="875.159" xlink:href="#m705b559d60" style="stroke:#000;stroke-width:.8"/></g></g><g id="text_83"><g transform="translate(41.089106 881.385505)scale(0.18 -0.18)"><use transform="scale(0.996264)" xlink:href="#CMR17-30"/><use transform="translate(45.690477 0)scale(0.996264)" xlink:href="#CMMI12-3a"/><use transform="translate(72.787654 0)scale(0.996264)" xlink:href="#CMR17-30"/></g></g></g><g id="ytick_15"><g id="line2d_93"><g><use x="69.415" y="807.526" xlink:href="#m705b559d60" style="stroke:#000;stroke-width:.8"/></g></g><g id="text_84"><g transform="translate(41.089106 813.752642)scale(0.18 -0.18)"><use transform="scale(0.996264)" xlink:href="#CMR17-30"/><use transform="translate(45.690477 0)scale(0.996264)" xlink:href="#CMMI12-3a"/><use transform="translate(72.787654 0)scale(0.996264)" xlink:href="#CMR17-31"/></g></g></g><g id="ytick_16"><g id="line2d_94"><g><use x="69.415" y="739.893" xlink:href="#m705b559d60" style="stroke:#000;stroke-width:.8"/></g></g><g id="text_85"><g transform="translate(41.089106 746.119779)scale(0.18 -0.18)"><use transform="scale(0.996264)" xlink:href="#CMR17-30"/><use transform="translate(45.690477 0)scale(0.996264)" xlink:href="#CMMI12-3a"/><use transform="translate(72.787654 0)scale(0.996264)" xlink:href="#CMR17-32"/></g></g></g><g id="text_86"><g transform="translate(19.6533 860.750323)rotate(-90)scale(0.18 -0.18)"><use transform="scale(0.996264)" xlink:href="#CMMI12-16"/><use transform="translate(58.691421 -14.943915)scale(0.697382)" xlink:href="#CMR17-32"/></g></g></g><g id="line2d_95"><path d="M 92.242442 875.158855 L 119.098057 773.228524 L 145.953672 761.863692 L 172.809287 756.688678 L 199.664902 753.869401 L 226.520517 752.203812 L 253.376132 751.165254 L 280.231747 750.489558 L 307.087362 750.034179 L 333.942977 749.718182 L 360.798592 749.493607 L 387.654207 749.330935 L 414.509822 749.211345 L 441.365437 749.122433 L 468.221052 749.055771 L 495.076667 749.005482 L 521.932282 748.967374 L 548.787897 748.938401" clip-path="url(#p3e2b104479)" style="fill:none;stroke:#1f77b4;stroke-width:1.5;stroke-linecap:square"/></g><g id="line2d_96"><path d="M 92.242442 875.158855 L 119.098057 883.239258 L 145.953672 879.544304 L 172.809287 873.978503 L 199.664902 870.479718 L 226.520517 868.556483 L 253.376132 867.514632 L 280.231747 866.944933 L 307.087362 866.626595 L 333.942977 866.44348 L 360.798592 866.334574 L 387.654207 866.267448 L 414.509822 866.224551 L 441.365437 866.19617 L 468.221052 866.176793 L 495.076667 866.163201 L 521.932282 866.153452 L 548.787897 866.146336" clip-path="url(#p3e2b104479)" style="fill:none;stroke:#ff7f0e;stroke-width:1.5;stroke-linecap:square"/></g><g id="line2d_97"><path d="M 92.242442 875.158855 L 119.098057 975.37119 L 145.953672 979.454118 L 172.809287 973.544105 L 199.664902 968.614419 L 226.520517 965.631406 L 253.376132 963.912019 L 280.231747 962.908072 L 307.087362 962.304197 L 333.942977 961.928238 L 360.798592 961.685814 L 387.654207 961.524177 L 414.509822 961.413106 L 441.365437 961.334788 L 468.221052 961.278392 L 495.076667 961.237103 L 521.932282 961.206492 L 548.787897 961.183584" clip-path="url(#p3e2b104479)" style="fill:none;stroke:#2ca02c;stroke-width:1.5;stroke-linecap:square"/></g><g id="line2d_98"><path d="M 92.242442 875.158855 L 119.098057 893.862525 L 145.953672 903.338791 L 172.809287 899.191303 L 199.664902 896.014516 L 226.520517 894.359368 L 253.376132 893.523937 L 280.231747 893.084576 L 307.087362 892.840344 L 333.942977 892.697221 L 360.798592 892.6093 L 387.654207 892.552978 L 414.509822 892.515538 L 441.365437 892.489844 L 468.221052 892.471734 L 495.076667 892.458695 L 521.932282 892.449148 L 548.787897 892.44207" clip-path="url(#p3e2b104479)" style="fill:none;stroke:#d62728;stroke-width:1.5;stroke-linecap:square"/></g><g id="line2d_99"><path d="M 92.242442 875.158855 L 119.098057 867.668372 L 145.953672 877.855161 L 172.809287 878.867666 L 199.664902 878.035545 L 226.520517 877.040229 L 253.376132 876.20346 L 280.231747 875.569264 L 307.087362 875.10584 L 333.942977 874.769862 L 360.798592 874.525219 L 387.654207 874.345548 L 414.509822 874.212395 L 441.365437 874.112922 L 468.221052 874.038127 L 495.076667 873.981603 L 521.932282 873.938723 L 548.787897 873.9061" clip-path="url(#p3e2b104479)" style="fill:none;stroke:#9467bd;stroke-width:1.5;stroke-linecap:square"/></g><g id="line2d_100"><path d="M 92.242442 875.158855 L 119.098057 891.788144 L 145.953672 885.53213 L 172.809287 879.700226 L 199.664902 876.00738 L 226.520517 873.844371 L 253.376132 872.582628 L 280.231747 871.821076 L 307.087362 871.340259 L 333.942977 871.023455 L 360.798592 870.80706 L 387.654207 870.654921 L 414.509822 870.545531 L 441.365437 870.465523 L 468.221052 870.406252 L 495.076667 870.361927 L 521.932282 870.328547 L 548.787897 870.303285" clip-path="url(#p3e2b104479)" style="fill:none;stroke:#8c564b;stroke-width:1.5;stroke-linecap:square"/></g><g id="line2d_101"><path d="M 92.242442 875.158855 L 119.098057 909.583809 L 145.953672 922.357114 L 172.809287 921.625999 L 199.664902 919.384126 L 226.520517 917.791744 L 253.376132 916.848608 L 280.231747 916.320188 L 307.087362 916.029628 L 333.942977 915.870369 L 360.798592 915.782591 L 387.654207 915.733629 L 414.509822 915.705831 L 441.365437 915.689684 L 468.221052 915.68004 L 495.076667 915.674096 L 521.932282 915.670309 L 548.787897 915.667813" clip-path="url(#p3e2b104479)" style="fill:none;stroke:#e377c2;stroke-width:1.5;stroke-linecap:square"/></g><g id="line2d_102"><path d="M 92.242442 875.158855 L 119.098057 943.447844 L 145.953672 943.900405 L 172.809287 940.777444 L 199.664902 938.689884 L 226.520517 937.313107 L 253.376132 936.43281 L 280.231747 935.878421 L 307.087362 935.526122 L 333.942977 935.297032 L 360.798592 935.143799 L 387.654207 935.038395 L 414.509822 934.964063 L 441.365437 934.910547 L 468.221052 934.871382 L 495.076667 934.842358 L 521.932282 934.820646 L 548.787897 934.804292" clip-path="url(#p3e2b104479)" style="fill:none;stroke:#7f7f7f;stroke-width:1.5;stroke-linecap:square"/></g><g id="line2d_103"><path d="M 92.242442 875.158855 L 119.098057 739.196717 L 145.953672 732.043542 L 172.809287 728.776086 L 199.664902 727.204373 L 226.520517 726.299077 L 253.376132 725.802686 L 280.231747 725.544067 L 307.087362 725.417122 L 333.942977 725.360459 L 360.798592 725.339775 L 387.654207 725.336471 L 414.509822 725.340782 L 441.365437 725.347788 L 468.221052 725.355147 L 495.076667 725.361852 L 521.932282 725.367561 L 548.787897 725.37224" clip-path="url(#p3e2b104479)" style="fill:none;stroke:#bcbd22;stroke-width:1.5;stroke-linecap:square"/></g><g id="line2d_104"><path d="M 92.242442 875.158855 L 119.098057 901.834836 L 145.953672 893.115655 L 172.809287 885.947924 L 199.664902 882.099574 L 226.520517 880.240105 L 253.376132 879.340507 L 280.231747 878.87922 L 307.087362 878.622667 L 333.942977 878.468032 L 360.798592 878.368364 L 387.654207 878.300784 L 414.509822 878.253263 L 441.365437 878.21898 L 468.221052 878.193799 L 495.076667 878.175071 L 521.932282 878.161019 L 548.787897 878.150408" clip-path="url(#p3e2b104479)" style="fill:none;stroke:#17becf;stroke-width:1.5;stroke-linecap:square"/></g><g id="patch_15"><path d="M 69.41517 992.16 L 69.41517 712.630588" style="fill:none;stroke:#000;stroke-width:.8;stroke-linejoin:miter;stroke-linecap:square"/></g><g id="patch_16"><path d="M 571.61517 992.16 L 571.61517 712.630588" style="fill:none;stroke:#000;stroke-width:.8;stroke-linejoin:miter;stroke-linecap:square"/></g><g id="patch_17"><path d="M 69.41517 992.16 L 571.61517 992.16" style="fill:none;stroke:#000;stroke-width:.8;stroke-linejoin:miter;stroke-linecap:square"/></g><g id="patch_18"><path d="M 69.41517 712.630588 L 571.61517 712.630588" style="fill:none;stroke:#000;stroke-width:.8;stroke-linejoin:miter;stroke-linecap:square"/></g><g id="legend_3"><g id="patch_19"><path d="M 584.21517 977.91123 L 670.816446 977.91123 Q 674.416446 977.91123 674.416446 974.31123 L 674.416446 725.230588 Q 674.416446 721.630588 670.816446 721.630588 L 584.21517 721.630588 Q 580.61517 721.630588 580.61517 725.230588 L 580.61517 974.31123 Q 580.61517 977.91123 584.21517 977.91123 z" style="fill:#fff;opacity:.8;stroke:#ccc;stroke-linejoin:miter"/></g><g id="line2d_105"><path d="M 587.81517 735.130588 L 605.81517 735.130588 L 623.81517 735.130588" style="fill:none;stroke:#1f77b4;stroke-width:1.5;stroke-linecap:square"/></g><g id="text_87"><g transform="translate(638.21517 741.430588)scale(0.18 -0.18)"><use transform="scale(0.996264)" xlink:href="#CMMI12-16"/><use transform="translate(58.691421 -14.943915)scale(0.697382)" xlink:href="#CMR17-32"/><use transform="translate(90.674603 -14.943915)scale(0.697382)" xlink:href="#CMR17-31"/></g></g><g id="line2d_106"><path d="M 587.81517 760.218652 L 605.81517 760.218652 L 623.81517 760.218652" style="fill:none;stroke:#ff7f0e;stroke-width:1.5;stroke-linecap:square"/></g><g id="text_88"><g transform="translate(638.21517 766.518652)scale(0.18 -0.18)"><use transform="scale(0.996264)" xlink:href="#CMMI12-16"/><use transform="translate(58.691421 -14.943915)scale(0.697382)" xlink:href="#CMR17-32"/><use transform="translate(90.674603 -14.943915)scale(0.697382)" xlink:href="#CMR17-32"/></g></g><g id="line2d_107"><path d="M 587.81517 785.306717 L 605.81517 785.306717 L 623.81517 785.306717" style="fill:none;stroke:#2ca02c;stroke-width:1.5;stroke-linecap:square"/></g><g id="text_89"><g transform="translate(638.21517 791.606717)scale(0.18 -0.18)"><use transform="scale(0.996264)" xlink:href="#CMMI12-16"/><use transform="translate(58.691421 -14.943915)scale(0.697382)" xlink:href="#CMR17-32"/><use transform="translate(90.674603 -14.943915)scale(0.697382)" xlink:href="#CMR17-33"/></g></g><g id="line2d_108"><path d="M 587.81517 810.394781 L 605.81517 810.394781 L 623.81517 810.394781" style="fill:none;stroke:#d62728;stroke-width:1.5;stroke-linecap:square"/></g><g id="text_90"><g transform="translate(638.21517 816.694781)scale(0.18 -0.18)"><use transform="scale(0.996264)" xlink:href="#CMMI12-16"/><use transform="translate(58.691421 -14.943915)scale(0.697382)" xlink:href="#CMR17-32"/><use transform="translate(90.674603 -14.943915)scale(0.697382)" xlink:href="#CMR17-34"/></g></g><g id="line2d_109"><path d="M 587.81517 835.482845 L 605.81517 835.482845 L 623.81517 835.482845" style="fill:none;stroke:#9467bd;stroke-width:1.5;stroke-linecap:square"/></g><g id="text_91"><g transform="translate(638.21517 841.782845)scale(0.18 -0.18)"><use transform="scale(0.996264)" xlink:href="#CMMI12-16"/><use transform="translate(58.691421 -14.943915)scale(0.697382)" xlink:href="#CMR17-32"/><use transform="translate(90.674603 -14.943915)scale(0.697382)" xlink:href="#CMR17-35"/></g></g><g id="line2d_110"><path d="M 587.81517 860.570909 L 605.81517 860.570909 L 623.81517 860.570909" style="fill:none;stroke:#8c564b;stroke-width:1.5;stroke-linecap:square"/></g><g id="text_92"><g transform="translate(638.21517 866.870909)scale(0.18 -0.18)"><use transform="scale(0.996264)" xlink:href="#CMMI12-16"/><use transform="translate(58.691421 -14.943915)scale(0.697382)" xlink:href="#CMR17-32"/><use transform="translate(90.674603 -14.943915)scale(0.697382)" xlink:href="#CMR17-36"/></g></g><g id="line2d_111"><path d="M 587.81517 885.658973 L 605.81517 885.658973 L 623.81517 885.658973" style="fill:none;stroke:#e377c2;stroke-width:1.5;stroke-linecap:square"/></g><g id="text_93"><g transform="translate(638.21517 891.958973)scale(0.18 -0.18)"><use transform="scale(0.996264)" xlink:href="#CMMI12-16"/><use transform="translate(58.691421 -14.943915)scale(0.697382)" xlink:href="#CMR17-32"/><use transform="translate(90.674603 -14.943915)scale(0.697382)" xlink:href="#CMR17-37"/></g></g><g id="line2d_112"><path d="M 587.81517 910.747037 L 605.81517 910.747037 L 623.81517 910.747037" style="fill:none;stroke:#7f7f7f;stroke-width:1.5;stroke-linecap:square"/></g><g id="text_94"><g transform="translate(638.21517 917.047037)scale(0.18 -0.18)"><use transform="scale(0.996264)" xlink:href="#CMMI12-16"/><use transform="translate(58.691421 -14.943915)scale(0.697382)" xlink:href="#CMR17-32"/><use transform="translate(90.674603 -14.943915)scale(0.697382)" xlink:href="#CMR17-38"/></g></g><g id="line2d_113"><path d="M 587.81517 935.835102 L 605.81517 935.835102 L 623.81517 935.835102" style="fill:none;stroke:#bcbd22;stroke-width:1.5;stroke-linecap:square"/></g><g id="text_95"><g transform="translate(638.21517 942.135102)scale(0.18 -0.18)"><use transform="scale(0.996264)" xlink:href="#CMMI12-16"/><use transform="translate(58.691421 -14.943915)scale(0.697382)" xlink:href="#CMR17-32"/><use transform="translate(90.674603 -14.943915)scale(0.697382)" xlink:href="#CMR17-39"/></g></g><g id="line2d_114"><path d="M 587.81517 960.923166 L 605.81517 960.923166 L 623.81517 960.923166" style="fill:none;stroke:#17becf;stroke-width:1.5;stroke-linecap:square"/></g><g id="text_96"><g transform="translate(638.21517 967.223166)scale(0.18 -0.18)"><use transform="scale(0.996264)" xlink:href="#CMMI12-16"/><use transform="translate(58.691421 -14.943915)scale(0.697382)" xlink:href="#CMR17-32"/><use transform="translate(90.674603 -14.943915)scale(0.697382)" xlink:href="#CMR17-31"/><use transform="translate(122.657785 -14.943915)scale(0.697382)" xlink:href="#CMR17-30"/></g></g></g></g><g id="text_97"><g transform="translate(242.41517 23.1375)scale(0.2 -0.2)"><defs><path id="SimSun-45" d="M 200 4225 L 200 4375 L 2650 4375 L 2925 3525 L 2800 3475 Q 2600 3850 2375 4037 Q 2150 4225 1875 4225 L 1175 4225 Q 1075 4225 1012 4175 Q 950 4125 950 4025 L 950 2475 L 1675 2475 Q 1925 2475 2037 2600 Q 2150 2725 2150 2975 L 2150 3125 L 2300 3125 L 2300 1650 L 2150 1650 L 2150 1750 Q 2150 2025 2037 2175 Q 1925 2325 1675 2325 L 950 2325 L 950 450 Q 950 350 1012 300 Q 1075 250 1175 250 L 1825 250 Q 2200 250 2462 462 Q 2725 675 2875 1125 L 3000 1075 L 2725 100 L 175 100 L 175 250 L 325 250 Q 450 250 500 300 Q 550 350 550 450 L 550 4025 Q 550 4125 500 4175 Q 450 4225 325 4225 L 200 4225 z" transform="scale(0.015625)"/><path id="SimSun-4d" d="M 2800 450 Q 2800 350 2862 300 Q 2925 250 3025 250 L 3125 250 L 3125 100 L 2050 100 L 2050 250 L 2175 250 Q 2300 250 2350 300 Q 2400 350 2400 450 L 2400 3725 L 2350 3725 L 1500 100 L 1350 100 L 575 3650 L 525 3650 L 525 450 Q 525 350 587 300 Q 650 250 750 250 L 825 250 L 825 100 L 75 100 L 75 250 L 150 250 Q 275 250 325 300 Q 375 350 375 450 L 375 4025 Q 375 4125 325 4175 Q 275 4225 150 4225 L 50 4225 L 50 4375 L 775 4375 L 1500 1025 L 1550 1025 L 2325 4375 L 3125 4375 L 3125 4225 L 3025 4225 Q 2925 4225 2862 4175 Q 2800 4125 2800 4025 L 2800 450 z" transform="scale(0.015625)"/><path id="SimSun-7b97" d="M 2675 1525 Q 2650 1125 2600 750 L 3825 750 L 3825 1525 L 2675 1525 z M 4900 2075 Q 4900 1875 4925 1425 L 4550 1275 L 4550 1525 L 4175 1525 L 4175 775 L 5300 775 L 5650 1100 L 6100 625 L 4175 625 Q 4175 -225 4200 -475 L 3800 -650 Q 3825 100 3825 600 L 2575 600 Q 2400 50 1837 -250 Q 1275 -550 625 -650 L 600 -575 Q 1325 -325 1687 -62 Q 2050 200 2200 600 L 1125 600 Q 800 600 525 525 L 300 750 L 2225 750 Q 2275 1100 2300 1525 L 1850 1525 L 1850 1325 L 1500 1200 Q 1525 1975 1512 2787 Q 1500 3600 1475 3775 L 1850 3575 L 4525 3575 L 4675 3800 L 5075 3525 L 4900 3375 L 4900 2075 z M 1850 3425 L 1850 2975 L 4550 2975 L 4550 3425 L 1850 3425 z M 1850 2825 L 1850 2350 L 4550 2350 L 4550 2825 L 1850 2825 z M 1850 2200 L 1850 1675 L 4550 1675 L 4550 2200 L 1850 2200 z M 1575 5275 L 2075 5000 Q 1925 4925 1837 4825 Q 1750 4725 1600 4500 L 2700 4500 L 3000 4800 L 3400 4350 L 2125 4350 Q 2650 4075 2587 3887 Q 2525 3700 2462 3662 Q 2400 3625 2350 3625 Q 2275 3625 2250 3712 Q 2225 3800 2200 3975 Q 2150 4125 1950 4350 L 1525 4350 Q 1275 3975 1050 3725 Q 825 3475 475 3225 L 425 3300 Q 650 3525 950 3950 Q 1250 4375 1575 5275 z M 4000 5250 L 4450 4950 Q 4325 4925 4200 4775 Q 4075 4625 3975 4475 L 5325 4475 L 5625 4750 L 6000 4325 L 4675 4325 Q 5300 4125 5300 3937 Q 5300 3750 5212 3675 Q 5125 3600 5100 3600 Q 5050 3600 4987 3712 Q 4925 3825 4850 3962 Q 4775 4100 4500 4325 L 3900 4325 Q 3725 4150 3575 3975 Q 3400 3775 3225 3625 L 3150 3675 Q 3450 4050 3712 4562 Q 3975 5075 4000 5250 z" transform="scale(0.015625)"/><path id="SimSun-6cd5" d="M 3800 3850 Q 3800 4925 3775 5275 L 4375 4975 L 4125 4725 L 4125 3850 L 5100 3850 L 5375 4125 L 5775 3700 L 4125 3700 L 4125 2350 L 5450 2350 L 5750 2650 L 6175 2200 L 3825 2200 L 4225 1925 Q 4000 1825 3750 1450 Q 3500 1075 2600 125 L 5225 300 Q 4900 750 4525 1175 L 4575 1250 Q 5025 925 5287 725 Q 5550 525 5712 337 Q 5875 150 5875 0 Q 5875 -150 5775 -300 Q 5675 -450 5650 -450 Q 5575 -450 5525 -300 Q 5425 -50 5300 175 Q 3900 25 3175 -150 Q 2450 -325 2350 -450 L 2100 125 Q 2425 125 2962 875 Q 3500 1625 3700 2200 L 2775 2200 Q 2450 2200 2175 2125 L 1950 2350 L 3800 2350 L 3800 3700 L 3250 3700 Q 2925 3700 2650 3625 L 2425 3850 L 3800 3850 z M 2375 4150 Q 1400 1500 1312 1187 Q 1225 875 1237 425 Q 1250 -25 1275 -200 Q 1275 -300 1150 -300 Q 1050 -300 900 -250 Q 750 -200 750 -25 Q 750 100 825 350 Q 900 600 900 750 Q 900 925 787 1025 Q 675 1125 300 1225 L 300 1325 Q 750 1275 862 1287 Q 975 1300 1112 1512 Q 1250 1725 2275 4175 L 2375 4150 z M 325 3600 Q 1200 3150 1200 2862 Q 1200 2575 1062 2475 Q 925 2375 825 2725 Q 700 3050 275 3525 L 325 3600 z M 900 5050 Q 1600 4700 1662 4525 Q 1725 4350 1725 4275 Q 1725 4150 1637 4050 Q 1550 3950 1500 3950 Q 1425 3950 1350 4200 Q 1225 4525 850 4975 L 900 5050 z" transform="scale(0.015625)"/><path id="SimSun-8fc7" d="M 2500 3200 L 2550 3275 Q 3075 2925 3287 2687 Q 3500 2450 3487 2275 Q 3475 2100 3387 2012 Q 3300 1925 3250 1925 Q 3150 1925 3050 2250 Q 2900 2700 2500 3200 z M 4400 3775 Q 4400 4875 4375 5250 L 4950 4975 L 4750 4775 L 4750 3775 L 5300 3775 L 5625 4100 L 6075 3625 L 4750 3625 L 4750 925 Q 4750 650 4637 500 Q 4525 350 4275 250 Q 4125 650 3425 825 L 3425 925 Q 4100 850 4250 850 Q 4400 850 4400 1050 L 4400 3625 L 2675 3625 Q 2475 3625 2200 3550 L 1975 3775 L 4400 3775 z M 800 4900 L 850 4975 Q 1300 4750 1500 4562 Q 1700 4375 1687 4187 Q 1675 4000 1587 3925 Q 1500 3850 1450 3850 Q 1350 3850 1250 4150 Q 1125 4550 800 4900 z M 1650 700 Q 1925 450 2287 275 Q 2650 100 3250 62 Q 3850 25 4325 25 Q 4675 25 5112 50 Q 5550 75 6150 125 L 6150 25 Q 5650 -75 5650 -375 Q 4525 -350 3787 -312 Q 3050 -275 2625 -137 Q 2200 0 1900 275 Q 1600 550 1487 550 Q 1375 550 1125 275 Q 875 0 675 -350 L 325 0 Q 775 325 1300 700 L 1300 2750 L 1100 2750 Q 775 2750 500 2675 L 275 2900 L 1225 2900 L 1500 3175 L 1850 2825 L 1650 2650 L 1650 700 z" transform="scale(0.015625)"/><path id="SimSun-7a0b" d="M 3050 2750 Q 3075 3325 3075 3887 Q 3075 4450 3050 5000 L 3425 4775 L 5250 4775 L 5475 5000 L 5825 4650 L 5600 4500 Q 5600 3350 5625 3000 L 5275 2875 L 5275 3175 L 3400 3175 L 3400 2900 L 3050 2750 z M 3400 4625 L 3400 3325 L 5275 3325 L 5275 4625 L 3400 4625 z M 2725 2425 L 5325 2425 L 5600 2700 L 6000 2275 L 4475 2275 L 4475 1200 L 5200 1200 L 5475 1475 L 5875 1050 L 4475 1050 L 4475 -100 L 5450 -100 L 5750 200 L 6175 -250 L 3175 -250 Q 2850 -250 2575 -325 L 2350 -100 L 4150 -100 L 4150 1050 L 3700 1050 Q 3375 1050 3100 975 L 2875 1200 L 4150 1200 L 4150 2275 L 3550 2275 Q 3225 2275 2950 2200 L 2725 2425 z M 1475 4525 Q 1150 4475 425 4400 L 425 4500 Q 900 4575 1537 4775 Q 2175 4975 2375 5150 L 2700 4700 Q 2475 4700 1800 4575 L 1800 3325 L 2175 3325 L 2450 3600 L 2850 3175 L 1800 3175 L 1800 2700 Q 2325 2475 2487 2312 Q 2650 2150 2650 2000 Q 2650 1875 2587 1762 Q 2525 1650 2475 1650 Q 2400 1650 2300 1900 Q 2150 2275 1800 2600 Q 1800 0 1825 -450 L 1450 -625 Q 1475 325 1475 2275 Q 1025 1125 300 350 L 250 425 Q 750 1200 1025 1925 Q 1300 2650 1400 3175 L 1050 3175 Q 725 3175 450 3100 L 225 3325 L 1475 3325 L 1475 4525 z" transform="scale(0.015625)"/></defs><use xlink:href="#SimSun-45"/><use x="50" xlink:href="#SimSun-4d"/><use x="100" xlink:href="#SimSun-7b97"/><use x="200" xlink:href="#SimSun-6cd5"/><use x="300" xlink:href="#SimSun-8fed"/><use x="400" xlink:href="#SimSun-4ee3"/><use x="500" xlink:href="#SimSun-8fc7"/><use x="600" xlink:href="#SimSun-7a0b"/></g></g></g><defs><clipPath id="pf39bebdf0c"><rect width="502.2" height="279.529" x="69.415" y="41.76"/></clipPath><clipPath id="pc394fffb50"><rect width="502.2" height="279.529" x="69.415" y="377.195"/></clipPath><clipPath id="p3e2b104479"><rect width="502.2" height="279.529" x="69.415" y="712.631"/></clipPath></defs></svg>