<svg clip-rule="evenodd" fill-rule="evenodd" height="1058" image-rendering="optimizeQuality" shape-rendering="geometricPrecision" text-rendering="geometricPrecision" viewBox="0 0 4645.44 1052.32" width="4672" xmlns="http://www.w3.org/2000/svg"><path d="m0 0h4645.44v1052.32h-4645.44z" fill="none"/><path d="m629.73.27h-629.73v403.06z" fill="#ef4927"/><path d="m262.04 431.06 367.71-238.34v310.51z" fill="#76b644"/><g fill="#4b4b4d" fill-rule="nonzero"><path d="m4645.44 837.58h-103.46l4.34-529.43c-6.44 27.4-12.13 47.17-17.07 59.14l-187.75 470.29h-71.87l-188.21-466.69c-5.24-13.78-10.93-34.74-16.77-62.74h-1.65c2.25 25.16 3.45 66.18 3.45 123.23v406.2h-96.42v-628.99h146.88l165.29 418.93c12.58 32.19 20.82 56.15 24.71 71.87h2.1c10.93-33.09 19.61-57.65 26.34-73.67l168.45-417.13h141.64zm-375.81 0-253.66-628.99h100.94l192.1 490.8zm322.98-628.99h-88.81zm0 0-251.11 628.99-33.01-139.52 195.31-489.47z"/><path d="m3449.37 834.75v-625.48h198.47c60.45 0 108.4 13.25 143.68 39.6 35.29 26.51 53.01 61.05 53.01 103.48 0 35.44-10.13 66.26-30.08 92.46-20.1 26.21-47.94 44.82-83.38 55.84v1.78c43.03 4.92 77.42 20.85 103.18 47.65 25.76 26.95 38.57 61.94 38.57 104.96 0 53.46-21 96.78-63.13 129.99-42.29 33.2-95.44 49.72-159.76 49.72zm103.39-534.58.2 136.51c.04 24.18-2.1 34.43 28.69 34.19l38.2-.3c36.03-.28 64.32-8.49 84.87-25.61 20.55-16.97 30.67-41.09 30.67-72.21 0-53.45-35.73-80.25-107.2-80.25h-66.2c-6.79 0-9.25.65-9.23 7.67zm-.06 264.61v154.26c0 26.53-.42 32.78 28.85 32.78h59.74c38.56 0 68.49-8.93 89.63-26.8 21-17.86 31.57-42.43 31.57-73.85 0-64.91-44.97-97.37-134.75-97.37h-63.23c-8.81 0-11.81 2.15-11.81 10.98z"/><path d="m3351.47 783.93c-63.06 34.27-133.19 51.4-210.51 51.4-89.42 0-161.85-27.79-217.29-83.51-55.43-55.58-83.08-129.31-83.08-221.03 0-93.59 30.24-170.48 90.86-230.53 60.62-60.04 137.66-90.14 230.96-90.14 63.51 0 117.52 8.86 161.89 26.47 8.49 3.37 7.73 1.48 7.73 10.2v96.24c-46.36-30.82-101.65-46.37-165.73-46.37-64.51 0-117.21 21.31-158.39 63.65-41.18 42.47-61.92 97.48-61.92 165.01 0 69.4 17.86 124.12 53.28 163.86 35.42 39.89 83.52 59.76 144.28 59.76 36.83 0 69.27-6.32 97.3-18.85 13.55-6.06 10.69-4.56 10.69-19.42v-118.76c0-9.58-4.78-10.86-13.69-10.86h-113.74v-66.84c0-14.7 3.11-17.54 18.89-17.54h208.47z"/><path d="m2773.73 821.77c-19.51 9.22-45.03 13.83-76.43 13.83-87.14 0-130.71-41.77-130.71-125.47v-253.93h-37.51v-79.81h37.51l-.08-113.52c0-7.1 2.14-11.35 9.03-14.4l92.74-41.07.12 168.99h107.36v79.81h-107.36v224.59c0 26.65 4.79 45.66 14.37 57.04 9.74 11.38 25.76 17.07 48.37 17.07 17.22 0 32.04-4.94 44.62-14.82v78.4c0 2.65.39 2.15-2.03 3.29z"/><path d="m2464.86 837.58h-101.66v-245.7c0-88.78-29.8-133.25-89.09-133.25-29.79 0-54.95 12.87-75.46 38.63-20.51 25.6-30.69 58.54-30.69 98.67v241.65h-102.27v-624.07c0-5.64 3.31-4.95 8.1-4.95h90.21c2.37 0 3.96-.37 3.96 2.55v251.86h1.79c33.84-56.75 82.5-85.05 145.54-85.05 99.71 0 149.57 60.94 149.57 182.82z"/><path d="m2002.55 789.04c0 164.85-82.95 247.35-248.69 247.35-58.55 0-109.6-9.73-153.17-29.35l83.52-58.21c18.34 7.63 38.08 7.31 56.47 7.31 106.76 0 160.06-52.56 160.06-157.52v-49.11h-1.8c-33.54 57.35-84.14 85.95-151.67 85.95-54.65 0-98.82-19.92-132.36-59.89-33.39-39.83-50.16-93.43-50.16-160.66 0-76.36 17.97-137 53.9-182.07 36.09-45.06 85.5-67.52 148.38-67.52 59.29 0 103.31 24.25 131.91 72.76h1.8v-49.59c0-10.62 1.64-12.69 12.25-12.69h76.07c12.33 0 13.49-.94 13.49 11.4zm-100.91-169.79v-58.39c0-31.59-10.48-58.54-31.3-80.85-20.96-22.46-47.01-33.54-78.3-33.54-38.63 0-68.88 14.22-90.59 42.67-21.86 28.6-32.79 68.43-32.79 119.63 0 44.17 10.48 79.36 31.45 105.86 20.81 26.5 48.66 39.67 83.09 39.67 35.04 0 63.64-12.57 85.5-37.88 22.01-25.3 32.94-57.64 32.94-97.17z"/><path d="m1499.16 837.58h-101.81v-441.66c0-5.84 1.24-7.51 7.73-7.51h84.14c8.97 0 9.94-.28 9.94 8.05z"/><path d="m1447.36 304.51c-13.77 0-25.56-4.47-35.36-13.4-9.93-9.06-14.77-20.35-14.77-34.25 0-13.77 4.84-25.31 14.77-34.49 9.8-9.18 21.59-13.77 35.36-13.77 14.27 0 26.43 4.59 36.35 13.77 9.93 9.18 14.89 20.72 14.89 34.49 0 13.16-4.96 24.32-14.89 33.63-9.92 9.31-22.08 14.02-36.35 14.02z"/><path d="m984.92 837.58v-622.86c0-6.28 2.75-6.13 8.19-6.13h88.48c5.21 0 7.69-.29 7.69 5.73v531.65c0 4.06 1.5 3.42 4.8 3.42h230.79c4.41 0 8.31-.51 8.31 5.47v82.64z"/></g><path d="m.02 1047.61h629.73v-403.06z" fill="#fcb518"/><path d="m367.7 618.99-367.7 238.34v-310.51z" fill="#1b9ad7"/></svg>