<svg xmlns="http://www.w3.org/2000/svg" xmlns:xlink="http://www.w3.org/1999/xlink" width="621.4pt" height="530.08" stroke-linejoin="round" viewBox="0 0 621.4 397.56"><defs stroke-linejoin="round"><clipPath id="a" stroke-linejoin="round"><path d="m34.2 7.2h558v326.16h-558z"/></clipPath><path id="b" stroke="#000" stroke-linejoin="round" stroke-width=".8" d="m0 0v3.5"/><path id="c" stroke-linejoin="round" d="m4.6875 3.90625q.390625 5.859375 5.46875 10.546875 5.078125 4.6875 12.890625 14.640625 7.8125 9.96875 10.15625 15.4375 2.34375 5.46875 1.75 9.375-.578125 3.90625-3.703125 6.4375-3.125 2.546875-7.234375 2.15625-4.09375-.390625-7.8125-3.125-3.703125-2.734375-5.65625-8.203125l-7.421875 1.171875q3.125 8.984375 8 13.078125 4.890625 4.109375 11.53125 4.5 3.90625.390625 7.03125-.203125 3.125-.578125 6.4375-2.734375 3.328125-2.140625 5.46875-6.4375 2.15625-4.296875 1.5625-10.359375-.578125-6.046875-6.046875-14.453125-5.46875-8.390625-21.09375-26.359375h28.125v-7.03125h-39.453125z"/><path id="d" stroke-linejoin="round" d="m3.125 29.296875q.78125 20.703125 3.3125 26.75 2.546875 6.0625 7.234375 9.96875 4.6875 3.90625 11.515625 3.90625 6.84375 0 11.921875-5.671875 5.078125-5.65625 6.640625-14.25 1.5625-8.59375.96875-19.734375-.578125-11.125-3.90625-18.15625-3.3125-7.03125-9.953125-9.765625-6.640625-2.734375-13.28125.578125-6.640625 3.328125-9.375 8.796875-2.734375 5.46875-3.90625 11.515625-1.171875 6.0625-.390625 26.765625zm9.765625 23.4375q-2.34375-21.484375-.390625-29.890625 1.953125-8.390625 6.4375-11.90625 4.5-3.515625 9.1875-1.375 4.6875 2.15625 6.828125 8.59375 2.15625 6.453125 2.15625 14.0625 0 7.625-.59375 13.875-.578125 6.25-3.515625 11.328125-2.921875 5.078125-7.8125 5.265625-4.875.203125-8.59375-4.875-3.703125-5.078125-6.046875-26.5625z"/><path id="e" stroke-linejoin="round" d="m21.875 56.25q-5.078125-5.078125-12.890625-9.765625v7.421875q9.765625 6.640625 16.015625 15.625h4.6875v-67.1875h-7.8125z"/><path id="f" stroke-linejoin="round" d="m46.484375 33.203125h-44.53125v6.25h44.53125z"/><path id="g" stroke-linejoin="round" d="m31.25 17.1875h-30.078125v6.640625l31.640625 45.703125h5.859375v-45.703125h9.375v-6.640625h-9.375v-14.84375h-7.421875zm0 6.640625v30.859375l-21.875-30.859375z"/><path id="h" stroke-linejoin="round" d="m3.515625 19.53125q.78125 11.328125 2.53125 15.234375 1.765625 3.90625 5.28125 9.765625l16.015625 25h8.984375l-16.40625-25.78125q10.546875 2.734375 16.796875-.78125 6.25-3.515625 8.390625-8.015625 2.15625-4.484375 2.34375-9.765625.203125-5.265625-1.5625-10.34375-1.75-5.078125-6.25-9.1875-4.484375-4.09375-12.5-4.484375-8-.390625-13.671875 2.921875-5.65625 3.328125-7.8125 9.375-2.140625 6.0625-1.359375 17.390625zm8.984375-3.515625q7.03125-7.421875 12.890625-7.8125 5.859375-.390625 9.765625 3.90625 3.90625 4.296875 3.90625 12.5 0 8.203125-4.890625 11.328125-4.875 3.125-10.9375 2.34375-6.046875-.78125-8.78125-5.859375-2.734375-5.078125-2.34375-10.75.390625-5.65625 7.421875-13.078125z"/><path id="i" stroke-linejoin="round" d="m8.59375 20.703125q2.734375-10.546875 9.375-11.71875 6.640625-1.171875 10.734375 1.359375 4.109375 2.546875 5.859375 6.640625 1.765625 4.109375 1.5625 9.1875-.1875 5.078125-2.734375 8.59375-2.53125 3.515625-6.4375 4.6875-3.90625 1.171875-8.796875 0-4.875-1.171875-8-5.46875l-6.640625.78125q.78125 2.34375 7.421875 33.59375h30.859375v-7.03125h-25q-1.953125-10.546875-3.90625-16.796875 5.859375 2.734375 10.9375 2.53125 5.078125-.1875 9.765625-2.34375 4.6875-2.140625 6.828125-5.859375 2.15625-3.703125 3.125-7.421875.984375-3.703125.78125-8-.1875-4.296875-1.75-8.796875-1.5625-4.484375-4.6875-7.421875-3.125-2.921875-7.625-4.6875-4.484375-1.75-10.34375-1.359375-5.859375.390625-11.140625 4.296875-5.265625 3.90625-7.21875 13.28125z"/><path id="j" stroke-linejoin="round" d="m3.90625 19.140625 7.03125 1.171875q1.5625-5.078125 5.078125-8.40625 3.515625-3.3125 8.78125-3.125 5.28125.203125 8.40625 4.296875 3.125 4.109375 2.734375 9.375-.390625 5.28125-4.109375 8.203125-3.703125 2.9375-11.90625 4.109375v5.078125q8.203125.78125 11.90625 4.296875 3.71875 3.515625 3.328125 9.171875-.390625 5.671875-5.078125 8.203125-4.6875 2.546875-9.96875.59375-5.265625-1.953125-8.390625-10.9375l-7.03125 1.171875q2.34375 7.03125 6.4375 11.71875 4.109375 4.6875 11.140625 5.46875 7.03125.78125 12.296875-1.765625 5.28125-2.53125 7.421875-7.8125 2.15625-5.265625.59375-11.515625-1.5625-6.25-8.984375-10.9375 5.46875-2.34375 8.390625-7.03125 2.9375-4.6875 1.953125-12.3125-.96875-7.609375-6.828125-12.296875-5.859375-4.6875-13.28125-4.5-7.421875.203125-12.890625 4.6875-5.46875 4.5-7.03125 13.09375z"/><path id="k" stroke-linejoin="round" d="m13.28125 2.34375q7.03125 29.6875 24.609375 58.984375h-33.59375v7.03125h41.796875v-6.640625q-18.359375-29.6875-24.21875-59.375z"/><path id="l" stroke-linejoin="round" d="m2.734375 16.796875q0 9.375 2.34375 13.859375 2.34375 4.5 7.8125 7.234375-4.6875 2.734375-6.25 6.046875-1.5625 3.328125-1.765625 7.625-.1875 4.296875 1.171875 7.421875 1.375 3.125 4.109375 5.859375 2.734375 2.734375 6.046875 3.703125 3.328125.984375 7.234375.984375 3.90625 0 7.03125-.78125 3.125-.78125 6.640625-3.328125 3.515625-2.53125 5.078125-7.21875 1.5625-4.6875-.203125-10.9375-1.75-6.25-9.171875-9.765625 6.640625-1.953125 9.375-6.0625 2.734375-4.09375 2.734375-9.953125 0-5.859375-1.765625-9.375-1.75-3.515625-3.90625-5.859375-2.140625-2.34375-5.859375-3.71875-3.703125-1.359375-9.375-1.359375-5.65625 0-9.765625 1.359375-4.09375 1.375-6.828125 4.109375-2.734375 2.734375-3.71875 6.4375-.96875 3.71875-.96875 13.09375zm8.203125 9.765625q-.390625-9.375 1.359375-12.890625 1.765625-3.515625 6.453125-4.5 4.6875-.96875 9.765625.203125 5.078125 1.171875 7.03125 5.46875 1.953125 4.296875 1.359375 8.59375-.578125 4.296875-4.875 7.21875-4.296875 2.9375-9.375 2.546875-5.078125-.390625-8.40625-3.515625-3.3125-3.125-3.703125-12.5zm1.171875 29.6875q0-7.8125 2.734375-11.328125 2.734375-3.515625 8.59375-3.515625 5.859375 0 8.78125 3.515625 2.9375 3.515625 2.734375 8.390625-.1875 4.890625-3.515625 7.234375-3.3125 2.34375-8.984375 1.953125-5.65625-.390625-8-3.328125-2.34375-2.921875-2.34375-10.734375z"/><path id="m" stroke-linejoin="round" d="m12.5 1.171875q8.59375 14.453125 14.0625 26.171875-9.765625-1.5625-16.21875 2.53125-6.4375 4.109375-7.8125 11.140625-1.359375 7.03125.203125 12.6875 1.5625 5.671875 4.875 9.375 3.328125 3.71875 8.015625 5.28125 4.6875 1.5625 8.390625 1.5625 3.71875 0 7.625-1.5625 3.90625-1.5625 7.03125-4.6875 3.125-3.125 4.296875-6.453125 1.171875-3.3125 1.171875-8.59375 0-5.265625-3.90625-13.46875-3.90625-8.203125-19.140625-33.984375zm-2.734375 48.828125q1.171875-10.15625 4.875-13.484375 3.71875-3.3125 8.015625-2.921875 4.296875.390625 6.828125 2.34375 2.546875 1.953125 4.890625 6.640625 1.5625 5.859375.78125 9.953125-.78125 4.109375-4.109375 6.84375-3.3125 2.734375-7.21875 2.734375-2.34375.390625-6.0625-1.171875-3.703125-1.5625-5.859375-6.25-2.140625-4.6875-.96875-14.84375z"/><path id="n" stroke="#000" stroke-linejoin="round" stroke-width=".8" d="m0 0h-3.5"/><path id="o" stroke-linejoin="round" d="m21.875 51.953125q0-11.328125-3.328125-14.453125-3.3125-3.125-6.4375-3.125-3.125 0-6.453125 3.125-3.3125 3.125-3.3125 14.453125 0 11.328125 3.3125 14.453125 3.328125 3.125 6.453125 3.125 3.125 0 6.4375-3.125 3.328125-3.125 3.328125-14.453125zm19.140625 16.40625-30.078125-67.1875-3.125 1.171875 30.078125 67.1875zm5.46875-49.609375q0-11.328125-3.328125-14.453125-3.3125-3.125-6.4375-3.125-3.125 0-6.453125 3.125-3.3125 3.125-3.3125 14.453125 0 11.328125 3.3125 14.453125 3.328125 3.125 6.453125 3.125 3.125 0 6.4375-3.125 3.328125-3.125 3.328125-14.453125zm-30.859375 33.203125q0 7.03125-.78125 9.375-.78125 2.34375-2.734375 2.34375-1.953125 0-2.734375-2.34375-.78125-2.34375-.78125-9.375 0-7.03125.78125-9.375.78125-2.34375 2.734375-2.34375 1.953125 0 2.734375 2.34375.78125 2.34375.78125 9.375zm24.609375-33.203125q0 7.03125-.78125 9.375-.78125 2.34375-2.734375 2.34375-1.953125 0-2.734375-2.34375-.78125-2.34375-.78125-9.375 0-7.03125.78125-9.375.78125-2.34375 2.734375-2.34375 1.953125 0 2.734375 2.34375.78125 2.34375.78125 9.375z"/><path id="p" stroke-linejoin="round" d="m84.765625 79.6875 4.296875-5.078125q-22.265625-16.40625-21.484375-37.890625.390625-20.703125 21.09375-35.9375l-4.296875-5.078125q-23.828125 17.1875-23.046875 43.359375 0 21.484375 23.4375 40.625z"/><path id="q" stroke-linejoin="round" d="m64.0625 41.015625q0 9.375-.203125 18.15625-.1875 8.796875-1.953125 12.3125-1.75 3.515625 1.765625 2.53125 3.515625-.96875 5.65625-2.34375 2.15625-1.359375.78125-5.078125-1.359375-3.703125-1.359375-24.40625 9.375 1.953125 11.328125 3.515625 1.953125 1.5625 7.609375-1.765625 5.671875-3.3125 3.328125-6.25-2.34375-2.921875-3.515625-14.0625-1.171875-11.125-4.5-18.546875-3.3125-7.421875-4.6875-3.328125-1.359375 4.109375-2.34375 5.859375-.96875 1.765625-3.90625 1.953125-2.921875.203125-8.390625-.78125-5.46875-.96875-8.59375-.96875-1.171875-5.078125-2.546875-1.765625-1.359375 3.328125-1.75 7.8125-.390625 4.5-1.171875 12.3125-.78125 7.8125-2.34375 10.15625-1.5625 2.34375-.984375 3.515625.59375 1.171875 3.125.390625 2.546875-.78125 5.46875-.59375 2.9375.203125 9.1875 1.375zm-35.15625 14.84375q4.6875 1.171875 8.390625 2.140625 3.71875.984375 5.859375-.78125 2.15625-1.75-1.359375-2.734375-3.515625-.96875-14.453125-2.921875-6.25-14.0625-7.421875-16.21875-1.171875-2.140625 1.953125-1.5625 3.125.59375 7.8125 1.765625.390625 7.03125-1.375 9.765625-1.75 2.734375 3.125.96875 4.890625-1.75 3.71875-3.3125-1.171875-1.5625-1.5625-6.640625 1.5625.390625 4.875 1.171875 3.328125.78125 5.28125-1.171875 1.953125-1.953125-1.5625-2.34375-3.515625-.390625-8.59375-1.171875-.390625-7.03125-.390625-10.9375 5.46875 1.171875 8.78125 2.140625 3.328125.984375 5.078125-.1875 1.765625-1.171875-1.359375-1.953125-3.125-.78125-12.5-3.90625 0-9.375-.203125-16.796875-.1875-7.421875-1.5625-7.609375-1.359375-.203125-2.734375 3.3125-1.359375 3.515625-.578125 6.4375.78125 2.9375 1.171875 13.484375-13.671875-3.515625-15.828125-5.46875-2.140625-1.953125-6.4375 1.75-4.296875 3.71875 0 3.328125 4.296875-.390625 22.65625 4.6875v10.9375q-9.765625-1.953125-12.5-4.109375-2.734375-2.140625-3.90625 1.5625-1.171875 3.71875 1.359375 5.28125 2.546875 1.5625 8.015625 16.40625-5.859375-1.5625-8.59375.1875-2.734375 1.765625 1.171875 2.15625 3.90625.390625 8.984375 1.171875 5.46875 13.671875 3.90625 17.96875-1.5625 4.296875 4.09375 1.171875 5.671875-3.125 3.515625-5.28125-2.140625-2.140625-6.828125-12.6875zm39.84375-27.34375q5.46875 2.34375 7.03125.578125 1.5625-1.75-.984375-2.734375-2.53125-.96875-6.046875-2.140625l-.390625-11.328125q5.46875 1.171875 8-.59375 2.546875-1.75 3.71875.59375 1.171875 2.34375 1.953125 9.5625.78125 7.234375.78125 13.09375 0 5.859375-3.515625 5.46875-3.515625-.390625-10.15625-2.34375-.390625-4.296875-.390625-10.15625zm-15.234375 7.8125q.78125-16.40625 1.5625-25.78125 4.296875.78125 8.984375 1.953125v10.546875q-5.078125-.78125-6.25.578125-1.171875 1.375.578125 1.953125 1.765625.59375 5.671875 1.765625v10.546875q-7.421875-1.171875-10.546875-1.5625z"/><path id="r" stroke-linejoin="round" d="m15.625 79.6875q23.4375-19.140625 23.4375-40.625.78125-26.171875-23.046875-43.359375l-4.296875 5.078125q20.703125 15.234375 21.09375 35.9375.78125 21.484375-21.484375 37.890625z"/><path id="s" stroke="#000" stroke-linejoin="round" stroke-width=".8" d="m0 0h3.5"/></defs><g stroke-linejoin="round"><path fill="none" d="m0 397.56h621.4v-397.56h-621.4z"/><g><path fill="#fff" stroke-linejoin="round" d="m34.2 333.36h558v-326.16h-558z"/><g stroke-linejoin="round"><use x="46.478" y="333.36" stroke="#000" stroke-width=".8" xlink:href="#b"/><g><use x="59.564" y="333.36" stroke="#000" stroke-width=".8" xlink:href="#b"/><g transform="matrix(0 -.1 -.1 0 62.376136 390.36)"><use xlink:href="#c"/><use x="50" xlink:href="#d"/><use x="100" xlink:href="#e"/><use x="150" xlink:href="#d"/><use x="200" xlink:href="#f"/><use x="250" xlink:href="#d"/><use x="300" xlink:href="#g"/><use x="350" xlink:href="#f"/><use x="400" xlink:href="#e"/><use x="450" xlink:href="#h"/></g></g><g><use x="72.649" y="333.36" stroke="#000" stroke-width=".8" xlink:href="#b"/><g transform="matrix(0 -.1 -.1 0 75.461417 390.36)"><use xlink:href="#c"/><use x="50" xlink:href="#d"/><use x="100" xlink:href="#e"/><use x="150" xlink:href="#d"/><use x="200" xlink:href="#f"/><use x="250" xlink:href="#d"/><use x="300" xlink:href="#i"/><use x="350" xlink:href="#f"/><use x="400" xlink:href="#j"/><use x="450" xlink:href="#e"/></g></g><g><use x="85.734" y="333.36" stroke="#000" stroke-width=".8" xlink:href="#b"/><g transform="matrix(0 -.1 -.1 0 88.546698 390.36)"><use xlink:href="#c"/><use x="50" xlink:href="#d"/><use x="100" xlink:href="#e"/><use x="150" xlink:href="#d"/><use x="200" xlink:href="#f"/><use x="250" xlink:href="#d"/><use x="300" xlink:href="#k"/><use x="350" xlink:href="#f"/><use x="400" xlink:href="#e"/><use x="450" xlink:href="#i"/></g></g><g><use x="98.819" y="333.36" stroke="#000" stroke-width=".8" xlink:href="#b"/><g transform="matrix(0 -.1 -.1 0 101.631979 390.36)"><use xlink:href="#c"/><use x="50" xlink:href="#d"/><use x="100" xlink:href="#e"/><use x="150" xlink:href="#d"/><use x="200" xlink:href="#f"/><use x="250" xlink:href="#d"/><use x="300" xlink:href="#l"/><use x="350" xlink:href="#f"/><use x="400" xlink:href="#c"/><use x="450" xlink:href="#h"/></g></g><g><use x="111.905" y="333.36" stroke="#000" stroke-width=".8" xlink:href="#b"/><g transform="matrix(0 -.1 -.1 0 114.71726 390.36)"><use xlink:href="#c"/><use x="50" xlink:href="#d"/><use x="100" xlink:href="#e"/><use x="150" xlink:href="#d"/><use x="200" xlink:href="#f"/><use x="250" xlink:href="#e"/><use x="300" xlink:href="#d"/><use x="350" xlink:href="#f"/><use x="400" xlink:href="#e"/><use x="450" xlink:href="#m"/></g></g><g><use x="124.99" y="333.36" stroke="#000" stroke-width=".8" xlink:href="#b"/><g transform="matrix(0 -.1 -.1 0 127.802541 390.36)"><use xlink:href="#c"/><use x="50" xlink:href="#d"/><use x="100" xlink:href="#e"/><use x="150" xlink:href="#d"/><use x="200" xlink:href="#f"/><use x="250" xlink:href="#e"/><use x="300" xlink:href="#e"/><use x="350" xlink:href="#f"/><use x="400" xlink:href="#j"/><use x="450" xlink:href="#d"/></g></g><g><use x="138.075" y="333.36" stroke="#000" stroke-width=".8" xlink:href="#b"/><g transform="matrix(0 -.1 -.1 0 140.887822 390.36)"><use xlink:href="#c"/><use x="50" xlink:href="#d"/><use x="100" xlink:href="#e"/><use x="150" xlink:href="#e"/><use x="200" xlink:href="#f"/><use x="250" xlink:href="#d"/><use x="300" xlink:href="#e"/><use x="350" xlink:href="#f"/><use x="400" xlink:href="#e"/><use x="450" xlink:href="#c"/></g></g><g><use x="151.161" y="333.36" stroke="#000" stroke-width=".8" xlink:href="#b"/><g transform="matrix(0 -.1 -.1 0 153.973103 390.36)"><use xlink:href="#c"/><use x="50" xlink:href="#d"/><use x="100" xlink:href="#e"/><use x="150" xlink:href="#e"/><use x="200" xlink:href="#f"/><use x="250" xlink:href="#d"/><use x="300" xlink:href="#j"/><use x="350" xlink:href="#f"/><use x="400" xlink:href="#d"/><use x="450" xlink:href="#c"/></g></g><g><use x="164.246" y="333.36" stroke="#000" stroke-width=".8" xlink:href="#b"/><g transform="matrix(0 -.1 -.1 0 167.058384 390.36)"><use xlink:href="#c"/><use x="50" xlink:href="#d"/><use x="100" xlink:href="#e"/><use x="150" xlink:href="#e"/><use x="200" xlink:href="#f"/><use x="250" xlink:href="#d"/><use x="300" xlink:href="#g"/><use x="350" xlink:href="#f"/><use x="400" xlink:href="#e"/><use x="450" xlink:href="#i"/></g></g><g><use x="177.331" y="333.36" stroke="#000" stroke-width=".8" xlink:href="#b"/><g transform="matrix(0 -.1 -.1 0 180.143665 390.36)"><use xlink:href="#c"/><use x="50" xlink:href="#d"/><use x="100" xlink:href="#e"/><use x="150" xlink:href="#e"/><use x="200" xlink:href="#f"/><use x="250" xlink:href="#d"/><use x="300" xlink:href="#i"/><use x="350" xlink:href="#f"/><use x="400" xlink:href="#j"/><use x="450" xlink:href="#d"/></g></g><g><use x="190.416" y="333.36" stroke="#000" stroke-width=".8" xlink:href="#b"/><g transform="matrix(0 -.1 -.1 0 193.228946 390.36)"><use xlink:href="#c"/><use x="50" xlink:href="#d"/><use x="100" xlink:href="#e"/><use x="150" xlink:href="#e"/><use x="200" xlink:href="#f"/><use x="250" xlink:href="#d"/><use x="300" xlink:href="#k"/><use x="350" xlink:href="#f"/><use x="400" xlink:href="#e"/><use x="450" xlink:href="#c"/></g></g><g><use x="203.502" y="333.36" stroke="#000" stroke-width=".8" xlink:href="#b"/><g transform="matrix(0 -.1 -.1 0 206.314228 390.36)"><use xlink:href="#c"/><use x="50" xlink:href="#d"/><use x="100" xlink:href="#e"/><use x="150" xlink:href="#e"/><use x="200" xlink:href="#f"/><use x="250" xlink:href="#d"/><use x="300" xlink:href="#l"/><use x="350" xlink:href="#f"/><use x="400" xlink:href="#c"/><use x="450" xlink:href="#j"/></g></g><g><use x="216.587" y="333.36" stroke="#000" stroke-width=".8" xlink:href="#b"/><g transform="matrix(0 -.1 -.1 0 219.399509 390.36)"><use xlink:href="#c"/><use x="50" xlink:href="#d"/><use x="100" xlink:href="#e"/><use x="150" xlink:href="#e"/><use x="200" xlink:href="#f"/><use x="250" xlink:href="#e"/><use x="300" xlink:href="#d"/><use x="350" xlink:href="#f"/><use x="400" xlink:href="#e"/><use x="450" xlink:href="#c"/></g></g><g><use x="229.672" y="333.36" stroke="#000" stroke-width=".8" xlink:href="#b"/><g transform="matrix(0 -.1 -.1 0 232.48479 390.36)"><use xlink:href="#c"/><use x="50" xlink:href="#d"/><use x="100" xlink:href="#e"/><use x="150" xlink:href="#e"/><use x="200" xlink:href="#f"/><use x="250" xlink:href="#e"/><use x="300" xlink:href="#e"/><use x="350" xlink:href="#f"/><use x="400" xlink:href="#c"/><use x="450" xlink:href="#j"/></g></g><g><use x="242.758" y="333.36" stroke="#000" stroke-width=".8" xlink:href="#b"/><g transform="matrix(0 -.1 -.1 0 245.570071 390.36)"><use xlink:href="#c"/><use x="50" xlink:href="#d"/><use x="100" xlink:href="#e"/><use x="150" xlink:href="#c"/><use x="200" xlink:href="#f"/><use x="250" xlink:href="#d"/><use x="300" xlink:href="#e"/><use x="350" xlink:href="#f"/><use x="400" xlink:href="#d"/><use x="450" xlink:href="#h"/></g></g><g><use x="255.843" y="333.36" stroke="#000" stroke-width=".8" xlink:href="#b"/><g transform="matrix(0 -.1 -.1 0 258.655352 390.36)"><use xlink:href="#c"/><use x="50" xlink:href="#d"/><use x="100" xlink:href="#e"/><use x="150" xlink:href="#c"/><use x="200" xlink:href="#f"/><use x="250" xlink:href="#d"/><use x="300" xlink:href="#c"/><use x="350" xlink:href="#f"/><use x="400" xlink:href="#c"/><use x="450" xlink:href="#g"/></g></g><g><use x="268.928" y="333.36" stroke="#000" stroke-width=".8" xlink:href="#b"/><g transform="matrix(0 -.1 -.1 0 271.740633 390.36)"><use xlink:href="#c"/><use x="50" xlink:href="#d"/><use x="100" xlink:href="#e"/><use x="150" xlink:href="#c"/><use x="200" xlink:href="#f"/><use x="250" xlink:href="#d"/><use x="300" xlink:href="#g"/><use x="350" xlink:href="#f"/><use x="400" xlink:href="#e"/><use x="450" xlink:href="#e"/></g></g><g><use x="282.013" y="333.36" stroke="#000" stroke-width=".8" xlink:href="#b"/><g transform="matrix(0 -.1 -.1 0 284.825914 390.36)"><use xlink:href="#c"/><use x="50" xlink:href="#d"/><use x="100" xlink:href="#e"/><use x="150" xlink:href="#c"/><use x="200" xlink:href="#f"/><use x="250" xlink:href="#d"/><use x="300" xlink:href="#i"/><use x="350" xlink:href="#f"/><use x="400" xlink:href="#c"/><use x="450" xlink:href="#i"/></g></g><g><use x="295.099" y="333.36" stroke="#000" stroke-width=".8" xlink:href="#b"/><g transform="matrix(0 -.1 -.1 0 297.911195 390.36)"><use xlink:href="#c"/><use x="50" xlink:href="#d"/><use x="100" xlink:href="#e"/><use x="150" xlink:href="#c"/><use x="200" xlink:href="#f"/><use x="250" xlink:href="#d"/><use x="300" xlink:href="#k"/><use x="350" xlink:href="#f"/><use x="400" xlink:href="#d"/><use x="450" xlink:href="#m"/></g></g><g><use x="308.184" y="333.36" stroke="#000" stroke-width=".8" xlink:href="#b"/><g transform="matrix(0 -.1 -.1 0 310.996476 390.36)"><use xlink:href="#c"/><use x="50" xlink:href="#d"/><use x="100" xlink:href="#e"/><use x="150" xlink:href="#c"/><use x="200" xlink:href="#f"/><use x="250" xlink:href="#d"/><use x="300" xlink:href="#l"/><use x="350" xlink:href="#f"/><use x="400" xlink:href="#c"/><use x="450" xlink:href="#d"/></g></g><g><use x="321.269" y="333.36" stroke="#000" stroke-width=".8" xlink:href="#b"/><g transform="matrix(0 -.1 -.1 0 324.081757 390.36)"><use xlink:href="#c"/><use x="50" xlink:href="#d"/><use x="100" xlink:href="#e"/><use x="150" xlink:href="#c"/><use x="200" xlink:href="#f"/><use x="250" xlink:href="#e"/><use x="300" xlink:href="#d"/><use x="350" xlink:href="#f"/><use x="400" xlink:href="#d"/><use x="450" xlink:href="#l"/></g></g><g><use x="334.355" y="333.36" stroke="#000" stroke-width=".8" xlink:href="#b"/><g transform="matrix(0 -.1 -.1 0 337.167038 390.36)"><use xlink:href="#c"/><use x="50" xlink:href="#d"/><use x="100" xlink:href="#e"/><use x="150" xlink:href="#c"/><use x="200" xlink:href="#f"/><use x="250" xlink:href="#e"/><use x="300" xlink:href="#e"/><use x="350" xlink:href="#f"/><use x="400" xlink:href="#e"/><use x="450" xlink:href="#m"/></g></g><g><use x="347.44" y="333.36" stroke="#000" stroke-width=".8" xlink:href="#b"/><g transform="matrix(0 -.1 -.1 0 350.252319 390.36)"><use xlink:href="#c"/><use x="50" xlink:href="#d"/><use x="100" xlink:href="#e"/><use x="150" xlink:href="#c"/><use x="200" xlink:href="#f"/><use x="250" xlink:href="#e"/><use x="300" xlink:href="#c"/><use x="350" xlink:href="#f"/><use x="400" xlink:href="#j"/><use x="450" xlink:href="#e"/></g></g><g><use x="360.525" y="333.36" stroke="#000" stroke-width=".8" xlink:href="#b"/><g transform="matrix(0 -.1 -.1 0 363.3376 390.36)"><use xlink:href="#c"/><use x="50" xlink:href="#d"/><use x="100" xlink:href="#e"/><use x="150" xlink:href="#j"/><use x="200" xlink:href="#f"/><use x="250" xlink:href="#d"/><use x="300" xlink:href="#c"/><use x="350" xlink:href="#f"/><use x="400" xlink:href="#c"/><use x="450" xlink:href="#e"/></g></g><g><use x="373.61" y="333.36" stroke="#000" stroke-width=".8" xlink:href="#b"/><g transform="matrix(0 -.1 -.1 0 376.422881 390.36)"><use xlink:href="#c"/><use x="50" xlink:href="#d"/><use x="100" xlink:href="#e"/><use x="150" xlink:href="#j"/><use x="200" xlink:href="#f"/><use x="250" xlink:href="#d"/><use x="300" xlink:href="#g"/><use x="350" xlink:href="#f"/><use x="400" xlink:href="#d"/><use x="450" xlink:href="#l"/></g></g><g><use x="386.696" y="333.36" stroke="#000" stroke-width=".8" xlink:href="#b"/><g transform="matrix(0 -.1 -.1 0 389.508162 390.36)"><use xlink:href="#c"/><use x="50" xlink:href="#d"/><use x="100" xlink:href="#e"/><use x="150" xlink:href="#j"/><use x="200" xlink:href="#f"/><use x="250" xlink:href="#d"/><use x="300" xlink:href="#i"/><use x="350" xlink:href="#f"/><use x="400" xlink:href="#c"/><use x="450" xlink:href="#j"/></g></g><g><use x="399.781" y="333.36" stroke="#000" stroke-width=".8" xlink:href="#b"/><g transform="matrix(0 -.1 -.1 0 402.593443 390.36)"><use xlink:href="#c"/><use x="50" xlink:href="#d"/><use x="100" xlink:href="#e"/><use x="150" xlink:href="#j"/><use x="200" xlink:href="#f"/><use x="250" xlink:href="#d"/><use x="300" xlink:href="#k"/><use x="350" xlink:href="#f"/><use x="400" xlink:href="#d"/><use x="450" xlink:href="#m"/></g></g><g><use x="412.866" y="333.36" stroke="#000" stroke-width=".8" xlink:href="#b"/><g transform="matrix(0 -.1 -.1 0 415.678724 390.36)"><use xlink:href="#c"/><use x="50" xlink:href="#d"/><use x="100" xlink:href="#e"/><use x="150" xlink:href="#j"/><use x="200" xlink:href="#f"/><use x="250" xlink:href="#d"/><use x="300" xlink:href="#l"/><use x="350" xlink:href="#f"/><use x="400" xlink:href="#c"/><use x="450" xlink:href="#d"/></g></g><g><use x="425.952" y="333.36" stroke="#000" stroke-width=".8" xlink:href="#b"/><g transform="matrix(0 -.1 -.1 0 428.764005 390.36)"><use xlink:href="#c"/><use x="50" xlink:href="#d"/><use x="100" xlink:href="#e"/><use x="150" xlink:href="#j"/><use x="200" xlink:href="#f"/><use x="250" xlink:href="#e"/><use x="300" xlink:href="#d"/><use x="350" xlink:href="#f"/><use x="400" xlink:href="#e"/><use x="450" xlink:href="#d"/></g></g><g><use x="439.037" y="333.36" stroke="#000" stroke-width=".8" xlink:href="#b"/><g transform="matrix(0 -.1 -.1 0 441.849286 390.36)"><use xlink:href="#c"/><use x="50" xlink:href="#d"/><use x="100" xlink:href="#e"/><use x="150" xlink:href="#j"/><use x="200" xlink:href="#f"/><use x="250" xlink:href="#e"/><use x="300" xlink:href="#e"/><use x="350" xlink:href="#f"/><use x="400" xlink:href="#c"/><use x="450" xlink:href="#e"/></g></g><g><use x="452.122" y="333.36" stroke="#000" stroke-width=".8" xlink:href="#b"/><g transform="matrix(0 -.1 -.1 0 454.934567 390.36)"><use xlink:href="#c"/><use x="50" xlink:href="#d"/><use x="100" xlink:href="#e"/><use x="150" xlink:href="#g"/><use x="200" xlink:href="#f"/><use x="250" xlink:href="#d"/><use x="300" xlink:href="#e"/><use x="350" xlink:href="#f"/><use x="400" xlink:href="#d"/><use x="450" xlink:href="#j"/></g></g><g><use x="465.207" y="333.36" stroke="#000" stroke-width=".8" xlink:href="#b"/><g transform="matrix(0 -.1 -.1 0 468.019848 390.36)"><use xlink:href="#c"/><use x="50" xlink:href="#d"/><use x="100" xlink:href="#e"/><use x="150" xlink:href="#g"/><use x="200" xlink:href="#f"/><use x="250" xlink:href="#d"/><use x="300" xlink:href="#c"/><use x="350" xlink:href="#f"/><use x="400" xlink:href="#c"/><use x="450" xlink:href="#e"/></g></g><g><use x="478.293" y="333.36" stroke="#000" stroke-width=".8" xlink:href="#b"/><g transform="matrix(0 -.1 -.1 0 481.105129 390.36)"><use xlink:href="#c"/><use x="50" xlink:href="#d"/><use x="100" xlink:href="#e"/><use x="150" xlink:href="#g"/><use x="200" xlink:href="#f"/><use x="250" xlink:href="#d"/><use x="300" xlink:href="#g"/><use x="350" xlink:href="#f"/><use x="400" xlink:href="#d"/><use x="450" xlink:href="#g"/></g></g><g><use x="491.378" y="333.36" stroke="#000" stroke-width=".8" xlink:href="#b"/><g transform="matrix(0 -.1 -.1 0 494.19041 390.36)"><use xlink:href="#c"/><use x="50" xlink:href="#d"/><use x="100" xlink:href="#e"/><use x="150" xlink:href="#g"/><use x="200" xlink:href="#f"/><use x="250" xlink:href="#d"/><use x="300" xlink:href="#i"/><use x="350" xlink:href="#f"/><use x="400" xlink:href="#c"/><use x="450" xlink:href="#e"/></g></g><g><use x="504.463" y="333.36" stroke="#000" stroke-width=".8" xlink:href="#b"/><g transform="matrix(0 -.1 -.1 0 507.275691 390.36)"><use xlink:href="#c"/><use x="50" xlink:href="#d"/><use x="100" xlink:href="#e"/><use x="150" xlink:href="#g"/><use x="200" xlink:href="#f"/><use x="250" xlink:href="#d"/><use x="300" xlink:href="#k"/><use x="350" xlink:href="#f"/><use x="400" xlink:href="#d"/><use x="450" xlink:href="#j"/></g></g><g><use x="517.548" y="333.36" stroke="#000" stroke-width=".8" xlink:href="#b"/><g transform="matrix(0 -.1 -.1 0 520.360972 390.36)"><use xlink:href="#c"/><use x="50" xlink:href="#d"/><use x="100" xlink:href="#e"/><use x="150" xlink:href="#g"/><use x="200" xlink:href="#f"/><use x="250" xlink:href="#d"/><use x="300" xlink:href="#l"/><use x="350" xlink:href="#f"/><use x="400" xlink:href="#e"/><use x="450" xlink:href="#g"/></g></g><g><use x="530.634" y="333.36" stroke="#000" stroke-width=".8" xlink:href="#b"/><g transform="matrix(0 -.1 -.1 0 533.446253 390.36)"><use xlink:href="#c"/><use x="50" xlink:href="#d"/><use x="100" xlink:href="#e"/><use x="150" xlink:href="#g"/><use x="200" xlink:href="#f"/><use x="250" xlink:href="#d"/><use x="300" xlink:href="#m"/><use x="350" xlink:href="#f"/><use x="400" xlink:href="#c"/><use x="450" xlink:href="#h"/></g></g><g><use x="543.719" y="333.36" stroke="#000" stroke-width=".8" xlink:href="#b"/><g transform="matrix(0 -.1 -.1 0 546.531534 390.36)"><use xlink:href="#c"/><use x="50" xlink:href="#d"/><use x="100" xlink:href="#e"/><use x="150" xlink:href="#g"/><use x="200" xlink:href="#f"/><use x="250" xlink:href="#e"/><use x="300" xlink:href="#e"/><use x="350" xlink:href="#f"/><use x="400" xlink:href="#e"/><use x="450" xlink:href="#g"/></g></g><g><use x="556.804" y="333.36" stroke="#000" stroke-width=".8" xlink:href="#b"/><g transform="matrix(0 -.1 -.1 0 559.616815 390.36)"><use xlink:href="#c"/><use x="50" xlink:href="#d"/><use x="100" xlink:href="#e"/><use x="150" xlink:href="#g"/><use x="200" xlink:href="#f"/><use x="250" xlink:href="#e"/><use x="300" xlink:href="#c"/><use x="350" xlink:href="#f"/><use x="400" xlink:href="#c"/><use x="450" xlink:href="#h"/></g></g><g stroke="#000" stroke-width=".8"><use x="569.89" y="333.36" xlink:href="#b"/><use x="582.975" y="333.36" xlink:href="#b"/></g></g><g stroke-linejoin="round"><g><use x="34.2" y="318.535" stroke="#000" stroke-width=".8" xlink:href="#n"/><g transform="matrix(.1 0 0 -.1 17.2 321.972045)"><use xlink:href="#d"/><use x="50" xlink:href="#o"/></g></g><g><use x="34.2" y="262.051" stroke="#000" stroke-width=".8" xlink:href="#n"/><g transform="matrix(.1 0 0 -.1 12.2 265.488153)"><use xlink:href="#i"/><use x="50" xlink:href="#d"/><use x="100" xlink:href="#o"/></g></g><g><use x="34.2" y="205.567" stroke="#000" stroke-width=".8" xlink:href="#n"/><g transform="matrix(.1 0 0 -.1 7.2 209.00426)"><use xlink:href="#e"/><use x="50" xlink:href="#d"/><use x="100" xlink:href="#d"/><use x="150" xlink:href="#o"/></g></g><g><use x="34.2" y="149.083" stroke="#000" stroke-width=".8" xlink:href="#n"/><g transform="matrix(.1 0 0 -.1 7.2 152.520368)"><use xlink:href="#e"/><use x="50" xlink:href="#i"/><use x="100" xlink:href="#d"/><use x="150" xlink:href="#o"/></g></g><g><use x="34.2" y="92.599" stroke="#000" stroke-width=".8" xlink:href="#n"/><g transform="matrix(.1 0 0 -.1 7.2 96.036476)"><use xlink:href="#c"/><use x="50" xlink:href="#d"/><use x="100" xlink:href="#d"/><use x="150" xlink:href="#o"/></g></g><g><use x="34.2" y="36.115" stroke="#000" stroke-width=".8" xlink:href="#n"/><g transform="matrix(.1 0 0 -.1 7.2 39.552583)"><use xlink:href="#c"/><use x="50" xlink:href="#i"/><use x="100" xlink:href="#d"/><use x="150" xlink:href="#o"/></g></g></g><g fill="none" stroke-linecap="square"><path stroke="#ed7d31" stroke-linejoin="round" stroke-width="2" d="m59.563636 318.534545.436176-6.35821h.436176l.436176-1.590049h.872353l.436176.790936.436176-1.629284.436176-.154906h1.308528l.436176.683648.436176-3.638064h.872352l.436176-6.451727h1.308528l.436176-4.816548h1.744704l.436176-1.904331.436176.719037h5.670289l.436176-2.298769h.872352l.436176.366459.436176.905578h.436176l.436176.786649h.436176l.436176-7.251328h1.744704l.436176.773421h.872352l.436176 1.12283h.436176l.436176-.85988.436176.802186h.872352l.436176-4.273394h.872353l.436176.805646h.872352l.436176.763575.436176-5.348772h1.308528l.436176-3.482694h2.18088l.436176.915641.436176.138849h.436176l.436176-3.784219h1.744704l.872352 1.729984h2.180881l.872352 1.874513.436176-.219912.436176.874917.436176.508518.436176.802121.436176-1.713654.436176-.416403h.872352l.436176-1.901133.436176-2.61989h.436176l.872352-.830711.436176-1.138533.436176-.311642.436176.131939.436176-2.675112.436176-1.93707h.436176l.436176-1.172695h.872352l.436176-7.455132h3.489409l.436176.92493h1.308528l.436176 1.017424h1.308528l.436176-.857332h1.744704l.436176 1.111202h.872352l.436176 1.506667h.436176l.436176.92875h1.744704l.436176-2.990338h1.308529l.436176.964662h1.308528l.436176-1.866405h.872352l.436176-1.777781h.436176l.436176.759275.436176-4.421614h3.053232l.872352 2.014536h1.308528l.436176 1.129779h1.744704l.436177-1.684411.436176-6.422669.872352.048918.436176-5.678907.436176 1.025333h.872352l.436176 1.170116 3.053232-.022704.436176-3.606591h1.744704l.436176-2.45261.436176-5.482135.436176 1.284136h.872352l1.308528 3.329764h.436176l.436177-2.696871.872352 2.193728h.436176l.436176-1.606892.436176 1.056891h.436176l.436176-1.234205h1.744704l.436176 1.481219h.436176l.436176-.318406.436176-.636902.872352 2.11228h1.744704l.436176.676207.872352-3.050019.872352 2.213105.436176-.812874.436176 1.208435h.436177l.436176-1.524722.436176.085909.436176 1.041146h.436176l1.744704 4.144807h.436176l.436176.990928.436176-3.824462.436176.552401h.436176l.436176 1.008675h2.617056l.436176-.642691.436176 1.057754.436176.656865.436176-4.541992.872352.077352.436176-1.595535h.872352l.436177 1.023845.436176.452107.872352-2.512166.436176-.656746.436176 1.028721.436176-2.579553h.872352l.436176-.466827.436176 1.105148.436176-.921979.436176-2.871033.436176 1.059892.436176-.431967.436176-.668851.436176 1.429283.436176-4.773319h.436176l.436176.459995h.436176l.436176-.446492.436176-.767826.436176-1.68455.436176.001719.436176.799764 1.308528 3.411103.436176-1.222688.436177-2.542579.872352 2.354636h.436176l.436176.606945.436176-1.624023h.872352l.436176-5.068128 2.18088.013917.436176 1.154046.436176-.241231.872352 2.396823h.872352l.436176 1.091534.436176-4.269435h2.18088l.436176 1.225058h2.180881l.436176-.487097.436176 1.137695h1.308528l.436176-1.689695.436176-.372777.436176 1.842527h.872352l.872352 2.407602h.436176l.436176 1.091588.872352-3.737585.436176 1.393835h2.18088l.872352 2.821517.436176-.820638.436176-4.985983h2.617057l.436176-2.651913h3.053232l.436176 1.361778h3.053232l.436176 1.184161h.436176l.436176 1.130206.436176-3.734316h3.053233l.436176 1.591416.436176 1.168863.436176-5.253597h.872352l.436176 1.158321h.436176l.872352 2.556435h.872352l.436176-3.213752h.436176l.436176-4.711334h.436176l.436176 1.273982h3.053232l.436176 1.306698.436176-1.559275.436176-5.700796h1.308529l.436176-6.851363h.436176l.436176 1.418934h4.36176l.436176 1.260476.436176-1.103604.436176-1.631398h2.18088l.872352 2.942397h1.744704l.872353 2.692584h.436176l.436176-.17549.872352 2.347112.436176-1.871847.436176 1.302742.436176-1.84543h.436176l.436176-.728424h.872352l.436176-2.174838h.436176l1.308528 3.878591.436176-1.207511h.436176l.436176.185331.436176 1.220049.436176.080261.436176-.992675.436176-4.553186.436176-1.154377.436176 1.213356.436176-4.301377h3.053233l.436176-1.590809.436176 2.045797h.436176l.436176-2.038489.436176-.64008.436176 1.342336h.436176l.436176 1.318989.436176-.006436.436176-2.435378.872352-.110687h.436176l.436176-.145373.436176-1.162816.436176.600903.872352 2.89404.436176-.259539.436176-3.400346.436176 1.484006.436176-2.338037h.436176l.436176-1.116386.872353 2.6397h.436176l.436176 1.310835.436176-3.924201.436176.577767.436176-.775363h.436176l.436176-4.299294.436176.876138.436176 1.289976.436176-3.223297h.436176l.872352 2.655256.436176-2.413366 1.308528 4.034582.436176-.443854.436176 1.276695.436176-1.547302.436176-3.101134.436176.009216.436176.648936.436176-1.922063.436176-3.053306.872352.221617h.436176l.436177.417239h.436176l.436176-4.376109.872352-1.511288.872352 2.8201.436176-2.953659.436176-.751104h.872352l.436176-1.538835.436176-.165353.436176.094961.872352 2.784019.872352-.056598.436176.310091.436176.115218.436176-1.372868.872352-3.322767.436176-.012898.872352 2.783227.436176-.542184.436176-2.913627.436176-.540868.436177-.191816.436176.740339.436176-.371684.872352 2.763389.436176-.953208.436176 1.655776.872352-3.351658.436176.12162.436176 1.532936h.436176l.436176 1.376076.436176-1.168835.436176 1.455362.436176-.668108h.436176l.436176-8.336891.436176.370211.436176 1.506581h.872352l.436176 1.540918.436176-5.196356.436176-2.355546.436176-1.122066.436176-3.849381.436176-.367924h.436176l.436176 1.782778h.872353l.436176-6.410711h2.18088l.436176 1.680557h.436176l.436176 1.539199h.436176l.436176.715045.436176-1.600376.436176-2.575392.436176.273423.436176 1.766682.436176-5.583776.872352 3.307919h.436176l.436176-3.425179.436176.301853h.436176l.436176-1.323697h1.744704l.436177-1.48337h.436176l.436176 1.680855.436176-.700027h2.18088l.436176 1.725529h.436176l.436176-.208405.436176 1.567662h1.308528l.436176-8.026707.436176-.966675h.872352l.436176-.121477.436176 1.519108h.436176l.436176-11.110174h2.617056l.436177-6.62038h1.744704l.436176-1.945642h1.308528l.436176 2.614698h.436176l.436176-11.407486h.436176l.436176-2.774227h1.308528l.436176 1.938448h.436176l.436176 2.509896.436176.503609.436176 1.74792h.436176l.436176 1.841041.436176 1.291299h.872352l.436176-2.666372h.436176l.436176 1.944245h.872353l.436176-2.266657.436176.504067.436176-5.366688h.872352l.436176 1.72687h4.36176l.436176-1.943283h1.744704l.436176-5.393155h1.744704l.436176 1.835229h.436177l.436176 1.718549h.436176l.436176 1.718196.436176 2.760528h.436176l.436176 1.658346h.436176l.872352 3.491891h.436176l.436176-2.712667h.436176l.436176-1.042637.436176-4.894845h.436176l.436176-3.811626h3.925584l.436176 1.705456h.436176l.436176-2.154449h3.489409l.436176 1.768759h.872352l.436176 1.806743.436176-3.395598.436176 1.788965.436176-2.209395.436176-1.058529.872352 3.514987.872352-1.010319h15.702337l.436176 1.759941h2.180881l.436176 2.488186h1.308528l.436176 3.143883h4.36176l.436176-.557377.436176.442123h.436176l.436176-5.782115.436176-4.288911h.436176l.436176 1.822012h.436176l.436176-2.208395.436176-4.429248h.872352l.436176-.637274h.436177l.436176-2.154544.436176 1.935467h1.308528l.436176-2.1185h.436176l.436176.8504.872352-2.65472h.436176l.436176.122854h.436176l.436176-2.349818h2.617056l.436176.635913h.872352l.436176 2.206177h.436176l.436176 1.858926h.872352l.436177 1.810986.436176-3.269092h.436176l.436176-.936293h1.308528l.436176 2.016833h3.053232l.436176-3.117725.436176-.693614h1.744704l.436176-2.244252.436176 1.439942.436176.095724.436176-6.331716.436176-1.391011h.436176l.436176-3.644542.436176-6.529296.436176 2.028218h.872353l.872352-4.333378.436176-.483799h.872352l.436176-1.26604.436176-2.883383 4.36176.105414.436176 1.911542.436176-5.261139h.436176l.436176-1.069661.436176 2.176175h.872352l.436176-3.881608h.436176l.872352-3.782627h.436177l.436176-1.204552h.436176l.436176-1.159154.436176-2.323877h.872352l.436176-3.258473.436176-1.236404h2.617056l.436176-2.203437.436176 3.133153h3.053232l.436176-3.525778.436176 2.244736h2.180881l.436176 2.566647h1.308528l.436176 2.286469h.436176l.436176-4.626418h.436176l.872352 4.531225.436176.441595h.436176l.436176-1.750931.436176 2.002132h.872352l.436176 2.150064h.872352l.872352 4.105233h.436176l.436176-2.414277.436176-1.142536.872352 4.828279.436176-1.074585h1.308529l.436176-2.538753h.436176l.436176-2.510886.436176 2.079364.436176-.494806.436176-2.456104h.436176l.436176 2.427374h.436176l.872352 4.173334h.436176l.436176-2.331767.872352 3.878131.436176-.65772.872352-6.611823.436176.323066h.436176l.436176.319996.436176-.170131h.436176l.436176 2.136352.436176-.923942.436176 1.969156.436176-3.593247.872353.004665.436176-.595627.872352 2.685269.436176 1.992281h.436176l.436176-.476937h.436176l.436176-.337722h.436176l.436176 2.028164.436176-.851502.436176-5.253781.436176.885985.436176.039977.436176-3.324306.436176-.204658h.436176l1.308528-.898884.436176-3.219909.436176 1.997344h1.744704l.436176 2.221847h1.308529l.436176-2.156871.872352 3.995706h.872352l.436176 2.046503.436176.170058.436176 2.853152.436176 2.059562h.436176l.436176-.268855.436176-.709039.436176.546884.872352-2.751129h.436176l.436176.52147.436176 2.016707.436176-3.201785.436176-.147454.436176-6.337444.436176.797968.436176-4.436515h.436176l.436176.606261.436176.389872.436176 2.008987h1.308529l.436176.171075h1.308528l.436176-.590409.436176-8.713243h1.308528l.436176-.780753 1.308528 6.718003h.436176l.872352 4.490238.436176.879896h1.308528l.872352 4.268215.436176-1.706796.436176.644166.436176-6.094577.436176 2.016404.436176-1.219984h.436177l.436176 2.031349.436176-.014585.872352 1.952724.436176 2.099h2.617056l.436176-2.30629h.872352l.436176 2.257445h.436176l.436176 2.024428h1.744704l.436176-15.649362h10.468225l.436176-6.420048h1.744704l.436176 2.079081h1.308528l.436176-11.392649h1.308529l.436176-5.211934h1.308528" clip-path="url(#a)"/><path stroke="#000" stroke-linejoin="miter" stroke-width=".8" d="m34.2 333.36v-326.16"/><path stroke="#000" stroke-linejoin="miter" stroke-width=".8" d="m592.2 333.36v-326.16"/><path stroke="#000" stroke-linejoin="miter" stroke-width=".8" d="m34.2 333.36h558"/><path stroke="#000" stroke-linejoin="miter" stroke-width=".8" d="m34.2 7.2h558"/></g><g stroke-linejoin="round"><path fill="none" stroke="#ed7d31" stroke-linecap="square" stroke-width="2" d="m173.4 316.165638h20"/><g transform="matrix(.1 0 0 -.1 201.4 319.665638)"><path d="m65.625 74.609375q-.78125 0-10.9375-12.5 8.984375 1.5625 11.125 2.921875 2.15625 1.375 4.890625.203125 2.734375-1.171875 5.859375-3.328125 3.125-2.140625 1.359375-3.90625-1.75-1.75-3.515625-3.90625-1.75-2.140625-4.09375-8.390625-2.34375-6.25-4.890625-9.1875-2.53125-2.921875-3.703125.984375l-10.15625-.78125v-9.765625q10.15625 1.171875 19.328125 1.953125 9.1875.78125 13.28125.1875 4.109375-.578125 5.859375-2.734375 1.765625-2.140625-2.140625-2.34375-3.90625-.1875-14.0625 0-10.15625.203125-22.265625-1.359375 0-16.40625-.78125-24.40625-.78125-8.015625-2.546875-8.796875-1.75-.78125-1.75 8.203125v24.609375q-8.984375-.78125-16.015625-1.765625-7.03125-.96875-11.53125-1.5625-4.484375-.578125-8.78125 2.15625-4.296875 2.734375.390625 2.734375 5.078125 0 13.28125.578125 8.203125.59375 22.65625 2.15625v9.375q-4.6875 0-11.328125-.78125-1.953125-5.46875-3.71875-1.375-1.75 4.109375-3.515625 10.9375-1.75 6.84375-2.734375 9.578125-.96875 2.734375-2.53125 5.078125-1.5625 2.34375 1.359375 1.953125 2.9375-.390625 5.078125-.984375 2.15625-.578125 4.109375-.578125 1.953125 0 8 .78125 6.0625.78125 10.359375 1.171875 2.734375 4.296875 5.078125 9.765625 2.34375 5.46875 1.75 9.171875-.578125 3.71875 6.0625.203125 5.46875-3.515625 1.171875-6.25zm-34.375-17.96875q1.5625-12.109375 2.734375-18.359375 8.984375.78125 12.5 1.171875v6.640625q-5.46875-.390625-8.015625.78125-2.53125 1.171875.390625 2.140625 2.9375.984375 7.625 1.765625 0 3.90625-.78125 7.421875-8.203125-.78125-14.453125-1.5625zm30.859375-15.625q1.5625 2.34375 3.3125 9.953125 1.765625 7.625.203125 8.59375-1.5625.984375-4.6875.59375-3.125-.390625-10.15625-1.171875 2.34375-1.953125 1.75-3.71875-.578125-1.75-.96875-3.703125 3.90625.78125 6.046875.96875 2.15625.203125 2.9375-1.359375.78125-1.5625-2.546875-2.734375-3.3125-1.171875-6.4375-1.5625v-6.640625q7.03125.78125 10.546875.78125zm-27.34375 29.6875q-3.125 5.078125-3.90625 7.03125-.78125 1.953125 2.734375 1.171875 3.515625-.78125 6.4375-3.328125 2.9375-2.53125 3.125-5.46875.203125-2.921875-1.359375-4.875-1.5625-1.953125-7.03125 5.46875z"/><path d="m50.78125 30.078125q7.421875-9.375 14.453125-15.828125 7.03125-6.4375 12.6875-8.390625 5.671875-1.953125 11.71875-3.515625 6.0625-1.5625 3.71875-2.734375-2.34375-1.171875-12.890625-1.953125-10.546875-.78125-14.65625 4.875-4.09375 5.671875-16.203125 24.421875-3.125-12.890625-8.796875-18.953125-5.65625-6.046875-15.234375-8.578125-9.5625-2.546875-2.140625.96875 7.421875 3.515625 12.296875 9.375 4.890625 5.859375 6.640625 11.328125 1.765625 5.46875 2.34375 9.375.59375 3.90625-.78125 6.046875-1.359375 2.15625 1.375 1.765625 2.734375-.390625 5.078125-1.5625 2.34375-1.171875 1.359375-2.34375-.96875-1.171875-.96875-4.296875zm-3.125 18.359375q5.46875.390625 11.328125 2.34375 5.859375 1.953125 8.78125 3.703125 2.9375 1.765625 6.25.59375 3.328125-1.171875 6.640625-3.90625 3.328125-2.734375-2.140625-4.296875-5.46875-1.5625-10.9375-6.640625-5.46875-5.078125-3.328125-.78125 2.15625 4.296875 2.9375 6.640625.78125 2.34375-1.765625 2.140625-2.53125-.1875-8.78125-1.953125-6.25-1.75-9.765625.203125-4.6875-7.03125-8.984375-9.765625-4.296875-2.734375 0 3.3125 4.296875 6.0625 8.203125 17.390625 3.90625 11.328125 2.53125 15.421875-1.359375 4.109375 1.765625 3.125 3.125-.96875 5.65625-2.921875 2.546875-1.953125 1.171875-3.515625-1.359375-1.5625-3.515625-7.03125-2.140625-5.46875-6.046875-14.0625zm-20.703125-13.671875q5.078125 5.859375 2.34375.1875-2.734375-5.65625-6.84375-11.90625-4.09375-6.25-7.03125-12.890625-2.921875-6.640625-6.25-.78125-3.3125 5.859375-1.171875 6.4375 2.15625.59375 8.015625 6.84375 5.859375 6.25 10.9375 12.109375zm-9.765625 18.75q-2.34375 3.125-3.71875 5.46875-1.359375 2.34375 4.6875.578125 6.0625-1.75 7.8125-5.46875 1.765625-3.703125.59375-6.4375-1.171875-2.734375-4.109375 0-2.921875 2.734375-5.265625 5.859375z" transform="translate(100)"/><path d="m60.9375 63.671875q2.34375-1.953125 3.3125-3.515625.984375-1.5625 0-3.125-.96875-1.5625-1.359375-11.71875 16.015625 1.5625 20.3125 2.53125 4.296875.984375 8.59375-2.140625 4.296875-3.125-1.375-3.328125-5.65625-.1875-27.140625-1.75.390625-24.21875 0-35.9375-.390625-11.71875-2.15625-12.109375-1.75-.390625-2.140625 10.734375-.390625 11.140625-.78125 36.921875l-17.1875-1.5625q-1.953125-15.234375-6.84375-23.25-4.875-8-11.90625-12.296875-7.03125-4.296875-1.5625 1.171875 5.46875 5.46875 9.5625 13.078125 4.109375 7.625 5.671875 20.515625-16.40625-1.5625-19.921875-2.15625-3.515625-.578125-7.421875 2.546875-3.90625 3.125 3.515625 2.921875 7.421875-.1875 24.21875 1.375.390625 14.84375-1.953125 17.578125-4.296875 0-6.25.578125-1.953125.59375-3.90625 2.34375-1.953125 1.765625 3.3125 1.953125 5.28125.203125 12.890625 1.171875 7.625.984375 15.046875 2.15625 7.421875 1.171875 12.6875 2.34375 5.28125 1.171875 8.59375-1.5625 3.328125-2.734375-.78125-3.515625-4.09375-.78125-15.03125-1.953125zm-3.125-19.140625q0 7.421875-.203125 10.9375-.1875 3.515625-2.140625 7.421875-12.109375-1.5625-16.40625-1.953125 4.296875-3.90625 3.515625-5.28125-.78125-1.359375-1.171875-12.6875z" transform="translate(200)"/><path d="m35.9375 35.9375q-.78125-13.28125-.78125-21.09375 0-7.8125 2.34375-10.9375 2.34375-3.125 9.5625-3.328125 7.234375-.1875 15.046875 1.171875 7.8125 1.375 9.171875 5.671875 1.375 4.296875 2.34375 10.15625.984375 5.859375 1.765625-2.34375.78125-8.203125 2.921875-10.75 2.15625-2.53125-1.75-5.0625-3.90625-2.546875-9.375-3.515625-5.46875-.984375-16.015625-1.375-10.546875-.390625-15.625 3.515625-5.078125 3.90625-4.890625 14.84375.203125 10.9375-.1875 16.796875-.390625 5.859375-1.953125 9.171875-1.5625 3.328125.78125 2.9375 2.34375-.390625 4.484375-1.5625 2.15625-1.171875 8.015625.1875 5.859375 1.375 8.59375 3.328125 2.734375 1.953125 5.265625 1.171875 2.546875-.78125 5.078125-2.15625 2.546875-1.359375.59375-3.515625-1.953125-2.140625-2.34375-9.765625-.390625-7.609375-1.953125-10.546875-1.5625-2.921875-4.109375-4.875-2.53125-1.953125-3.515625.78125-.96875 2.734375-5.078125 6.25-4.09375 3.515625 1.375 2.34375 5.46875-1.171875 6.4375 2.140625.984375 3.328125.984375 8.40625 0 5.078125-2.34375 4.875-2.34375-.1875-14.84375-2.921875zm10.546875 30.46875q6.25-5.46875 15.234375-12.5 8.984375-7.03125 15.625-10.15625 6.640625-3.125 14.453125-5.078125 7.8125-1.953125-.78125-2.9375-8.59375-.96875-13.875-.78125-5.265625.203125-8 3.90625-2.734375 3.71875-8.203125 9.1875l-15.625 16.40625q-8.203125-12.5-16.609375-21.875-8.390625-9.375-17.578125-14.265625-9.171875-4.875-1.359375 1.5625 7.8125 6.453125 14.640625 15.046875 6.84375 8.59375 12.3125 17.765625 5.46875 9.1875 4.875 12.3125-.578125 3.125 2.15625 2.34375 2.734375-.78125 5.265625-2.546875 2.546875-1.75.984375-3.3125-1.5625-1.5625-3.515625-5.078125z" transform="translate(300)"/><path d="m46.484375 49.609375q4.296875.78125 8.78125 1.953125 4.5 1.171875 7.03125-.984375 2.546875-2.140625-1.171875-2.734375-3.703125-.578125-14.640625-2.140625l-.390625-7.8125q12.890625 2.734375 14.640625 3.703125 1.765625.984375 4.5 0 2.734375-.96875 4.6875-2.53125 1.953125-1.5625.1875-3.328125-1.75-1.75-2.53125-6.4375-.78125-4.6875-3.90625-8.015625-3.125-3.3125-4.6875-.1875-1.5625 3.125-4.890625 5.65625-3.3125 2.546875.59375 1.375 3.90625-1.171875 5.46875-.984375 1.5625.203125 2.34375 5.46875.78125 5.28125-2.734375 4.890625-3.515625-.390625-13.671875-2.34375v-10.9375q16.015625-10.15625 27.34375-14.0625 11.328125-3.90625 18.359375-4.5 7.03125-.578125 2.921875-2.140625-4.09375-1.5625-10.34375-2.546875-6.25-.96875-8.984375.203125-2.734375 1.171875-11.328125 7.21875-8.59375 6.0625-17.96875 13.09375v-17.578125q0-5.859375-1.171875-10.9375-1.171875-5.078125-3.515625-.578125-2.34375 4.484375-1.171875 8.1875 1.171875 3.71875 1.5625 19.34375-4.6875-5.859375-12.890625-11.921875-8.203125-6.046875-16.015625-8.578125-7.8125-2.546875-.78125 1.359375 7.03125 3.90625 16.015625 11.71875 8.984375 7.8125 13.671875 14.84375v7.03125q-7.8125-.78125-14.0625-1.953125.390625-5.859375.390625-9.765625 0-3.515625-.984375-5.28125-.96875-1.75-2.734375.78125-1.75 2.546875-1.359375 4.296875.390625 1.765625.390625 4.890625 0 3.515625-2.15625 5.859375-2.140625 2.34375 4.5 1.5625.390625 0 4.296875.390625 3.90625.390625 11.71875 1.953125v7.8125q-7.03125-.390625-9.578125-.984375-2.53125-.578125-5.65625 1.375-3.125 1.953125 1.5625 1.953125 4.6875 0 13.28125 1.5625 0 5.859375-1.171875 7.609375-1.171875 1.765625.78125 1.375 1.953125-.390625 3.515625-1.171875 0 .390625 1.171875 1.953125 3.125 4.296875 5.46875 9.5625 2.34375 5.28125 1.359375 7.8125-.96875 2.546875 1.5625 2.15625 2.546875-.390625 4.6875-1.375 2.15625-.96875 1.171875-2.140625-.96875-1.171875-2.140625-3.515625 8.203125.78125 12.6875 1.953125 4.5 1.171875 7.421875-.78125 2.9375-1.953125-6.640625-3.71875-9.5625-1.75-14.25-.1875-4.296875-6.640625-9.375-10.15625-1.5625-1.171875-2.34375-1.5625 2.34375-.78125 1.953125-2.15625-.390625-1.359375-.78125-4.875zm-19.140625 17.96875q6.640625.78125 10.34375 2.140625 3.71875 1.375 6.25-.578125 2.546875-1.953125-5.265625-3.71875-7.8125-1.75-12.109375.59375-4.6875-7.8125-10.15625-12.3125-5.46875-4.484375-1.953125.390625 3.515625 4.890625 6.828125 11.921875 3.328125 7.03125 1.765625 9.765625-1.5625 2.734375.96875 2.140625 2.546875-.578125 5.078125-1.75 2.546875-1.171875 1.375-2.34375-1.171875-1.171875-3.125-6.25zm34.765625-10.546875q-1.953125 1.953125-3.328125 3.90625-1.359375 1.953125.984375 1.953125 2.734375 0 6.046875-1.5625 3.328125-1.5625 2.9375-4.890625-.390625-3.3125-2.546875-2.140625-2.140625 1.171875-4.09375 2.734375zm-35.546875.390625q-1.953125 3.515625 1.171875 2.734375 3.125-.78125 5.265625-2.34375 2.15625-1.5625 1.171875-4.109375-.96875-2.53125-3.125-.96875-2.140625 1.5625-4.484375 4.6875z" transform="translate(400)"/><path d="m54.6875 60.9375q3.125 0 7.609375 1.171875 4.5 1.171875 6.25 2.34375 1.765625 1.171875 3.71875.390625 1.953125-.78125 4.484375-3.125 2.546875-2.34375-.1875-3.90625-2.734375-1.5625-4.5-4.5-1.75-2.921875-8.78125-11.90625 5.859375-5.078125 10.734375-8.984375 4.890625-3.90625 9.96875-6.453125 5.078125-2.53125 10.546875-4.296875 5.46875-1.75-.59375-2.53125-6.046875-.78125-10.734375-.78125-4.296875 0-6.84375 2.53125-2.53125 2.546875-5.65625 6.453125-3.125 3.90625-10.15625 10.546875-5.859375-5.859375-9.96875-9.578125-4.09375-3.703125-10.546875-8.203125-6.4375-4.484375-13.671875-7.03125-7.21875-2.53125-.78125 1.375 6.453125 3.90625 15.625 11.515625 9.1875 7.625 15.828125 15.828125-3.515625 3.515625-9.375 7.8125-3.125-2.734375-6.25-4.6875-3.125-1.953125 0 2.140625 3.125 4.109375 6.828125 11.328125 3.71875 7.234375 4.6875 11.71875.984375 4.5.59375 6.84375-.390625 2.34375 2.734375 1.359375 3.125-.96875 5.265625-2.53125 2.15625-1.5625 0-3.71875-2.140625-2.140625-6.828125-11.125zm-25-34.375q-7.03125-1.171875-14.84375-2.34375-1.171875-4.6875-1.953125-3.328125-.78125 1.375-1.765625 7.625-.96875 6.25-1.953125 13.671875-.96875 7.421875-3.125 10.15625-2.140625 2.734375.78125 2.53125 2.9375-.1875 4.296875-.78125 1.375-.578125 8.59375 1.171875 7.234375 1.765625 9.1875 3.125 1.953125 1.375 4.09375.78125 2.15625-.578125 5.078125-2.140625 2.9375-1.5625 1.171875-3.71875-1.75-2.140625-2.921875-10.9375-1.171875-8.78125-2.9375-15.03125-1.75-6.25-3.703125-.78125zm41.015625-21.875q4.296875-4.6875.78125-4.6875h-6.25q-2.34375 0-16.40625-1.171875-1.5625-4.6875-2.734375-2.921875-1.171875 1.75-2.15625 10.34375-.96875 8.59375-2.53125 11.71875-1.5625 3.125.78125 2.53125 2.34375-.578125 3.90625-1.171875 1.5625-.578125 6.4375 0 4.890625.59375 8.40625 1.5625 3.515625.984375 5.078125 1.953125 1.5625.984375 4.6875-.578125 3.125-1.5625 5.65625-3.90625 2.546875-2.34375-.1875-4.296875-2.734375-1.953125-5.46875-9.375zm-21.875-2.34375q10.9375.78125 17.578125 1.5625 1.5625 8.59375 1.359375 11.125-.1875 2.546875-2.34375 2.734375-2.140625.203125-16.984375-1.359375 0-6.640625.390625-14.0625zm-.390625 48.4375q2.34375 1.171875 3.515625-.203125 1.171875-1.359375 7.421875-6.046875 5.078125 6.640625 7.03125 10.546875 1.953125 3.90625 1.75 4.484375-.1875.59375-2.53125.203125-2.34375-.390625-5.671875-1.5625-3.3125-1.171875-6.4375.78125-2.734375-5.078125-5.078125-8.203125zm-35.9375.390625q.78125-10.546875 1.953125-24.21875l5.859375 1.171875v10.15625q-2.734375-.390625-4.5.390625-1.75.78125 0 1.75 1.765625.984375 4.5 1.765625 0 6.640625-1.171875 10.15625-4.6875-.78125-6.640625-1.171875zm10.546875 1.953125q2.734375-1.953125 2.140625-3.328125-.578125-1.359375-.96875-6.4375 3.90625 1.171875 5.265625.1875 1.375-.96875.59375-1.953125-.78125-.96875-5.859375-2.53125-.390625-4.296875-.78125-10.15625 3.515625.390625 6.640625 1.171875.78125 4.6875 1.171875 11.125.390625 6.453125 0 9.765625-.390625 3.328125-2.34375 3.328125-1.953125 0-5.859375-1.171875z" transform="translate(500)"/><path d="m34.765625 40.625q9.765625.390625 17.96875 1.171875 7.8125 4.6875 7.609375 6.640625-.1875 1.953125 2.15625.78125 2.34375-1.171875 4.09375-3.125 1.765625-1.953125-.578125-2.546875-2.34375-.578125-9.1875-4.296875-6.828125-3.703125-21.671875-11.515625 15.625 1.171875 28.125 2.34375-1.953125 1.953125-3.515625 4.296875-1.5625 2.34375 1.359375 1.5625 2.9375-.78125 7.625-3.71875 4.6875-2.921875 4.296875-6.640625-.390625-3.703125-2.15625-2.921875-1.75.78125-6.828125 5.46875-7.8125-.78125-15.234375-1.953125 4.6875-3.125 3.515625-5.28125-1.171875-2.140625-.984375-8.203125.203125-6.046875.390625-9.5625.203125-3.515625-2.34375-7.421875-2.53125-3.90625-4.09375-.1875-1.5625 3.703125-6.0625 7.21875-4.484375 3.515625.203125 2.140625 4.6875-1.359375 6.046875-.1875 1.375 1.171875.984375 9.5625-.390625 8.40625-1.953125 11.140625-14.0625-2.34375-16.21875-3.515625-2.140625-1.171875-3.3125 0-1.171875 1.171875-1.765625 3.3125-.578125 2.15625 5.28125 3.328125 5.859375 1.171875 21.875 10.9375-16.40625-2.34375-18.953125-3.515625-2.53125-1.171875-3.703125.390625-1.171875 1.5625-1.5625 2.921875-.390625 1.375 2.53125 2.15625 2.9375.78125 7.625 4.296875 4.6875 3.515625 4.6875 5.078125l-5.859375-.78125q-1.953125-3.90625-3.71875-.390625-1.75 3.515625-4.09375 10.34375-2.34375 6.84375-5.28125 10.546875-2.921875 3.71875-.578125 3.71875 2.734375 0 5.46875-.78125 2.734375-.78125 11.90625.578125 9.1875 1.375 17.390625 2.734375 8.203125 1.375 10.15625 2.34375 1.953125.984375 5.078125-.1875 3.125-1.171875 6.4375-3.90625 3.328125-2.734375.59375-4.6875-2.734375-1.953125-5.859375-8.203125-3.125-6.25-5.671875-9.765625-2.53125-3.515625-5.265625.390625-7.03125-.78125-16.015625-1.5625 1.171875-.390625 1.953125-.78125 2.34375-1.171875-.59375-2.15625-2.921875-.96875-12.296875-7.609375zm15.234375 14.453125q5.078125.390625 7.8125.78125 2.734375.390625 5.078125-.78125 2.734375 3.515625 4.484375 10.34375 1.765625 6.84375.59375 8.40625-1.171875 1.5625-6.84375.78125-5.65625-.78125-13.078125-2.34375 2.34375-1.171875 2.140625-2.546875-.1875-1.359375-.1875-4.09375 3.90625.390625 5.859375.78125 1.953125.390625 3.703125-.984375 1.765625-1.359375-.578125-2.34375-2.34375-.96875-8.984375-1.75zm-5.859375 16.40625q-6.640625-.78125-13.671875-1.5625 2.34375-8.203125 4.296875-16.796875 5.46875.78125 10.9375 1.171875v6.25q-2.34375-.390625-4.5-.203125-2.140625.203125-3.703125 1.5625-1.5625 1.375.78125 1.5625 2.34375.203125 7.03125.984375 0 5.078125-1.171875 7.03125zm27.34375-56.25q3.125-1.171875 5.46875-3.515625 2.34375-2.34375 1.75-6.25-.578125-3.90625-2.921875-2.734375-2.34375 1.171875-4.6875 3.703125-2.34375 2.546875-5.859375 6.84375-3.515625 4.296875 0 3.703125 3.515625-.578125 6.25-1.75zm-46.09375.390625q2.34375 3.90625 3.125-.984375.78125-4.875-4.109375-10.9375-4.875-6.046875-5.859375-2.734375-.96875 3.328125 1.953125 7.03125 2.9375 3.71875 4.890625 7.625z" transform="translate(600)"/><path d="m67.578125 46.484375q10.15625 1.5625 13.671875 2.34375 3.515625.78125 7.421875-.984375 3.90625-1.75.1875-2.734375-3.703125-.96875-21.28125-2.53125 0-24.21875-.390625-37.703125-.390625-13.46875-2.734375-13.65625-2.34375-.203125-2.34375 13.078125v37.5q-10.15625-1.953125-14.265625-2.9375-4.09375-.96875-7.8125 1.5625-3.703125 2.546875.203125 2.734375 3.90625.203125 8.203125.59375 4.296875.390625 13.671875 1.953125 0 14.453125-.203125 20.3125-.1875 5.859375-2.140625 9.765625-1.953125 3.90625 1.5625 2.921875 3.515625-.96875 6.828125-2.921875 3.328125-1.953125 1.171875-5.28125-2.140625-3.3125-1.75-24.015625zm-39.453125-26.953125q7.03125 3.515625 11.125 5.46875 4.109375 1.953125 1.953125 0-2.140625-1.953125-8-7.234375-5.859375-5.265625-8.40625-9.375-2.53125-4.09375-4.875.390625-2.34375 4.5-.203125 6.453125 2.15625 1.953125 3.515625 6.25 1.375 4.296875 1.953125 10.734375.59375 6.453125.78125 9.375.203125 2.9375-3.703125 1.765625-3.90625-1.171875-6.640625-2.546875-2.734375-1.359375-6.453125.59375-3.703125 1.953125.59375 2.53125 4.296875.59375 9.765625 2.34375 5.46875 1.765625 6.640625 3.71875 1.171875 1.953125 4.6875.78125 5.46875-1.5625 3.3125-3.515625-2.140625-1.953125-3.125-5.28125-.96875-3.3125-2.921875-22.453125zm1.953125 55.859375q4.6875-.390625 6.828125-2.34375 2.15625-1.953125 1.375-5.46875-.78125-3.515625-5.28125-.984375-4.484375 2.546875-8.203125 6.0625-3.703125 3.515625 5.28125 2.734375z" transform="translate(700)"/><path d="m54.296875 45.3125q-3.125-3.515625-5.46875-4.890625-2.34375-1.359375-.984375.984375 1.375 2.34375 4.6875 8.203125 3.328125 5.859375 5.46875 12.890625 2.15625 7.03125 1.765625 9.953125-.390625 2.9375.78125 2.734375 1.171875-.1875 5.46875-1.953125 4.296875-1.75 2.140625-4.484375-2.140625-2.734375-4.875-8.015625-2.734375-5.265625-7.421875-13.078125 10.546875 3.125 18.75 6.640625 8.203125 3.515625 12.6875 1.75 4.5-1.75-2.921875-4.484375-7.421875-2.734375-15.234375-5.078125 3.90625-3.125 2.921875-6.640625-.96875-3.515625-1.359375-7.625-.390625-4.09375-3.125-11.515625 4.296875-4.296875 11.125-8.40625 6.84375-4.09375 13.671875-5.46875 6.84375-1.359375 2.15625-2.34375-4.6875-.96875-10.9375-1.171875-6.25-.1875-9.765625 2.9375l-9.375 9.765625q-4.296875-4.296875-9.1875-6.453125-4.875-2.140625-10.9375-2.34375-6.046875-.1875-.78125 1.5625 5.28125 1.765625 9.765625 4.5 4.5 2.734375 8.015625 7.421875-2.734375 3.515625-6.25 8.390625-3.515625 4.890625-6.453125 7.234375-2.921875 2.34375-1.171875 2.53125 1.765625.203125 3.328125-.578125 1.5625-.78125 3.703125-3.125 2.15625-2.34375 8.796875-10.15625 1.953125 4.296875 2.34375 11.515625.390625 7.234375-1.171875 8.796875-7.03125-.78125-10.15625 0zm-16.015625 7.421875q-.78125-14.84375-.78125-19.53125 0-4.296875-.390625-21.296875-.390625-16.984375-1.953125-17.5625-1.5625-.59375-3.125 3.703125-1.5625 4.296875-.59375 7.8125.984375 3.515625 1.375 23.046875-14.453125-10.9375-17.578125-15.234375-3.125-4.296875-4.6875-3.328125-1.5625.984375-2.34375 3.515625-.78125 2.546875 1.75 4.6875 2.546875 2.15625 5.28125 6.0625 2.734375 3.90625 1.953125 13.078125-.78125 9.1875-2.9375 12.3125-2.140625 3.125.78125 2.53125 2.9375-.578125 5.28125-1.75 2.34375-1.171875 1.75-4.296875-.578125-3.125-.96875-11.921875-.390625-8.78125 2.34375-7.421875 2.734375 1.375 9.375 4.890625v27.34375q0 8.59375-1.5625 11.71875-1.5625 3.125.390625 2.921875 1.953125-.1875 5.859375-2.140625 3.90625-1.953125 2.53125-5.078125-1.359375-3.125-1.75-14.0625z" transform="translate(800)"/><path d="m70.3125 6.640625q6.640625.390625 10.546875.578125 3.90625.203125 7.21875-.578125 3.328125-.78125 4.890625-2.9375 1.5625-2.140625.1875-2.921875-1.359375-.78125-8.984375.1875-7.609375.984375-18.15625.78125-10.546875-.1875-21.296875-1.171875-10.734375-.96875-19.53125-2.328125-8.78125-1.375-11.90625-1.375-3.125 0-6.0625 2.9375-2.921875 2.921875 1.953125 2.53125 4.890625-.390625 20.515625 1.171875-2.734375 15.625-5.46875 18.9375-2.734375 3.328125 0 3.328125 2.734375 0 4.296875-.390625 1.5625-.390625 4.875-.203125 3.328125.203125 18.171875 1.953125 14.84375 1.765625 16.40625 2.734375 1.5625.984375 6.640625-1.75 5.078125-2.734375 2.140625-5.078125-2.921875-2.34375-6.4375-16.40625zm-25.390625 44.140625q12.890625 2.34375 20.890625 3.703125 8.015625 1.375 10.359375-.578125 2.34375-1.953125-3.125-3.515625-5.46875-1.5625-12.5-2.15625-7.03125-.578125-17-1.75-9.953125-1.171875-15.234375.1875-5.265625 1.375-.78125 1.765625 4.5.390625 17.390625 2.34375zm11.71875-25.78125q3.90625-2.734375 2.921875-4.5-.96875-1.75-3.703125-15.03125l10.546875.78125q2.734375 17.1875 1.359375 18.359375-1.359375 1.171875-4.6875.96875-3.3125-.1875-6.4375-.578125zm-14.0625-1.5625q1.171875-1.5625 2.140625-5.28125.984375-3.703125-.96875-13.46875l8.59375.78125q.78125 6.640625.96875 10.734375.203125 4.109375-.1875 8.40625zm-11.71875-1.171875q1.953125-14.84375 2.34375-18.359375l8.203125.78125q-.78125 7.421875-.984375 11.515625-.1875 4.109375-.578125 6.84375zm34.375 20.3125q5.859375-1.171875 8.390625-3.90625 2.546875-2.734375 1.953125-5.28125-.578125-2.53125-4.875-.1875-4.296875 2.34375-11.71875 6.828125-7.421875 4.5-3.515625 4.296875 3.90625-.1875 9.765625-1.75zm3.515625 30.859375q2.34375-1.171875 3.515625-2.734375 1.171875-1.5625-.78125-2.34375-1.953125-.78125-7.234375-4.890625-5.265625-4.09375-8.78125-5.65625-3.515625-1.5625-3.515625-1.171875 0 .78125 2.140625 2.734375 2.15625 1.953125 5.671875 6.046875 3.515625 4.109375 3.703125 6.84375.203125 2.734375 1.765625 2.53125 1.5625-.1875 3.515625-1.359375zm-31.640625-31.25q.390625 2.34375 4.6875-.59375 4.296875-2.921875 2.34375-4.09375-1.953125-1.171875-8.796875-4.6875-6.828125-3.515625-13.28125-4.890625-6.4375-1.359375-.390625 1.5625 6.0625 2.9375 10.75 6.84375 4.6875 3.90625 4.6875 5.859375zm-3.515625 22.265625q-2.34375 2.34375-2.9375 3.703125-.578125 1.375 5.46875.203125 6.0625-1.171875 6.640625-4.6875.59375-3.515625-.390625-4.890625-.96875-1.359375-3.703125.984375-2.734375 2.34375-5.078125 4.6875z" transform="translate(900)"/><use x="1000" xlink:href="#p"/><path d="m50 55.859375q7.03125 1.171875 12.109375 2.140625 5.078125.984375 8.390625 1.953125 3.328125.984375 6.84375-.578125 3.515625-1.5625 2.53125-2.546875-.96875-.96875-4.484375-1.75-3.515625-.78125-10.15625-1.765625-6.640625-.96875-17.578125-2.921875-4.6875-11.328125-11.328125-21.09375-6.640625-9.765625-12.703125-15.828125-6.046875-6.046875-13.46875-9.375-7.421875-3.3125-.984375 1.765625 6.453125 5.078125 10.359375 9.953125 3.90625 4.890625 8.203125 10.359375 4.296875 5.46875 7.8125 11.90625 3.515625 6.453125 5.859375 11.53125-4.6875-1.171875-7.421875-1.171875-2.34375 0-4.890625 2.34375-2.53125 2.34375 1.171875 2.53125 3.71875.203125 12.703125 1.375 4.296875 9.765625 5.46875 15.421875 1.171875 5.671875.1875 7.8125-.96875 2.15625.984375 1.953125 1.953125-.1875 5.65625-1.5625 3.71875-1.359375 1.375-4.6875-2.34375-3.3125-6.640625-17.765625zm6.25-27.734375q4.6875-3.125 3.703125-6.84375-.96875-3.703125-.96875-13.078125 10.546875.78125 17.765625 1.75 7.234375.984375 11.140625-3.125 3.90625-4.09375 0-4.09375-3.90625 0-9.578125.78125-5.65625.78125-11.71875.390625-6.046875-.390625-12.5-.78125-6.4375-.390625-14.25-1.765625-7.8125-1.359375-10.9375-1.171875-3.125.203125-5.671875 2.15625-2.53125 1.953125-1.5625 2.34375.984375.390625 4.5.390625 3.90625 0 10.546875.578125 6.640625.59375 16.796875 2.15625 0 14.0625-.59375 16.40625-.578125 2.34375-1.359375 3.515625-4.296875-.78125-6.84375-.984375-2.53125-.1875-5.265625 1.5625-2.734375 1.765625 1.953125 2.546875 4.6875.78125 13.28125 2.140625 8.59375 1.375 12.109375 2.546875 3.515625 1.171875 7.21875-1.171875 3.71875-2.34375-2.921875-3.71875-6.640625-1.359375-14.84375-2.53125z" transform="translate(1100)"/><use x="1200" xlink:href="#q"/><use x="1300" xlink:href="#r"/></g></g></g><g><g stroke-linejoin="round"><g><use x="592.2" y="317.959" stroke="#000" stroke-width=".8" xlink:href="#s"/><g transform="matrix(.1 0 0 -.1 599.2 321.396222)"><use xlink:href="#f"/><use x="50" xlink:href="#i"/><use x="100" xlink:href="#o"/></g></g><g><use x="592.2" y="258.772" stroke="#000" stroke-width=".8" xlink:href="#s"/><g transform="matrix(.1 0 0 -.1 599.2 262.209569)"><use xlink:href="#f"/><use x="50" xlink:href="#g"/><use x="100" xlink:href="#o"/></g></g><g><use x="592.2" y="199.585" stroke="#000" stroke-width=".8" xlink:href="#s"/><g transform="matrix(.1 0 0 -.1 599.2 203.022915)"><use xlink:href="#f"/><use x="50" xlink:href="#j"/><use x="100" xlink:href="#o"/></g></g><g><use x="592.2" y="140.399" stroke="#000" stroke-width=".8" xlink:href="#s"/><g transform="matrix(.1 0 0 -.1 599.2 143.836262)"><use xlink:href="#f"/><use x="50" xlink:href="#c"/><use x="100" xlink:href="#o"/></g></g><g><use x="592.2" y="81.212" stroke="#000" stroke-width=".8" xlink:href="#s"/><g transform="matrix(.1 0 0 -.1 599.2 84.649608)"><use xlink:href="#f"/><use x="50" xlink:href="#e"/><use x="100" xlink:href="#o"/></g></g><g><use x="592.2" y="22.025" stroke="#000" stroke-width=".8" xlink:href="#s"/><g transform="matrix(.1 0 0 -.1 599.2 25.462955)"><use xlink:href="#d"/><use x="50" xlink:href="#o"/></g></g></g><g fill="none" stroke-linecap="square"><path stroke="gray" stroke-linejoin="round" stroke-width="2" d="m59.563636 22.025455h.872352l.436176 38.715133h.872353l.436176-38.715133.436176 25.702949.436176 7.487987h1.308528l.436176-33.190936h5.234112l.436176 30.830588.436176-30.830588h5.670289l.436176 87.272701h.872352l.436176-15.346293.436176-38.271834h.436176l.436176-33.654574h.436176l.436176 77.504161h1.744704l.436176-31.365091h.872352l.436176-46.13907h.436176l.436176 33.023534.436176-33.023534h.872352l.436176 63.077085h.872353l.436176-32.215231h.872352l.436176-30.861854h1.744704l.436176 108.807901h2.18088l.436176-34.63597.436176-5.288361h.436176l.436176 140.787923h1.744704l.872352-63.512009h2.180881l.872352-70.432666.436176 8.351815.436176-33.369806.436176-19.571138.436176-31.137689h4.36176l.436176 4.862461.436176-4.862461h2.617056l.436176 157.813936h3.489409l.436176-30.83902h1.308528l.436176-34.306608h1.308528l.436176 28.935237h1.744704l.436176-37.558945h.872352l.436176-51.709997h.436176l.436176-32.334603h1.744704l.436176 33.182483h1.308529l.436176-33.182483h2.617056l.436176 25.717061h.436176l.436176-25.717061.436176 104.313492h3.053232l.872352-66.404728h1.308528l.436176-37.908764h2.180881l.436176 1.578943.436176-1.578943h.436176l.436176 68.752475.436176-31.909358h.872352l.436176-36.843117h3.053232l.436176 62.250963h1.744704l.436176 74.466593.436176 159.791534.436176-36.632313h.872352l1.308528-97.24955h.436176l.436177 79.018949.872352-64.11026h.436176l.436176 47.101071.436176-30.892017h.436176l.436176 36.04212h1.744704l.436176-43.310516h.436176l.436176 9.365671.436176 18.642449.872352-62.2992h1.744704l.436176-20.232511.872352 90.151762.872352-65.131603.436176 24.095179.436176-35.893729h.436177l.436176 45.214735.436176-2.528744.436176-30.824769h.436176l1.744704-126.073096h.436176l.436176-30.962718.436176 81.058705.436176-16.821447h.436176l.436176-30.967122h2.617056l.436176 19.768863.436176-32.60696.436176-20.432039.436176 2.357916.436176-2.357916h.436176l.436176 44.642319h.872352l.436177-30.895752.436176-13.746567h.436176l.436176 11.19164.436176 19.656614.436176-30.848254.436176 18.992137h.872352l.436176 13.812621.436176-32.804758h.436176l.436176 40.663264.436176-30.992205.436176 12.670476.436176 19.511925.436176-41.85346.436176 51.093991h.436176l.436176-13.165812h.436176l.436176 12.7802.436176 21.848464.436176 47.368398.436176-.047956.436176-22.393112 1.308528-97.484173.436176 12.102339.436177 72.390677.872352-66.978264h.436176l.436176-17.514752.436176 20.393115h.872352l.436176 141.548577.436176-.37938h1.744704l.436176-31.635073.436176 6.641418.872352-66.672004h.872352l.436176-30.875267.436176 118.947193h2.18088l.436176-33.635079h2.180881l.436176 13.420605.436176-31.443563h1.308528l.436176 46.577482.436176 10.175502.436176-50.647521h.872352l.872352-67.539278h.436176l.436176-31.142218.872352 105.284678.436176-38.821264h2.18088l.872352-80.197923h.436176l.436176 28.70099h2.617057l.436176 73.034499h3.053232l.436176-37.276076h3.053232l.436176-32.804704h.436176l.436176-31.654709.436176 76.368579h3.053233l.436176-43.787298.436176-32.581281.436176 101.592004h.872352l.436176-31.301819h.436176l.872352-70.290185h1.744704l.436176 69.230211h.436176l.436176-33.972705h3.053232l.436176-35.257506h.436176l.436176 23.633024h1.308529l.436176 173.970847h.436176l.436176-35.181515h4.36176l.436176-31.617568.436176 27.701433.436176 40.467271h2.18088l.872352-73.404288h1.744704l.872353-68.842691h.436176l.436176 4.536632.872352-61.263145.436176 34.074952.436176-34.074952.436176 32.707451h.436176l.436176 18.841756h.872352l.436176 55.544457h.436176l1.308528-99.804854.436176 31.437495h.436176l.436176-4.80335.436176-31.817742.436176-2.105213h.436176l.436176 1.510391.436176 29.408149.436176-30.91854.436176 11.441807h3.053233l.436176 39.659484.436176-51.101291h.436176l.436176 50.489559.436176 15.809745.436176-33.253774h.436176l.436176-33.04553h.436176l.436176 51.767112.436176 2.734584h.872352l.436176 3.587655.436176 28.539845.436176-14.713607.872352-71.915589h.436176l.436176 49.047318.436176-36.681869.436176 57.586124h.436176l.436176 27.102461.872353-64.493577h.436176l.436176-32.560457.436176 14.195733.436176-14.195733h.872352l.436176 97.736308.436176-20.857715.436176-30.983241.436176 76.81129h.436176l.872352-63.127425.436176 57.432979 1.308528-96.657243.436176 10.790871.436176-31.145824h.436176l.436176 15.835963.436176-.221154.436176-15.614809h.436176l.436176 15.106545.436176-3.095037.436176-2.136637h.436176l.436177-9.874871h.436176l.436176 30.493205.872352 34.822017.872352-65.315222.872352 35.62514h.872352l.436176 35.093002.436176 3.74597.436176-2.150696.872352-63.764137.436176 1.310144h.436176l.436176-7.185218.436176-2.674205h.436176l.872352 63.164705.436176.290933.872352-63.455638.436176 4.330527.436176 66.208502.436176 12.127768.436177 4.288953.436176-16.588715.436176 8.340081.872352-62.581796.436176 21.73804.436176-37.86336.872352 75.361136.436176-2.729119.436176-34.618615h.436176l.436176-31.427302.436176 26.715646.436176-33.301746h.872352l.436176 75.986541.436176-8.136605.436176-33.347207h.872352l.436176-34.502729h1.308528l.436176 30.416329.436176 7.858413h.436176l.436176-38.274742h.872353l.436176 83.082121h2.18088l.436176-35.197363h.436176l.436176-32.611361h.436176l.436176-15.273397h.436176l.436176 43.039214.436176-5.731933.436176-37.307281.436176 68.915241.872352-68.915241h.436176l.436176 32.495037.436176-6.258165h.436176l.436176 27.345231h1.744704l.436177 30.343796h.436176l.436176-34.407358.436176 14.378846h2.18088l.436176-35.57107h.436176l.436176 4.319126.436176-32.645443h1.308528l.436176 8.774938.436176 19.588688h.872352l.436176 2.452423.436176-30.816049h3.489408l.436177 12.857782h1.744704l.436176 37.075548h1.308528l.436176-49.93333h.436176l.436176 131.069018h.436176l.436176 49.942687h1.308528l.436176-34.8054h.436176l.436176-45.698219.436176-9.256616.436176-32.357539h.436176l.436176-34.472235.436176-24.421696h.872352l.436176 44.968086h.436176l.436176-36.557669h.872353l.436176 42.57632.436176-9.415146.436176 98.715349h.872352l.436176-31.400375h4.36176l.436176 35.311587h1.744704l.436176 95.788175h1.744704l.436176-32.236894h.436177l.436176-30.520946h.436176l.436176-30.842552.436176-50.252904h.436176l.436176-30.611593h.436176l.872352-65.521438h1.744704l.436176 80.069646h.436176l.436176 68.602495h3.925584l.436176-30.494846h.436176l.436176 38.46992h3.489409l.436176-31.545316h.872352l.436176-32.581367.436176 60.933846.436176-31.943149.436176 39.399192.436176 18.687154.872352-62.525648.872352 18.110931h15.702337l.436176-31.622109h2.180881l.436176-45.301646h1.308528l.436176-58.259103h4.36176l.436176 8.259848.436176-8.259848h.872352l.436176 33.035185h.436176l.436176-33.035185h2.18088l.436176 2.552671h.436177l.436176 38.158274.436176-34.255672h1.308528l.436176 37.474628h.436176l.436176-14.985698.872352 46.530123h.436176l.436176-2.137075h.436176l.436176 40.606472h2.617056l.436176-10.933236h.872352l.436176-38.252118h.436176l.436176-32.62405h.872352l.436177-32.134319.436176 19.089748h.436176l.436176 16.442067h1.308528l.436176-35.531815h5.670288l.436176 26.733406.436176-25.05992.436176-1.673486h1.744704l.436176 33.686863.436176-33.686863h3.489409l.436176 32.859998h2.617056l.436176-1.70834h1.308528l.436176-31.151658.436176 17.867632h.436176l.436176 17.170295.436176-35.037927h.872352l.436176 13.019337h.436176l.872352 59.875055h.436177l.436176 18.81275h.436176l.436176 17.98976.436176 35.733419h.872352l.436176 49.370316.436176 18.512938h2.617056l.436176 32.697347.436176-46.606979h3.053232l.436176 52.39395.436176-33.245672h2.180881l.436176-38.494555h1.308528l.436176-34.732997h.436176l.436176 69.848339h.436176l.436176-30.24684.436176-38.147061.436176-6.753213h.436176l.436176 26.684145.436176-30.532774h.872352l.436176-33.151769h.872352l.872352-64.365965h.436176l.436176 38.024916.436176 17.824036.872352-76.074236.436176 17.102561h1.308529l.436176 40.014413h.436176l.436176 39.043364.436176-32.296019.436176 7.717713.436176 38.008821h.436176l.436176-37.561345h.436176l.872352-65.730353h.436176l.436176 36.907144.872352-61.640546h.436176l.872352 90.120074.436176-5.015432h.436176l.436176-4.976277.436176 2.646773h.436176l.436176-33.410959.436176 14.496597.436176-30.982728.436176 56.291815.872353-.072391.436176 9.227444.872352-41.832836.436176-31.427699h.436176l.436176 7.554179h.436176l.436176 5.337474h.436176l.436176-32.200053.436176 13.561675.436176 82.318951.436176-13.720657.436176-.620623.436176 51.160865.436176 3.120344h.436176l.436176 5.280805.436176 3.659846.436176 4.724543.436176 48.424258.436176-29.941749h1.744704l.436176-33.678011h1.308529l.436176 32.698702.872352-60.871222h.872352l.436176-31.67892.436176-2.647986.436176-44.787498.436176-32.759304h.872352l.436176 8.724074.436176-8.724074.436176 16.891261.436176 23.359438h.436176l.436176-8.224784.436176-32.025915.436176 15.956308.436176 2.326986.436176 98.306551.436176-12.197452.436176 67.172422h.436176l.436176-9.087587.436176-5.859196.436176-30.382233h1.308529l.436176-2.601992h1.308528l.436176 8.970083.436176 129.223486h1.308528l.436176 11.297892 1.308528-98.715241h.436176l.872352-67.927748.436176-13.499644h1.308528l.872352-66.384338.436176 26.726823.436176-10.058505.436176 93.806563.436176-30.702773.436176 18.614916h.436177l.436176-31.061362.436176.224201.872352-30.17237.436176-32.783095h2.617056l.436176 36.000846h.872352l.436176-35.233804h.436176l.436176-31.959737h12.649105l.436176 31.156717h1.744704l.436176-31.156717h4.797937" clip-path="url(#a)"/><path stroke="#000" stroke-linejoin="miter" stroke-width=".8" d="m34.2 333.36v-326.16"/><path stroke="#000" stroke-linejoin="miter" stroke-width=".8" d="m592.2 333.36v-326.16"/><path stroke="#000" stroke-linejoin="miter" stroke-width=".8" d="m34.2 333.36h558"/><path stroke="#000" stroke-linejoin="miter" stroke-width=".8" d="m34.2 7.2h558"/></g><g stroke-linejoin="round"><path fill="none" stroke="gray" stroke-linecap="square" stroke-width="2" d="m342.9 315.73595h20"/><g transform="matrix(.1 0 0 -.1 370.9 319.23595)"><path d="m45.3125 41.015625q1.171875-4.296875.578125-6.84375-.578125-2.53125-.578125-19.328125 4.296875 1.5625 6.640625.96875 2.34375-.578125-6.640625-4.875 0-7.03125.1875-10.9375.203125-3.90625-1.359375-8.59375-1.5625-4.6875-2.9375.203125-1.359375 4.875-.96875 8 .390625 3.125.390625 9.375-7.8125-3.125-12.3125-4.6875-4.484375-1.5625-7.21875-3.328125-2.734375-1.75-4.296875-.96875-1.5625.78125-3.515625 3.3125-1.953125 2.546875 1.75 2.734375 3.71875.203125 9.578125 1.765625 0 7.03125-.59375 16.796875-.578125 9.765625-2.140625 12.5-3.90625-.390625-5.28125-.78125-1.359375-.390625-4.484375 1.75-3.125 2.15625-1.953125 2.15625 1.5625 0 6.828125.578125 5.28125.59375 16.21875 2.15625 10.9375 1.5625 24.609375 4.09375 13.671875 2.546875 17.578125 3.515625 3.90625.984375 7.03125-.96875 3.125-1.953125 0-2.9375-3.125-.96875-8.59375-1.75-5.46875-.78125-13.875-1.953125-8.390625-1.171875-14.640625-1.953125zm15.234375 13.28125q-14.0625-1.953125-20.703125-2.734375-1.5625-4.296875-3.125-.203125-1.5625 4.109375-3.515625 10.9375-1.953125 6.84375-4.109375 9.578125-2.140625 2.734375 1.765625 2.140625 3.90625-.578125 5.859375-.78125 1.953125-.1875 9.375.78125 7.421875.984375 12.109375 2.15625 4.6875 1.171875 6.4375 1.75 1.765625.59375 7.234375-2.921875 5.46875-3.515625 3.3125-5.078125-2.140625-1.5625-3.3125-3.515625-1.171875-1.953125-4.296875-7.421875-3.125-5.46875-4.5-6.84375-1.359375-1.359375-2.53125 2.15625zm6.640625-39.84375q4.6875-5.078125 11.515625-8.40625 6.84375-3.3125 12.109375-4.09375 5.28125-.78125 3.515625-1.953125-1.75-1.171875-9.953125-1.75-8.203125-.59375-10.9375 1.75-2.734375 2.34375-9.765625 9.765625-3.125-3.515625-6.640625-5.078125-3.515625-1.5625-7.03125-1.953125-3.515625-.390625-.390625 1.171875 3.125 1.5625 6.046875 3.703125 2.9375 2.15625 5.28125 6.453125-2.34375 3.125-5.078125 6.828125-2.734375 3.71875-4.6875 4.890625-1.953125 1.171875.78125 1.171875 3.125 0 5.078125-2.34375l5.859375-7.03125q1.953125 6.25 2.34375 10.15625.390625 3.90625-1.171875 3.90625-1.5625 0-5.28125-1.375-3.703125-1.359375-5.265625-1.359375-1.171875 0-3.125 1.5625-1.953125 1.5625.96875 1.75 2.9375.203125 8.40625 1.765625 5.46875 1.5625 7.21875 2.734375 1.765625 1.171875 5.078125-1.171875 3.328125-2.34375 1.953125-3.515625-1.359375-1.171875-2.34375-2.9375-.96875-1.75-2.140625-6.4375-1.171875-4.6875-2.34375-8.203125zm-30.078125 55.46875q.390625-2.34375.78125-5.078125 5.078125 0 10.9375 1.75 5.859375 1.765625 7.8125-.1875 1.953125-1.953125-4.6875-3.328125-6.640625-1.359375-13.671875-.578125.390625-4.6875 1.171875-8.203125 4.296875.390625 10.9375 1.5625 6.640625 1.171875 11.71875 1.5625 3.125 9.765625 3.125 12.890625 0 3.515625-3.90625 3.3125-3.90625-.1875-24.21875-3.703125zm-3.515625-47.265625q2.34375.78125 3.90625-.390625 1.5625-1.171875-.984375-2.546875-2.53125-1.359375-7.609375-1.359375v-9.375q4.6875 1.171875 11.71875 3.90625v17.578125q0 5.859375-1.171875 9.375-7.03125-1.171875-13.671875-1.953125 3.90625-2.734375 3.515625-3.90625-.390625-1.171875-.390625-3.90625 3.125 1.171875 5.078125 1.953125 1.953125.78125 3.703125-.78125 1.765625-1.5625-.96875-2.734375-2.734375-1.171875-7.8125-1.171875v-6.25z"/><path d="m49.609375 46.09375q12.890625 1.953125 19.53125 3.515625 6.640625 1.5625 9.765625-.78125 3.125-2.34375 1.75-3.125-1.359375-.78125-13.078125-1.765625-11.71875-.96875-18.359375-2.140625l-.78125-7.03125q8.984375-12.890625 15.421875-19.53125 6.453125-6.640625 14.0625-10.359375 7.625-3.703125 13.671875-5.84375 6.0625-2.15625-3.703125-2.15625-9.375 0-14.453125.203125-5.078125.1875-8.796875 5.453125-3.703125 5.28125-7.03125 10.75-3.3125 5.46875-9.5625 17.1875-3.90625-15.625-10.75-22.65625-6.828125-7.03125-16.015625-9.953125-9.171875-2.9375-2.34375.96875 6.84375 3.90625 11.921875 9.375 5.078125 5.46875 8.59375 13.859375 3.515625 8.40625 4.296875 18.5625-13.671875-1.953125-16.40625-2.734375-2.734375-.78125-7.625 2.34375-4.875 3.125 1.765625 2.921875 6.640625-.1875 22.65625 2.15625.390625 10.15625.1875 17.765625-.1875 7.625-2.140625 11.140625-1.953125 3.515625 1.953125 2.53125 3.90625-.96875 6.640625-2.34375 2.734375-1.359375.96875-4.6875-1.75-3.3125-2.140625-23.625z" transform="translate(100)"/><path d="m25.78125 13.671875q-.390625-3.90625-1.5625-4.6875-1.171875-.78125-2.34375 3.125-1.171875 3.90625-1.765625 11.125-.578125 7.234375-2.34375 19.53125-1.75 12.3125-4.09375 16.40625-2.34375 4.109375.78125 3.515625 3.125-.578125 5.65625-1.171875 2.546875-.578125 25.203125 2.15625 22.65625 2.734375 26.359375 4.09375 3.71875 1.375 7.234375 0 3.515625-1.359375 7.21875-4.296875 3.71875-2.921875.78125-5.859375-2.921875-2.921875-4.296875-18.546875-1.359375-15.625-2.53125-21.6875-1.171875-6.046875-4.296875-10.734375-3.125-4.6875-4.890625-.59375-1.75 4.109375-2.34375 6.640625-.578125 2.546875-6.640625 2.9375-6.046875.390625-14.25-.390625-8.203125-.78125-21.875-1.5625zm-3.515625 44.140625q1.5625-17.96875 3.125-40.625 24.609375 1.953125 32.21875 3.125 7.625 1.171875 10.75-1.375 3.125-2.53125 4.484375.59375 1.375 3.125 2.546875 11.328125 1.171875 8.203125 1.75 18.9375.59375 10.75-2.53125 12.5-3.125 1.765625-25.78125-1.359375zm37.890625-21.875q3.515625-4.296875-.203125-4.5-3.703125-.1875-18.546875-1.75-1.171875-5.46875-2.546875-1.953125-1.359375 3.515625-2.734375 9.375-1.359375 5.859375-3.125 8.390625-1.75 2.546875-.1875 2.546875 1.953125 0 4.296875-.59375 2.34375-.578125 9.171875.984375 6.84375 1.5625 8.796875 2.921875 1.953125 1.375 4.6875.390625 2.734375-.96875 5.078125-2.921875 2.34375-1.953125.1875-3.90625-2.140625-1.953125-4.875-8.984375zm-19.140625-2.734375q8.984375 1.171875 15.625 2.34375.78125 7.03125.390625 9.171875-.390625 2.15625-4.109375 1.5625-3.703125-.578125-13.078125-2.53125.390625-5.078125 1.171875-10.546875z" transform="translate(200)"/><path d="m69.53125 46.09375q12.109375 3.515625 16.015625 5.265625 3.90625 1.765625 6.046875.203125 2.15625-1.5625-.578125-2.9375-2.734375-1.359375-12.890625-4.09375 4.6875-2.734375 3.90625-4.296875-.78125-1.5625-1.5625-8.203125-.78125-6.640625-3.125-14.84375 4.6875-5.859375 8.78125-8.59375 4.109375-2.734375 8.796875-4.109375 4.6875-1.359375-1.765625-1.953125-6.4375-.578125-9.953125.203125-3.515625.78125-8.984375 10.546875-3.125-5.078125-8.796875-6.84375-5.65625-1.75-1.171875 1.5625 4.5 3.328125 8.015625 9.1875-3.90625 9.375-6.453125 13.46875-2.53125 4.109375-3.703125 5.46875-1.171875 1.375 1.5625.984375 2.734375-.390625 3.703125-2.9375.984375-2.53125 6.453125-12.296875 2.734375 7.421875 2.734375 22.265625-4.6875-1.171875-7.8125.78125-4.6875-4.6875-6.640625-5.46875-1.953125-.78125 1.359375 3.3125 3.328125 4.109375 8.59375 15.828125 5.28125 11.71875 3.90625 15.234375-1.359375 3.515625 1.171875 2.734375 2.546875-.78125 4.890625-3.125 2.34375-2.34375.78125-3.90625-1.5625-1.5625-5.859375-10.15625-4.296875-8.59375-7.421875-13.28125zm-46.09375-1.953125q-4.296875-1.171875-7.03125-1.171875-2.34375 0-5.28125.96875-2.921875.984375 1.5625 2.15625 4.5 1.171875 10.75 3.515625 0 8.203125-.390625 15.8125-.390625 7.625-2.15625 10.359375-1.75 2.734375 2.15625 1.75 3.90625-.96875 5.65625-2.34375 1.765625-1.359375.203125-4.296875-1.5625-2.921875-1.171875-19.71875 6.25 1.5625 6.046875-.59375-.1875-2.140625-6.046875-4.875v-9.375q5.078125 3.125 5.65625 2.734375.59375-.390625-5.65625-6.25 0-15.625.390625-21.296875.390625-5.65625-.390625-9.171875-.78125-3.515625-3.125-6.046875-2.34375-2.546875-3.515625 1.75-1.171875 4.296875-5.28125 8-4.09375 3.71875.390625 2.15625 4.5-1.5625 5.671875-.59375 1.171875.984375 1.359375 8.59375.203125 7.625.203125 12.703125-9.765625-7.8125-11.328125-10.15625-1.5625-2.34375-5.671875.96875-4.09375 3.328125-1.359375 3.71875 2.734375.390625 7.21875 2.34375 4.5 1.953125 11.140625 7.421875zm20.3125-17.1875q2.734375.390625 4.484375.78125 1.765625.390625 2.9375-.78125 1.171875-1.171875-1.375-2.15625-2.53125-.96875-6.046875-.1875l-.390625-7.421875q2.734375.390625 4.484375.78125 1.765625.390625 2.734375-.78125.984375-1.171875-.96875-1.953125-1.953125-.78125-6.25-.390625 0-6.640625-1.765625-12.890625-1.75-6.25-3.3125-2.34375-1.5625 3.90625-.203125 8.203125 1.375 4.296875 2.15625 14.0625.78125 9.765625-.78125 12.109375-1.5625 2.34375.390625 1.953125 1.953125-.390625 3.3125-.59375 1.375-.1875 5.078125.78125 3.71875.984375 5.078125 1.953125 1.375.984375 5.28125-.96875 3.90625-1.953125 2.921875-4.109375-.96875-2.140625-1.171875-9.953125-.1875-7.8125.203125-13.09375.390625-5.265625-.390625-8.78125-.78125-3.515625-2.546875-5.078125-1.75-1.5625-2.53125.78125-.78125 2.34375-3.71875 5.078125-2.921875 2.734375-.96875 2.34375 1.953125-.390625 3.515625-.390625 1.5625 0 1.953125 4.875.390625 4.890625.1875 14.0625-.1875 9.1875-1.359375 10.546875-1.171875 1.375-10.9375-.96875zm7.421875 32.03125q1.171875-1.953125 1.5625-2.9375.390625-.96875-1.953125-3.3125-2.34375-2.34375-4.890625-4.5-2.53125-2.140625-1.359375-2.140625 1.171875 0 14.0625 3.515625-4.296875 4.6875-2.15625 4.875 2.15625.203125 5.28125-1.75 3.125-1.953125 2.140625-5.46875-.96875-3.515625-4.09375.78125-17.578125-5.859375-20.3125-8.59375-2.734375-2.734375-4.296875.390625-1.5625 3.125 1.75 4.875 3.328125 1.765625 7.234375 6.0625 3.90625 4.296875 3.90625 7.8125-7.03125-1.171875-9.1875 0-2.140625 1.171875.59375 1.75 2.734375.59375 8.203125 2.15625 5.46875 1.5625 10.546875 2.921875 5.078125 1.375 7.421875 0 2.34375-1.359375.1875-2.53125-2.140625-1.171875-14.640625-3.90625zm-4.6875 14.84375q-2.734375 3.125 2.140625 2.734375 4.890625-.390625 6.453125-2.15625 1.5625-1.75.96875-4.09375-.578125-2.34375-3.703125-.78125-3.125 1.5625-5.859375 4.296875z" transform="translate(300)"/><use x="400" xlink:href="#p"/><path d="m51.953125 54.296875q11.71875 1.171875 16.984375 1.75 5.28125.59375 10.9375 1.5625 5.671875.984375 9.765625-2.34375 4.109375-3.3125-4.09375-3.3125-7.8125 0-14.0625-.390625-6.25-.390625-21.09375-1.5625-4.296875-10.546875-11.71875-21.875 1.171875-1.953125 5.078125-1.375 3.90625.59375 10.9375 1.765625 7.03125 1.171875 10.15625 2.53125 3.125 1.375 6.046875.203125 2.9375-1.171875 6.640625-3.90625 3.71875-2.734375.390625-5.28125-3.3125-2.53125-7.609375-14.25 3.90625-3.125 2.34375-4.109375-1.5625-.96875-5.078125-.96875-3.125 0-25.78125-1.5625-2.34375-6.640625-3.515625-2.140625-1.171875 4.484375-1.765625 11.3125-.578125 6.84375-2.53125 11.921875-2.734375-4.296875-8.59375-9.765625-5.859375-5.46875-12.3125-8.59375-6.4375-3.125.390625 2.734375 6.84375 5.859375 15.625 17.1875 8.796875 11.328125 14.65625 25-22.65625-2.734375-25.78125-3.328125-3.125-.578125-6.84375 2.546875-3.703125 3.125.203125 2.921875 3.90625-.1875 11.90625.390625 8.015625.59375 22.46875 2.15625 5.46875 13.671875 3.90625 17.96875-1.5625 4.296875 1.953125 3.125 3.515625-1.171875 6.046875-3.328125 2.546875-2.140625.78125-4.09375-1.75-1.953125-6.4375-12.890625zm-10.15625-49.609375q12.109375 1.171875 23.4375 2.734375 1.5625 7.421875 1.953125 12.890625.390625 5.46875-3.90625 5.46875-3.90625 0-22.65625-2.34375.390625-9.375 1.171875-18.75z" transform="translate(500)"/><use x="600" xlink:href="#q"/><use x="700" xlink:href="#r"/></g></g></g></g></svg>