<svg xmlns="http://www.w3.org/2000/svg" xmlns:xlink="http://www.w3.org/1999/xlink" width="816.408" height="530.08" stroke-linejoin="round" viewBox="0 0 612.306 397.56"><defs stroke-linejoin="round"><clipPath id="a" stroke-linejoin="round"><path d="m47.10625 7.2h558v326.16h-558z"/></clipPath><path id="b" stroke="#000" stroke-linejoin="round" stroke-width=".8" d="m0 0v3.5"/><path id="c" stroke-linejoin="round" d="m4.6875 3.90625q.390625 5.859375 5.46875 10.546875 5.078125 4.6875 12.890625 14.640625 7.8125 9.96875 10.15625 15.4375 2.34375 5.46875 1.75 9.375-.578125 3.90625-3.703125 6.4375-3.125 2.546875-7.234375 2.15625-4.09375-.390625-7.8125-3.125-3.703125-2.734375-5.65625-8.203125l-7.421875 1.171875q3.125 8.984375 8 13.078125 4.890625 4.109375 11.53125 4.5 3.90625.390625 7.03125-.203125 3.125-.578125 6.4375-2.734375 3.328125-2.140625 5.46875-6.4375 2.15625-4.296875 1.5625-10.359375-.578125-6.046875-6.046875-14.453125-5.46875-8.390625-21.09375-26.359375h28.125v-7.03125h-39.453125z"/><path id="d" stroke-linejoin="round" d="m3.125 29.296875q.78125 20.703125 3.3125 26.75 2.546875 6.0625 7.234375 9.96875 4.6875 3.90625 11.515625 3.90625 6.84375 0 11.921875-5.671875 5.078125-5.65625 6.640625-14.25 1.5625-8.59375.96875-19.734375-.578125-11.125-3.90625-18.15625-3.3125-7.03125-9.953125-9.765625-6.640625-2.734375-13.28125.578125-6.640625 3.328125-9.375 8.796875-2.734375 5.46875-3.90625 11.515625-1.171875 6.0625-.390625 26.765625zm9.765625 23.4375q-2.34375-21.484375-.390625-29.890625 1.953125-8.390625 6.4375-11.90625 4.5-3.515625 9.1875-1.375 4.6875 2.15625 6.828125 8.59375 2.15625 6.453125 2.15625 14.0625 0 7.625-.59375 13.875-.578125 6.25-3.515625 11.328125-2.921875 5.078125-7.8125 5.265625-4.875.203125-8.59375-4.875-3.703125-5.078125-6.046875-26.5625z"/><path id="e" stroke-linejoin="round" d="m21.875 56.25q-5.078125-5.078125-12.890625-9.765625v7.421875q9.765625 6.640625 16.015625 15.625h4.6875v-67.1875h-7.8125z"/><path id="f" stroke-linejoin="round" d="m46.484375 33.203125h-44.53125v6.25h44.53125z"/><path id="g" stroke-linejoin="round" d="m31.25 17.1875h-30.078125v6.640625l31.640625 45.703125h5.859375v-45.703125h9.375v-6.640625h-9.375v-14.84375h-7.421875zm0 6.640625v30.859375l-21.875-30.859375z"/><path id="h" stroke-linejoin="round" d="m3.515625 19.53125q.78125 11.328125 2.53125 15.234375 1.765625 3.90625 5.28125 9.765625l16.015625 25h8.984375l-16.40625-25.78125q10.546875 2.734375 16.796875-.78125 6.25-3.515625 8.390625-8.015625 2.15625-4.484375 2.34375-9.765625.203125-5.265625-1.5625-10.34375-1.75-5.078125-6.25-9.1875-4.484375-4.09375-12.5-4.484375-8-.390625-13.671875 2.921875-5.65625 3.328125-7.8125 9.375-2.140625 6.0625-1.359375 17.390625zm8.984375-3.515625q7.03125-7.421875 12.890625-7.8125 5.859375-.390625 9.765625 3.90625 3.90625 4.296875 3.90625 12.5 0 8.203125-4.890625 11.328125-4.875 3.125-10.9375 2.34375-6.046875-.78125-8.78125-5.859375-2.734375-5.078125-2.34375-10.75.390625-5.65625 7.421875-13.078125z"/><path id="i" stroke-linejoin="round" d="m8.59375 20.703125q2.734375-10.546875 9.375-11.71875 6.640625-1.171875 10.734375 1.359375 4.109375 2.546875 5.859375 6.640625 1.765625 4.109375 1.5625 9.1875-.1875 5.078125-2.734375 8.59375-2.53125 3.515625-6.4375 4.6875-3.90625 1.171875-8.796875 0-4.875-1.171875-8-5.46875l-6.640625.78125q.78125 2.34375 7.421875 33.59375h30.859375v-7.03125h-25q-1.953125-10.546875-3.90625-16.796875 5.859375 2.734375 10.9375 2.53125 5.078125-.1875 9.765625-2.34375 4.6875-2.140625 6.828125-5.859375 2.15625-3.703125 3.125-7.421875.984375-3.703125.78125-8-.1875-4.296875-1.75-8.796875-1.5625-4.484375-4.6875-7.421875-3.125-2.921875-7.625-4.6875-4.484375-1.75-10.34375-1.359375-5.859375.390625-11.140625 4.296875-5.265625 3.90625-7.21875 13.28125z"/><path id="j" stroke-linejoin="round" d="m3.90625 19.140625 7.03125 1.171875q1.5625-5.078125 5.078125-8.40625 3.515625-3.3125 8.78125-3.125 5.28125.203125 8.40625 4.296875 3.125 4.109375 2.734375 9.375-.390625 5.28125-4.109375 8.203125-3.703125 2.9375-11.90625 4.109375v5.078125q8.203125.78125 11.90625 4.296875 3.71875 3.515625 3.328125 9.171875-.390625 5.671875-5.078125 8.203125-4.6875 2.546875-9.96875.59375-5.265625-1.953125-8.390625-10.9375l-7.03125 1.171875q2.34375 7.03125 6.4375 11.71875 4.109375 4.6875 11.140625 5.46875 7.03125.78125 12.296875-1.765625 5.28125-2.53125 7.421875-7.8125 2.15625-5.265625.59375-11.515625-1.5625-6.25-8.984375-10.9375 5.46875-2.34375 8.390625-7.03125 2.9375-4.6875 1.953125-12.3125-.96875-7.609375-6.828125-12.296875-5.859375-4.6875-13.28125-4.5-7.421875.203125-12.890625 4.6875-5.46875 4.5-7.03125 13.09375z"/><path id="k" stroke-linejoin="round" d="m13.28125 2.34375q7.03125 29.6875 24.609375 58.984375h-33.59375v7.03125h41.796875v-6.640625q-18.359375-29.6875-24.21875-59.375z"/><path id="l" stroke-linejoin="round" d="m2.734375 16.796875q0 9.375 2.34375 13.859375 2.34375 4.5 7.8125 7.234375-4.6875 2.734375-6.25 6.046875-1.5625 3.328125-1.765625 7.625-.1875 4.296875 1.171875 7.421875 1.375 3.125 4.109375 5.859375 2.734375 2.734375 6.046875 3.703125 3.328125.984375 7.234375.984375 3.90625 0 7.03125-.78125 3.125-.78125 6.640625-3.328125 3.515625-2.53125 5.078125-7.21875 1.5625-4.6875-.203125-10.9375-1.75-6.25-9.171875-9.765625 6.640625-1.953125 9.375-6.0625 2.734375-4.09375 2.734375-9.953125 0-5.859375-1.765625-9.375-1.75-3.515625-3.90625-5.859375-2.140625-2.34375-5.859375-3.71875-3.703125-1.359375-9.375-1.359375-5.65625 0-9.765625 1.359375-4.09375 1.375-6.828125 4.109375-2.734375 2.734375-3.71875 6.4375-.96875 3.71875-.96875 13.09375zm8.203125 9.765625q-.390625-9.375 1.359375-12.890625 1.765625-3.515625 6.453125-4.5 4.6875-.96875 9.765625.203125 5.078125 1.171875 7.03125 5.46875 1.953125 4.296875 1.359375 8.59375-.578125 4.296875-4.875 7.21875-4.296875 2.9375-9.375 2.546875-5.078125-.390625-8.40625-3.515625-3.3125-3.125-3.703125-12.5zm1.171875 29.6875q0-7.8125 2.734375-11.328125 2.734375-3.515625 8.59375-3.515625 5.859375 0 8.78125 3.515625 2.9375 3.515625 2.734375 8.390625-.1875 4.890625-3.515625 7.234375-3.3125 2.34375-8.984375 1.953125-5.65625-.390625-8-3.328125-2.34375-2.921875-2.34375-10.734375z"/><path id="m" stroke-linejoin="round" d="m12.5 1.171875q8.59375 14.453125 14.0625 26.171875-9.765625-1.5625-16.21875 2.53125-6.4375 4.109375-7.8125 11.140625-1.359375 7.03125.203125 12.6875 1.5625 5.671875 4.875 9.375 3.328125 3.71875 8.015625 5.28125 4.6875 1.5625 8.390625 1.5625 3.71875 0 7.625-1.5625 3.90625-1.5625 7.03125-4.6875 3.125-3.125 4.296875-6.453125 1.171875-3.3125 1.171875-8.59375 0-5.265625-3.90625-13.46875-3.90625-8.203125-19.140625-33.984375zm-2.734375 48.828125q1.171875-10.15625 4.875-13.484375 3.71875-3.3125 8.015625-2.921875 4.296875.390625 6.828125 2.34375 2.546875 1.953125 4.890625 6.640625 1.5625 5.859375.78125 9.953125-.78125 4.109375-4.109375 6.84375-3.3125 2.734375-7.21875 2.734375-2.34375.390625-6.0625-1.171875-3.703125-1.5625-5.859375-6.25-2.140625-4.6875-.96875-14.84375z"/><path id="n" stroke="#000" stroke-linejoin="round" stroke-width=".8" d="m0 0h-3.5"/><path id="o" stroke-linejoin="round" d="m21.875 51.953125q0-11.328125-3.328125-14.453125-3.3125-3.125-6.4375-3.125-3.125 0-6.453125 3.125-3.3125 3.125-3.3125 14.453125 0 11.328125 3.3125 14.453125 3.328125 3.125 6.453125 3.125 3.125 0 6.4375-3.125 3.328125-3.125 3.328125-14.453125zm19.140625 16.40625-30.078125-67.1875-3.125 1.171875 30.078125 67.1875zm5.46875-49.609375q0-11.328125-3.328125-14.453125-3.3125-3.125-6.4375-3.125-3.125 0-6.453125 3.125-3.3125 3.125-3.3125 14.453125 0 11.328125 3.3125 14.453125 3.328125 3.125 6.453125 3.125 3.125 0 6.4375-3.125 3.328125-3.125 3.328125-14.453125zm-30.859375 33.203125q0 7.03125-.78125 9.375-.78125 2.34375-2.734375 2.34375-1.953125 0-2.734375-2.34375-.78125-2.34375-.78125-9.375 0-7.03125.78125-9.375.78125-2.34375 2.734375-2.34375 1.953125 0 2.734375 2.34375.78125 2.34375.78125 9.375zm24.609375-33.203125q0 7.03125-.78125 9.375-.78125 2.34375-2.734375 2.34375-1.953125 0-2.734375-2.34375-.78125-2.34375-.78125-9.375 0-7.03125.78125-9.375.78125-2.34375 2.734375-2.34375 1.953125 0 2.734375 2.34375.78125 2.34375.78125 9.375z"/><path id="p" stroke-linejoin="round" d="m55.859375 11.328125q14.84375 1.171875 24.609375 2.140625 9.765625.984375 12.890625-3.125 3.125-4.09375-.59375-3.90625-3.703125.203125-10.9375.59375-7.21875.390625-20.109375-.390625-12.890625-.78125-23.828125-1.953125-10.9375-1.171875-16.796875-2.34375-5.859375-1.171875-9.96875 1.75-4.09375 2.9375-.1875 2.734375 3.90625-.1875 20.703125 2.15625-.390625 17.1875-1.171875 22.84375-.78125 5.671875-2.9375 8.59375-2.140625 2.9375.390625 2.734375 2.546875-.1875 6.0625-1.5625 3.515625-1.359375 2.734375-4.09375-.78125-2.734375-.390625-28.125 8.203125.78125 14.84375 1.5625 0 32.8125-.203125 44.921875-.1875 12.109375-2.34375 15.234375-2.140625 3.125.78125 2.921875 2.9375-.1875 6.640625-1.5625 3.71875-1.359375 2.15625-4.484375-1.5625-3.125-1.953125-27.34375 7.03125 1.171875 12.890625 2.734375 5.859375 1.5625 9.375-.984375 3.515625-2.53125-5.859375-4.09375-9.375-1.5625-16.40625-.390625-.390625-12.890625-.390625-26.5625z"/><path id="q" stroke-linejoin="round" d="m70.3125 6.25q6.25.78125 11.71875 1.5625 5.46875.78125 8.984375-1.171875 3.515625-1.953125 4.296875-4.109375.78125-2.140625-2.15625-1.953125-2.921875.203125-8.78125.984375-5.859375.78125-21.875.390625-16.015625-.390625-28.125-1.953125-12.109375-1.5625-17.1875-2.53125-5.078125-.984375-8.40625 1.953125-3.3125 2.921875.984375 2.71875 4.296875-.1875 19.921875 1.765625-1.953125 13.671875-5.28125 17.765625-3.3125 4.109375 1.5625 2.9375 4.890625-1.171875 20.90625.96875 16.015625 2.15625 18.359375 3.328125 2.34375 1.171875 5.46875.1875 3.125-.96875 5.859375-2.921875 2.734375-1.953125.390625-4.109375-2.34375-2.140625-6.640625-15.8125zm-25.78125 61.71875q2.734375-2.34375.96875-4.5-1.75-2.140625-4.09375-8.203125-2.34375-6.046875-8.015625-13.078125-5.65625-7.03125-12.890625-10.75-7.21875-3.703125-.96875 1.765625 6.25 5.46875 12.296875 14.640625 6.0625 9.1875 8.015625 19.34375-5.078125-.78125-6.84375-1.171875-1.75-.390625-4.296875 1.5625-2.53125 1.953125-1.359375 2.140625 1.171875.203125 7.03125.390625 5.859375.203125 16.015625 1.953125 10.15625 1.765625 12.296875 3.125 2.15625 1.375 4.890625.390625 2.734375-.96875 4.6875-2.53125 1.953125-1.5625.1875-2.546875-1.75-.96875-4.09375-3.703125-2.34375-2.734375-3.125-4.6875-.78125-1.953125 1.171875-1.953125 1.953125 0 3.515625.78125 1.5625.78125 3.125 0 1.5625-.78125 4.09375-2.546875 2.546875-1.75.984375-2.921875-1.5625-1.171875-2.15625-4.296875-.578125-3.125-1.953125-8.796875-1.359375-5.65625-4.875-8.59375-3.515625-2.921875-3.90625-.78125-.390625 2.15625-4.5 5.078125-4.09375 2.9375 0 1.953125 4.109375-.96875 6.0625.984375 1.953125 1.953125 3.3125 8.59375 1.375 6.640625-.78125 7.21875-2.140625.59375-3.125.390625-.96875-.1875-2.921875-1.5625-1.953125-1.359375-2.734375.984375-.78125 2.34375.1875 3.703125.984375 1.375 2.546875 5.859375 1.5625 4.5-1.953125 4.5-3.125 0-16.796875-2.734375zm8.59375-25.390625q2.734375-2.734375 3.90625-4.6875 1.171875-1.953125.1875-3.515625-.96875-1.5625-2.34375-.59375-1.359375.984375-4.875 4.890625-5.078125-5.078125-10.15625-6.84375-5.078125-1.75-1.5625.78125 3.515625 2.546875 8.203125 8.796875-2.734375 3.125-4.890625 5.265625-2.140625 2.15625-.1875 1.765625 1.953125-.390625 7.8125-3.515625 2.34375 3.515625 2.53125 5.078125.203125 1.5625-.96875 1.359375-1.171875-.1875-3.515625-.78125-2.34375-.578125-4.296875.984375-1.953125 1.5625-.390625 1.5625 1.953125 0 5.265625.78125 3.328125.78125 4.890625 2.140625 1.5625 1.375 5.078125-.578125 3.515625-1.953125 1.953125-3.125-1.5625-1.171875-2.9375-3.515625-1.359375-2.34375-3.703125-6.25zm3.90625-18.359375q3.125-2.734375 1.5625-5.078125-1.5625-2.34375-4.6875-13.671875l11.71875.78125q4.296875 16.796875 2.734375 17.96875-1.5625 1.171875-3.328125.96875-1.75-.1875-8-.96875zm-16.40625-1.953125q.78125-2.34375 2.734375-6.0625 1.953125-3.703125.78125-11.125l6.640625.390625q1.953125 10.9375 1.5625 18.359375zm-8.984375-1.171875q.78125-8.984375 1.5625-17.1875l8.984375.78125q-1.5625 4.296875-2.546875 9.765625-.96875 5.46875-.96875 7.421875z"/><path id="r" stroke-linejoin="round" d="m83.59375 72.265625q1.953125-1.953125.78125-4.6875-1.171875-2.734375-1.171875-10.9375 0-8.203125.1875-17.578125.203125-9.375 1.765625-22.859375 1.5625-13.46875-1.375-20.890625-2.921875-7.421875-5.859375-2.53125-2.921875 4.875-7.03125 8.1875-4.09375 3.328125-.578125 2.34375 3.515625-.96875 5.859375-.96875 2.734375 0 3.125 7.03125.390625 7.03125-.203125 22.265625-.578125 15.234375-.96875 23.625-.390625 8.40625-.984375 11.71875-.578125 3.328125-2.34375 4.6875-1.75 1.375-10.34375-.390625-8.59375-1.75-12.5-2.53125-3.90625-.78125-7.03125 1.5625-3.125 2.34375.78125 1.953125 3.90625-.390625 14.640625 1.5625 10.75 1.953125 12.890625 2.921875 2.15625.984375 5.46875-.578125 3.328125-1.5625 4.890625-3.90625zm-33.203125-21.875q6.25 1.953125 8.59375 2.734375 2.34375.78125 4.875-.984375 2.546875-1.75-.78125-2.53125-3.3125-.78125-11.90625-2.734375 3.125-9.765625 7.421875-16.40625 1.953125 3.90625 2.734375 7.421875.78125 3.515625.578125 5.265625-.1875 1.765625 2.15625.78125 2.34375-.96875 3.515625-2.34375 1.171875-1.359375 0-2.734375-1.171875-1.359375-2.34375-4.09375-1.171875-2.734375-3.90625-8.203125 3.125-4.296875 5.859375-6.25 2.734375-1.953125 3.125.390625l1.953125 7.03125q1.171875 4.6875 1.171875-3.125 0-7.8125.578125-10.359375.59375-2.53125 0-4.09375-.578125-1.5625-5.46875 1.953125-4.875 3.515625-9.953125 10.546875-2.734375-4.296875-6.640625-7.625-3.90625-3.3125-7.234375-4.6875-3.3125-1.359375.984375 2.34375 4.296875 3.71875 10.546875 13.875-2.34375 2.734375-4.5 8-2.140625 5.28125-4.09375 11.53125-5.859375-1.171875-9.375-1.953125-3.515625-.78125-6.453125.578125-2.921875 1.375.390625 1.765625 3.328125.390625 14.265625 3.125-.78125 3.125-1.953125 5.65625-1.171875 2.546875-2.9375 4.5-1.75 1.953125-.390625 2.53125 1.375.59375 4.5-.1875 3.125-.78125 2.921875-2.34375-.1875-1.5625 1.765625-9.375zm-30.859375 14.0625q3.515625-1.5625 2.921875-4.6875-.578125-3.125-.578125-16.796875 0-13.671875-.390625-23.640625-.390625-9.953125-1.171875-14.640625-.78125-4.6875-2.34375-5.859375-1.5625-1.171875-3.125 3.703125-1.5625 4.890625.1875 8.203125 1.765625 3.328125 2.15625 13.28125.390625 9.96875.1875 22.65625-.1875 12.703125-1.75 15.828125-1.5625 3.125-.59375 3.3125.984375.203125 4.5-1.359375zm25-33.203125q.78125-3.125-.984375-3.328125-1.75-.1875-8.78125-1.75-1.953125-3.125-3.125-.203125-1.171875 2.9375-1.953125 5.28125-.78125 2.34375-1.765625 3.703125-.96875 1.375.59375 1.375 1.953125 0 3.515625.1875 1.5625.203125 4.09375.984375 2.546875.78125 3.90625 1.5625 1.375.78125 3.328125.390625 1.953125-.390625 3.703125-1.375 1.765625-.96875.78125-2.140625-.96875-1.171875-3.3125-4.6875zm0-7.8125q4.296875 1.5625 5.46875 1.5625 1.5625 0-1.171875-1.765625-2.734375-1.75-7.234375-4.296875-4.484375-2.53125-7.21875-4.296875-2.734375-1.75-4.5-.78125-1.75.984375-3.515625 2.546875-1.75 1.5625.984375 1.75 2.734375.203125 8 1.953125 5.28125 1.765625 9.1875 3.328125zm-14.453125 51.953125q5.859375-1.953125 5.46875-6.25-.390625-4.296875-2.546875-3.515625-2.140625.78125-5.078125 4.6875-2.921875 3.90625-3.125 5.65625-.1875 1.765625 5.28125-.578125zm3.90625-47.265625q4.6875 1.171875 7.421875 1.953125 0 3.90625-.203125 5.265625-.1875 1.375-2.34375.78125-2.140625-.578125-6.046875-1.75zm27.734375 28.515625q-4.296875 3.125-4.5 4.6875-.1875 1.5625 5.078125.578125 5.28125-.96875 4.6875-4.484375-.578125-3.515625-5.265625-.78125z"/><path id="s" stroke-linejoin="round" d="m63.28125 62.109375q8.203125 1.5625 12.296875 2.734375 4.109375 1.171875 7.03125-1.375 2.9375-2.53125-1.5625-3.3125-4.484375-.78125-8-1.5625l-10.546875-1.5625q-1.953125-7.8125-2.734375-10.546875 8.203125 1.5625 9.765625 2.921875 1.5625 1.375 4.296875.390625 2.734375-.96875 5.265625-2.53125 2.546875-1.5625.984375-3.515625-1.5625-1.953125-2.15625-11.328125-.578125-9.375-.96875-25.390625 5.078125.390625 9.171875.96875 4.109375.59375 7.03125-.578125 2.9375-1.171875 4.109375-3.515625 1.171875-2.34375-7.421875-1.375-8.59375.984375-19.734375 0-11.125-.96875-18.359375-2.140625-7.21875-1.171875-11.125-2.140625-3.90625-.984375-8.015625 1.75-4.09375 2.734375.203125 2.734375 4.296875 0 14.84375 1.5625 0 8.984375-.203125 22.0625-.1875 13.09375-2.140625 15.828125-1.953125 2.734375 0 2.734375 2.34375 0 3.703125-.203125 1.375-.1875 6.84375.984375.390625 2.734375 1.5625 10.546875-4.6875-.78125-8.015625-1.375-3.3125-.578125-6.828125 1.375-3.515625 1.953125.578125 2.140625 4.109375.203125 15.046875 2.546875.390625 3.90625.578125 8.203125.203125 4.296875-.96875 6.640625-1.171875 2.34375.78125 2.34375 2.34375 0 6.046875-1.5625 3.71875-1.5625 2.15625-3.515625-1.5625-1.953125-3.515625-10.9375zm-11.328125-26.5625q6.25.78125 9.171875 1.75 2.9375.984375 5.46875-.390625 2.546875-1.359375-3.125-2.734375-5.65625-1.359375-11.515625-.96875v-7.8125q4.6875.78125 8.390625 2.140625 3.71875 1.375 5.859375-.390625 2.15625-1.75-2.921875-2.921875-5.078125-1.171875-11.328125-1.171875v-7.8125q6.640625 1.171875 9.375 2.140625 2.734375.984375 5.265625-.390625 2.546875-1.359375-2.53125-2.734375-5.078125-1.359375-12.109375-1.359375v-8.203125q4.296875.390625 19.921875 1.953125 0 8.984375.1875 22.453125.203125 13.484375-.96875 14.65625-1.171875 1.171875-3.90625.96875-2.734375-.1875-15.234375-2.140625zm-26.953125 13.671875q3.515625-3.515625 2.921875-9.375-.578125-5.859375-.390625-24.21875.203125-18.359375-1.5625-20.890625-1.75-2.546875-3.90625 2.140625-2.140625 4.6875-.78125 9.953125 1.375 5.28125 1.5625 13.09375.203125 7.8125.203125 14.84375 0 7.03125-.78125 10.15625-3.515625-5.46875-8.015625-9.96875-4.484375-4.484375-8.78125-6.640625-4.296875-2.140625 0 2.34375 4.296875 4.5 10.34375 13.875 6.0625 9.375 9.375 17.578125 3.328125 8.203125 2.9375 11.90625-.390625 3.71875 2.140625 2.546875 2.546875-1.171875 5.078125-3.515625 2.546875-2.34375.390625-4.109375-2.140625-1.75-10.734375-19.71875z"/><path id="t" stroke-linejoin="round" d="m12.5 1.171875q-1.953125 0-3.71875 1.359375-1.75 1.375-1.75 4.109375 0 2.34375 1.359375 3.703125 1.375 1.375 4.109375 1.765625 2.734375 0 4.09375-1.5625 1.375-1.5625 1.375-3.90625 0-2.734375-1.5625-4.109375-1.5625-1.359375-3.90625-1.359375z"/></defs><g stroke-linejoin="round"><path fill="none" d="m0 397.56h612.30625v-397.56h-612.30625z"/><g><path fill="#fff" stroke-linejoin="round" d="m47.10625 333.36h558v-326.16h-558z"/><g stroke-linejoin="round"><use x="59.385" y="333.36" stroke="#000" stroke-width=".8" xlink:href="#b"/><g><use x="72.47" y="333.36" stroke="#000" stroke-width=".8" xlink:href="#b"/><g transform="matrix(0 -.1 -.1 0 75.282386 390.36)"><use xlink:href="#c"/><use x="50" xlink:href="#d"/><use x="100" xlink:href="#e"/><use x="150" xlink:href="#d"/><use x="200" xlink:href="#f"/><use x="250" xlink:href="#d"/><use x="300" xlink:href="#g"/><use x="350" xlink:href="#f"/><use x="400" xlink:href="#e"/><use x="450" xlink:href="#h"/></g></g><g><use x="85.555" y="333.36" stroke="#000" stroke-width=".8" xlink:href="#b"/><g transform="matrix(0 -.1 -.1 0 88.367667 390.36)"><use xlink:href="#c"/><use x="50" xlink:href="#d"/><use x="100" xlink:href="#e"/><use x="150" xlink:href="#d"/><use x="200" xlink:href="#f"/><use x="250" xlink:href="#d"/><use x="300" xlink:href="#i"/><use x="350" xlink:href="#f"/><use x="400" xlink:href="#j"/><use x="450" xlink:href="#e"/></g></g><g><use x="98.64" y="333.36" stroke="#000" stroke-width=".8" xlink:href="#b"/><g transform="matrix(0 -.1 -.1 0 101.452948 390.36)"><use xlink:href="#c"/><use x="50" xlink:href="#d"/><use x="100" xlink:href="#e"/><use x="150" xlink:href="#d"/><use x="200" xlink:href="#f"/><use x="250" xlink:href="#d"/><use x="300" xlink:href="#k"/><use x="350" xlink:href="#f"/><use x="400" xlink:href="#e"/><use x="450" xlink:href="#i"/></g></g><g><use x="111.726" y="333.36" stroke="#000" stroke-width=".8" xlink:href="#b"/><g transform="matrix(0 -.1 -.1 0 114.538229 390.36)"><use xlink:href="#c"/><use x="50" xlink:href="#d"/><use x="100" xlink:href="#e"/><use x="150" xlink:href="#d"/><use x="200" xlink:href="#f"/><use x="250" xlink:href="#d"/><use x="300" xlink:href="#l"/><use x="350" xlink:href="#f"/><use x="400" xlink:href="#c"/><use x="450" xlink:href="#h"/></g></g><g><use x="124.811" y="333.36" stroke="#000" stroke-width=".8" xlink:href="#b"/><g transform="matrix(0 -.1 -.1 0 127.62351 390.36)"><use xlink:href="#c"/><use x="50" xlink:href="#d"/><use x="100" xlink:href="#e"/><use x="150" xlink:href="#d"/><use x="200" xlink:href="#f"/><use x="250" xlink:href="#e"/><use x="300" xlink:href="#d"/><use x="350" xlink:href="#f"/><use x="400" xlink:href="#e"/><use x="450" xlink:href="#m"/></g></g><g><use x="137.896" y="333.36" stroke="#000" stroke-width=".8" xlink:href="#b"/><g transform="matrix(0 -.1 -.1 0 140.708791 390.36)"><use xlink:href="#c"/><use x="50" xlink:href="#d"/><use x="100" xlink:href="#e"/><use x="150" xlink:href="#d"/><use x="200" xlink:href="#f"/><use x="250" xlink:href="#e"/><use x="300" xlink:href="#e"/><use x="350" xlink:href="#f"/><use x="400" xlink:href="#j"/><use x="450" xlink:href="#d"/></g></g><g><use x="150.982" y="333.36" stroke="#000" stroke-width=".8" xlink:href="#b"/><g transform="matrix(0 -.1 -.1 0 153.794072 390.36)"><use xlink:href="#c"/><use x="50" xlink:href="#d"/><use x="100" xlink:href="#e"/><use x="150" xlink:href="#e"/><use x="200" xlink:href="#f"/><use x="250" xlink:href="#d"/><use x="300" xlink:href="#e"/><use x="350" xlink:href="#f"/><use x="400" xlink:href="#e"/><use x="450" xlink:href="#c"/></g></g><g><use x="164.067" y="333.36" stroke="#000" stroke-width=".8" xlink:href="#b"/><g transform="matrix(0 -.1 -.1 0 166.879353 390.36)"><use xlink:href="#c"/><use x="50" xlink:href="#d"/><use x="100" xlink:href="#e"/><use x="150" xlink:href="#e"/><use x="200" xlink:href="#f"/><use x="250" xlink:href="#d"/><use x="300" xlink:href="#j"/><use x="350" xlink:href="#f"/><use x="400" xlink:href="#d"/><use x="450" xlink:href="#c"/></g></g><g><use x="177.152" y="333.36" stroke="#000" stroke-width=".8" xlink:href="#b"/><g transform="matrix(0 -.1 -.1 0 179.964634 390.36)"><use xlink:href="#c"/><use x="50" xlink:href="#d"/><use x="100" xlink:href="#e"/><use x="150" xlink:href="#e"/><use x="200" xlink:href="#f"/><use x="250" xlink:href="#d"/><use x="300" xlink:href="#g"/><use x="350" xlink:href="#f"/><use x="400" xlink:href="#e"/><use x="450" xlink:href="#i"/></g></g><g><use x="190.237" y="333.36" stroke="#000" stroke-width=".8" xlink:href="#b"/><g transform="matrix(0 -.1 -.1 0 193.049915 390.36)"><use xlink:href="#c"/><use x="50" xlink:href="#d"/><use x="100" xlink:href="#e"/><use x="150" xlink:href="#e"/><use x="200" xlink:href="#f"/><use x="250" xlink:href="#d"/><use x="300" xlink:href="#i"/><use x="350" xlink:href="#f"/><use x="400" xlink:href="#j"/><use x="450" xlink:href="#d"/></g></g><g><use x="203.323" y="333.36" stroke="#000" stroke-width=".8" xlink:href="#b"/><g transform="matrix(0 -.1 -.1 0 206.135196 390.36)"><use xlink:href="#c"/><use x="50" xlink:href="#d"/><use x="100" xlink:href="#e"/><use x="150" xlink:href="#e"/><use x="200" xlink:href="#f"/><use x="250" xlink:href="#d"/><use x="300" xlink:href="#k"/><use x="350" xlink:href="#f"/><use x="400" xlink:href="#e"/><use x="450" xlink:href="#c"/></g></g><g><use x="216.408" y="333.36" stroke="#000" stroke-width=".8" xlink:href="#b"/><g transform="matrix(0 -.1 -.1 0 219.220478 390.36)"><use xlink:href="#c"/><use x="50" xlink:href="#d"/><use x="100" xlink:href="#e"/><use x="150" xlink:href="#e"/><use x="200" xlink:href="#f"/><use x="250" xlink:href="#d"/><use x="300" xlink:href="#l"/><use x="350" xlink:href="#f"/><use x="400" xlink:href="#c"/><use x="450" xlink:href="#j"/></g></g><g><use x="229.493" y="333.36" stroke="#000" stroke-width=".8" xlink:href="#b"/><g transform="matrix(0 -.1 -.1 0 232.305759 390.36)"><use xlink:href="#c"/><use x="50" xlink:href="#d"/><use x="100" xlink:href="#e"/><use x="150" xlink:href="#e"/><use x="200" xlink:href="#f"/><use x="250" xlink:href="#e"/><use x="300" xlink:href="#d"/><use x="350" xlink:href="#f"/><use x="400" xlink:href="#e"/><use x="450" xlink:href="#c"/></g></g><g><use x="242.579" y="333.36" stroke="#000" stroke-width=".8" xlink:href="#b"/><g transform="matrix(0 -.1 -.1 0 245.39104 390.36)"><use xlink:href="#c"/><use x="50" xlink:href="#d"/><use x="100" xlink:href="#e"/><use x="150" xlink:href="#e"/><use x="200" xlink:href="#f"/><use x="250" xlink:href="#e"/><use x="300" xlink:href="#e"/><use x="350" xlink:href="#f"/><use x="400" xlink:href="#c"/><use x="450" xlink:href="#j"/></g></g><g><use x="255.664" y="333.36" stroke="#000" stroke-width=".8" xlink:href="#b"/><g transform="matrix(0 -.1 -.1 0 258.476321 390.36)"><use xlink:href="#c"/><use x="50" xlink:href="#d"/><use x="100" xlink:href="#e"/><use x="150" xlink:href="#c"/><use x="200" xlink:href="#f"/><use x="250" xlink:href="#d"/><use x="300" xlink:href="#e"/><use x="350" xlink:href="#f"/><use x="400" xlink:href="#d"/><use x="450" xlink:href="#h"/></g></g><g><use x="268.749" y="333.36" stroke="#000" stroke-width=".8" xlink:href="#b"/><g transform="matrix(0 -.1 -.1 0 271.561602 390.36)"><use xlink:href="#c"/><use x="50" xlink:href="#d"/><use x="100" xlink:href="#e"/><use x="150" xlink:href="#c"/><use x="200" xlink:href="#f"/><use x="250" xlink:href="#d"/><use x="300" xlink:href="#c"/><use x="350" xlink:href="#f"/><use x="400" xlink:href="#c"/><use x="450" xlink:href="#g"/></g></g><g><use x="281.834" y="333.36" stroke="#000" stroke-width=".8" xlink:href="#b"/><g transform="matrix(0 -.1 -.1 0 284.646883 390.36)"><use xlink:href="#c"/><use x="50" xlink:href="#d"/><use x="100" xlink:href="#e"/><use x="150" xlink:href="#c"/><use x="200" xlink:href="#f"/><use x="250" xlink:href="#d"/><use x="300" xlink:href="#g"/><use x="350" xlink:href="#f"/><use x="400" xlink:href="#e"/><use x="450" xlink:href="#e"/></g></g><g><use x="294.92" y="333.36" stroke="#000" stroke-width=".8" xlink:href="#b"/><g transform="matrix(0 -.1 -.1 0 297.732164 390.36)"><use xlink:href="#c"/><use x="50" xlink:href="#d"/><use x="100" xlink:href="#e"/><use x="150" xlink:href="#c"/><use x="200" xlink:href="#f"/><use x="250" xlink:href="#d"/><use x="300" xlink:href="#i"/><use x="350" xlink:href="#f"/><use x="400" xlink:href="#c"/><use x="450" xlink:href="#i"/></g></g><g><use x="308.005" y="333.36" stroke="#000" stroke-width=".8" xlink:href="#b"/><g transform="matrix(0 -.1 -.1 0 310.817445 390.36)"><use xlink:href="#c"/><use x="50" xlink:href="#d"/><use x="100" xlink:href="#e"/><use x="150" xlink:href="#c"/><use x="200" xlink:href="#f"/><use x="250" xlink:href="#d"/><use x="300" xlink:href="#k"/><use x="350" xlink:href="#f"/><use x="400" xlink:href="#d"/><use x="450" xlink:href="#m"/></g></g><g><use x="321.09" y="333.36" stroke="#000" stroke-width=".8" xlink:href="#b"/><g transform="matrix(0 -.1 -.1 0 323.902726 390.36)"><use xlink:href="#c"/><use x="50" xlink:href="#d"/><use x="100" xlink:href="#e"/><use x="150" xlink:href="#c"/><use x="200" xlink:href="#f"/><use x="250" xlink:href="#d"/><use x="300" xlink:href="#l"/><use x="350" xlink:href="#f"/><use x="400" xlink:href="#c"/><use x="450" xlink:href="#d"/></g></g><g><use x="334.176" y="333.36" stroke="#000" stroke-width=".8" xlink:href="#b"/><g transform="matrix(0 -.1 -.1 0 336.988007 390.36)"><use xlink:href="#c"/><use x="50" xlink:href="#d"/><use x="100" xlink:href="#e"/><use x="150" xlink:href="#c"/><use x="200" xlink:href="#f"/><use x="250" xlink:href="#e"/><use x="300" xlink:href="#d"/><use x="350" xlink:href="#f"/><use x="400" xlink:href="#d"/><use x="450" xlink:href="#l"/></g></g><g><use x="347.261" y="333.36" stroke="#000" stroke-width=".8" xlink:href="#b"/><g transform="matrix(0 -.1 -.1 0 350.073288 390.36)"><use xlink:href="#c"/><use x="50" xlink:href="#d"/><use x="100" xlink:href="#e"/><use x="150" xlink:href="#c"/><use x="200" xlink:href="#f"/><use x="250" xlink:href="#e"/><use x="300" xlink:href="#e"/><use x="350" xlink:href="#f"/><use x="400" xlink:href="#e"/><use x="450" xlink:href="#m"/></g></g><g><use x="360.346" y="333.36" stroke="#000" stroke-width=".8" xlink:href="#b"/><g transform="matrix(0 -.1 -.1 0 363.158569 390.36)"><use xlink:href="#c"/><use x="50" xlink:href="#d"/><use x="100" xlink:href="#e"/><use x="150" xlink:href="#c"/><use x="200" xlink:href="#f"/><use x="250" xlink:href="#e"/><use x="300" xlink:href="#c"/><use x="350" xlink:href="#f"/><use x="400" xlink:href="#j"/><use x="450" xlink:href="#e"/></g></g><g><use x="373.431" y="333.36" stroke="#000" stroke-width=".8" xlink:href="#b"/><g transform="matrix(0 -.1 -.1 0 376.24385 390.36)"><use xlink:href="#c"/><use x="50" xlink:href="#d"/><use x="100" xlink:href="#e"/><use x="150" xlink:href="#j"/><use x="200" xlink:href="#f"/><use x="250" xlink:href="#d"/><use x="300" xlink:href="#c"/><use x="350" xlink:href="#f"/><use x="400" xlink:href="#c"/><use x="450" xlink:href="#e"/></g></g><g><use x="386.517" y="333.36" stroke="#000" stroke-width=".8" xlink:href="#b"/><g transform="matrix(0 -.1 -.1 0 389.329131 390.36)"><use xlink:href="#c"/><use x="50" xlink:href="#d"/><use x="100" xlink:href="#e"/><use x="150" xlink:href="#j"/><use x="200" xlink:href="#f"/><use x="250" xlink:href="#d"/><use x="300" xlink:href="#g"/><use x="350" xlink:href="#f"/><use x="400" xlink:href="#d"/><use x="450" xlink:href="#l"/></g></g><g><use x="399.602" y="333.36" stroke="#000" stroke-width=".8" xlink:href="#b"/><g transform="matrix(0 -.1 -.1 0 402.414412 390.36)"><use xlink:href="#c"/><use x="50" xlink:href="#d"/><use x="100" xlink:href="#e"/><use x="150" xlink:href="#j"/><use x="200" xlink:href="#f"/><use x="250" xlink:href="#d"/><use x="300" xlink:href="#i"/><use x="350" xlink:href="#f"/><use x="400" xlink:href="#c"/><use x="450" xlink:href="#j"/></g></g><g><use x="412.687" y="333.36" stroke="#000" stroke-width=".8" xlink:href="#b"/><g transform="matrix(0 -.1 -.1 0 415.499693 390.36)"><use xlink:href="#c"/><use x="50" xlink:href="#d"/><use x="100" xlink:href="#e"/><use x="150" xlink:href="#j"/><use x="200" xlink:href="#f"/><use x="250" xlink:href="#d"/><use x="300" xlink:href="#k"/><use x="350" xlink:href="#f"/><use x="400" xlink:href="#d"/><use x="450" xlink:href="#m"/></g></g><g><use x="425.772" y="333.36" stroke="#000" stroke-width=".8" xlink:href="#b"/><g transform="matrix(0 -.1 -.1 0 428.584974 390.36)"><use xlink:href="#c"/><use x="50" xlink:href="#d"/><use x="100" xlink:href="#e"/><use x="150" xlink:href="#j"/><use x="200" xlink:href="#f"/><use x="250" xlink:href="#d"/><use x="300" xlink:href="#l"/><use x="350" xlink:href="#f"/><use x="400" xlink:href="#c"/><use x="450" xlink:href="#d"/></g></g><g><use x="438.858" y="333.36" stroke="#000" stroke-width=".8" xlink:href="#b"/><g transform="matrix(0 -.1 -.1 0 441.670255 390.36)"><use xlink:href="#c"/><use x="50" xlink:href="#d"/><use x="100" xlink:href="#e"/><use x="150" xlink:href="#j"/><use x="200" xlink:href="#f"/><use x="250" xlink:href="#e"/><use x="300" xlink:href="#d"/><use x="350" xlink:href="#f"/><use x="400" xlink:href="#e"/><use x="450" xlink:href="#d"/></g></g><g><use x="451.943" y="333.36" stroke="#000" stroke-width=".8" xlink:href="#b"/><g transform="matrix(0 -.1 -.1 0 454.755536 390.36)"><use xlink:href="#c"/><use x="50" xlink:href="#d"/><use x="100" xlink:href="#e"/><use x="150" xlink:href="#j"/><use x="200" xlink:href="#f"/><use x="250" xlink:href="#e"/><use x="300" xlink:href="#e"/><use x="350" xlink:href="#f"/><use x="400" xlink:href="#c"/><use x="450" xlink:href="#e"/></g></g><g><use x="465.028" y="333.36" stroke="#000" stroke-width=".8" xlink:href="#b"/><g transform="matrix(0 -.1 -.1 0 467.840817 390.36)"><use xlink:href="#c"/><use x="50" xlink:href="#d"/><use x="100" xlink:href="#e"/><use x="150" xlink:href="#g"/><use x="200" xlink:href="#f"/><use x="250" xlink:href="#d"/><use x="300" xlink:href="#e"/><use x="350" xlink:href="#f"/><use x="400" xlink:href="#d"/><use x="450" xlink:href="#j"/></g></g><g><use x="478.114" y="333.36" stroke="#000" stroke-width=".8" xlink:href="#b"/><g transform="matrix(0 -.1 -.1 0 480.926098 390.36)"><use xlink:href="#c"/><use x="50" xlink:href="#d"/><use x="100" xlink:href="#e"/><use x="150" xlink:href="#g"/><use x="200" xlink:href="#f"/><use x="250" xlink:href="#d"/><use x="300" xlink:href="#c"/><use x="350" xlink:href="#f"/><use x="400" xlink:href="#c"/><use x="450" xlink:href="#e"/></g></g><g><use x="491.199" y="333.36" stroke="#000" stroke-width=".8" xlink:href="#b"/><g transform="matrix(0 -.1 -.1 0 494.011379 390.36)"><use xlink:href="#c"/><use x="50" xlink:href="#d"/><use x="100" xlink:href="#e"/><use x="150" xlink:href="#g"/><use x="200" xlink:href="#f"/><use x="250" xlink:href="#d"/><use x="300" xlink:href="#g"/><use x="350" xlink:href="#f"/><use x="400" xlink:href="#d"/><use x="450" xlink:href="#g"/></g></g><g><use x="504.284" y="333.36" stroke="#000" stroke-width=".8" xlink:href="#b"/><g transform="matrix(0 -.1 -.1 0 507.09666 390.36)"><use xlink:href="#c"/><use x="50" xlink:href="#d"/><use x="100" xlink:href="#e"/><use x="150" xlink:href="#g"/><use x="200" xlink:href="#f"/><use x="250" xlink:href="#d"/><use x="300" xlink:href="#i"/><use x="350" xlink:href="#f"/><use x="400" xlink:href="#c"/><use x="450" xlink:href="#e"/></g></g><g><use x="517.369" y="333.36" stroke="#000" stroke-width=".8" xlink:href="#b"/><g transform="matrix(0 -.1 -.1 0 520.181941 390.36)"><use xlink:href="#c"/><use x="50" xlink:href="#d"/><use x="100" xlink:href="#e"/><use x="150" xlink:href="#g"/><use x="200" xlink:href="#f"/><use x="250" xlink:href="#d"/><use x="300" xlink:href="#k"/><use x="350" xlink:href="#f"/><use x="400" xlink:href="#d"/><use x="450" xlink:href="#j"/></g></g><g><use x="530.455" y="333.36" stroke="#000" stroke-width=".8" xlink:href="#b"/><g transform="matrix(0 -.1 -.1 0 533.267222 390.36)"><use xlink:href="#c"/><use x="50" xlink:href="#d"/><use x="100" xlink:href="#e"/><use x="150" xlink:href="#g"/><use x="200" xlink:href="#f"/><use x="250" xlink:href="#d"/><use x="300" xlink:href="#l"/><use x="350" xlink:href="#f"/><use x="400" xlink:href="#e"/><use x="450" xlink:href="#g"/></g></g><g><use x="543.54" y="333.36" stroke="#000" stroke-width=".8" xlink:href="#b"/><g transform="matrix(0 -.1 -.1 0 546.352503 390.36)"><use xlink:href="#c"/><use x="50" xlink:href="#d"/><use x="100" xlink:href="#e"/><use x="150" xlink:href="#g"/><use x="200" xlink:href="#f"/><use x="250" xlink:href="#d"/><use x="300" xlink:href="#m"/><use x="350" xlink:href="#f"/><use x="400" xlink:href="#c"/><use x="450" xlink:href="#h"/></g></g><g><use x="556.625" y="333.36" stroke="#000" stroke-width=".8" xlink:href="#b"/><g transform="matrix(0 -.1 -.1 0 559.437784 390.36)"><use xlink:href="#c"/><use x="50" xlink:href="#d"/><use x="100" xlink:href="#e"/><use x="150" xlink:href="#g"/><use x="200" xlink:href="#f"/><use x="250" xlink:href="#e"/><use x="300" xlink:href="#e"/><use x="350" xlink:href="#f"/><use x="400" xlink:href="#e"/><use x="450" xlink:href="#g"/></g></g><g><use x="569.711" y="333.36" stroke="#000" stroke-width=".8" xlink:href="#b"/><g transform="matrix(0 -.1 -.1 0 572.523065 390.36)"><use xlink:href="#c"/><use x="50" xlink:href="#d"/><use x="100" xlink:href="#e"/><use x="150" xlink:href="#g"/><use x="200" xlink:href="#f"/><use x="250" xlink:href="#e"/><use x="300" xlink:href="#c"/><use x="350" xlink:href="#f"/><use x="400" xlink:href="#c"/><use x="450" xlink:href="#h"/></g></g><g stroke="#000" stroke-width=".8"><use x="582.796" y="333.36" xlink:href="#b"/><use x="595.881" y="333.36" xlink:href="#b"/></g></g><g stroke-linejoin="round"><g><use x="47.106" y="318.535" stroke="#000" stroke-width=".8" xlink:href="#n"/><g transform="matrix(.1 0 0 -.1 30.10625 321.972045)"><use xlink:href="#d"/><use x="50" xlink:href="#o"/></g></g><g><use x="47.106" y="262.278" stroke="#000" stroke-width=".8" xlink:href="#n"/><g transform="matrix(.1 0 0 -.1 25.10625 265.715671)"><use xlink:href="#i"/><use x="50" xlink:href="#d"/><use x="100" xlink:href="#o"/></g></g><g><use x="47.106" y="206.022" stroke="#000" stroke-width=".8" xlink:href="#n"/><g transform="matrix(.1 0 0 -.1 20.10625 209.459297)"><use xlink:href="#e"/><use x="50" xlink:href="#d"/><use x="100" xlink:href="#d"/><use x="150" xlink:href="#o"/></g></g><g><use x="47.106" y="149.765" stroke="#000" stroke-width=".8" xlink:href="#n"/><g transform="matrix(.1 0 0 -.1 20.10625 153.202923)"><use xlink:href="#e"/><use x="50" xlink:href="#i"/><use x="100" xlink:href="#d"/><use x="150" xlink:href="#o"/></g></g><g><use x="47.106" y="93.509" stroke="#000" stroke-width=".8" xlink:href="#n"/><g transform="matrix(.1 0 0 -.1 20.10625 96.946548)"><use xlink:href="#c"/><use x="50" xlink:href="#d"/><use x="100" xlink:href="#d"/><use x="150" xlink:href="#o"/></g></g><g><use x="47.106" y="37.253" stroke="#000" stroke-width=".8" xlink:href="#n"/><g transform="matrix(.1 0 0 -.1 20.10625 40.690174)"><use xlink:href="#c"/><use x="50" xlink:href="#i"/><use x="100" xlink:href="#d"/><use x="150" xlink:href="#o"/></g></g><g><path d="m34.765625 40.625q9.765625.390625 17.96875 1.171875 7.8125 4.6875 7.609375 6.640625-.1875 1.953125 2.15625.78125 2.34375-1.171875 4.09375-3.125 1.765625-1.953125-.578125-2.546875-2.34375-.578125-9.1875-4.296875-6.828125-3.703125-21.671875-11.515625 15.625 1.171875 28.125 2.34375-1.953125 1.953125-3.515625 4.296875-1.5625 2.34375 1.359375 1.5625 2.9375-.78125 7.625-3.71875 4.6875-2.921875 4.296875-6.640625-.390625-3.703125-2.15625-2.921875-1.75.78125-6.828125 5.46875-7.8125-.78125-15.234375-1.953125 4.6875-3.125 3.515625-5.28125-1.171875-2.140625-.984375-8.203125.203125-6.046875.390625-9.5625.203125-3.515625-2.34375-7.421875-2.53125-3.90625-4.09375-.1875-1.5625 3.703125-6.0625 7.21875-4.484375 3.515625.203125 2.140625 4.6875-1.359375 6.046875-.1875 1.375 1.171875.984375 9.5625-.390625 8.40625-1.953125 11.140625-14.0625-2.34375-16.21875-3.515625-2.140625-1.171875-3.3125 0-1.171875 1.171875-1.765625 3.3125-.578125 2.15625 5.28125 3.328125 5.859375 1.171875 21.875 10.9375-16.40625-2.34375-18.953125-3.515625-2.53125-1.171875-3.703125.390625-1.171875 1.5625-1.5625 2.921875-.390625 1.375 2.53125 2.15625 2.9375.78125 7.625 4.296875 4.6875 3.515625 4.6875 5.078125l-5.859375-.78125q-1.953125-3.90625-3.71875-.390625-1.75 3.515625-4.09375 10.34375-2.34375 6.84375-5.28125 10.546875-2.921875 3.71875-.578125 3.71875 2.734375 0 5.46875-.78125 2.734375-.78125 11.90625.578125 9.1875 1.375 17.390625 2.734375 8.203125 1.375 10.15625 2.34375 1.953125.984375 5.078125-.1875 3.125-1.171875 6.4375-3.90625 3.328125-2.734375.59375-4.6875-2.734375-1.953125-5.859375-8.203125-3.125-6.25-5.671875-9.765625-2.53125-3.515625-5.265625.390625-7.03125-.78125-16.015625-1.5625 1.171875-.390625 1.953125-.78125 2.34375-1.171875-.59375-2.15625-2.921875-.96875-12.296875-7.609375zm15.234375 14.453125q5.078125.390625 7.8125.78125 2.734375.390625 5.078125-.78125 2.734375 3.515625 4.484375 10.34375 1.765625 6.84375.59375 8.40625-1.171875 1.5625-6.84375.78125-5.65625-.78125-13.078125-2.34375 2.34375-1.171875 2.140625-2.546875-.1875-1.359375-.1875-4.09375 3.90625.390625 5.859375.78125 1.953125.390625 3.703125-.984375 1.765625-1.359375-.578125-2.34375-2.34375-.96875-8.984375-1.75zm-5.859375 16.40625q-6.640625-.78125-13.671875-1.5625 2.34375-8.203125 4.296875-16.796875 5.46875.78125 10.9375 1.171875v6.25q-2.34375-.390625-4.5-.203125-2.140625.203125-3.703125 1.5625-1.5625 1.375.78125 1.5625 2.34375.203125 7.03125.984375 0 5.078125-1.171875 7.03125zm27.34375-56.25q3.125-1.171875 5.46875-3.515625 2.34375-2.34375 1.75-6.25-.578125-3.90625-2.921875-2.734375-2.34375 1.171875-4.6875 3.703125-2.34375 2.546875-5.859375 6.84375-3.515625 4.296875 0 3.703125 3.515625-.578125 6.25-1.75zm-46.09375.390625q2.34375 3.90625 3.125-.984375.78125-4.875-4.109375-10.9375-4.875-6.046875-5.859375-2.734375-.96875 3.328125 1.953125 7.03125 2.9375 3.71875 4.890625 7.625z" transform="matrix(0 -.1 -.1 0 14.85625 190.28)"/><path d="m67.578125 46.484375q10.15625 1.5625 13.671875 2.34375 3.515625.78125 7.421875-.984375 3.90625-1.75.1875-2.734375-3.703125-.96875-21.28125-2.53125 0-24.21875-.390625-37.703125-.390625-13.46875-2.734375-13.65625-2.34375-.203125-2.34375 13.078125v37.5q-10.15625-1.953125-14.265625-2.9375-4.09375-.96875-7.8125 1.5625-3.703125 2.546875.203125 2.734375 3.90625.203125 8.203125.59375 4.296875.390625 13.671875 1.953125 0 14.453125-.203125 20.3125-.1875 5.859375-2.140625 9.765625-1.953125 3.90625 1.5625 2.921875 3.515625-.96875 6.828125-2.921875 3.328125-1.953125 1.171875-5.28125-2.140625-3.3125-1.75-24.015625zm-39.453125-26.953125q7.03125 3.515625 11.125 5.46875 4.109375 1.953125 1.953125 0-2.140625-1.953125-8-7.234375-5.859375-5.265625-8.40625-9.375-2.53125-4.09375-4.875.390625-2.34375 4.5-.203125 6.453125 2.15625 1.953125 3.515625 6.25 1.375 4.296875 1.953125 10.734375.59375 6.453125.78125 9.375.203125 2.9375-3.703125 1.765625-3.90625-1.171875-6.640625-2.546875-2.734375-1.359375-6.453125.59375-3.703125 1.953125.59375 2.53125 4.296875.59375 9.765625 2.34375 5.46875 1.765625 6.640625 3.71875 1.171875 1.953125 4.6875.78125 5.46875-1.5625 3.3125-3.515625-2.140625-1.953125-3.125-5.28125-.96875-3.3125-2.921875-22.453125zm1.953125 55.859375q4.6875-.390625 6.828125-2.34375 2.15625-1.953125 1.375-5.46875-.78125-3.515625-5.28125-.984375-4.484375 2.546875-8.203125 6.0625-3.703125 3.515625 5.28125 2.734375z" transform="matrix(0 -.1 -.1 0 14.85625 190.28) translate(100)"/><path d="m54.296875 45.3125q-3.125-3.515625-5.46875-4.890625-2.34375-1.359375-.984375.984375 1.375 2.34375 4.6875 8.203125 3.328125 5.859375 5.46875 12.890625 2.15625 7.03125 1.765625 9.953125-.390625 2.9375.78125 2.734375 1.171875-.1875 5.46875-1.953125 4.296875-1.75 2.140625-4.484375-2.140625-2.734375-4.875-8.015625-2.734375-5.265625-7.421875-13.078125 10.546875 3.125 18.75 6.640625 8.203125 3.515625 12.6875 1.75 4.5-1.75-2.921875-4.484375-7.421875-2.734375-15.234375-5.078125 3.90625-3.125 2.921875-6.640625-.96875-3.515625-1.359375-7.625-.390625-4.09375-3.125-11.515625 4.296875-4.296875 11.125-8.40625 6.84375-4.09375 13.671875-5.46875 6.84375-1.359375 2.15625-2.34375-4.6875-.96875-10.9375-1.171875-6.25-.1875-9.765625 2.9375l-9.375 9.765625q-4.296875-4.296875-9.1875-6.453125-4.875-2.140625-10.9375-2.34375-6.046875-.1875-.78125 1.5625 5.28125 1.765625 9.765625 4.5 4.5 2.734375 8.015625 7.421875-2.734375 3.515625-6.25 8.390625-3.515625 4.890625-6.453125 7.234375-2.921875 2.34375-1.171875 2.53125 1.765625.203125 3.328125-.578125 1.5625-.78125 3.703125-3.125 2.15625-2.34375 8.796875-10.15625 1.953125 4.296875 2.34375 11.515625.390625 7.234375-1.171875 8.796875-7.03125-.78125-10.15625 0zm-16.015625 7.421875q-.78125-14.84375-.78125-19.53125 0-4.296875-.390625-21.296875-.390625-16.984375-1.953125-17.5625-1.5625-.59375-3.125 3.703125-1.5625 4.296875-.59375 7.8125.984375 3.515625 1.375 23.046875-14.453125-10.9375-17.578125-15.234375-3.125-4.296875-4.6875-3.328125-1.5625.984375-2.34375 3.515625-.78125 2.546875 1.75 4.6875 2.546875 2.15625 5.28125 6.0625 2.734375 3.90625 1.953125 13.078125-.78125 9.1875-2.9375 12.3125-2.140625 3.125.78125 2.53125 2.9375-.578125 5.28125-1.75 2.34375-1.171875 1.75-4.296875-.578125-3.125-.96875-11.921875-.390625-8.78125 2.34375-7.421875 2.734375 1.375 9.375 4.890625v27.34375q0 8.59375-1.5625 11.71875-1.5625 3.125.390625 2.921875 1.953125-.1875 5.859375-2.140625 3.90625-1.953125 2.53125-5.078125-1.359375-3.125-1.75-14.0625z" transform="matrix(0 -.1 -.1 0 14.85625 190.28) translate(200)"/><path d="m70.3125 6.640625q6.640625.390625 10.546875.578125 3.90625.203125 7.21875-.578125 3.328125-.78125 4.890625-2.9375 1.5625-2.140625.1875-2.921875-1.359375-.78125-8.984375.1875-7.609375.984375-18.15625.78125-10.546875-.1875-21.296875-1.171875-10.734375-.96875-19.53125-2.328125-8.78125-1.375-11.90625-1.375-3.125 0-6.0625 2.9375-2.921875 2.921875 1.953125 2.53125 4.890625-.390625 20.515625 1.171875-2.734375 15.625-5.46875 18.9375-2.734375 3.328125 0 3.328125 2.734375 0 4.296875-.390625 1.5625-.390625 4.875-.203125 3.328125.203125 18.171875 1.953125 14.84375 1.765625 16.40625 2.734375 1.5625.984375 6.640625-1.75 5.078125-2.734375 2.140625-5.078125-2.921875-2.34375-6.4375-16.40625zm-25.390625 44.140625q12.890625 2.34375 20.890625 3.703125 8.015625 1.375 10.359375-.578125 2.34375-1.953125-3.125-3.515625-5.46875-1.5625-12.5-2.15625-7.03125-.578125-17-1.75-9.953125-1.171875-15.234375.1875-5.265625 1.375-.78125 1.765625 4.5.390625 17.390625 2.34375zm11.71875-25.78125q3.90625-2.734375 2.921875-4.5-.96875-1.75-3.703125-15.03125l10.546875.78125q2.734375 17.1875 1.359375 18.359375-1.359375 1.171875-4.6875.96875-3.3125-.1875-6.4375-.578125zm-14.0625-1.5625q1.171875-1.5625 2.140625-5.28125.984375-3.703125-.96875-13.46875l8.59375.78125q.78125 6.640625.96875 10.734375.203125 4.109375-.1875 8.40625zm-11.71875-1.171875q1.953125-14.84375 2.34375-18.359375l8.203125.78125q-.78125 7.421875-.984375 11.515625-.1875 4.109375-.578125 6.84375zm34.375 20.3125q5.859375-1.171875 8.390625-3.90625 2.546875-2.734375 1.953125-5.28125-.578125-2.53125-4.875-.1875-4.296875 2.34375-11.71875 6.828125-7.421875 4.5-3.515625 4.296875 3.90625-.1875 9.765625-1.75zm3.515625 30.859375q2.34375-1.171875 3.515625-2.734375 1.171875-1.5625-.78125-2.34375-1.953125-.78125-7.234375-4.890625-5.265625-4.09375-8.78125-5.65625-3.515625-1.5625-3.515625-1.171875 0 .78125 2.140625 2.734375 2.15625 1.953125 5.671875 6.046875 3.515625 4.109375 3.703125 6.84375.203125 2.734375 1.765625 2.53125 1.5625-.1875 3.515625-1.359375zm-31.640625-31.25q.390625 2.34375 4.6875-.59375 4.296875-2.921875 2.34375-4.09375-1.953125-1.171875-8.796875-4.6875-6.828125-3.515625-13.28125-4.890625-6.4375-1.359375-.390625 1.5625 6.0625 2.9375 10.75 6.84375 4.6875 3.90625 4.6875 5.859375zm-3.515625 22.265625q-2.34375 2.34375-2.9375 3.703125-.578125 1.375 5.46875.203125 6.0625-1.171875 6.640625-4.6875.59375-3.515625-.390625-4.890625-.96875-1.359375-3.703125.984375-2.734375 2.34375-5.078125 4.6875z" transform="matrix(0 -.1 -.1 0 14.85625 190.28) translate(300)"/></g></g><g fill="none" stroke-linecap="square"><path stroke="#5b9bd5" stroke-linejoin="round" stroke-width="2" d="m72.469886 318.534545.436176-3.424007h.436176l.436176-1.544886h.872353l.436176.76847.436176-1.583007.436176-.150506h1.308528l.436176.664231.436176-3.679607h.872352l.436176-3.713648h1.308528l.436176-3.832995h1.744704l.436176-1.804684.436176.681412h5.670289l.436176-2.178482h.872352l.436176.347283.436176.858193h.436176l.436176.745486h.436176l.436176-3.988463h1.744704l.436176.717551h.872352l.436176 1.041718h.436176l.436176-.797763.436176.744237h.872352l.436176-4.015341h.872353l.436176.747724h.872352l.436176.708678.436176-4.177664h1.308528l.436176-3.214169h2.18088l.436176.845042.436176.128144h.436176l.436176-3.492446h1.744704l.872352 1.596597h2.180881l.872352 1.729984.436176-.202956.436176.807459.436176.46931.436176.740275.436176-1.581527.436176-.384297h.872352l.436176-1.754551.436176-2.41789h.436176l.872352-.766661.436176-1.050749.436176-.287614.436176.121766.436176-2.468853.436176-1.787717h.436176l.436176-1.082278h.872352l.436176-4.658589h3.489409l.436176.841785h1.308528l.436176.925965h1.308528l.436176-.780263h1.744704l.436176 1.011312h.872352l.436176 1.371228h.436176l.436176.845263h1.744704l.436176-4.83594h1.308529l.436176.8898h1.308528l.436176-1.721564h.872352l.436176-1.639817h.436176l.436176.700351.436176-5.069131h3.053232l.872352 1.869386h1.308528l.436176 1.048376h1.744704l.436177-1.563046.436176-5.009632.872352.04514.436176-5.051751.436176.94512h.872352l.436176 1.078577 3.053232-.020929.436176-3.324442h1.744704l.436176-2.260739.436176-5.053259.436176 1.183676h.872352l1.308528 3.069272h.436176l.436177-2.485892.872352 2.02211h.436176l.436176-1.481183.436176.974209h.436176l.436176-1.137651h1.744704l.436176 1.365341h.436176l.436176-.293497.436176-.587076.872352 1.947034h1.744704l.436176.623307.872352-2.811413.872352 2.039971.436176-.749281.436176 1.113896h.436177l.436176-1.40544.436176.079188.436176.959696h.436176l1.744704 3.820552h.436176l.436176.913407.436176-3.525269.436176.509186h.436176l.436176.929765h2.617056l.436176-.592412.436176.975004.436176.605478.436176-4.186666.872352.0713.436176-1.470713h.872352l.436177.943748.436176.416738.872352-2.315636.436176-.605367.436176.948242.436176-2.377751h.872352l.436176-.430306.436176 1.018691.436176-.849852.436176-2.646428.436176.976975.436176-.398174.436176-.616526.436176 1.317469.436176-5.646214h.436176l.436176.4268h.436176l.436176-.414272.436176-.712415.436176-1.562983.436176.001595.436176.742048 1.308528 3.164939.436176-1.134452.436177-2.359092.872352 2.184712h.436176l.436176.563145.436176-1.506825h.872352l.436176-4.702383 2.18088.012912.436176 1.070764.436176-.223823.872352 2.223855h.872352l.436176 1.012763.436176-3.961328h2.18088l.436176 1.13665h2.180881l.436176-.451945.436176 1.055592h1.308528l.436176-1.567757.436176-.345876.436176 1.709561h.872352l.872352 2.233856h.436176l.436176 1.012813.872352-3.467861.436176 1.293249h2.18088l.872352 2.617901.436176-.761417.436176-5.766033h2.617057l.436176-2.474848h3.053232l.436176 1.270853h3.053232l.436176 1.105097h.436176l.436176 1.054743.436176-3.48498h3.053233l.436176 1.485159.436176 1.090819.436176-4.90282h.872352l.436176 1.080981h.436176l.872352 2.385744h.872352l.436176-2.999173h.436176l.436176-4.396764h.436176l.436176 1.18892h3.053232l.436176 1.219451.436176-1.455163.436176-5.320161h1.308529l.436176-6.446515h.436176l.436176 1.324515h4.36176l.436176 1.176601.436176-1.030167.436176-1.522842h2.18088l.872352 2.746604h1.744704l.872353 2.513412h.436176l.436176-.163811.872352 2.190929.436176-1.74729.436176 1.216055.436176-1.722631h.436176l.436176-.679953h.872352l.436176-2.03012h.436176l1.308528 3.620501.436176-1.12716h.436176l.436176.172998.436176 1.138864.436176.074921.436176-.926621.436176-4.250206.436176-1.077562.436176 1.132616.436176-4.015153h3.053233l.436176-1.484954.436176 1.909665h.436176l.436176-1.902843.436176-.597488.436176 1.253015h.436176l.436176 1.23122.436176-.006007.436176-2.273323.872352-.103322h.436176l.436176-.135699.436176-1.08544.436176.560918.872352 2.701464.436176-.242269.436176-3.174079.436176 1.385256.436176-2.182458h.436176l.436176-1.0421.872353 2.464049h.436176l.436176 1.223609.436176-3.663076.436176.539321.436176-.723769h.436176l.436176-4.013209.436176.817838.436176 1.204138.436176-3.008811h.436176l.872352 2.478569.436176-2.252775 1.308528 3.766111.436176-.414318.436176 1.191741.436176-1.444342.436176-2.894777.436176.008603.436176.605754.436176-1.794164.436176-2.850133.872352.206871h.436176l.436177.389474h.436176l.436176-4.084912.872352-1.410724.872352 2.632444.436176-2.757116.436176-.701124h.872352l.436176-1.436437.436176-.15435.436176.088642.872352 2.598764.872352-.052831.436176.289457.436176.107551.436176-1.281515.872352-3.101663.436176-.01204.872352 2.598026.436176-.506107.436176-2.719747.436176-.504878.436177-.179051.436176.691074.436176-.346951.872352 2.579507.436176-.889779.436176 1.545597.872352-3.128631.436176.113527.436176 1.430931h.436176l.436176 1.284508.436176-1.091058.436176 1.358519.436176-.62365h.436176l.436176-7.718818.436176.345488.436176 1.405972h.872352l.436176 1.438014.436176-4.849342.436176-2.198242.436176-1.047135.436176-3.592319.436176-.343354h.436176l.436176 1.663724h.872353l.436176-5.982603h2.18088l.436176 1.568329h.436176l.436176 1.436411h.436176l.436176.667294.436176-1.493502.436176-2.403407.436176.255164.436176 1.648703.436176-5.210891.872352 3.087016h.436176l.436176-3.196446.436176.281695h.436176l.436176-1.2353h1.744704l.436177-1.384311h.436176l.436176 1.568608.436176-.653279h2.18088l.436176 1.610298h.436176l.436176-.194488.436176 1.462973h1.308528l.436176-8.418354.436176-.905206h.872352l.436176-.113752.436176 1.42251h.436176l.436176-8.155922h2.617056l.436177-8.366449h1.744704l.436176-1.821412h1.308528l.436176 2.447748h.436176l.436176-8.77496h.436176l.436176-2.580516h1.308528l.436176 1.803095h.436176l.436176 2.334642.436176.468444.436176 1.625872h.436176l.436176 1.712489.436176 1.201134h.872352l.436176-2.480191h.436176l.436176 1.808487h.872353l.436176-2.108387.436176.46887.436176-4.991958h.872352l.436176 1.606291h4.36176l.436176-1.807593h1.744704l.436176-5.016577h1.744704l.436176 1.707085h.436177l.436176 1.59855h.436176l.436176 1.598223.436176 2.567773h.436176l.436176 1.542552h.436176l.872352 3.248069h.436176l.436176-2.523255h.436176l.436176-.969834.436176-4.553062h.436176l.436176-3.545478h3.925584l.436176 1.586373h.436176l.436176-2.004015h3.489409l.436176 1.645255h.872352l.436176 1.680587.436176-3.158499.436176 1.664049.436176-2.055123.436176-.984617.872352 3.269552.872352-.939773h15.702337l.436176 1.637052h2.180881l.436176 2.314448h1.308528l.436176 2.924361h4.36176l.436176-.518458.436176.411252h.436176l.436176-5.378377.436176-3.989438h.436176l.436176 1.69479h.436176l.436176-2.054194.436176-4.119974h.872352l.436176-.592776h.436177l.436176-2.004103.436176 1.800323h1.308528l.436176-1.970576h.436176l.436176.791021.872352-2.469354h.436176l.872352.114276.436176-2.185742h2.617056l.436176.591511h.872352l.436176 2.05213h.436176l.436176 1.729126h.872352l.436177 1.684534.436176-3.040827h.436176l.436176-.870917h1.308528l.436176 1.876007h3.053232l.436176-2.900028.436176-.645182h1.744704l.436176-2.087547.436176 1.339398.436176.08904.436176-5.889603.436176-1.293883h.436176l.436176-3.390061.436176-6.073387.436176 1.886597h.872353l.872352-4.030799.436176-.450017h.872352l.436176-1.177639.436176-2.682049 4.36176.098052.436176 1.778069.436176-4.893779h.436176l.436176-.994971.436176 2.024223h.872352l.436176-3.610574h.436176l.872352-3.518505h.436177l.436176-1.120443h.436176l.436176-1.078216.436176-2.161612h.872352l.436176-3.03095.436176-1.150071h2.617056l.436176-2.049582.436176 2.91438h3.053232l.436176-3.27959.436176 2.087997h2.180881l.436176 2.38743h1.308528l.436176 2.126816h.436176l.436176-4.303377h.436176l.872352 4.214831.436176.41076h.436176l.436176-1.628672.436176 1.862334h.872352l.436176 1.999934h.872352l.872352 3.818585h.436176l.436176-2.2457.436176-1.062758.872352 4.491143.436176-.999551h1.308529l.436176-2.361485h.436176l.436176-2.335563.436176 1.934173.436176-.460257.436176-2.284605h.436176l.436176 2.257882h.436176l.872352 3.88193h.436176l.436176-2.168951.872352 3.60734.436176-.611795.872352-6.150151.436176.300508h.436176l.436176.297652.436176-.158252h.436176l.436176 1.987181.436176-.859427.436176 1.831659.436176-3.342348.872353.00434.436176-.554037.872352 2.497768.436176 1.85317h.436176l.436176-.443634h.436176l.436176-.314141h.436176l.436176 1.886547.436176-.792045.436176-4.886935.436176.824121.436176.037186.436176-3.092187.436176-.190367h.436176l1.308528-.836119.436176-2.995078.436176 1.857878h1.744704l.436176 2.066707h1.308529l.436176-2.006268.872352 3.716706h.872352l.436176 1.903605.436176.158184.436176 2.65393.436176 1.915753h.436176l.436176-.250083.436176-.65953.436176.508698.872352-2.559031h.436176l.436176.485058.436176 1.87589.436176-2.97822.436176-.137158.436176-5.89493.436176.74225.436176-4.126735h.436176l.436176.563929.436176.362649.436176 1.86871h1.308529l.436176.159129h1.308528l.436176-.549184.436176-8.104839h1.308528l.436176-.726236 1.308528 6.248916h.436176l.872352 4.176706.436176.818457h1.308528l.872352 3.970186.436176-1.587618.436176.599187.436176-5.669022.436176 1.875609.436176-1.134799h.436177l.436176 1.88951.436176-.013566.872352 1.816374.436176 1.952436h2.617056l.436176-2.145252h.872352l.436176 2.099819h.436176l.436176 1.883071h1.744704l.436176-11.361043h10.468225l.436176-5.918963h1.744704l.436176 1.916809h1.308528l.436176-10.987042h1.308529l.436176-11.703996h1.308528" clip-path="url(#a)"/><path stroke="#ed7d31" stroke-linejoin="round" stroke-width="2" d="m72.469886 318.534545.436176-4.135937h.436176l.436176-1.554373h.872353l.436176.773189.436176-1.592728.436176-.15143h1.308528l.436176.668309.436176-3.556437h.872352l.436176-4.64347h1.308528l.436176-4.425851h1.744704l.436176-1.834379.436176.692625h5.670289l.436176-2.214329h.872352l.436176.352998.436176.872314h.436176l.436176.757752h.436176l.436176-4.985988h1.744704l.436176.734335h.872352l.436176 1.066085h.436176l.436176-.816424.436176.761646h.872352l.436176-4.772749h.872353l.436176.768845h.872352l.436176.728696.436176-4.844838h1.308528l.436176-3.317621h2.18088l.436176.872242.436176.132268h.436176l.436176-3.604855h1.744704l.872352 1.647986h2.180881l.872352 1.785665.436176-.209489.436176.833448.436176.484415.436176.764102.436176-1.63243.436176-.396666h.872352l.436176-1.811023.436176-2.495712h.436176l.872352-.791338.436176-1.084568.436176-.296871.436176.125685.436176-2.548317.436176-1.845256h.436176l.436176-1.117112h.872352l.436176-5.64776h3.489409l.436176.873347h1.308528l.436176.960684h1.308528l.436176-.809519h1.744704l.436176 1.049231h.872352l.436176 1.422642h.436176l.436176.876956h1.744704l.436176-5.601623h1.308529l.436176.92644h1.308528l.436176-1.792452h.872352l.436176-1.70734h.436176l.436176.729189.436176-6.136014h3.053232l.872352 1.956052h1.308528l.436176 1.096979h1.744704l.436177-1.63551.436176-6.034075.872352.047444.436176-5.507779.436176.994436h.872352l.436176 1.134856 3.053232-.022021.436176-3.49791h1.744704l.436176-2.378703.436176-5.316937.436176 1.24544h.872352l1.308528 3.229425h.436176l.436177-2.615604.872352 2.127623h.436176l.436176-1.558471.436176 1.025043h.436176l.436176-1.197013h1.744704l.436176 1.436584h.436176l.436176-.308811.436176-.61771.872352 2.048629h1.744704l.436176.655831.872352-2.958111.872352 2.146416.436176-.788379.436176 1.17202h.436177l.436176-1.478776.436176.08332.436176 1.009773h.436176l1.744704 4.019907h.436176l.436176.961068.436176-3.709216.436176.535755h.436176l.436176.978279h2.617056l.436176-.623324.436176 1.025879.436176.637072.436176-4.405125.872352.075021.436176-1.547454h.872352l.436177.992992.436176.438483.872352-2.436464.436176-.636956.436176.997721.436176-2.501821h.872352l.436176-.452759.436176 1.071846.436176-.894196.436176-2.784519.436176 1.027954.436176-.41895.436176-.648696.436176 1.386213.436176-4.62948h.436176l.436176.446134h.436176l.436176-.433038.436176-.744689.436176-1.633787.436176.001667.436176.775664 1.308528 3.308313.436176-1.185844.436177-2.465961.872352 2.283682h.436176l.436176.588655.436176-1.575084h.872352l.436176-4.915406 2.18088.013498.436176 1.11927.436176-.233962.872352 2.324597h.872352l.436176 1.058642.436176-4.14078h2.18088l.436176 1.188142h2.180881l.436176-.472418.436176 1.103411h1.308528l.436176-1.638778.436176-.361544.436176 1.787005h.872352l.872352 2.335051h.436176l.436176 1.058694.872352-3.624957.436176 1.351834h2.18088l.872352 2.736494.436176-.795909.436176-4.835736h2.617057l.436176-2.572h3.053232l.436176 1.320741h3.053232l.436176 1.148479h.436176l.436176 1.096148.436176-3.621786h3.053233l.436176 1.54346.436176 1.13364.436176-5.095285h.872352l.436176 1.123416h.436176l.872352 2.479399h.872352l.436176-3.116908h.436176l.436176-4.569364h.436176l.436176 1.235592h3.053232l.436176 1.267322.436176-1.512287.436176-5.529009h1.308529l.436176-6.644905h.436176l.436176 1.376176h4.36176l.436176 1.222493.436176-1.070348.436176-1.582238h2.18088l.872352 2.853732h1.744704l.872353 2.611445h.436176l.436176-.170201.872352 2.276384.436176-1.815441.436176 1.263485.436176-1.78982h.436176l.436176-.706473h.872352l.436176-2.109302h.436176l1.308528 3.761713.436176-1.171123h.436176l.436176.179746.436176 1.183284.436176.077843.436176-.962762.436176-4.415981.436176-1.119591.436176 1.176793.436176-4.17176h3.053233l.436176-1.542872.436176 1.984149h.436176l.436176-1.977061.436176-.620792.436176 1.301887h.436176l.436176 1.279242.436176-.006242.436176-2.36199.872352-.107352h.436176l.436176-.140992.436176-1.127776.436176.582796.872352 2.806831.436176-.251719.436176-3.297879.436176 1.439286.436176-2.267582h.436176l.436176-1.082746.872353 2.560156h.436176l.436176 1.271334.436176-3.805949.436176.560356.436176-.751998h.436176l.436176-4.169739.436176.849736.436176 1.251104.436176-3.126166h.436176l.872352 2.575243.436176-2.340642 1.308528 3.913004.436176-.430479.436176 1.238223.436176-1.500676.436176-3.007684.436176.008938.436176.629381.436176-1.864143.436176-2.961298.872352.214939h.436176l.436177.404665h.436176l.436176-4.244239.872352-1.465748.872352 2.73512.436176-2.864654.436176-.72847h.872352l.436176-1.492463.436176-.160371.436176.0921.872352 2.700125.872352-.054892.436176.300747.436176.111746.436176-1.331499.872352-3.222639.436176-.01251.872352 2.699359.436176-.525847.436176-2.825827.436176-.524571.436177-.186035.436176.718029.436176-.360483.872352 2.680118.436176-.924485.436176 1.605881.872352-3.250659.436176.117955.436176 1.486742h.436176l.436176 1.33461.436176-1.133613.436176 1.411506.436176-.647975h.436176l.436176-8.721612.436176.35994.436176 1.464781h.872352l.436176 1.498165.436176-5.052183.436176-2.290191.436176-1.090934.436176-3.742581.436176-.357715h.436176l.436176 1.733315h.872353l.436176-6.232846h2.18088l.436176 1.63393h.436176l.436176 1.496493h.436176l.436176.695206.436176-1.555973.436176-2.503938.436176.265837.436176 1.717666.436176-5.428854.872352 3.216141h.436176l.436176-3.330148.436176.293478h.436176l.436176-1.286971h1.744704l.436177-1.442214h.436176l.436176 1.63422.436176-.680605h2.18088l.436176 1.677655h.436176l.436176-.202624.436176 1.524168h1.308528l.436176-7.804006.436176-.939855h.872352l.436176-.118107.436176 1.476961h.436176l.436176-10.138628h2.617056l.436177-6.422126h1.744704l.436176-1.887378h1.308528l.436176 2.536398h.436176l.436176-10.542883h.436176l.436176-2.686598h1.308528l.436176 1.877218h.436176l.436176 2.430616.436176.487702.436176 1.692709h.436176l.436176 1.782888.436176 1.25051h.872352l.436176-2.582149h.436176l.436176 1.882832h.872353l.436176-2.19506.436176.488145.436176-5.19717h.872352l.436176 1.672323h4.36176l.436176-1.881901h1.744704l.436176-5.222801h1.744704l.436176 1.77726h.436177l.436176 1.664265h.436176l.436176 1.663923.436176 2.673331h.436176l.436176 1.605964h.436176l.872352 3.381593h.436176l.436176-2.626983h.436176l.436176-1.009703.436176-4.740231h.436176l.436176-3.691229h3.925584l.436176 1.651587h.436176l.436176-2.086397h3.489409l.436176 1.712889h.872352l.436176 1.749674.436176-3.288341.436176 1.732457.436176-2.139608.436176-1.025093.872352 3.403959.872352-.978405h15.702337l.436176 1.704349h2.180881l.436176 2.409592h1.308528l.436176 3.044577h4.36176l.436176-.539771.436176.428158h.436176l.436176-5.599476.436176-4.153437h.436176l.436176 1.76446h.436176l.436176-2.138639.436176-4.289341h.872352l.436176-.617144h.436177l.436176-2.086489.436176 1.874331h1.308528l.436176-2.051583h.436176l.436176.823539.872352-2.570866h.436176l.436176.118974h.436176l.436176-2.275595h2.617056l.436176.615827h.872352l.436176 2.136491h.436176l.436176 1.800207h.872352l.436177 1.753783.436176-3.165831h.436176l.436176-.906719h1.308528l.436176 1.953128h3.053232l.436176-3.019245.436176-.671705h1.744704l.436176-2.173363.436176 1.394459.436176.0927.436176-6.131717.436176-1.347073h.436176l.436176-3.529422.436176-6.323055.436176 1.964153h.872353l.872352-4.1965.436176-.468517h.872352l.436176-1.22605.436176-2.792305 4.36176.102084.436176 1.851163.436176-5.094956h.436176l.436176-1.035874.436176 2.107437h.872352l.436176-3.759h.436176l.872352-3.663146h.436177l.436176-1.166503h.436176l.436176-1.12254.436176-2.250473h.872352l.436176-3.155548.436176-1.19735h2.617056l.436176-2.133836.436176 3.034185h3.053232l.436176-3.414409.436176 2.173832h2.180881l.436176 2.485574h1.308528l.436176 2.214247h.436176l.436176-4.480283h.436176l.872352 4.388096.436176.427646h.436176l.436176-1.695624.436176 1.938891h.872352l.436176 2.08215h.872352l.872352 3.975561h.436176l.436176-2.338018.436176-1.106446.872352 4.675768.436176-1.040641h1.308529l.436176-2.458563h.436176l.436176-2.431574.436176 2.013683.436176-.479177.436176-2.378522h.436176l.436176 2.350701h.436176l.872352 4.04151h.436176l.436176-2.258113.872352 3.755633.436176-.636946.872352-6.402975.436176.312861h.436176l.436176.309888.436176-.164756h.436176l.436176 2.068871.436176-.894758.436176 1.906956.436176-3.479747.872353.004518.436176-.576812.872352 2.600448.436176 1.929351h.436176l.436176-.461871h.436176l.436176-.327055h.436176l.436176 1.9641.436176-.824605.436176-5.08783.436176.858.436176.038714.436176-3.219302.436176-.198193h.436176l1.308528-.870491.436176-3.118202.436176 1.934254h1.744704l.436176 2.151666h1.308529l.436176-2.088743.872352 3.869494h.872352l.436176 1.981861.436176.164686.436176 2.763029.436176 1.994507h.436176l.436176-.260363.436176-.686642.436176.529609.872352-2.664229h.436176l.436176.504999.436176 1.953005.436176-3.10065.436176-.142797.436176-6.137263.436176.772763.436176-4.296379h.436176l.436176.587111.436176.377557.436176 1.94553h1.308529l.436176.16567h1.308528l.436176-.571759.436176-8.438019h1.308528l.436176-.75609 1.308528 6.5058h.436176l.872352 4.348405.436176.852103h1.308528l.872352 4.133395.436176-1.652883.436176.623819.436176-5.902068.436176 1.952712.436176-1.181448h.436177l.436176 1.967184.436176-.014124.872352 1.891043.436176 2.032699h2.617056l.436176-2.233441h.872352l.436176 2.18614h.436176l.436176 1.960482h1.744704l.436176-12.621434h10.468225l.436176-6.175393h1.744704l.436176 1.999852h1.308528l.436176-13.634756h1.308529l.436176-5.047822h1.308528" clip-path="url(#a)"/><path stroke="#a5a5a5" stroke-linejoin="round" stroke-width="2" d="m72.469886 318.534545.436176-4.733513h.436176l.436176-1.562335h.872353l.436176.777149.436176-1.600886.436176-.152206h1.308528l.436176.671732.436176-3.574656h.872352l.436176-4.907278h1.308528l.436176-5.13847h1.744704l.436176-1.856786.436176.701085h5.670289l.436176-2.241376h.872352l.436176.35731.436176.882969h.436176l.436176.767008h.436176l.436176-5.427817h1.744704l.436176.74534h.872352l.436176 1.08206h.436176l.436176-.828658.436176.773059h.872352l.436176-4.118231h.872353l.436176.776394h.872352l.436176.73585.436176-5.154563h1.308528l.436176-3.35624h2.18088l.436176.882395.436176.133808h.436176l.436176-3.646818h1.744704l.872352 1.66717h2.180881l.872352 1.806451.436176-.211927.436176.843149.436176.490055.436176.772996.436176-1.651433.436176-.401283h.872352l.436176-1.832105.436176-2.524764h.436176l.872352-.800549.436176-1.097193.436176-.300327.436176.127148.436176-2.57798.436176-1.866737h.436176l.436176-1.130116h.872352l.436176-6.720455h3.489409l.436176.888875h1.308528l.436176.977765h1.308528l.436176-.823912h1.744704l.436176 1.067886h.872352l.436176 1.447937h.436176l.436176.892548h1.744704l.436176-6.595816h1.308529l.436176.947927h1.308528l.436176-1.834026h.872352l.436176-1.746939h.436176l.436176.746102.436176-6.861078h3.053232l.872352 2.008h1.308528l.436176 1.126113h1.744704l.436177-1.678946.436176-6.401828.872352.04876.436176-5.66048.436176 1.022006h.872352l.436176 1.166319 3.053232-.022631.436176-3.594887h1.744704l.436176-2.444652.436176-5.464346.436176 1.279969h.872352l1.308528 3.31896h.436176l.436177-2.688121.872352 2.18661h.436176l.436176-1.601678.436176 1.053461h.436176l.436176-1.2302h1.744704l.436176 1.476413h.436176l.436176-.317373.436176-.634835.872352 2.105426h1.744704l.436176.674013.872352-3.040122.872352 2.205923.436176-.810236.436176 1.204514h.436177l.436176-1.519775.436176.085631.436176 1.037768h.436176l1.744704 4.131356h.436176l.436176.987714.436176-3.812052.436176.550608h.436176l.436176 1.005402h2.617056l.436176-.640605.436176 1.054321.436176.654734.436176-4.527254.872352.077101.436176-1.590358h.872352l.436177 1.020523.436176.45064.872352-2.504014.436176-.654615.436176 1.025382.436176-2.571182h.872352l.436176-.465312.436176 1.101562.436176-.918987.436176-2.861718.436176 1.056453.436176-.430565.436176-.666681.436176 1.424645.436176-4.757829h.436176l.436176.458502h.436176l.436176-.445044.436176-.765334.436176-1.679084.436176.001714.436176.797169 1.308528 3.400034.436176-1.218721.436177-2.534328.872352 2.346995h.436176l.436176.604976.436176-1.618753h.872352l.436176-5.051683 2.18088.013872.436176 1.150301.436176-.240448.872352 2.389045h.872352l.436176 1.087993.436176-4.255581h2.18088l.436176 1.221082h2.180881l.436176-.485516.436176 1.134003h1.308528l.436176-1.684212.436176-.371568.436176 1.836549h.872352l.872352 2.399789h.436176l.436176 1.088046.872352-3.725457.436176 1.389313h2.18088l.872352 2.812361.436176-.817975.436176-4.969804h2.617057l.436176-2.643308h3.053232l.436176 1.357359h3.053232l.436176 1.180319h.436176l.436176 1.126538.436176-3.722198h3.053233l.436176 1.586252.436176 1.16507.436176-5.236549h.872352l.436176 1.154562h.436176l.872352 2.548139h.872352l.436176-3.203323h.436176l.436176-4.696047h.436176l.436176 1.269849h3.053232l.436176 1.302457.436176-1.554215.436176-5.682297h1.308529l.436176-6.829132h.436176l.436176 1.41433h4.36176l.436176 1.256386.436176-1.100023.436176-1.626105h2.18088l.872352 2.93285h1.744704l.872353 2.683847h.436176l.436176-.17492.872352 2.339495.436176-1.865773.436176 1.298515.436176-1.839442h.436176l.436176-.72606h.872352l.436176-2.167781h.436176l1.308528 3.866005.436176-1.203593h.436176l.436176.18473.436176 1.21609.436176.080001.436176-.989454.436176-4.538411.436176-1.150632.436176 1.209419.436176-4.287419h3.053233l.436176-1.585648.436176 2.039159h.436176l.436176-2.031874.436176-.638003.436176 1.33798h.436176l.436176 1.314709.436176-.006415.436176-2.427475.872352-.110328h.436176l.436176-.144901.436176-1.159043.436176.598953.872352 2.884649.436176-.258697.436176-3.389312.436176 1.47919.436176-2.33045h.436176l.436176-1.112764.872353 2.631135h.436176l.436176 1.306581.436176-3.911467.436176.575892.436176-.772847h.436176l.436176-4.285343.436176.873295.436176 1.28579.436176-3.212838h.436176l.872352 2.64664.436176-2.405535 1.308528 4.021491.436176-.442414.436176 1.272552.436176-1.542281.436176-3.091071.436176.009186.436176.64683.436176-1.915826.436176-3.043398.872352.220898h.436176l.436177.415885h.436176l.436176-4.361909.872352-1.506384.872352 2.810949.436176-2.944075.436176-.748667h.872352l.436176-1.533841.436176-.164816.436176.094653.872352 2.774985.872352-.056415.436176.309085.436176.114844.436176-1.368413.872352-3.311985.436176-.012857.872352 2.774197.436176-.540426.436176-2.904172.436176-.539113.436177-.191193.436176.737936.436176-.370478.872352 2.754423.436176-.950115.436176 1.650403.872352-3.340782.436176.121225.436176 1.527961h.436176l.436176 1.371611.436176-1.165042.436176 1.450639.436176-.665939h.436176l.436176-8.309839.436176.369009.436176 1.501693h.872352l.436176 1.535917.436176-5.179494.436176-2.347902.436176-1.118425.436176-3.836891.436176-.36673h.436176l.436176 1.776994h.872353l.436176-6.389909h2.18088l.436176 1.675104h.436176l.436176 1.534204h.436176l.436176.712724.436176-1.595182.436176-2.567036.436176.272536.436176 1.76095.436176-5.565657.872352 3.297185h.436176l.436176-3.414065.436176.300873h.436176l.436176-1.319401h1.744704l.436177-1.478557h.436176l.436176 1.675401.436176-.697756h2.18088l.436176 1.71993h.436176l.436176-.207729.436176 1.562575h1.308528l.436176-8.000661.436176-.963538h.872352l.436176-.121083.436176 1.514179h.436176l.436176-11.074123h2.617056l.436177-6.598897h1.744704l.436176-1.939329h1.308528l.436176 2.606213h.436176l.436176-12.225406h.436176l.436176-2.772667h1.308528l.436176 1.937357h.436176l.436176 2.508484.436176.503326.436176 1.746938h.436176l.436176 1.840005.436176 1.290572h.872352l.436176-2.664871h.436176l.436176 1.943151h.872353l.436176-2.265382.436176.503783.436176-5.363669h.872352l.436176 1.725898h4.36176l.436176-1.94219h1.744704l.436176-5.390121h1.744704l.436176 1.834197h.436177l.436176 1.717582h.436176l.436176 1.717229.436176 2.758976h.436176l.436176 1.657413h.436176l.872352 3.489927h.436176l.436176-2.711142h.436176l.436176-1.04205.436176-4.892092h.436176l.436176-3.809482h3.925584l.436176 1.704497h.436176l.436176-2.153237h3.489409l.436176 1.767764h.872352l.436176 1.805727.436176-3.393688.436176 1.787958.436176-2.208152.436176-1.057934.872352 3.51301.872352-1.00975h15.702337l.436176 1.758951h2.180881l.436176 2.486786h1.308528l.436176 3.142115h4.36176l.436176-.557063.436176.441874h.436176l.436176-5.778863.436176-4.286499h.436176l.436176 1.820987h.436176l.436176-2.207153.436176-4.426756h.872352l.436176-.636916h.436177l.436176-2.153332.436176 1.934378h1.308528l.436176-2.117308h.436176l.436176.849921.872352-2.653226h.436176l.436176.122785h.436176l.436176-2.348497h2.617056l.436176.635556h.872352l.436176 2.204936h.436176l.436176 1.85788h.872352l.436177 1.809968.436176-3.267254h.436176l.436176-.935766h1.308528l.436176 2.015698h3.053232l.436176-3.115971.436176-.693223h1.744704l.436176-2.24299.436176 1.439132.436176.09567.436176-6.328155.436176-1.390229h.436176l.436176-3.642492.436176-6.525624.436176 2.027078h.872353l.872352-4.330941.436176-.483526h.872352l.436176-1.265329.436176-2.88176 4.36176.105354.436176 1.910467.436176-5.25818h.436176l.436176-1.069059.436176 2.174951h.872352l.436176-3.879425h.436176l.872352-3.7805h.436177l.436176-1.203874h.436176l.436176-1.158502.436176-2.32257h.872352l.436176-3.25664.436176-1.235709h2.617056l.436176-2.202197.436176 3.13139h3.053232l.436176-3.523795.436176 2.243474h2.180881l.436176 2.565203h1.308528l.436176 2.285183h.436176l.436176-4.623815h.436176l.872352 4.528675.436176.441347h.436176l.436176-1.749946.436176 2.001006h.872352l.436176 2.148854h.872352l.872352 4.102925h.436176l.436176-2.41292.436176-1.141893.872352 4.825563.436176-1.07398h1.308529l.436176-2.537326h.436176l.436176-2.509473.436176 2.078194.436176-.494528.436176-2.454722h.436176l.436176 2.426009h.436176l.872352 4.170987h.436176l.436176-2.330455.872352 3.875949.436176-.65735.872352-6.608105.436176.322885h.436176l.436176.319816.436176-.170035h.436176l.436176 2.13515.436176-.923422.436176 1.968048.436176-3.591226.872353.004663.436176-.595292.872352 2.683758.436176 1.99116h.436176l.436176-.476668h.436176l.436176-.337532h.436176l.436176 2.027023.436176-.851023.436176-5.250826.436176.885487.436176.039955.436176-3.322437.436176-.204543h.436176l1.308528-.898378.436176-3.218098.436176 1.99622h1.744704l.436176 2.220597h1.308529l.436176-2.155658.872352 3.993459h.872352l.436176 2.045352.436176.169963.436176 2.851547.436176 2.058404h.436176l.436176-.268705.436176-.70864.436176.546577.872352-2.749582h.436176l.436176.521177.436176 2.015573.436176-3.199985.436176-.147371.436176-6.333879.436176.797519.436176-4.43402h.436176l.436176.605921.436176.389652.436176 2.007858h1.308529l.436176.170978h1.308528l.436176-.590077.436176-8.708342h1.308528l.436176-.780314 1.308528 6.714224h.436176l.872352 4.487713.436176.879401h1.308528l.872352 4.265814.436176-1.705836.436176.643804.436176-6.091149.436176 2.01527.436176-1.219298h.436177l.436176 2.030207.436176-.014577.872352 1.951626.436176 2.097818h2.617056l.436176-2.304992h.872352l.436176 2.256176h.436176l.436176 2.023289h1.744704l.436176-15.270793h10.468225l.436176-6.410328h1.744704l.436176 2.075934h1.308528l.436176-11.375399h1.308529l.436176-5.204043h1.308528" clip-path="url(#a)"/><path stroke="#ffc000" stroke-linejoin="round" stroke-width="2" d="m72.469886 318.534545.436176-5.169321h.436176l.436176-1.568143h.872353l.436176.780039.436176-1.606838.436176-.152772h1.308528l.436176.67423.436176-3.587943h.872352l.436176-5.545327h1.308528l.436176-4.720206h1.744704l.436176-1.86624.436176.704655h5.670289l.436176-2.252788h.872352l.436176.359129.436176.887464h.436176l.436176.770914h.436176l.436176-6.400227h1.744704l.436176.75418h.872352l.436176 1.094896h.436176l.436176-.838488.436176.782229h.872352l.436176-4.16708h.872353l.436176.785603h.872352l.436176.744578.436176-5.215704h1.308528l.436176-3.396051h2.18088l.436176.892861.436176.135396h.436176l.436176-3.690076h1.744704l.872352 1.686945h2.180881l.872352 1.82788.436176-.214442.436176.853151.436176.495867.436176.782166.436176-1.671022.436176-.406043h.872352l.436176-1.853837.436176-2.554711h.436176l.872352-.810045.436176-1.110208.436176-.303889.436176.128656.436176-2.60856.436176-1.888879h.436176l.436176-1.143521h.872352l.436176-7.299629h3.489409l.436176.902078h1.308528l.436176.992288h1.308528l.436176-.83615h1.744704l.436176 1.083748h.872352l.436176 1.469444h.436176l.436176.905805h1.744704l.436176-2.91646h1.308529l.436176.94083h1.308528l.436176-1.820295h.872352l.436176-1.73386h.436176l.436176.740517.436176-7.977961h3.053232l.872352 2.006157h1.308528l.436176 1.12508h1.744704l.436177-1.677405.436176-6.395955.872352.048714.436176-5.655287.436176 1.021069h.872352l.436176 1.165249 3.053232-.02261.436176-3.59159h1.744704l.436176-2.442409.436176-5.459333.436176 1.278795h.872352l1.308528 3.315915h.436176l.436177-2.685654.872352 2.184604h.436176l.436176-1.600209.436176 1.052495h.436176l.436176-1.229072h1.744704l.436176 1.475058h.436176l.436176-.317081.436176-.634253.872352 2.103494h1.744704l.436176.673395.872352-3.037333.872352 2.2039.436176-.809493.436176 1.203408h.436177l.436176-1.51838.436176.085552.436176 1.036816h.436176l1.744704 4.127567h.436176l.436176.986807.436176-3.808555.436176.550103h.436176l.436176 1.00448h2.617056l.436176-.640018.436176 1.053354.436176.654133.436176-4.523101.872352.077031.436176-1.588899h.872352l.436177 1.019587.436176.450227.872352-2.501718.436176-.654014.436176 1.024442.436176-2.568824h.872352l.436176-.464885.436176 1.100552.436176-.918145.436176-2.859092.436176 1.055484.436176-.43017.436176-.66607.436176 1.423339.436176-4.753465h.436176l.436176.458082h.436176l.436176-.444636.436176-.764632.436176-1.677543.436176.001712.436176.796437 1.308528 3.396915.436176-1.217603.436177-2.532003.872352 2.344842h.436176l.436176.604421.436176-1.617268h.872352l.436176-5.047048 2.18088.013859.436176 1.149246.436176-.240228.872352 2.386854h.872352l.436176 1.086994.436176-4.251677h2.18088l.436176 1.219962h2.180881l.436176-.48507.436176 1.132962h1.308528l.436176-1.682667.436176-.371227.436176 1.834864h.872352l.872352 2.397588h.436176l.436176 1.087048.872352-3.72204.436176 1.388039h2.18088l.872352 2.809781.436176-.817225.436176-4.965244h2.617057l.436176-2.640883h3.053232l.436176 1.356113h3.053232l.436176 1.179237h.436176l.436176 1.125504.436176-3.718783h3.053233l.436176 1.584797.436176 1.164001.436176-5.231746h.872352l.436176 1.153503h.436176l.872352 2.545802h.872352l.436176-3.200385h.436176l.436176-4.691739h.436176l.436176 1.268684h3.053232l.436176 1.301263.436176-1.552789.436176-5.677085h1.308529l.436176-6.822866h.436176l.436176 1.413032h4.36176l.436176 1.255233.436176-1.099013.436176-1.624613h2.18088l.872352 2.930159h1.744704l.872353 2.681384h.436176l.436176-.174759.872352 2.337349.436176-1.864062.436176 1.297324.436176-1.837754h.436176l.436176-.725394h.872352l.436176-2.165793h.436176l1.308528 3.862459.436176-1.202489h.436176l.436176.184561.436176 1.214974.436176.079928.436176-.988547.436176-4.534248.436176-1.149575.436176 1.208309.436176-4.283486h3.053233l.436176-1.584193.436176 2.037288h.436176l.436176-2.03001.436176-.637418.436176 1.336753h.436176l.436176 1.313502.436176-.006408.436176-2.425249.872352-.110226h.436176l.436176-.144769.436176-1.157979.436176.598404.872352 2.882003.436176-.258461.436176-3.386202.436176 1.477833.436176-2.328312h.436176l.436176-1.111743.872353 2.628721h.436176l.436176 1.305383.436176-3.90788.436176.575364.436176-.772138h.436176l.436176-4.281411.436176.872493.436176 1.284611.436176-3.20989h.436176l.872352 2.644212.436176-2.403328 1.308528 4.0178.436176-.442007.436176 1.271385.436176-1.540867.436176-3.088235.436176.009177.436176.646237.436176-1.914068.436176-3.040607.872352.220696h.436176l.436177.415503h.436176l.436176-4.357907.872352-1.505002.872352 2.80837.436176-2.941374.436176-.74798h.872352l.436176-1.532434.436176-.164665.436176.094566.872352 2.772439.872352-.056362.436176.308801.436176.114739.436176-1.367158.872352-3.308947.436176-.012845.872352 2.771652.436176-.53993.436176-2.901508.436176-.538619.436177-.191017.436176.737259.436176-.370138.872352 2.751896.436176-.949244.436176 1.64889.872352-3.337718.436176.121114.436176 1.52656h.436176l.436176 1.370352.436176-1.163973.436176 1.449309.436176-.665329h.436176l.436176-8.302216.436176.368671.436176 1.500316h.872352l.436176 1.534508.436176-5.174743.436176-2.345748.436176-1.117399.436176-3.833371.436176-.366393h.436176l.436176 1.775363h.872353l.436176-6.384047h2.18088l.436176 1.673567h.436176l.436176 1.532797h.436176l.436176.712071.436176-1.59372.436176-2.56468.436176.272286.436176 1.759334.436176-5.560552.872352 3.294161h.436176l.436176-3.410933.436176.300598h.436176l.436176-1.318192h1.744704l.436177-1.4772h.436176l.436176 1.673864.436176-.697116h2.18088l.436176 1.718353h.436176l.436176-.207539.436176 1.561142h1.308528l.436176-7.993322.436176-.962655h.872352l.436176-.120971.436176 1.51279h.436176l.436176-11.063964h2.617056l.436177-6.592843h1.744704l.436176-1.93755h1.308528l.436176 2.603823h.436176l.436176-11.360039h.436176l.436176-2.762688h1.308528l.436176 1.930385h.436176l.436176 2.499456.436176.501515.436176 1.74065h.436176l.436176 1.833384.436176 1.285927h.872352l.436176-2.655281h.436176l.436176 1.936159h.872353l.436176-2.25723.436176.501971.436176-5.344367h.872352l.436176 1.719687h4.36176l.436176-1.9352h1.744704l.436176-5.370723h1.744704l.436176 1.827596h.436177l.436176 1.711401h.436176l.436176 1.711049.436176 2.749046h.436176l.436176 1.651448h.436176l.872352 3.477368h.436176l.436176-2.701385h.436176l.436176-1.0383.436176-4.874486h.436176l.436176-3.795772h3.925584l.436176 1.698363h.436176l.436176-2.145488h3.489409l.436176 1.761402h.872352l.436176 1.799228.436176-3.381474.436176 1.781524.436176-2.200206.436176-1.054126.872352 3.500367.872352-1.006116h15.702337l.436176 1.75262h2.180881l.436176 2.477837h1.308528l.436176 3.130807h4.36176l.436176-.555059.436176.440284h.436176l.436176-5.758065.436176-4.271073h.436176l.436176 1.814434h.436176l.436176-2.19921.436176-4.410825h.872352l.436176-.634623h.436177l.436176-2.145583.436176 1.927417h1.308528l.436176-2.109689h.436176l.436176.846863.872352-2.643678h.436176l.436176.122343h.436176l.436176-2.340045h2.617056l.436176.633269h.872352l.436176 2.197001h.436176l.436176 1.851193h.872352l.436177 1.803454.436176-3.255495h.436176l.436176-.932399h1.308528l.436176 2.008445h3.053232l.436176-3.104757.436176-.690729h1.744704l.436176-2.234917.436176 1.433952.436176.095326.436176-6.305381.436176-1.385225h.436176l.436176-3.629383.436176-6.502139.436176 2.019782h.872353l.872352-4.315354.436176-.481786h.872352l.436176-1.260775.436176-2.87139 4.36176.104975.436176 1.903592.436176-5.239256h.436176l.436176-1.065212.436176 2.167124h.872352l.436176-3.865464h.436176l.872352-3.766894h.436177l.436176-1.199542h.436176l.436176-1.154333.436176-2.314211h.872352l.436176-3.24492.436176-1.231261h2.617056l.436176-2.194272.436176 3.12012h3.053232l.436176-3.511113.436176 2.2354h2.180881l.436176 2.555972h1.308528l.436176 2.276959h.436176l.436176-4.607175h.436176l.872352 4.512377.436176.439758h.436176l.436176-1.743648.436176 1.993805h.872352l.436176 2.141121h.872352l.872352 4.088158h.436176l.436176-2.404236.436176-1.137783.872352 4.808197.436176-1.070116h1.308529l.436176-2.528194h.436176l.436176-2.500442.436176 2.070715.436176-.492748.436176-2.445888h.436176l.436176 2.417278h.436176l.872352 4.155976h.436176l.436176-2.322068.872352 3.862.436176-.654984.872352-6.584323.436176.321723h.436176l.436176.318664.436176-.169423h.436176l.436176 2.127466.436176-.920099.436176 1.960966.436176-3.578302.872353.004646.436176-.593149.872352 2.674099.436176 1.983995h.436176l.436176-.474953h.436176l.436176-.336317h.436176l.436176 2.019728.436176-.84796.436176-5.23193.436176.882301.436176.039811.436176-3.31048.436176-.203806h.436176l1.308528-.895146.436176-3.206516.436176 1.989036h1.744704l.436176 2.212606h1.308529l.436176-2.147901.872352 3.979087h.872352l.436176 2.037991.436176.169351.436176 2.841285.436176 2.050996h.436176l.436176-.267738.436176-.706089.436176.544609.872352-2.739686h.436176l.436176.519301.436176 2.008319.436176-3.188468.436176-.146841.436176-6.311084.436176.794649.436176-4.418062h.436176l.436176.603739.436176.38825.436176 2.000632h1.308529l.436176.170363h1.308528l.436176-.587953.436176-8.677003h1.308528l.436176-.777505 1.308528 6.69006h.436176l.872352 4.471562.436176.876236h1.308528l.872352 4.250463.436176-1.699697.436176.641487.436176-6.069228.436176 2.008017.436176-1.214909h.436177l.436176 2.0229.436176-.014524.872352 1.944601.436176 2.090269h2.617056l.436176-2.296697h.872352l.436176 2.248056h.436176l.436176 2.016008h1.744704l.436176-16.768531h10.468225l.436176-6.412914h1.744704l.436176 2.076771h1.308528l.436176-11.379988h1.308529l.436176-5.206143h1.308528" clip-path="url(#a)"/><path stroke="#4472c4" stroke-linejoin="round" stroke-width="2" d="m72.469886 318.534545.436176-5.99895h.436176l.436176-1.579198h.872353l.436176.785537.436176-1.618165.436176-.153849h1.308528l.436176.678983.436176-3.613237h.872352l.436176-6.4077h1.308528l.436176-4.783679h1.744704l.436176-1.891336.436176.71413h5.670289l.436176-2.283081h.872352l.436176.363958.436176.899398h.436176l.436176.78128h.436176l.436176-6.84868h1.744704l.436176.766257h.872352l.436176 1.112429h.436176l.436176-.851915.436176.794756h.872352l.436176-4.23381h.872353l.436176.798183h.872352l.436176.756502.436176-5.299227h1.308528l.436176-3.450433h2.18088l.436176.907159.436176.137563h.436176l.436176-3.749166h1.744704l.872352 1.713959h2.180881l.872352 1.85715.436176-.217875.436176.866813.436176.503807.436176.794691.436176-1.697781.436176-.412545h.872352l.436176-1.883523.436176-2.595622h.436176l.872352-.823017.436176-1.127986.436176-.308755.436176.130716.436176-2.650332.436176-1.919127h.436176l.436176-1.161833h.872352l.436176-7.386075h3.489409l.436176.916362h1.308528l.436176 1.008h1.308528l.436176-.84939h1.744704l.436176 1.100908h.872352l.436176 1.492711h.436176l.436176.920147h1.744704l.436176-2.962639h1.308529l.436176.955727h1.308528l.436176-1.849116h.872352l.436176-1.761314h.436176l.436176.752241.436176-4.380656h3.053232l.872352 1.995876h1.308528l.436176 1.119313h1.744704l.436177-1.668808.436176-6.363176.872352.048465.436176-5.626304.436176 1.015836h.872352l.436176 1.159277 3.053232-.022494.436176-3.573183h1.744704l.436176-2.429892.436176-5.431354.436176 1.272241h.872352l1.308528 3.298921h.436176l.436177-2.671891.872352 2.173408h.436176l.436176-1.592008.436176 1.047102h.436176l.436176-1.222773h1.744704l.436176 1.467498h.436176l.436176-.315456.436176-.631002.872352 2.092714h1.744704l.436176.669944.872352-3.021768.872352 2.192605.436176-.805344.436176 1.197241h.436177l.436176-1.510598.436176.085113.436176 1.031502h.436176l1.744704 4.106413h.436176l.436176.98175.436176-3.789036.436176.547284h.436176l.436176.999332h2.617056l.436176-.636738.436176 1.047956.436176.650781.436176-4.499921.872352.076636.436176-1.580755h.872352l.436177 1.014361.436176.447919.872352-2.488896.436176-.650662.436176 1.019191.436176-2.555659h.872352l.436176-.462502.436176 1.094911.436176-.913439.436176-2.844439.436176 1.050074.436176-.427965.436176-.662656.436176 1.416044.436176-4.729103h.436176l.436176.455734h.436176l.436176-.442357.436176-.760714.436176-1.668946.436176.001704.436176.792355 1.308528 3.379507.436176-1.211363.436177-2.519027.872352 2.332825h.436176l.436176.601323.436176-1.60898h.872352l.436176-5.021182 2.18088.013788.436176 1.143356.436176-.238997.872352 2.374622h.872352l.436176 1.081423.436176-4.229887h2.18088l.436176 1.21371h2.180881l.436176-.482585.436176 1.127156h1.308528l.436176-1.674043.436176-.369324.436176 1.82546h.872352l.872352 2.3853h.436176l.436176 1.081477.872352-3.702964.436176 1.380924h2.18088l.872352 2.795382.436176-.813037.436176-4.939798h2.617057l.436176-2.627348h3.053232l.436176 1.349163h3.053232l.436176 1.173193h.436176l.436176 1.119737.436176-3.699725h3.053233l.436176 1.576674.436176 1.158036.436176-5.204933h.872352l.436176 1.147591h.436176l.872352 2.532755h.872352l.436176-3.183983h.436176l.436176-4.667693h.436176l.436176 1.262181h3.053232l.436176 1.294594.436176-1.544831.436176-5.64799h1.308529l.436176-6.787899h.436176l.436176 1.40579h4.36176l.436176 1.2488.436176-1.09338.436176-1.616287h2.18088l.872352 2.915142h1.744704l.872353 2.667642h.436176l.436176-.173864.872352 2.325371.436176-1.854509.436176 1.290675.436176-1.828336h.436176l.436176-.721676h.872352l.436176-2.154693h.436176l1.308528 3.842664.436176-1.196326h.436176l.436176.183614.436176 1.208748.436176.079518.436176-.98348.436176-4.51101.436176-1.143684.436176 1.202116.436176-4.261533h3.053233l.436176-1.576074.436176 2.026847h.436176l.436176-2.019606.436176-.634151.436176 1.329902h.436176l.436176 1.306771.436176-.006376.436176-2.412819.872352-.109662h.436176l.436176-.144027.436176-1.152044.436176.595337.872352 2.867232.436176-.257135.436176-3.368848.436176 1.470259.436176-2.31638h.436176l.436176-1.106045.872353 2.615249h.436176l.436176 1.298692.436176-3.887851.436176.572415.436176-.768181h.436176l.436176-4.259469.436176.868022.436176 1.278027.436176-3.19344h.436176l.872352 2.630661.436176-2.391011 1.308528 3.997209.436176-.439742.436176 1.264869.436176-1.53297.436176-3.072407.436176.00913.436176.642925.436176-1.904259.436176-3.025024.872352.219565h.436176l.436177.413373h.436176l.436176-4.335572.872352-1.49729.872352 2.793978.436176-2.9263.436176-.744146h.872352l.436176-1.52458.436176-.163822.436176.094082.872352 2.75823.872352-.056073.436176.307218.436176.114151.436176-1.360151.872352-3.291989.436176-.012779.872352 2.757447.436176-.537162.436176-2.886638.436176-.535859.436177-.190038.436176.73348.436176-.368241.872352 2.737793.436176-.944379.436176 1.640439.872352-3.320612.436176.120493.436176 1.518737h.436176l.436176 1.363329.436176-1.158008.436176 1.441881.436176-.661919h.436176l.436176-8.259667.436176.366782.436176 1.492626h.872352l.436176 1.526644.436176-5.148222.436176-2.333727.436176-1.111672.436176-3.813725.436176-.364516h.436176l.436176 1.766265h.872353l.436176-6.351329h2.18088l.436176 1.66499h.436176l.436176 1.524941h.436176l.436176.708422.436176-1.585552.436176-2.551537.436176.270891.436176 1.750318.436176-5.532054.872352 3.277278h.436176l.436176-3.393452.436176.299057h.436176l.436176-1.311436h1.744704l.436177-1.46963h.436176l.436176 1.665286.436176-.693543h2.18088l.436176 1.709546h.436176l.436176-.206475.436176 1.553141h1.308528l.436176-7.952356.436176-.957721h.872352l.436176-.120352.436176 1.505037h.436176l.436176-11.007261h2.617056l.436177-6.559055h1.744704l.436176-1.92762h1.308528l.436176 2.590478h.436176l.436176-11.301819h.436176l.436176-2.74853h1.308528l.436176 1.920493h.436176l.436176 2.486646.436176.498945.436176 1.731729h.436176l.436176 1.823987.436176 1.279338h.872352l.436176-2.641673h.436176l.436176 1.926235h.872353l.436176-2.245661.436176.499398.436176-5.316976h.872352l.436176 1.710873h4.36176l.436176-1.925282h1.744704l.436176-5.343199h1.744704l.436176 1.81823h.436177l.436176 1.70263h.436176l.436176 1.70228.436176 2.734958h.436176l.436176 1.642984h.436176l.872352 3.459546h.436176l.436176-2.68754h.436176l.436176-1.032978.436176-4.849505h.436176l.436176-3.776319h3.925584l.436176 1.689659h.436176l.436176-2.134492h3.489409l.436176 1.752374h.872352l.436176 1.790007.436176-3.364144.436176 1.772394.436176-2.18893.436176-1.048724.872352 3.482428.872352-1.00096h15.702337l.436176 1.743638h2.180881l.436176 2.465138h1.308528l.436176 3.114762h4.36176l.436176-.552214.436176.438028h.436176l.436176-5.728556.436176-4.249183h.436176l.436176 1.805134h.436176l.436176-2.187938.436176-4.38822h.872352l.436176-.631371h.436177l.436176-2.134587.436176 1.917539h1.308528l.436176-2.098877h.436176l.436176.842523.872352-2.630129h.436176l.436176.121716h.436176l.436176-2.328052h2.617056l.436176.630023h.872352l.436176 2.185741h.436176l.436176 1.841707h.872352l.436177 1.794211.436176-3.238811h.436176l.436176-.92762h1.308528l.436176 1.998151h3.053232l.436176-3.088845.436176-.687189h1.744704l.436176-2.223463.436176 1.426603.436176.094838.436176-6.273067.436176-1.378126h.436176l.436176-3.610782.436176-6.468816.436176 2.009431h.872353l.872352-4.293238.436176-.479317h.872352l.436176-1.254313.436176-2.856674 4.36176.104437.436176 1.893836.436176-5.212406h.436176l.436176-1.059753.436176 2.156018h.872352l.436176-3.845653h.436176l.872352-3.747589h.436177l.436176-1.193394h.436176l.436176-1.148417.436176-2.302351h.872352l.436176-3.22829.436176-1.224951h2.617056l.436176-2.183027.436176 3.10413h3.053232l.436176-3.493119.436176 2.223944h2.180881l.436176 2.542872h1.308528l.436176 2.26529h.436176l.436176-4.583563h.436176l.872352 4.489251.436176.437505h.436176l.436176-1.734712.436176 1.983586h.872352l.436176 2.130148h.872352l.872352 4.067207h.436176l.436176-2.391914.436176-1.131953.872352 4.783555.436176-1.064631h1.308529l.436176-2.515237h.436176l.436176-2.487628.436176 2.060103.436176-.490222.436176-2.433353h.436176l.436176 2.404889h.436176l.872352 4.134677h.436176l.436176-2.310168.872352 3.842208.436176-.651628.872352-6.550578.436176.320074h.436176l.436176.317031.436176-.168555h.436176l.436176 2.116563.436176-.915383.436176 1.950915.436176-3.559963.872353.004623.436176-.59011.872352 2.660395.436176 1.973826h.436176l.436176-.472518h.436176l.436176-.334594h.436176l.436176 2.009377.436176-.843614.436176-5.205116.436176.877779.436176.039607.436176-3.293514.436176-.202762h.436176l1.308528-.890558.436176-3.190083.436176 1.978842h1.744704l.436176 2.201267h1.308529l.436176-2.136893.872352 3.958695h.872352l.436176 2.027546.436176.168483.436176 2.826723.436176 2.040485h.436176l.436176-.266365.436176-.702472.436176.541819.872352-2.725646h.436176l.436176.51664.436176 1.998027.436176-3.172128.436176-.146088.436176-6.27874.436176.790576.436176-4.39542h.436176l.436176.600646.436176.38626.436176 1.990379h1.308529l.436176.169489h1.308528l.436176-.58494.436176-8.632532h1.308528l.436176-.773521 1.308528 6.655774h.436176l.872352 4.448645.436176.871746h1.308528l.872352 4.228678.436176-1.690986.436176.6382.436176-6.038124.436176 1.997727.436176-1.208683h.436177l.436176 2.012532.436176-.014449.872352 1.934635.436176 2.079557h2.617056l.436176-2.284927h.872352l.436176 2.236535h.436176l.436176 2.005676h1.744704l.436176-18.593878h10.468225l.436176-6.411631h1.744704l.436176 2.076356h1.308528l.436176-11.37771h1.308529l.436176-5.205101h1.308528" clip-path="url(#a)"/><path stroke="#000" stroke-linejoin="miter" stroke-width=".8" d="m47.10625 333.36v-326.16"/><path stroke="#000" stroke-linejoin="miter" stroke-width=".8" d="m605.10625 333.36v-326.16"/><path stroke="#000" stroke-linejoin="miter" stroke-width=".8" d="m47.10625 333.36h558"/><path stroke="#000" stroke-linejoin="miter" stroke-width=".8" d="m47.10625 7.2h558"/></g><g stroke-linejoin="round"><path fill="none" stroke="#5b9bd5" stroke-linecap="square" stroke-width="2" d="m56.10625 20.473437h20"/><g transform="matrix(.1 0 0 -.1 84.10625 23.973437)"><use xlink:href="#p"/><use x="100" xlink:href="#q"/><use x="200" xlink:href="#r"/><use x="300" xlink:href="#s"/><use x="400" xlink:href="#d"/><use x="450" xlink:href="#t"/><use x="500" xlink:href="#d"/><use x="550" xlink:href="#j"/></g><path fill="none" stroke="#ed7d31" stroke-linecap="square" stroke-width="2" d="m56.10625 34.496875h20"/><g transform="matrix(.1 0 0 -.1 84.10625 37.996875)"><use xlink:href="#p"/><use x="100" xlink:href="#q"/><use x="200" xlink:href="#r"/><use x="300" xlink:href="#s"/><use x="400" xlink:href="#d"/><use x="450" xlink:href="#t"/><use x="500" xlink:href="#d"/><use x="550" xlink:href="#j"/><use x="600" xlink:href="#i"/></g><path fill="none" stroke="#a5a5a5" stroke-linecap="square" stroke-width="2" d="m56.10625 48.520312h20"/><g transform="matrix(.1 0 0 -.1 84.10625 52.020312)"><use xlink:href="#p"/><use x="100" xlink:href="#q"/><use x="200" xlink:href="#r"/><use x="300" xlink:href="#s"/><use x="400" xlink:href="#d"/><use x="450" xlink:href="#t"/><use x="500" xlink:href="#d"/><use x="550" xlink:href="#g"/></g><path fill="none" stroke="#ffc000" stroke-linecap="square" stroke-width="2" d="m56.10625 62.54375h20"/><g transform="matrix(.1 0 0 -.1 84.10625 66.04375)"><use xlink:href="#p"/><use x="100" xlink:href="#q"/><use x="200" xlink:href="#r"/><use x="300" xlink:href="#s"/><use x="400" xlink:href="#d"/><use x="450" xlink:href="#t"/><use x="500" xlink:href="#d"/><use x="550" xlink:href="#g"/><use x="600" xlink:href="#i"/></g><path fill="none" stroke="#4472c4" stroke-linecap="square" stroke-width="2" d="m56.10625 76.567187h20"/><g transform="matrix(.1 0 0 -.1 84.10625 80.067187)"><use xlink:href="#p"/><use x="100" xlink:href="#q"/><use x="200" xlink:href="#r"/><use x="300" xlink:href="#s"/><use x="400" xlink:href="#d"/><use x="450" xlink:href="#t"/><use x="500" xlink:href="#d"/><use x="550" xlink:href="#i"/></g></g></g></g></svg>