<svg xmlns="http://www.w3.org/2000/svg" xmlns:xlink="http://www.w3.org/1999/xlink" width="621.4pt" height="530.08" stroke-linejoin="round" viewBox="0 0 621.4 397.56"><defs stroke-linejoin="round"><clipPath id="a" stroke-linejoin="round"><path d="m34.2 7.2h558v326.16h-558z"/></clipPath><path id="b" stroke="#000" stroke-linejoin="round" stroke-width=".8" d="m0 0v3.5"/><path id="c" stroke-linejoin="round" d="m4.6875 3.90625q.390625 5.859375 5.46875 10.546875 5.078125 4.6875 12.890625 14.640625 7.8125 9.96875 10.15625 15.4375 2.34375 5.46875 1.75 9.375-.578125 3.90625-3.703125 6.4375-3.125 2.546875-7.234375 2.15625-4.09375-.390625-7.8125-3.125-3.703125-2.734375-5.65625-8.203125l-7.421875 1.171875q3.125 8.984375 8 13.078125 4.890625 4.109375 11.53125 4.5 3.90625.390625 7.03125-.203125 3.125-.578125 6.4375-2.734375 3.328125-2.140625 5.46875-6.4375 2.15625-4.296875 1.5625-10.359375-.578125-6.046875-6.046875-14.453125-5.46875-8.390625-21.09375-26.359375h28.125v-7.03125h-39.453125z"/><path id="d" stroke-linejoin="round" d="m3.125 29.296875q.78125 20.703125 3.3125 26.75 2.546875 6.0625 7.234375 9.96875 4.6875 3.90625 11.515625 3.90625 6.84375 0 11.921875-5.671875 5.078125-5.65625 6.640625-14.25 1.5625-8.59375.96875-19.734375-.578125-11.125-3.90625-18.15625-3.3125-7.03125-9.953125-9.765625-6.640625-2.734375-13.28125.578125-6.640625 3.328125-9.375 8.796875-2.734375 5.46875-3.90625 11.515625-1.171875 6.0625-.390625 26.765625zm9.765625 23.4375q-2.34375-21.484375-.390625-29.890625 1.953125-8.390625 6.4375-11.90625 4.5-3.515625 9.1875-1.375 4.6875 2.15625 6.828125 8.59375 2.15625 6.453125 2.15625 14.0625 0 7.625-.59375 13.875-.578125 6.25-3.515625 11.328125-2.921875 5.078125-7.8125 5.265625-4.875.203125-8.59375-4.875-3.703125-5.078125-6.046875-26.5625z"/><path id="e" stroke-linejoin="round" d="m21.875 56.25q-5.078125-5.078125-12.890625-9.765625v7.421875q9.765625 6.640625 16.015625 15.625h4.6875v-67.1875h-7.8125z"/><path id="f" stroke-linejoin="round" d="m46.484375 33.203125h-44.53125v6.25h44.53125z"/><path id="g" stroke-linejoin="round" d="m31.25 17.1875h-30.078125v6.640625l31.640625 45.703125h5.859375v-45.703125h9.375v-6.640625h-9.375v-14.84375h-7.421875zm0 6.640625v30.859375l-21.875-30.859375z"/><path id="h" stroke-linejoin="round" d="m3.515625 19.53125q.78125 11.328125 2.53125 15.234375 1.765625 3.90625 5.28125 9.765625l16.015625 25h8.984375l-16.40625-25.78125q10.546875 2.734375 16.796875-.78125 6.25-3.515625 8.390625-8.015625 2.15625-4.484375 2.34375-9.765625.203125-5.265625-1.5625-10.34375-1.75-5.078125-6.25-9.1875-4.484375-4.09375-12.5-4.484375-8-.390625-13.671875 2.921875-5.65625 3.328125-7.8125 9.375-2.140625 6.0625-1.359375 17.390625zm8.984375-3.515625q7.03125-7.421875 12.890625-7.8125 5.859375-.390625 9.765625 3.90625 3.90625 4.296875 3.90625 12.5 0 8.203125-4.890625 11.328125-4.875 3.125-10.9375 2.34375-6.046875-.78125-8.78125-5.859375-2.734375-5.078125-2.34375-10.75.390625-5.65625 7.421875-13.078125z"/><path id="i" stroke-linejoin="round" d="m8.59375 20.703125q2.734375-10.546875 9.375-11.71875 6.640625-1.171875 10.734375 1.359375 4.109375 2.546875 5.859375 6.640625 1.765625 4.109375 1.5625 9.1875-.1875 5.078125-2.734375 8.59375-2.53125 3.515625-6.4375 4.6875-3.90625 1.171875-8.796875 0-4.875-1.171875-8-5.46875l-6.640625.78125q.78125 2.34375 7.421875 33.59375h30.859375v-7.03125h-25q-1.953125-10.546875-3.90625-16.796875 5.859375 2.734375 10.9375 2.53125 5.078125-.1875 9.765625-2.34375 4.6875-2.140625 6.828125-5.859375 2.15625-3.703125 3.125-7.421875.984375-3.703125.78125-8-.1875-4.296875-1.75-8.796875-1.5625-4.484375-4.6875-7.421875-3.125-2.921875-7.625-4.6875-4.484375-1.75-10.34375-1.359375-5.859375.390625-11.140625 4.296875-5.265625 3.90625-7.21875 13.28125z"/><path id="j" stroke-linejoin="round" d="m3.90625 19.140625 7.03125 1.171875q1.5625-5.078125 5.078125-8.40625 3.515625-3.3125 8.78125-3.125 5.28125.203125 8.40625 4.296875 3.125 4.109375 2.734375 9.375-.390625 5.28125-4.109375 8.203125-3.703125 2.9375-11.90625 4.109375v5.078125q8.203125.78125 11.90625 4.296875 3.71875 3.515625 3.328125 9.171875-.390625 5.671875-5.078125 8.203125-4.6875 2.546875-9.96875.59375-5.265625-1.953125-8.390625-10.9375l-7.03125 1.171875q2.34375 7.03125 6.4375 11.71875 4.109375 4.6875 11.140625 5.46875 7.03125.78125 12.296875-1.765625 5.28125-2.53125 7.421875-7.8125 2.15625-5.265625.59375-11.515625-1.5625-6.25-8.984375-10.9375 5.46875-2.34375 8.390625-7.03125 2.9375-4.6875 1.953125-12.3125-.96875-7.609375-6.828125-12.296875-5.859375-4.6875-13.28125-4.5-7.421875.203125-12.890625 4.6875-5.46875 4.5-7.03125 13.09375z"/><path id="k" stroke-linejoin="round" d="m13.28125 2.34375q7.03125 29.6875 24.609375 58.984375h-33.59375v7.03125h41.796875v-6.640625q-18.359375-29.6875-24.21875-59.375z"/><path id="l" stroke-linejoin="round" d="m2.734375 16.796875q0 9.375 2.34375 13.859375 2.34375 4.5 7.8125 7.234375-4.6875 2.734375-6.25 6.046875-1.5625 3.328125-1.765625 7.625-.1875 4.296875 1.171875 7.421875 1.375 3.125 4.109375 5.859375 2.734375 2.734375 6.046875 3.703125 3.328125.984375 7.234375.984375 3.90625 0 7.03125-.78125 3.125-.78125 6.640625-3.328125 3.515625-2.53125 5.078125-7.21875 1.5625-4.6875-.203125-10.9375-1.75-6.25-9.171875-9.765625 6.640625-1.953125 9.375-6.0625 2.734375-4.09375 2.734375-9.953125 0-5.859375-1.765625-9.375-1.75-3.515625-3.90625-5.859375-2.140625-2.34375-5.859375-3.71875-3.703125-1.359375-9.375-1.359375-5.65625 0-9.765625 1.359375-4.09375 1.375-6.828125 4.109375-2.734375 2.734375-3.71875 6.4375-.96875 3.71875-.96875 13.09375zm8.203125 9.765625q-.390625-9.375 1.359375-12.890625 1.765625-3.515625 6.453125-4.5 4.6875-.96875 9.765625.203125 5.078125 1.171875 7.03125 5.46875 1.953125 4.296875 1.359375 8.59375-.578125 4.296875-4.875 7.21875-4.296875 2.9375-9.375 2.546875-5.078125-.390625-8.40625-3.515625-3.3125-3.125-3.703125-12.5zm1.171875 29.6875q0-7.8125 2.734375-11.328125 2.734375-3.515625 8.59375-3.515625 5.859375 0 8.78125 3.515625 2.9375 3.515625 2.734375 8.390625-.1875 4.890625-3.515625 7.234375-3.3125 2.34375-8.984375 1.953125-5.65625-.390625-8-3.328125-2.34375-2.921875-2.34375-10.734375z"/><path id="m" stroke-linejoin="round" d="m12.5 1.171875q8.59375 14.453125 14.0625 26.171875-9.765625-1.5625-16.21875 2.53125-6.4375 4.109375-7.8125 11.140625-1.359375 7.03125.203125 12.6875 1.5625 5.671875 4.875 9.375 3.328125 3.71875 8.015625 5.28125 4.6875 1.5625 8.390625 1.5625 3.71875 0 7.625-1.5625 3.90625-1.5625 7.03125-4.6875 3.125-3.125 4.296875-6.453125 1.171875-3.3125 1.171875-8.59375 0-5.265625-3.90625-13.46875-3.90625-8.203125-19.140625-33.984375zm-2.734375 48.828125q1.171875-10.15625 4.875-13.484375 3.71875-3.3125 8.015625-2.921875 4.296875.390625 6.828125 2.34375 2.546875 1.953125 4.890625 6.640625 1.5625 5.859375.78125 9.953125-.78125 4.109375-4.109375 6.84375-3.3125 2.734375-7.21875 2.734375-2.34375.390625-6.0625-1.171875-3.703125-1.5625-5.859375-6.25-2.140625-4.6875-.96875-14.84375z"/><path id="n" stroke="#000" stroke-linejoin="round" stroke-width=".8" d="m0 0h-3.5"/><path id="o" stroke-linejoin="round" d="m21.875 51.953125q0-11.328125-3.328125-14.453125-3.3125-3.125-6.4375-3.125-3.125 0-6.453125 3.125-3.3125 3.125-3.3125 14.453125 0 11.328125 3.3125 14.453125 3.328125 3.125 6.453125 3.125 3.125 0 6.4375-3.125 3.328125-3.125 3.328125-14.453125zm19.140625 16.40625-30.078125-67.1875-3.125 1.171875 30.078125 67.1875zm5.46875-49.609375q0-11.328125-3.328125-14.453125-3.3125-3.125-6.4375-3.125-3.125 0-6.453125 3.125-3.3125 3.125-3.3125 14.453125 0 11.328125 3.3125 14.453125 3.328125 3.125 6.453125 3.125 3.125 0 6.4375-3.125 3.328125-3.125 3.328125-14.453125zm-30.859375 33.203125q0 7.03125-.78125 9.375-.78125 2.34375-2.734375 2.34375-1.953125 0-2.734375-2.34375-.78125-2.34375-.78125-9.375 0-7.03125.78125-9.375.78125-2.34375 2.734375-2.34375 1.953125 0 2.734375 2.34375.78125 2.34375.78125 9.375zm24.609375-33.203125q0 7.03125-.78125 9.375-.78125 2.34375-2.734375 2.34375-1.953125 0-2.734375-2.34375-.78125-2.34375-.78125-9.375 0-7.03125.78125-9.375.78125-2.34375 2.734375-2.34375 1.953125 0 2.734375 2.34375.78125 2.34375.78125 9.375z"/><path id="p" stroke-linejoin="round" d="m84.765625 79.6875 4.296875-5.078125q-22.265625-16.40625-21.484375-37.890625.390625-20.703125 21.09375-35.9375l-4.296875-5.078125q-23.828125 17.1875-23.046875 43.359375 0 21.484375 23.4375 40.625z"/><path id="q" stroke-linejoin="round" d="m64.0625 41.015625q0 9.375-.203125 18.15625-.1875 8.796875-1.953125 12.3125-1.75 3.515625 1.765625 2.53125 3.515625-.96875 5.65625-2.34375 2.15625-1.359375.78125-5.078125-1.359375-3.703125-1.359375-24.40625 9.375 1.953125 11.328125 3.515625 1.953125 1.5625 7.609375-1.765625 5.671875-3.3125 3.328125-6.25-2.34375-2.921875-3.515625-14.0625-1.171875-11.125-4.5-18.546875-3.3125-7.421875-4.6875-3.328125-1.359375 4.109375-2.34375 5.859375-.96875 1.765625-3.90625 1.953125-2.921875.203125-8.390625-.78125-5.46875-.96875-8.59375-.96875-1.171875-5.078125-2.546875-1.765625-1.359375 3.328125-1.75 7.8125-.390625 4.5-1.171875 12.3125-.78125 7.8125-2.34375 10.15625-1.5625 2.34375-.984375 3.515625.59375 1.171875 3.125.390625 2.546875-.78125 5.46875-.59375 2.9375.203125 9.1875 1.375zm-35.15625 14.84375q4.6875 1.171875 8.390625 2.140625 3.71875.984375 5.859375-.78125 2.15625-1.75-1.359375-2.734375-3.515625-.96875-14.453125-2.921875-6.25-14.0625-7.421875-16.21875-1.171875-2.140625 1.953125-1.5625 3.125.59375 7.8125 1.765625.390625 7.03125-1.375 9.765625-1.75 2.734375 3.125.96875 4.890625-1.75 3.71875-3.3125-1.171875-1.5625-1.5625-6.640625 1.5625.390625 4.875 1.171875 3.328125.78125 5.28125-1.171875 1.953125-1.953125-1.5625-2.34375-3.515625-.390625-8.59375-1.171875-.390625-7.03125-.390625-10.9375 5.46875 1.171875 8.78125 2.140625 3.328125.984375 5.078125-.1875 1.765625-1.171875-1.359375-1.953125-3.125-.78125-12.5-3.90625 0-9.375-.203125-16.796875-.1875-7.421875-1.5625-7.609375-1.359375-.203125-2.734375 3.3125-1.359375 3.515625-.578125 6.4375.78125 2.9375 1.171875 13.484375-13.671875-3.515625-15.828125-5.46875-2.140625-1.953125-6.4375 1.75-4.296875 3.71875 0 3.328125 4.296875-.390625 22.65625 4.6875v10.9375q-9.765625-1.953125-12.5-4.109375-2.734375-2.140625-3.90625 1.5625-1.171875 3.71875 1.359375 5.28125 2.546875 1.5625 8.015625 16.40625-5.859375-1.5625-8.59375.1875-2.734375 1.765625 1.171875 2.15625 3.90625.390625 8.984375 1.171875 5.46875 13.671875 3.90625 17.96875-1.5625 4.296875 4.09375 1.171875 5.671875-3.125 3.515625-5.28125-2.140625-2.140625-6.828125-12.6875zm39.84375-27.34375q5.46875 2.34375 7.03125.578125 1.5625-1.75-.984375-2.734375-2.53125-.96875-6.046875-2.140625l-.390625-11.328125q5.46875 1.171875 8-.59375 2.546875-1.75 3.71875.59375 1.171875 2.34375 1.953125 9.5625.78125 7.234375.78125 13.09375 0 5.859375-3.515625 5.46875-3.515625-.390625-10.15625-2.34375-.390625-4.296875-.390625-10.15625zm-15.234375 7.8125q.78125-16.40625 1.5625-25.78125 4.296875.78125 8.984375 1.953125v10.546875q-5.078125-.78125-6.25.578125-1.171875 1.375.578125 1.953125 1.765625.59375 5.671875 1.765625v10.546875q-7.421875-1.171875-10.546875-1.5625z"/><path id="r" stroke-linejoin="round" d="m15.625 79.6875q23.4375-19.140625 23.4375-40.625.78125-26.171875-23.046875-43.359375l-4.296875 5.078125q20.703125 15.234375 21.09375 35.9375.78125 21.484375-21.484375 37.890625z"/><path id="s" stroke="#000" stroke-linejoin="round" stroke-width=".8" d="m0 0h3.5"/></defs><g stroke-linejoin="round"><path fill="none" d="m0 397.56h621.4v-397.56h-621.4z"/><g><path fill="#fff" stroke-linejoin="round" d="m34.2 333.36h558v-326.16h-558z"/><g stroke-linejoin="round"><use x="46.478" y="333.36" stroke="#000" stroke-width=".8" xlink:href="#b"/><g><use x="59.564" y="333.36" stroke="#000" stroke-width=".8" xlink:href="#b"/><g transform="matrix(0 -.1 -.1 0 62.376136 390.36)"><use xlink:href="#c"/><use x="50" xlink:href="#d"/><use x="100" xlink:href="#e"/><use x="150" xlink:href="#d"/><use x="200" xlink:href="#f"/><use x="250" xlink:href="#d"/><use x="300" xlink:href="#g"/><use x="350" xlink:href="#f"/><use x="400" xlink:href="#e"/><use x="450" xlink:href="#h"/></g></g><g><use x="72.649" y="333.36" stroke="#000" stroke-width=".8" xlink:href="#b"/><g transform="matrix(0 -.1 -.1 0 75.461417 390.36)"><use xlink:href="#c"/><use x="50" xlink:href="#d"/><use x="100" xlink:href="#e"/><use x="150" xlink:href="#d"/><use x="200" xlink:href="#f"/><use x="250" xlink:href="#d"/><use x="300" xlink:href="#i"/><use x="350" xlink:href="#f"/><use x="400" xlink:href="#j"/><use x="450" xlink:href="#e"/></g></g><g><use x="85.734" y="333.36" stroke="#000" stroke-width=".8" xlink:href="#b"/><g transform="matrix(0 -.1 -.1 0 88.546698 390.36)"><use xlink:href="#c"/><use x="50" xlink:href="#d"/><use x="100" xlink:href="#e"/><use x="150" xlink:href="#d"/><use x="200" xlink:href="#f"/><use x="250" xlink:href="#d"/><use x="300" xlink:href="#k"/><use x="350" xlink:href="#f"/><use x="400" xlink:href="#e"/><use x="450" xlink:href="#i"/></g></g><g><use x="98.819" y="333.36" stroke="#000" stroke-width=".8" xlink:href="#b"/><g transform="matrix(0 -.1 -.1 0 101.631979 390.36)"><use xlink:href="#c"/><use x="50" xlink:href="#d"/><use x="100" xlink:href="#e"/><use x="150" xlink:href="#d"/><use x="200" xlink:href="#f"/><use x="250" xlink:href="#d"/><use x="300" xlink:href="#l"/><use x="350" xlink:href="#f"/><use x="400" xlink:href="#c"/><use x="450" xlink:href="#h"/></g></g><g><use x="111.905" y="333.36" stroke="#000" stroke-width=".8" xlink:href="#b"/><g transform="matrix(0 -.1 -.1 0 114.71726 390.36)"><use xlink:href="#c"/><use x="50" xlink:href="#d"/><use x="100" xlink:href="#e"/><use x="150" xlink:href="#d"/><use x="200" xlink:href="#f"/><use x="250" xlink:href="#e"/><use x="300" xlink:href="#d"/><use x="350" xlink:href="#f"/><use x="400" xlink:href="#e"/><use x="450" xlink:href="#m"/></g></g><g><use x="124.99" y="333.36" stroke="#000" stroke-width=".8" xlink:href="#b"/><g transform="matrix(0 -.1 -.1 0 127.802541 390.36)"><use xlink:href="#c"/><use x="50" xlink:href="#d"/><use x="100" xlink:href="#e"/><use x="150" xlink:href="#d"/><use x="200" xlink:href="#f"/><use x="250" xlink:href="#e"/><use x="300" xlink:href="#e"/><use x="350" xlink:href="#f"/><use x="400" xlink:href="#j"/><use x="450" xlink:href="#d"/></g></g><g><use x="138.075" y="333.36" stroke="#000" stroke-width=".8" xlink:href="#b"/><g transform="matrix(0 -.1 -.1 0 140.887822 390.36)"><use xlink:href="#c"/><use x="50" xlink:href="#d"/><use x="100" xlink:href="#e"/><use x="150" xlink:href="#e"/><use x="200" xlink:href="#f"/><use x="250" xlink:href="#d"/><use x="300" xlink:href="#e"/><use x="350" xlink:href="#f"/><use x="400" xlink:href="#e"/><use x="450" xlink:href="#c"/></g></g><g><use x="151.161" y="333.36" stroke="#000" stroke-width=".8" xlink:href="#b"/><g transform="matrix(0 -.1 -.1 0 153.973103 390.36)"><use xlink:href="#c"/><use x="50" xlink:href="#d"/><use x="100" xlink:href="#e"/><use x="150" xlink:href="#e"/><use x="200" xlink:href="#f"/><use x="250" xlink:href="#d"/><use x="300" xlink:href="#j"/><use x="350" xlink:href="#f"/><use x="400" xlink:href="#d"/><use x="450" xlink:href="#c"/></g></g><g><use x="164.246" y="333.36" stroke="#000" stroke-width=".8" xlink:href="#b"/><g transform="matrix(0 -.1 -.1 0 167.058384 390.36)"><use xlink:href="#c"/><use x="50" xlink:href="#d"/><use x="100" xlink:href="#e"/><use x="150" xlink:href="#e"/><use x="200" xlink:href="#f"/><use x="250" xlink:href="#d"/><use x="300" xlink:href="#g"/><use x="350" xlink:href="#f"/><use x="400" xlink:href="#e"/><use x="450" xlink:href="#i"/></g></g><g><use x="177.331" y="333.36" stroke="#000" stroke-width=".8" xlink:href="#b"/><g transform="matrix(0 -.1 -.1 0 180.143665 390.36)"><use xlink:href="#c"/><use x="50" xlink:href="#d"/><use x="100" xlink:href="#e"/><use x="150" xlink:href="#e"/><use x="200" xlink:href="#f"/><use x="250" xlink:href="#d"/><use x="300" xlink:href="#i"/><use x="350" xlink:href="#f"/><use x="400" xlink:href="#j"/><use x="450" xlink:href="#d"/></g></g><g><use x="190.416" y="333.36" stroke="#000" stroke-width=".8" xlink:href="#b"/><g transform="matrix(0 -.1 -.1 0 193.228946 390.36)"><use xlink:href="#c"/><use x="50" xlink:href="#d"/><use x="100" xlink:href="#e"/><use x="150" xlink:href="#e"/><use x="200" xlink:href="#f"/><use x="250" xlink:href="#d"/><use x="300" xlink:href="#k"/><use x="350" xlink:href="#f"/><use x="400" xlink:href="#e"/><use x="450" xlink:href="#c"/></g></g><g><use x="203.502" y="333.36" stroke="#000" stroke-width=".8" xlink:href="#b"/><g transform="matrix(0 -.1 -.1 0 206.314228 390.36)"><use xlink:href="#c"/><use x="50" xlink:href="#d"/><use x="100" xlink:href="#e"/><use x="150" xlink:href="#e"/><use x="200" xlink:href="#f"/><use x="250" xlink:href="#d"/><use x="300" xlink:href="#l"/><use x="350" xlink:href="#f"/><use x="400" xlink:href="#c"/><use x="450" xlink:href="#j"/></g></g><g><use x="216.587" y="333.36" stroke="#000" stroke-width=".8" xlink:href="#b"/><g transform="matrix(0 -.1 -.1 0 219.399509 390.36)"><use xlink:href="#c"/><use x="50" xlink:href="#d"/><use x="100" xlink:href="#e"/><use x="150" xlink:href="#e"/><use x="200" xlink:href="#f"/><use x="250" xlink:href="#e"/><use x="300" xlink:href="#d"/><use x="350" xlink:href="#f"/><use x="400" xlink:href="#e"/><use x="450" xlink:href="#c"/></g></g><g><use x="229.672" y="333.36" stroke="#000" stroke-width=".8" xlink:href="#b"/><g transform="matrix(0 -.1 -.1 0 232.48479 390.36)"><use xlink:href="#c"/><use x="50" xlink:href="#d"/><use x="100" xlink:href="#e"/><use x="150" xlink:href="#e"/><use x="200" xlink:href="#f"/><use x="250" xlink:href="#e"/><use x="300" xlink:href="#e"/><use x="350" xlink:href="#f"/><use x="400" xlink:href="#c"/><use x="450" xlink:href="#j"/></g></g><g><use x="242.758" y="333.36" stroke="#000" stroke-width=".8" xlink:href="#b"/><g transform="matrix(0 -.1 -.1 0 245.570071 390.36)"><use xlink:href="#c"/><use x="50" xlink:href="#d"/><use x="100" xlink:href="#e"/><use x="150" xlink:href="#c"/><use x="200" xlink:href="#f"/><use x="250" xlink:href="#d"/><use x="300" xlink:href="#e"/><use x="350" xlink:href="#f"/><use x="400" xlink:href="#d"/><use x="450" xlink:href="#h"/></g></g><g><use x="255.843" y="333.36" stroke="#000" stroke-width=".8" xlink:href="#b"/><g transform="matrix(0 -.1 -.1 0 258.655352 390.36)"><use xlink:href="#c"/><use x="50" xlink:href="#d"/><use x="100" xlink:href="#e"/><use x="150" xlink:href="#c"/><use x="200" xlink:href="#f"/><use x="250" xlink:href="#d"/><use x="300" xlink:href="#c"/><use x="350" xlink:href="#f"/><use x="400" xlink:href="#c"/><use x="450" xlink:href="#g"/></g></g><g><use x="268.928" y="333.36" stroke="#000" stroke-width=".8" xlink:href="#b"/><g transform="matrix(0 -.1 -.1 0 271.740633 390.36)"><use xlink:href="#c"/><use x="50" xlink:href="#d"/><use x="100" xlink:href="#e"/><use x="150" xlink:href="#c"/><use x="200" xlink:href="#f"/><use x="250" xlink:href="#d"/><use x="300" xlink:href="#g"/><use x="350" xlink:href="#f"/><use x="400" xlink:href="#e"/><use x="450" xlink:href="#e"/></g></g><g><use x="282.013" y="333.36" stroke="#000" stroke-width=".8" xlink:href="#b"/><g transform="matrix(0 -.1 -.1 0 284.825914 390.36)"><use xlink:href="#c"/><use x="50" xlink:href="#d"/><use x="100" xlink:href="#e"/><use x="150" xlink:href="#c"/><use x="200" xlink:href="#f"/><use x="250" xlink:href="#d"/><use x="300" xlink:href="#i"/><use x="350" xlink:href="#f"/><use x="400" xlink:href="#c"/><use x="450" xlink:href="#i"/></g></g><g><use x="295.099" y="333.36" stroke="#000" stroke-width=".8" xlink:href="#b"/><g transform="matrix(0 -.1 -.1 0 297.911195 390.36)"><use xlink:href="#c"/><use x="50" xlink:href="#d"/><use x="100" xlink:href="#e"/><use x="150" xlink:href="#c"/><use x="200" xlink:href="#f"/><use x="250" xlink:href="#d"/><use x="300" xlink:href="#k"/><use x="350" xlink:href="#f"/><use x="400" xlink:href="#d"/><use x="450" xlink:href="#m"/></g></g><g><use x="308.184" y="333.36" stroke="#000" stroke-width=".8" xlink:href="#b"/><g transform="matrix(0 -.1 -.1 0 310.996476 390.36)"><use xlink:href="#c"/><use x="50" xlink:href="#d"/><use x="100" xlink:href="#e"/><use x="150" xlink:href="#c"/><use x="200" xlink:href="#f"/><use x="250" xlink:href="#d"/><use x="300" xlink:href="#l"/><use x="350" xlink:href="#f"/><use x="400" xlink:href="#c"/><use x="450" xlink:href="#d"/></g></g><g><use x="321.269" y="333.36" stroke="#000" stroke-width=".8" xlink:href="#b"/><g transform="matrix(0 -.1 -.1 0 324.081757 390.36)"><use xlink:href="#c"/><use x="50" xlink:href="#d"/><use x="100" xlink:href="#e"/><use x="150" xlink:href="#c"/><use x="200" xlink:href="#f"/><use x="250" xlink:href="#e"/><use x="300" xlink:href="#d"/><use x="350" xlink:href="#f"/><use x="400" xlink:href="#d"/><use x="450" xlink:href="#l"/></g></g><g><use x="334.355" y="333.36" stroke="#000" stroke-width=".8" xlink:href="#b"/><g transform="matrix(0 -.1 -.1 0 337.167038 390.36)"><use xlink:href="#c"/><use x="50" xlink:href="#d"/><use x="100" xlink:href="#e"/><use x="150" xlink:href="#c"/><use x="200" xlink:href="#f"/><use x="250" xlink:href="#e"/><use x="300" xlink:href="#e"/><use x="350" xlink:href="#f"/><use x="400" xlink:href="#e"/><use x="450" xlink:href="#m"/></g></g><g><use x="347.44" y="333.36" stroke="#000" stroke-width=".8" xlink:href="#b"/><g transform="matrix(0 -.1 -.1 0 350.252319 390.36)"><use xlink:href="#c"/><use x="50" xlink:href="#d"/><use x="100" xlink:href="#e"/><use x="150" xlink:href="#c"/><use x="200" xlink:href="#f"/><use x="250" xlink:href="#e"/><use x="300" xlink:href="#c"/><use x="350" xlink:href="#f"/><use x="400" xlink:href="#j"/><use x="450" xlink:href="#e"/></g></g><g><use x="360.525" y="333.36" stroke="#000" stroke-width=".8" xlink:href="#b"/><g transform="matrix(0 -.1 -.1 0 363.3376 390.36)"><use xlink:href="#c"/><use x="50" xlink:href="#d"/><use x="100" xlink:href="#e"/><use x="150" xlink:href="#j"/><use x="200" xlink:href="#f"/><use x="250" xlink:href="#d"/><use x="300" xlink:href="#c"/><use x="350" xlink:href="#f"/><use x="400" xlink:href="#c"/><use x="450" xlink:href="#e"/></g></g><g><use x="373.61" y="333.36" stroke="#000" stroke-width=".8" xlink:href="#b"/><g transform="matrix(0 -.1 -.1 0 376.422881 390.36)"><use xlink:href="#c"/><use x="50" xlink:href="#d"/><use x="100" xlink:href="#e"/><use x="150" xlink:href="#j"/><use x="200" xlink:href="#f"/><use x="250" xlink:href="#d"/><use x="300" xlink:href="#g"/><use x="350" xlink:href="#f"/><use x="400" xlink:href="#d"/><use x="450" xlink:href="#l"/></g></g><g><use x="386.696" y="333.36" stroke="#000" stroke-width=".8" xlink:href="#b"/><g transform="matrix(0 -.1 -.1 0 389.508162 390.36)"><use xlink:href="#c"/><use x="50" xlink:href="#d"/><use x="100" xlink:href="#e"/><use x="150" xlink:href="#j"/><use x="200" xlink:href="#f"/><use x="250" xlink:href="#d"/><use x="300" xlink:href="#i"/><use x="350" xlink:href="#f"/><use x="400" xlink:href="#c"/><use x="450" xlink:href="#j"/></g></g><g><use x="399.781" y="333.36" stroke="#000" stroke-width=".8" xlink:href="#b"/><g transform="matrix(0 -.1 -.1 0 402.593443 390.36)"><use xlink:href="#c"/><use x="50" xlink:href="#d"/><use x="100" xlink:href="#e"/><use x="150" xlink:href="#j"/><use x="200" xlink:href="#f"/><use x="250" xlink:href="#d"/><use x="300" xlink:href="#k"/><use x="350" xlink:href="#f"/><use x="400" xlink:href="#d"/><use x="450" xlink:href="#m"/></g></g><g><use x="412.866" y="333.36" stroke="#000" stroke-width=".8" xlink:href="#b"/><g transform="matrix(0 -.1 -.1 0 415.678724 390.36)"><use xlink:href="#c"/><use x="50" xlink:href="#d"/><use x="100" xlink:href="#e"/><use x="150" xlink:href="#j"/><use x="200" xlink:href="#f"/><use x="250" xlink:href="#d"/><use x="300" xlink:href="#l"/><use x="350" xlink:href="#f"/><use x="400" xlink:href="#c"/><use x="450" xlink:href="#d"/></g></g><g><use x="425.952" y="333.36" stroke="#000" stroke-width=".8" xlink:href="#b"/><g transform="matrix(0 -.1 -.1 0 428.764005 390.36)"><use xlink:href="#c"/><use x="50" xlink:href="#d"/><use x="100" xlink:href="#e"/><use x="150" xlink:href="#j"/><use x="200" xlink:href="#f"/><use x="250" xlink:href="#e"/><use x="300" xlink:href="#d"/><use x="350" xlink:href="#f"/><use x="400" xlink:href="#e"/><use x="450" xlink:href="#d"/></g></g><g><use x="439.037" y="333.36" stroke="#000" stroke-width=".8" xlink:href="#b"/><g transform="matrix(0 -.1 -.1 0 441.849286 390.36)"><use xlink:href="#c"/><use x="50" xlink:href="#d"/><use x="100" xlink:href="#e"/><use x="150" xlink:href="#j"/><use x="200" xlink:href="#f"/><use x="250" xlink:href="#e"/><use x="300" xlink:href="#e"/><use x="350" xlink:href="#f"/><use x="400" xlink:href="#c"/><use x="450" xlink:href="#e"/></g></g><g><use x="452.122" y="333.36" stroke="#000" stroke-width=".8" xlink:href="#b"/><g transform="matrix(0 -.1 -.1 0 454.934567 390.36)"><use xlink:href="#c"/><use x="50" xlink:href="#d"/><use x="100" xlink:href="#e"/><use x="150" xlink:href="#g"/><use x="200" xlink:href="#f"/><use x="250" xlink:href="#d"/><use x="300" xlink:href="#e"/><use x="350" xlink:href="#f"/><use x="400" xlink:href="#d"/><use x="450" xlink:href="#j"/></g></g><g><use x="465.207" y="333.36" stroke="#000" stroke-width=".8" xlink:href="#b"/><g transform="matrix(0 -.1 -.1 0 468.019848 390.36)"><use xlink:href="#c"/><use x="50" xlink:href="#d"/><use x="100" xlink:href="#e"/><use x="150" xlink:href="#g"/><use x="200" xlink:href="#f"/><use x="250" xlink:href="#d"/><use x="300" xlink:href="#c"/><use x="350" xlink:href="#f"/><use x="400" xlink:href="#c"/><use x="450" xlink:href="#e"/></g></g><g><use x="478.293" y="333.36" stroke="#000" stroke-width=".8" xlink:href="#b"/><g transform="matrix(0 -.1 -.1 0 481.105129 390.36)"><use xlink:href="#c"/><use x="50" xlink:href="#d"/><use x="100" xlink:href="#e"/><use x="150" xlink:href="#g"/><use x="200" xlink:href="#f"/><use x="250" xlink:href="#d"/><use x="300" xlink:href="#g"/><use x="350" xlink:href="#f"/><use x="400" xlink:href="#d"/><use x="450" xlink:href="#g"/></g></g><g><use x="491.378" y="333.36" stroke="#000" stroke-width=".8" xlink:href="#b"/><g transform="matrix(0 -.1 -.1 0 494.19041 390.36)"><use xlink:href="#c"/><use x="50" xlink:href="#d"/><use x="100" xlink:href="#e"/><use x="150" xlink:href="#g"/><use x="200" xlink:href="#f"/><use x="250" xlink:href="#d"/><use x="300" xlink:href="#i"/><use x="350" xlink:href="#f"/><use x="400" xlink:href="#c"/><use x="450" xlink:href="#e"/></g></g><g><use x="504.463" y="333.36" stroke="#000" stroke-width=".8" xlink:href="#b"/><g transform="matrix(0 -.1 -.1 0 507.275691 390.36)"><use xlink:href="#c"/><use x="50" xlink:href="#d"/><use x="100" xlink:href="#e"/><use x="150" xlink:href="#g"/><use x="200" xlink:href="#f"/><use x="250" xlink:href="#d"/><use x="300" xlink:href="#k"/><use x="350" xlink:href="#f"/><use x="400" xlink:href="#d"/><use x="450" xlink:href="#j"/></g></g><g><use x="517.548" y="333.36" stroke="#000" stroke-width=".8" xlink:href="#b"/><g transform="matrix(0 -.1 -.1 0 520.360972 390.36)"><use xlink:href="#c"/><use x="50" xlink:href="#d"/><use x="100" xlink:href="#e"/><use x="150" xlink:href="#g"/><use x="200" xlink:href="#f"/><use x="250" xlink:href="#d"/><use x="300" xlink:href="#l"/><use x="350" xlink:href="#f"/><use x="400" xlink:href="#e"/><use x="450" xlink:href="#g"/></g></g><g><use x="530.634" y="333.36" stroke="#000" stroke-width=".8" xlink:href="#b"/><g transform="matrix(0 -.1 -.1 0 533.446253 390.36)"><use xlink:href="#c"/><use x="50" xlink:href="#d"/><use x="100" xlink:href="#e"/><use x="150" xlink:href="#g"/><use x="200" xlink:href="#f"/><use x="250" xlink:href="#d"/><use x="300" xlink:href="#m"/><use x="350" xlink:href="#f"/><use x="400" xlink:href="#c"/><use x="450" xlink:href="#h"/></g></g><g><use x="543.719" y="333.36" stroke="#000" stroke-width=".8" xlink:href="#b"/><g transform="matrix(0 -.1 -.1 0 546.531534 390.36)"><use xlink:href="#c"/><use x="50" xlink:href="#d"/><use x="100" xlink:href="#e"/><use x="150" xlink:href="#g"/><use x="200" xlink:href="#f"/><use x="250" xlink:href="#e"/><use x="300" xlink:href="#e"/><use x="350" xlink:href="#f"/><use x="400" xlink:href="#e"/><use x="450" xlink:href="#g"/></g></g><g><use x="556.804" y="333.36" stroke="#000" stroke-width=".8" xlink:href="#b"/><g transform="matrix(0 -.1 -.1 0 559.616815 390.36)"><use xlink:href="#c"/><use x="50" xlink:href="#d"/><use x="100" xlink:href="#e"/><use x="150" xlink:href="#g"/><use x="200" xlink:href="#f"/><use x="250" xlink:href="#e"/><use x="300" xlink:href="#c"/><use x="350" xlink:href="#f"/><use x="400" xlink:href="#c"/><use x="450" xlink:href="#h"/></g></g><g stroke="#000" stroke-width=".8"><use x="569.89" y="333.36" xlink:href="#b"/><use x="582.975" y="333.36" xlink:href="#b"/></g></g><g stroke-linejoin="round"><g><use x="34.2" y="318.95" stroke="#000" stroke-width=".8" xlink:href="#n"/><g transform="matrix(.1 0 0 -.1 17.2 322.387632)"><use xlink:href="#d"/><use x="50" xlink:href="#o"/></g></g><g><use x="34.2" y="270.724" stroke="#000" stroke-width=".8" xlink:href="#n"/><g transform="matrix(.1 0 0 -.1 12.2 274.161469)"><use xlink:href="#i"/><use x="50" xlink:href="#d"/><use x="100" xlink:href="#o"/></g></g><g><use x="34.2" y="222.498" stroke="#000" stroke-width=".8" xlink:href="#n"/><g transform="matrix(.1 0 0 -.1 7.2 225.935306)"><use xlink:href="#e"/><use x="50" xlink:href="#d"/><use x="100" xlink:href="#d"/><use x="150" xlink:href="#o"/></g></g><g><use x="34.2" y="174.272" stroke="#000" stroke-width=".8" xlink:href="#n"/><g transform="matrix(.1 0 0 -.1 7.2 177.709143)"><use xlink:href="#e"/><use x="50" xlink:href="#i"/><use x="100" xlink:href="#d"/><use x="150" xlink:href="#o"/></g></g><g><use x="34.2" y="126.045" stroke="#000" stroke-width=".8" xlink:href="#n"/><g transform="matrix(.1 0 0 -.1 7.2 129.48298)"><use xlink:href="#c"/><use x="50" xlink:href="#d"/><use x="100" xlink:href="#d"/><use x="150" xlink:href="#o"/></g></g><g><use x="34.2" y="77.819" stroke="#000" stroke-width=".8" xlink:href="#n"/><g transform="matrix(.1 0 0 -.1 7.2 81.256817)"><use xlink:href="#c"/><use x="50" xlink:href="#i"/><use x="100" xlink:href="#d"/><use x="150" xlink:href="#o"/></g></g><g><use x="34.2" y="29.593" stroke="#000" stroke-width=".8" xlink:href="#n"/><g transform="matrix(.1 0 0 -.1 7.2 33.030654)"><use xlink:href="#j"/><use x="50" xlink:href="#d"/><use x="100" xlink:href="#d"/><use x="150" xlink:href="#o"/></g></g></g><g fill="none" stroke-linecap="square"><path stroke="#5b9bd5" stroke-linejoin="round" stroke-width="2" d="m59.563636 318.534545.436176-5.319943.436176.654111.436176-1.046325h.436176l.436177.545109.436176.007638.436176-1.153664.436176.344889.436176.588362h.436176l.436176.164793.436176-.771669.436176-2.456617h.872352l.436176-4.474694h.436176l.436176-1.414295h.436176l.872352-4.153274h1.308528l.436176-1.920047.436176-.319589h.872352l.436176-.419733.436176-2.909812h1.308528l.436177.656139h.436176l.436176.649753.436176 1.068611.436176.667119h.436176l.436176-.796098h.436176l.436176-.640026.436176-.231415.436176.98161h.436176l.436176 1.023134h.436176l.436176-4.427475h.436176l.436176-1.117926.436176.715419h.436176l.436176-1.28143h.436176l.436176.681611.436176.928064.436176-.331516.436176-.577819.436176-.377355h.872352l.436176-3.000511h.872353l.436176.691233.436176.061237.436176-.597596.436176.565559.436176-3.536361.436176.115616.436176.33138h.436176l.436176.147155h.872352l.436176-1.554369h.872352l.436176.771059.436176-.38389.436176-.67437.436176-2.60505 1.308528 2.18557h.436176l.436176.219685.436176.737887h.436176l.872352 1.559006h.436176l.436177-.194755.436176-1.047161.436176 1.687478.436176-.286773.436176.728706.436176-.89534.436176.828633.872352-2.636461.436176.696762.436176.942637.872352-2.823886h.436176l.436176.906289.436176-.419196.436176-.981202.436176-.102321.436176.462079.436176-2.146191.436176-1.339261h.436176l.436176-.622113.436176-1.055732h.436176l.436176-3.297331h3.489409l.436176.442197h.436176l.436176-.829508h.436176l.436176.826053.436176-.679728.436176.514607.436176.119704.436176-.367722h1.744704l.436176-1.945369h.872352l.436176-3.360959h.436176l.436176-2.045428h1.744704l.436176-5.559996h.436176l.436176-1.585105h.436177l.436176.865437.872352-4.619587.436176.863051.436176 1.147207.436176-2.228606.436176.212701.436176.474812h.436176l.436176.677983.436176-7.129556.872352-3.72639.436176.907351h.436176l.436176-5.126363.436176.984154h.436176l.436176.23463.436176.962938h.436176l.436176.603179.436176-.167336.436176-2.833306.436176-1.793708.872352 1.969502h.436176l.436177.611184.436176-3.015921.436176-.349377h.436176l.436176-4.090366.436176.970719h.436176l.436176.227983.436176 1.106371h.436176l.436176-.19694.872352.505838.436176-2.014676.436176 1.173666h.436176l.436176-3.159454.436176 1.017613h.872352l.436176.213418.436176.080012.436176-3.993877.436176.970214 1.308528-.015266.436176 1.574431.436176 1.10698h.436176l.436177-1.591939.436176 1.062697.436176 1.628707h.436176l.436176-.650239.436176 2.046463h.436176l.436176-2.246808.436176-.84799h.872352l.436176.860595.436176 1.353245h.436176l.436176.234032.436176-.564989.436176.023283.436176 2.101744.436176.519089.436176.964697.436176-1.677716.872352.897546.436176-.754636.436176-1.260656.436176-.809465.436176-1.756321.436176.046611.436176 1.117732.436177-.13466.436176-1.266852.436176.89694.436176.457432.436176-.029091.436176.950325.436176 1.693824.436176-.345499 1.308528 2.849638.436176-2.291159.436176.696607h.436176l.436176.49117.872352-.020293.436176-2.138507.436176 1.112261.436176-.732403h.436176l.436176-1.122279.436176-.62191.436176.775284.436176-3.728638.436176.347482.436176.084144.436176.59969.436176-.810008.872353-.678595.436176.084784.436176-2.929822.436176-1.324118.436176.667625.436176-.636566.436176-1.310349.436176.995457.436176-1.291435 1.308528-1.018337.436176-1.818469.436176.761046.436176-.22484.436176.246966.436176-1.315753.436176-3.262442.436176 1.058702.436176.484501h.436176l.872352-3.385675.436176-1.61248.436176.015883.436176 1.165937.436176 2.134274.872352 2.169148.436176-.123686.436177-2.257226.436176 1.92605.436176 1.180207h.436176l.436176.775887.436176-.891184.436176.68337.436176-.557177.436176-4.442157.436176.065166.436176.221887.872352 2.207645.436176.475869.436176.077766.436176-.312533.436176.322136.436176 2.192091h.872352l.436176-.683138.436176-1.231402.436176-.189434.436176-.067523.436176 1.020198h.436176l.436176-1.617476.436176 2.156531h1.308529l.436176-2.37945h.436176l.436176.334519.436176-3.426148.436176-.486741h.872352l.436176-1.436662.436176.022424.436176 2.774385.436176-1.148747.436176-.089265.436176-.428481.436176 2.47807.436176-.674503.436176.472741.436176-1.983029.436176.720519.436176 1.7383h.436176l.436176 1.149767.436176-1.446008.436176 1.442092.436176-.714707.872352 2.630451.436176-.020979.436176-3.955607.872353-.005007.436176 1.143006.436176.155429.436176 1.046188.436176-.170491.436176-2.458083.436176.442087.436176-.295079.872352 2.059743h.872352l.436176.71413.436176.981664.436176-5.829004.436176-1.180864h.436176l.436176.7453.436176-.595164.872352-2.041869.436176-1.9576.436176-.032905.436176.963195.436176-3.559245.436176.500397.872352.567143h.872353l.436176 1.075595.436176-.654353.436176 2.433713.436176-.72752.436176-5.363218.436176-2.875418 2.18088 5.705157.436176-.349782.436176 1.086787.436176-2.435485.436176-.724632.436176-1.032322.436176 1.111822.436176-2.485979h.436176l.436176-1.734727h.872352l.436176-.877023h.436176l.436176 1.326726.436176.096501.436176 1.049925.436176-5.051265h1.308529l.436176-4.43898.436176 1.235812.436176 2.236419h.436176l.436176-2.808882.436176-7.216922h.872352l.436176-.188355h.436176l.436176 1.175442h.436176l.436176-2.558688.436176-.796554.436176.171847.436176-2.693697.436176-4.703942h.872352l.436176 1.606393h.436176l.872352 3.841923h.436176l.436176-.656429.436176-1.872039.436176.278993.436177 1.220325.436176-1.740923.436176 1.310365.436176-.701007.436176 1.210344.436176-.647757.436176-1.396719.436176-.429998.436176-.11394.872352-2.683119.872352-.490497.436176-1.213339.436176-7.533575.436176.167874.436176 1.490682.436176.023936.436176.533027h.436176l.436176.805673.436176 1.302942.436176.265165.436176-1.029774.436176-4.321457.436176-.301176.436176 2.469462.436176-4.363187.436176 1.617212.436177-.520064.436176 1.5157h.436176l.436176-1.84711.436176-.31298.872352.022218.436176 1.773368h.436176l.436176-1.688998.436176.200315.872352 2.700192.436176 2.482158.436176.591612.436176-1.843071.436176.458045.436176-1.133888.436176 1.304159.436176-.778667.436176-1.253366.436176 1.141006 1.308528 5.359906.436176-2.201897.436176.76961.436176-1.373026h.436176l.436176-.440672.872353 5.284169.436176-.13704.436176-.310765.436176-2.420762.872352.45251.436176-.826146.436176-4.263402.872352 2.884092.436176-2.553727.436176-1.428889.436176.291774.436176 1.159208.436176-2.381404.436176-.584702.436176 2.676404.436176 1.266613.436176-.520724.436176 1.952283.872352-4.847719.436176-.110826.436176-1.848115.436176-1.343552.436176-1.87247.436176.578321.436176-2.076221h.436176l.436177-.850714.872352-7.962214.436176-1.037211.436176.160627.872352 2.651037.436176-2.961437.436176-.025329.436176 1.63864.436176-1.685795.436176-1.153286.436176.659241.436176 1.70905.872352-2.311663.436176.972572h.436176l.436176.682193.436176-.379533.436176.154063.436176 1.541199.436176-.726373.436176.061108.436176.970976.436176 2.808571.436176.103988.436176-2.756776.436176-.085621.436177-.338852.436176.725504.436176-.610424.436176 1.905489.436176.49431.436176-1.14953.436176 1.660079.436176-1.559677.436176-.798077.436176.681801.872352 2.793408.436176-.315266.436176-2.126497.436176-.019804.436176.243295.436176-3.063751.436176-10.170395.436176.479087.436176-1.998238h.872352l.436176 2.532735.436176-2.555779.436176.054743.436176.714316.436176-3.492938.436176-1.443702h.436176l.436176 1.4789.436177-.396975.436176 3.173626.436176-3.065942h.436176l.436176-.607682.436176.789811h.436176l.436176.222162.436176-.344032h.436176l.436176.126956h.436176l.436176.933066.436176-.311481.436176-2.97776.436176-.174511.436176 1.117333.436176-4.943755.436176.944233.436176 1.657482.436176-.591662.436176-4.235212.436176-1.401675.436176 1.562151.436176-3.861514h.436176l.436176-2.682126.436176.703141.436176 1.654365.436177-1.268267.436176-.49075.436176 3.45135.436176-.145833.436176 1.590358.436176 1.10617h.436176l.872352-.745711.436176 3.363944.436176 1.514042.436176.112406.872352 3.63294.872352-3.733969.436176-8.075968.436176-.22272.436176 1.979688.436176-.447509.436176.06439.436176 2.50632h.436176l.436176-6.781015.436176-.210691 2.18088.107362.436177-5.870646.436176.494843.436176.203946.436176-1.926525h.436176l.436176-4.325382h.872352l.436176-.847731.436176.930717.436176-2.259379.436176-9.704913.436176 1.650973.436176 2.095511h.436176l.436176 2.368684h.436176l.436176 1.863116h.436176l.436176 2.412356.436176.027714.436176 1.682513.872352-.924191.436176 1.833443.436176-3.932996.436176.371183.436176.57306.436176-.069679.436176-1.94269.436177 1.973616h.436176l.436176.758398.436176.480897.436176-2.68276.436176 1.814228h.436176l.436176-1.688524h.436176l.436176-.902814h1.744704l.436176-2.160788h1.308528l.436176-2.38521.436176 1.677026h1.308528l.436176-3.830502h.436176l.436176 1.946773h.872352l.436176 1.761752h.436177l.436176.979943h.436176l.436176 1.652984.436176 4.499554.436176.576261.436176 1.582748h.436176l.436176-.928337.872352 2.606331.436176-1.500855.872352 3.842573.436176-2.390627.436176-.43765.436176-3.366977h1.308528l.436176 1.906992h.436176l.436176.829913h.436176l.436176-.438894.436176 1.567093.436176 3.261656.436176 1.729699.436176-3.677619.436176 1.597416h.436177l.436176-4.551511 2.18088-.055632.436176 1.639217.436176-5.59386.436176-1.587578.436176 2.797449.436176-3.032412.436176 1.138987.436176-2.792006.436176-.675331.436176 3.273618.436176-.426445.436176.405268.436176-.734254h.436176l.436176-.631795h.436176l.436176-.73432h.436176l.436176-11.057347h3.489409l.436176 1.823696.436176-.719422.436176 1.207234.436176 1.705963.436176-2.883692.436176 1.802886h1.744704l.436176-9.442679h2.617056l.436176-1.106118 1.308528.094629.436176-1.622006.436176 1.20403h2.180881l.436176 2.527766h.872352l.436176-1.165552.436176.595101h.436176l.872352 3.507714h.436176l.436176 1.742993h1.744704l.436176-1.466287.436176.456964.436176 1.031474h.436176l.436176-6.405807.436176 2.54239.436176 1.781074.436176 3.916189h.436176l.436176-.125803.436176-3.43655.436176.143429.436176-.27452.436176-2.274193h.436177l.436176-1.694106.436176 1.920485h.436176l.436176-.811653.436176-2.087392.436176-3.101917.436176-1.651009.436176 1.243382.436176-.442098.436176 1.794353.436176-2.804472 1.308528-4.150876h1.308528l.436176 1.856809h.872352l.436176 2.007835.436176-1.803158.436176.346194.436176.090016.436176 2.024132.436176 3.580104h.872352l.436177 2.735693.436176-1.801086h.436176l.436176-7.134638h.436176l.436176-.154514h.436176l.436176-.966747.436176.54002h.436176l.436176 1.265234h1.308528l.436176.476143.436176-2.653406.436176-.771082.436176.094235.436176-.450297.436176-.642616.436176 1.292659.436176-1.553915.436176 1.827548.436176-1.543013.436176-5.149497.436176-.538623.436176.674969.436176-2.567949.436176-1.407557.436176 1.969405.436177-.826605h.436176l.436176-.633683.872352-.325379h.436176l.436176.128329.436176-2.576717.436176-1.686169.436176-.461161h.436176l.436176-3.674626h.436176l.436176.551461.436176-2.265611.436176-.958515.436176 1.193094h.436176l.436176.852404.436176 2.257193.436176-3.22929.436176.546638.436176-3.726084.436176 1.814115.436176.99978.436176-.310698.436176 2.356682.872352-4.92446.436176-.521655.436177.606117.436176 2.681402.436176-1.113645.436176-.322544.436176-2.015946h.436176l1.308528-7.44851.436176-8.959928.436176.915136h1.744704l.436176.248695.436176 3.054931h.872352l.436176 2.038472h.436176l.436176-.737826.436176.572167h.436176l.436176 2.069311.872352-9.844615.436176-6.963048h1.308529l.436176 1.516498h.436176l.436176-1.496528h.436176l.436176 4.402514.436176-2.115684.436176.781223.436176-1.018072.436176 1.207407.436176-6.538069.872352-2.075822.436176.882374.436176 1.264655h.436176l.436176 1.506547.436176-7.005075.436176 2.061059.436176.114078.436176 4.389321.436176 2.087786h.436176l.436176 2.686445.436176-.914762.436176-3.960216.436176-1.112011.436176.296006h.436176l.436177 2.518386h.436176l.436176-1.951707.436176 1.401861.436176-2.014083.436176.554146.436176-.43885.436176-2.095683.872352 4.564498.436176-2.528536.872352 5.368875.436176-4.479981.436176-1.784126.436176 4.106203.436176 2.873797.436176.410326.872352-7.853439.436176 1.868086h.436176l.872352 3.651796.436176.39443.436176.748365.436176-.552432.436176.503711.436176-3.184965.436177.836708.436176 2.095648.436176-1.218118.436176 1.092753.436176 1.439293.436176.153313.436176-.490084.436176-.164817.436176-1.802649.436176-.094759.436176.112169.436176 2.236359.436176-.376173.436176 1.885871.872352 2.146167.436176-1.993071.436176.151797.436176-.837931.436176-.591309.436176-1.973106.436176.508778.436176-5.000897.436176.465958h.436176l.436176-4.711823.436176.91678.436176 2.276457.436176 3.631563 1.308529 6.334092.436176-1.227449.872352 4.627329.436176 2.401445.436176 1.674238.436176-1.200789.436176-4.549504.436176 3.355315.436176 2.067507h.436176l.436176.337576.436176 1.493387.436176.619746.436176 1.765064.436176-1.365174.436176.042186.436176.651415.436176 1.990856.436176-2.739703.436176 1.364425.436176-4.761588.436176.455663.436176-.784695.436176-2.19479.872352-.435163.436176-2.665126.436176-.946101.436177.602397h.436176l.872352-.758745.436176-2.958393h.436176l.436176-.388487.436176-6.199779.436176 2.51892h.436176l.436176 2.244031.436176.059741.436176 1.036054.436176 2.313986.436176 1.379304.436176-1.936471.436176.273198.436176 2.309153.436176-2.603436.436176.853386.436176.075979.436176-.951677.436176-.230164.872352 3.727216.436176.309187.436176-6.007771.436176 2.037202.436176-.495304h.436177l.436176 2.593012.436176-.466337.436176-.211228.436176-2.503997.436176 2.127209.436176-4.225739h.436176l.436176-3.363245h.436176l.436176 2.205873h.436176l.436176-.17259.436176 2.008117.436176-.917077.872352 4.483666.436176.699002h.436176l.436176 2.080612h.872352l.436176-5.376582h3.489409l.436176-3.703397h5.234112l.436176-.628679h.872352l.436176-4.161077.436176 2.854034.436176 2.103514h.872352l.436176 2.032008h1.308528l.436176-5.116601.436176 2.34468h.872353l.436176-4.411435.436176 2.338897h.872352" clip-path="url(#a)"/><path stroke="#000" stroke-linejoin="miter" stroke-width=".8" d="m34.2 333.36v-326.16"/><path stroke="#000" stroke-linejoin="miter" stroke-width=".8" d="m592.2 333.36v-326.16"/><path stroke="#000" stroke-linejoin="miter" stroke-width=".8" d="m34.2 333.36h558"/><path stroke="#000" stroke-linejoin="miter" stroke-width=".8" d="m34.2 7.2h558"/></g><g stroke-linejoin="round"><path fill="none" stroke="#5b9bd5" stroke-linecap="square" stroke-width="2" d="m173.4 315.970325h20"/><g transform="matrix(.1 0 0 -.1 201.4 319.470325)"><path d="m55.46875 37.109375q5.078125 0 9.5625.96875 4.5.984375 6.640625 2.15625 2.15625 1.171875 5.28125-.203125 3.125-1.359375 5.859375-3.703125 2.734375-2.34375 0-3.71875-2.734375-1.359375-7.03125-6.4375-4.296875-5.078125-13.484375-13.484375-9.171875-8.390625-20.890625-14.046875-11.71875-5.671875-22.46875-6.84375-10.734375-1.171875-.578125 1.953125 10.15625 3.125 20.703125 8.984375 10.546875 5.859375 15.234375 10.546875-3.125 2.34375-7.421875 6.828125-4.296875 4.5-2.34375 4.890625 1.953125.390625 6.828125-1.375 4.890625-1.75 5.28125-8.78125 6.25 5.078125 10.9375 11.125 4.6875 6.0625 4.6875 8.015625 0 1.953125-4.109375 1.171875-4.09375-.78125-7.8125-1.375-3.703125-.578125-6.828125 1.765625-6.25-6.25-14.0625-10.359375-7.8125-4.09375-13.875-5.65625-6.046875-1.5625.59375 1.953125 6.640625 3.515625 13.859375 8.78125 7.234375 5.28125 9.765625 9.375 2.546875 4.109375 2.546875 5.671875 0 1.953125 2.734375.78125 2.734375-1.171875 4.296875-2.9375 1.5625-1.75 0-2.734375-1.5625-.96875-3.90625-3.3125zm-4.296875 35.15625q10.15625 0 13.078125 1.359375 2.9375 1.375 5.46875.203125 2.546875-1.171875 4.6875-2.9375 2.15625-1.75-.390625-2.734375-2.53125-.96875-5.078125-4.09375-2.53125-3.125-7.03125-7.421875-4.484375-4.296875-9.171875-7.625-4.6875-3.3125-13.09375-7.21875-8.390625-3.90625-15.234375-4.296875-6.828125-.390625-.96875 1.75 5.859375 2.15625 11.90625 5.078125 6.0625 2.9375 13.09375 7.625-6.640625 5.46875-7.421875 7.421875-.78125 1.953125 2.921875 1.359375 3.71875-.578125 5.671875-2.53125 1.953125-1.953125 1.5625-4.296875 3.125 2.34375 7.03125 6.640625 3.90625 4.296875 4.6875 6.640625.78125 2.34375-2.34375 2.34375-2.734375 0-5.46875-.390625-2.734375-.390625-5.46875 1.171875-3.90625-3.515625-10.359375-8.40625-6.4375-4.875-13.671875-7.03125-7.21875-2.140625-.1875 1.953125 7.03125 4.109375 14.640625 11.71875 7.625 7.625 7.8125 10.75.203125 3.125 2.34375 2.140625 2.15625-.96875 4.5-2.921875 2.34375-1.953125 1.171875-2.734375-1.171875-.78125-4.6875-3.515625z"/><path d="m50.78125 30.078125q7.421875-9.375 14.453125-15.828125 7.03125-6.4375 12.6875-8.390625 5.671875-1.953125 11.71875-3.515625 6.0625-1.5625 3.71875-2.734375-2.34375-1.171875-12.890625-1.953125-10.546875-.78125-14.65625 4.875-4.09375 5.671875-16.203125 24.421875-3.125-12.890625-8.796875-18.953125-5.65625-6.046875-15.234375-8.578125-9.5625-2.546875-2.140625.96875 7.421875 3.515625 12.296875 9.375 4.890625 5.859375 6.640625 11.328125 1.765625 5.46875 2.34375 9.375.59375 3.90625-.78125 6.046875-1.359375 2.15625 1.375 1.765625 2.734375-.390625 5.078125-1.5625 2.34375-1.171875 1.359375-2.34375-.96875-1.171875-.96875-4.296875zm-3.125 18.359375q5.46875.390625 11.328125 2.34375 5.859375 1.953125 8.78125 3.703125 2.9375 1.765625 6.25.59375 3.328125-1.171875 6.640625-3.90625 3.328125-2.734375-2.140625-4.296875-5.46875-1.5625-10.9375-6.640625-5.46875-5.078125-3.328125-.78125 2.15625 4.296875 2.9375 6.640625.78125 2.34375-1.765625 2.140625-2.53125-.1875-8.78125-1.953125-6.25-1.75-9.765625.203125-4.6875-7.03125-8.984375-9.765625-4.296875-2.734375 0 3.3125 4.296875 6.0625 8.203125 17.390625 3.90625 11.328125 2.53125 15.421875-1.359375 4.109375 1.765625 3.125 3.125-.96875 5.65625-2.921875 2.546875-1.953125 1.171875-3.515625-1.359375-1.5625-3.515625-7.03125-2.140625-5.46875-6.046875-14.0625zm-20.703125-13.671875q5.078125 5.859375 2.34375.1875-2.734375-5.65625-6.84375-11.90625-4.09375-6.25-7.03125-12.890625-2.921875-6.640625-6.25-.78125-3.3125 5.859375-1.171875 6.4375 2.15625.59375 8.015625 6.84375 5.859375 6.25 10.9375 12.109375zm-9.765625 18.75q-2.34375 3.125-3.71875 5.46875-1.359375 2.34375 4.6875.578125 6.0625-1.75 7.8125-5.46875 1.765625-3.703125.59375-6.4375-1.171875-2.734375-4.109375 0-2.921875 2.734375-5.265625 5.859375z" transform="translate(100)"/><path d="m60.9375 63.671875q2.34375-1.953125 3.3125-3.515625.984375-1.5625 0-3.125-.96875-1.5625-1.359375-11.71875 16.015625 1.5625 20.3125 2.53125 4.296875.984375 8.59375-2.140625 4.296875-3.125-1.375-3.328125-5.65625-.1875-27.140625-1.75.390625-24.21875 0-35.9375-.390625-11.71875-2.15625-12.109375-1.75-.390625-2.140625 10.734375-.390625 11.140625-.78125 36.921875l-17.1875-1.5625q-1.953125-15.234375-6.84375-23.25-4.875-8-11.90625-12.296875-7.03125-4.296875-1.5625 1.171875 5.46875 5.46875 9.5625 13.078125 4.109375 7.625 5.671875 20.515625-16.40625-1.5625-19.921875-2.15625-3.515625-.578125-7.421875 2.546875-3.90625 3.125 3.515625 2.921875 7.421875-.1875 24.21875 1.375.390625 14.84375-1.953125 17.578125-4.296875 0-6.25.578125-1.953125.59375-3.90625 2.34375-1.953125 1.765625 3.3125 1.953125 5.28125.203125 12.890625 1.171875 7.625.984375 15.046875 2.15625 7.421875 1.171875 12.6875 2.34375 5.28125 1.171875 8.59375-1.5625 3.328125-2.734375-.78125-3.515625-4.09375-.78125-15.03125-1.953125zm-3.125-19.140625q0 7.421875-.203125 10.9375-.1875 3.515625-2.140625 7.421875-12.109375-1.5625-16.40625-1.953125 4.296875-3.90625 3.515625-5.28125-.78125-1.359375-1.171875-12.6875z" transform="translate(200)"/><path d="m35.9375 35.9375q-.78125-13.28125-.78125-21.09375 0-7.8125 2.34375-10.9375 2.34375-3.125 9.5625-3.328125 7.234375-.1875 15.046875 1.171875 7.8125 1.375 9.171875 5.671875 1.375 4.296875 2.34375 10.15625.984375 5.859375 1.765625-2.34375.78125-8.203125 2.921875-10.75 2.15625-2.53125-1.75-5.0625-3.90625-2.546875-9.375-3.515625-5.46875-.984375-16.015625-1.375-10.546875-.390625-15.625 3.515625-5.078125 3.90625-4.890625 14.84375.203125 10.9375-.1875 16.796875-.390625 5.859375-1.953125 9.171875-1.5625 3.328125.78125 2.9375 2.34375-.390625 4.484375-1.5625 2.15625-1.171875 8.015625.1875 5.859375 1.375 8.59375 3.328125 2.734375 1.953125 5.265625 1.171875 2.546875-.78125 5.078125-2.15625 2.546875-1.359375.59375-3.515625-1.953125-2.140625-2.34375-9.765625-.390625-7.609375-1.953125-10.546875-1.5625-2.921875-4.109375-4.875-2.53125-1.953125-3.515625.78125-.96875 2.734375-5.078125 6.25-4.09375 3.515625 1.375 2.34375 5.46875-1.171875 6.4375 2.140625.984375 3.328125.984375 8.40625 0 5.078125-2.34375 4.875-2.34375-.1875-14.84375-2.921875zm10.546875 30.46875q6.25-5.46875 15.234375-12.5 8.984375-7.03125 15.625-10.15625 6.640625-3.125 14.453125-5.078125 7.8125-1.953125-.78125-2.9375-8.59375-.96875-13.875-.78125-5.265625.203125-8 3.90625-2.734375 3.71875-8.203125 9.1875l-15.625 16.40625q-8.203125-12.5-16.609375-21.875-8.390625-9.375-17.578125-14.265625-9.171875-4.875-1.359375 1.5625 7.8125 6.453125 14.640625 15.046875 6.84375 8.59375 12.3125 17.765625 5.46875 9.1875 4.875 12.3125-.578125 3.125 2.15625 2.34375 2.734375-.78125 5.265625-2.546875 2.546875-1.75.984375-3.3125-1.5625-1.5625-3.515625-5.078125z" transform="translate(300)"/><path d="m46.484375 49.609375q4.296875.78125 8.78125 1.953125 4.5 1.171875 7.03125-.984375 2.546875-2.140625-1.171875-2.734375-3.703125-.578125-14.640625-2.140625l-.390625-7.8125q12.890625 2.734375 14.640625 3.703125 1.765625.984375 4.5 0 2.734375-.96875 4.6875-2.53125 1.953125-1.5625.1875-3.328125-1.75-1.75-2.53125-6.4375-.78125-4.6875-3.90625-8.015625-3.125-3.3125-4.6875-.1875-1.5625 3.125-4.890625 5.65625-3.3125 2.546875.59375 1.375 3.90625-1.171875 5.46875-.984375 1.5625.203125 2.34375 5.46875.78125 5.28125-2.734375 4.890625-3.515625-.390625-13.671875-2.34375v-10.9375q16.015625-10.15625 27.34375-14.0625 11.328125-3.90625 18.359375-4.5 7.03125-.578125 2.921875-2.140625-4.09375-1.5625-10.34375-2.546875-6.25-.96875-8.984375.203125-2.734375 1.171875-11.328125 7.21875-8.59375 6.0625-17.96875 13.09375v-17.578125q0-5.859375-1.171875-10.9375-1.171875-5.078125-3.515625-.578125-2.34375 4.484375-1.171875 8.1875 1.171875 3.71875 1.5625 19.34375-4.6875-5.859375-12.890625-11.921875-8.203125-6.046875-16.015625-8.578125-7.8125-2.546875-.78125 1.359375 7.03125 3.90625 16.015625 11.71875 8.984375 7.8125 13.671875 14.84375v7.03125q-7.8125-.78125-14.0625-1.953125.390625-5.859375.390625-9.765625 0-3.515625-.984375-5.28125-.96875-1.75-2.734375.78125-1.75 2.546875-1.359375 4.296875.390625 1.765625.390625 4.890625 0 3.515625-2.15625 5.859375-2.140625 2.34375 4.5 1.5625.390625 0 4.296875.390625 3.90625.390625 11.71875 1.953125v7.8125q-7.03125-.390625-9.578125-.984375-2.53125-.578125-5.65625 1.375-3.125 1.953125 1.5625 1.953125 4.6875 0 13.28125 1.5625 0 5.859375-1.171875 7.609375-1.171875 1.765625.78125 1.375 1.953125-.390625 3.515625-1.171875 0 .390625 1.171875 1.953125 3.125 4.296875 5.46875 9.5625 2.34375 5.28125 1.359375 7.8125-.96875 2.546875 1.5625 2.15625 2.546875-.390625 4.6875-1.375 2.15625-.96875 1.171875-2.140625-.96875-1.171875-2.140625-3.515625 8.203125.78125 12.6875 1.953125 4.5 1.171875 7.421875-.78125 2.9375-1.953125-6.640625-3.71875-9.5625-1.75-14.25-.1875-4.296875-6.640625-9.375-10.15625-1.5625-1.171875-2.34375-1.5625 2.34375-.78125 1.953125-2.15625-.390625-1.359375-.78125-4.875zm-19.140625 17.96875q6.640625.78125 10.34375 2.140625 3.71875 1.375 6.25-.578125 2.546875-1.953125-5.265625-3.71875-7.8125-1.75-12.109375.59375-4.6875-7.8125-10.15625-12.3125-5.46875-4.484375-1.953125.390625 3.515625 4.890625 6.828125 11.921875 3.328125 7.03125 1.765625 9.765625-1.5625 2.734375.96875 2.140625 2.546875-.578125 5.078125-1.75 2.546875-1.171875 1.375-2.34375-1.171875-1.171875-3.125-6.25zm34.765625-10.546875q-1.953125 1.953125-3.328125 3.90625-1.359375 1.953125.984375 1.953125 2.734375 0 6.046875-1.5625 3.328125-1.5625 2.9375-4.890625-.390625-3.3125-2.546875-2.140625-2.140625 1.171875-4.09375 2.734375zm-35.546875.390625q-1.953125 3.515625 1.171875 2.734375 3.125-.78125 5.265625-2.34375 2.15625-1.5625 1.171875-4.109375-.96875-2.53125-3.125-.96875-2.140625 1.5625-4.484375 4.6875z" transform="translate(400)"/><path d="m54.6875 60.9375q3.125 0 7.609375 1.171875 4.5 1.171875 6.25 2.34375 1.765625 1.171875 3.71875.390625 1.953125-.78125 4.484375-3.125 2.546875-2.34375-.1875-3.90625-2.734375-1.5625-4.5-4.5-1.75-2.921875-8.78125-11.90625 5.859375-5.078125 10.734375-8.984375 4.890625-3.90625 9.96875-6.453125 5.078125-2.53125 10.546875-4.296875 5.46875-1.75-.59375-2.53125-6.046875-.78125-10.734375-.78125-4.296875 0-6.84375 2.53125-2.53125 2.546875-5.65625 6.453125-3.125 3.90625-10.15625 10.546875-5.859375-5.859375-9.96875-9.578125-4.09375-3.703125-10.546875-8.203125-6.4375-4.484375-13.671875-7.03125-7.21875-2.53125-.78125 1.375 6.453125 3.90625 15.625 11.515625 9.1875 7.625 15.828125 15.828125-3.515625 3.515625-9.375 7.8125-3.125-2.734375-6.25-4.6875-3.125-1.953125 0 2.140625 3.125 4.109375 6.828125 11.328125 3.71875 7.234375 4.6875 11.71875.984375 4.5.59375 6.84375-.390625 2.34375 2.734375 1.359375 3.125-.96875 5.265625-2.53125 2.15625-1.5625 0-3.71875-2.140625-2.140625-6.828125-11.125zm-25-34.375q-7.03125-1.171875-14.84375-2.34375-1.171875-4.6875-1.953125-3.328125-.78125 1.375-1.765625 7.625-.96875 6.25-1.953125 13.671875-.96875 7.421875-3.125 10.15625-2.140625 2.734375.78125 2.53125 2.9375-.1875 4.296875-.78125 1.375-.578125 8.59375 1.171875 7.234375 1.765625 9.1875 3.125 1.953125 1.375 4.09375.78125 2.15625-.578125 5.078125-2.140625 2.9375-1.5625 1.171875-3.71875-1.75-2.140625-2.921875-10.9375-1.171875-8.78125-2.9375-15.03125-1.75-6.25-3.703125-.78125zm41.015625-21.875q4.296875-4.6875.78125-4.6875h-6.25q-2.34375 0-16.40625-1.171875-1.5625-4.6875-2.734375-2.921875-1.171875 1.75-2.15625 10.34375-.96875 8.59375-2.53125 11.71875-1.5625 3.125.78125 2.53125 2.34375-.578125 3.90625-1.171875 1.5625-.578125 6.4375 0 4.890625.59375 8.40625 1.5625 3.515625.984375 5.078125 1.953125 1.5625.984375 4.6875-.578125 3.125-1.5625 5.65625-3.90625 2.546875-2.34375-.1875-4.296875-2.734375-1.953125-5.46875-9.375zm-21.875-2.34375q10.9375.78125 17.578125 1.5625 1.5625 8.59375 1.359375 11.125-.1875 2.546875-2.34375 2.734375-2.140625.203125-16.984375-1.359375 0-6.640625.390625-14.0625zm-.390625 48.4375q2.34375 1.171875 3.515625-.203125 1.171875-1.359375 7.421875-6.046875 5.078125 6.640625 7.03125 10.546875 1.953125 3.90625 1.75 4.484375-.1875.59375-2.53125.203125-2.34375-.390625-5.671875-1.5625-3.3125-1.171875-6.4375.78125-2.734375-5.078125-5.078125-8.203125zm-35.9375.390625q.78125-10.546875 1.953125-24.21875l5.859375 1.171875v10.15625q-2.734375-.390625-4.5.390625-1.75.78125 0 1.75 1.765625.984375 4.5 1.765625 0 6.640625-1.171875 10.15625-4.6875-.78125-6.640625-1.171875zm10.546875 1.953125q2.734375-1.953125 2.140625-3.328125-.578125-1.359375-.96875-6.4375 3.90625 1.171875 5.265625.1875 1.375-.96875.59375-1.953125-.78125-.96875-5.859375-2.53125-.390625-4.296875-.78125-10.15625 3.515625.390625 6.640625 1.171875.78125 4.6875 1.171875 11.125.390625 6.453125 0 9.765625-.390625 3.328125-2.34375 3.328125-1.953125 0-5.859375-1.171875z" transform="translate(500)"/><path d="m34.765625 40.625q9.765625.390625 17.96875 1.171875 7.8125 4.6875 7.609375 6.640625-.1875 1.953125 2.15625.78125 2.34375-1.171875 4.09375-3.125 1.765625-1.953125-.578125-2.546875-2.34375-.578125-9.1875-4.296875-6.828125-3.703125-21.671875-11.515625 15.625 1.171875 28.125 2.34375-1.953125 1.953125-3.515625 4.296875-1.5625 2.34375 1.359375 1.5625 2.9375-.78125 7.625-3.71875 4.6875-2.921875 4.296875-6.640625-.390625-3.703125-2.15625-2.921875-1.75.78125-6.828125 5.46875-7.8125-.78125-15.234375-1.953125 4.6875-3.125 3.515625-5.28125-1.171875-2.140625-.984375-8.203125.203125-6.046875.390625-9.5625.203125-3.515625-2.34375-7.421875-2.53125-3.90625-4.09375-.1875-1.5625 3.703125-6.0625 7.21875-4.484375 3.515625.203125 2.140625 4.6875-1.359375 6.046875-.1875 1.375 1.171875.984375 9.5625-.390625 8.40625-1.953125 11.140625-14.0625-2.34375-16.21875-3.515625-2.140625-1.171875-3.3125 0-1.171875 1.171875-1.765625 3.3125-.578125 2.15625 5.28125 3.328125 5.859375 1.171875 21.875 10.9375-16.40625-2.34375-18.953125-3.515625-2.53125-1.171875-3.703125.390625-1.171875 1.5625-1.5625 2.921875-.390625 1.375 2.53125 2.15625 2.9375.78125 7.625 4.296875 4.6875 3.515625 4.6875 5.078125l-5.859375-.78125q-1.953125-3.90625-3.71875-.390625-1.75 3.515625-4.09375 10.34375-2.34375 6.84375-5.28125 10.546875-2.921875 3.71875-.578125 3.71875 2.734375 0 5.46875-.78125 2.734375-.78125 11.90625.578125 9.1875 1.375 17.390625 2.734375 8.203125 1.375 10.15625 2.34375 1.953125.984375 5.078125-.1875 3.125-1.171875 6.4375-3.90625 3.328125-2.734375.59375-4.6875-2.734375-1.953125-5.859375-8.203125-3.125-6.25-5.671875-9.765625-2.53125-3.515625-5.265625.390625-7.03125-.78125-16.015625-1.5625 1.171875-.390625 1.953125-.78125 2.34375-1.171875-.59375-2.15625-2.921875-.96875-12.296875-7.609375zm15.234375 14.453125q5.078125.390625 7.8125.78125 2.734375.390625 5.078125-.78125 2.734375 3.515625 4.484375 10.34375 1.765625 6.84375.59375 8.40625-1.171875 1.5625-6.84375.78125-5.65625-.78125-13.078125-2.34375 2.34375-1.171875 2.140625-2.546875-.1875-1.359375-.1875-4.09375 3.90625.390625 5.859375.78125 1.953125.390625 3.703125-.984375 1.765625-1.359375-.578125-2.34375-2.34375-.96875-8.984375-1.75zm-5.859375 16.40625q-6.640625-.78125-13.671875-1.5625 2.34375-8.203125 4.296875-16.796875 5.46875.78125 10.9375 1.171875v6.25q-2.34375-.390625-4.5-.203125-2.140625.203125-3.703125 1.5625-1.5625 1.375.78125 1.5625 2.34375.203125 7.03125.984375 0 5.078125-1.171875 7.03125zm27.34375-56.25q3.125-1.171875 5.46875-3.515625 2.34375-2.34375 1.75-6.25-.578125-3.90625-2.921875-2.734375-2.34375 1.171875-4.6875 3.703125-2.34375 2.546875-5.859375 6.84375-3.515625 4.296875 0 3.703125 3.515625-.578125 6.25-1.75zm-46.09375.390625q2.34375 3.90625 3.125-.984375.78125-4.875-4.109375-10.9375-4.875-6.046875-5.859375-2.734375-.96875 3.328125 1.953125 7.03125 2.9375 3.71875 4.890625 7.625z" transform="translate(600)"/><path d="m67.578125 46.484375q10.15625 1.5625 13.671875 2.34375 3.515625.78125 7.421875-.984375 3.90625-1.75.1875-2.734375-3.703125-.96875-21.28125-2.53125 0-24.21875-.390625-37.703125-.390625-13.46875-2.734375-13.65625-2.34375-.203125-2.34375 13.078125v37.5q-10.15625-1.953125-14.265625-2.9375-4.09375-.96875-7.8125 1.5625-3.703125 2.546875.203125 2.734375 3.90625.203125 8.203125.59375 4.296875.390625 13.671875 1.953125 0 14.453125-.203125 20.3125-.1875 5.859375-2.140625 9.765625-1.953125 3.90625 1.5625 2.921875 3.515625-.96875 6.828125-2.921875 3.328125-1.953125 1.171875-5.28125-2.140625-3.3125-1.75-24.015625zm-39.453125-26.953125q7.03125 3.515625 11.125 5.46875 4.109375 1.953125 1.953125 0-2.140625-1.953125-8-7.234375-5.859375-5.265625-8.40625-9.375-2.53125-4.09375-4.875.390625-2.34375 4.5-.203125 6.453125 2.15625 1.953125 3.515625 6.25 1.375 4.296875 1.953125 10.734375.59375 6.453125.78125 9.375.203125 2.9375-3.703125 1.765625-3.90625-1.171875-6.640625-2.546875-2.734375-1.359375-6.453125.59375-3.703125 1.953125.59375 2.53125 4.296875.59375 9.765625 2.34375 5.46875 1.765625 6.640625 3.71875 1.171875 1.953125 4.6875.78125 5.46875-1.5625 3.3125-3.515625-2.140625-1.953125-3.125-5.28125-.96875-3.3125-2.921875-22.453125zm1.953125 55.859375q4.6875-.390625 6.828125-2.34375 2.15625-1.953125 1.375-5.46875-.78125-3.515625-5.28125-.984375-4.484375 2.546875-8.203125 6.0625-3.703125 3.515625 5.28125 2.734375z" transform="translate(700)"/><path d="m54.296875 45.3125q-3.125-3.515625-5.46875-4.890625-2.34375-1.359375-.984375.984375 1.375 2.34375 4.6875 8.203125 3.328125 5.859375 5.46875 12.890625 2.15625 7.03125 1.765625 9.953125-.390625 2.9375.78125 2.734375 1.171875-.1875 5.46875-1.953125 4.296875-1.75 2.140625-4.484375-2.140625-2.734375-4.875-8.015625-2.734375-5.265625-7.421875-13.078125 10.546875 3.125 18.75 6.640625 8.203125 3.515625 12.6875 1.75 4.5-1.75-2.921875-4.484375-7.421875-2.734375-15.234375-5.078125 3.90625-3.125 2.921875-6.640625-.96875-3.515625-1.359375-7.625-.390625-4.09375-3.125-11.515625 4.296875-4.296875 11.125-8.40625 6.84375-4.09375 13.671875-5.46875 6.84375-1.359375 2.15625-2.34375-4.6875-.96875-10.9375-1.171875-6.25-.1875-9.765625 2.9375l-9.375 9.765625q-4.296875-4.296875-9.1875-6.453125-4.875-2.140625-10.9375-2.34375-6.046875-.1875-.78125 1.5625 5.28125 1.765625 9.765625 4.5 4.5 2.734375 8.015625 7.421875-2.734375 3.515625-6.25 8.390625-3.515625 4.890625-6.453125 7.234375-2.921875 2.34375-1.171875 2.53125 1.765625.203125 3.328125-.578125 1.5625-.78125 3.703125-3.125 2.15625-2.34375 8.796875-10.15625 1.953125 4.296875 2.34375 11.515625.390625 7.234375-1.171875 8.796875-7.03125-.78125-10.15625 0zm-16.015625 7.421875q-.78125-14.84375-.78125-19.53125 0-4.296875-.390625-21.296875-.390625-16.984375-1.953125-17.5625-1.5625-.59375-3.125 3.703125-1.5625 4.296875-.59375 7.8125.984375 3.515625 1.375 23.046875-14.453125-10.9375-17.578125-15.234375-3.125-4.296875-4.6875-3.328125-1.5625.984375-2.34375 3.515625-.78125 2.546875 1.75 4.6875 2.546875 2.15625 5.28125 6.0625 2.734375 3.90625 1.953125 13.078125-.78125 9.1875-2.9375 12.3125-2.140625 3.125.78125 2.53125 2.9375-.578125 5.28125-1.75 2.34375-1.171875 1.75-4.296875-.578125-3.125-.96875-11.921875-.390625-8.78125 2.34375-7.421875 2.734375 1.375 9.375 4.890625v27.34375q0 8.59375-1.5625 11.71875-1.5625 3.125.390625 2.921875 1.953125-.1875 5.859375-2.140625 3.90625-1.953125 2.53125-5.078125-1.359375-3.125-1.75-14.0625z" transform="translate(800)"/><path d="m70.3125 6.640625q6.640625.390625 10.546875.578125 3.90625.203125 7.21875-.578125 3.328125-.78125 4.890625-2.9375 1.5625-2.140625.1875-2.921875-1.359375-.78125-8.984375.1875-7.609375.984375-18.15625.78125-10.546875-.1875-21.296875-1.171875-10.734375-.96875-19.53125-2.328125-8.78125-1.375-11.90625-1.375-3.125 0-6.0625 2.9375-2.921875 2.921875 1.953125 2.53125 4.890625-.390625 20.515625 1.171875-2.734375 15.625-5.46875 18.9375-2.734375 3.328125 0 3.328125 2.734375 0 4.296875-.390625 1.5625-.390625 4.875-.203125 3.328125.203125 18.171875 1.953125 14.84375 1.765625 16.40625 2.734375 1.5625.984375 6.640625-1.75 5.078125-2.734375 2.140625-5.078125-2.921875-2.34375-6.4375-16.40625zm-25.390625 44.140625q12.890625 2.34375 20.890625 3.703125 8.015625 1.375 10.359375-.578125 2.34375-1.953125-3.125-3.515625-5.46875-1.5625-12.5-2.15625-7.03125-.578125-17-1.75-9.953125-1.171875-15.234375.1875-5.265625 1.375-.78125 1.765625 4.5.390625 17.390625 2.34375zm11.71875-25.78125q3.90625-2.734375 2.921875-4.5-.96875-1.75-3.703125-15.03125l10.546875.78125q2.734375 17.1875 1.359375 18.359375-1.359375 1.171875-4.6875.96875-3.3125-.1875-6.4375-.578125zm-14.0625-1.5625q1.171875-1.5625 2.140625-5.28125.984375-3.703125-.96875-13.46875l8.59375.78125q.78125 6.640625.96875 10.734375.203125 4.109375-.1875 8.40625zm-11.71875-1.171875q1.953125-14.84375 2.34375-18.359375l8.203125.78125q-.78125 7.421875-.984375 11.515625-.1875 4.109375-.578125 6.84375zm34.375 20.3125q5.859375-1.171875 8.390625-3.90625 2.546875-2.734375 1.953125-5.28125-.578125-2.53125-4.875-.1875-4.296875 2.34375-11.71875 6.828125-7.421875 4.5-3.515625 4.296875 3.90625-.1875 9.765625-1.75zm3.515625 30.859375q2.34375-1.171875 3.515625-2.734375 1.171875-1.5625-.78125-2.34375-1.953125-.78125-7.234375-4.890625-5.265625-4.09375-8.78125-5.65625-3.515625-1.5625-3.515625-1.171875 0 .78125 2.140625 2.734375 2.15625 1.953125 5.671875 6.046875 3.515625 4.109375 3.703125 6.84375.203125 2.734375 1.765625 2.53125 1.5625-.1875 3.515625-1.359375zm-31.640625-31.25q.390625 2.34375 4.6875-.59375 4.296875-2.921875 2.34375-4.09375-1.953125-1.171875-8.796875-4.6875-6.828125-3.515625-13.28125-4.890625-6.4375-1.359375-.390625 1.5625 6.0625 2.9375 10.75 6.84375 4.6875 3.90625 4.6875 5.859375zm-3.515625 22.265625q-2.34375 2.34375-2.9375 3.703125-.578125 1.375 5.46875.203125 6.0625-1.171875 6.640625-4.6875.59375-3.515625-.390625-4.890625-.96875-1.359375-3.703125.984375-2.734375 2.34375-5.078125 4.6875z" transform="translate(900)"/><use x="1000" xlink:href="#p"/><path d="m50 55.859375q7.03125 1.171875 12.109375 2.140625 5.078125.984375 8.390625 1.953125 3.328125.984375 6.84375-.578125 3.515625-1.5625 2.53125-2.546875-.96875-.96875-4.484375-1.75-3.515625-.78125-10.15625-1.765625-6.640625-.96875-17.578125-2.921875-4.6875-11.328125-11.328125-21.09375-6.640625-9.765625-12.703125-15.828125-6.046875-6.046875-13.46875-9.375-7.421875-3.3125-.984375 1.765625 6.453125 5.078125 10.359375 9.953125 3.90625 4.890625 8.203125 10.359375 4.296875 5.46875 7.8125 11.90625 3.515625 6.453125 5.859375 11.53125-4.6875-1.171875-7.421875-1.171875-2.34375 0-4.890625 2.34375-2.53125 2.34375 1.171875 2.53125 3.71875.203125 12.703125 1.375 4.296875 9.765625 5.46875 15.421875 1.171875 5.671875.1875 7.8125-.96875 2.15625.984375 1.953125 1.953125-.1875 5.65625-1.5625 3.71875-1.359375 1.375-4.6875-2.34375-3.3125-6.640625-17.765625zm6.25-27.734375q4.6875-3.125 3.703125-6.84375-.96875-3.703125-.96875-13.078125 10.546875.78125 17.765625 1.75 7.234375.984375 11.140625-3.125 3.90625-4.09375 0-4.09375-3.90625 0-9.578125.78125-5.65625.78125-11.71875.390625-6.046875-.390625-12.5-.78125-6.4375-.390625-14.25-1.765625-7.8125-1.359375-10.9375-1.171875-3.125.203125-5.671875 2.15625-2.53125 1.953125-1.5625 2.34375.984375.390625 4.5.390625 3.90625 0 10.546875.578125 6.640625.59375 16.796875 2.15625 0 14.0625-.59375 16.40625-.578125 2.34375-1.359375 3.515625-4.296875-.78125-6.84375-.984375-2.53125-.1875-5.265625 1.5625-2.734375 1.765625 1.953125 2.546875 4.6875.78125 13.28125 2.140625 8.59375 1.375 12.109375 2.546875 3.515625 1.171875 7.21875-1.171875 3.71875-2.34375-2.921875-3.71875-6.640625-1.359375-14.84375-2.53125z" transform="translate(1100)"/><use x="1200" xlink:href="#q"/><use x="1300" xlink:href="#r"/></g></g></g><g><g stroke-linejoin="round"><g><use x="592.2" y="319.571" stroke="#000" stroke-width=".8" xlink:href="#s"/><g transform="matrix(.1 0 0 -.1 599.2 323.008171)"><use xlink:href="#f"/><use x="50" xlink:href="#k"/><use x="100" xlink:href="#o"/></g></g><g><use x="592.2" y="277.064" stroke="#000" stroke-width=".8" xlink:href="#s"/><g transform="matrix(.1 0 0 -.1 599.2 280.501711)"><use xlink:href="#f"/><use x="50" xlink:href="#h"/><use x="100" xlink:href="#o"/></g></g><g><use x="592.2" y="234.558" stroke="#000" stroke-width=".8" xlink:href="#s"/><g transform="matrix(.1 0 0 -.1 599.2 237.995252)"><use xlink:href="#f"/><use x="50" xlink:href="#i"/><use x="100" xlink:href="#o"/></g></g><g><use x="592.2" y="192.051" stroke="#000" stroke-width=".8" xlink:href="#s"/><g transform="matrix(.1 0 0 -.1 599.2 195.488792)"><use xlink:href="#f"/><use x="50" xlink:href="#g"/><use x="100" xlink:href="#o"/></g></g><g><use x="592.2" y="149.545" stroke="#000" stroke-width=".8" xlink:href="#s"/><g transform="matrix(.1 0 0 -.1 599.2 152.982333)"><use xlink:href="#f"/><use x="50" xlink:href="#j"/><use x="100" xlink:href="#o"/></g></g><g><use x="592.2" y="107.038" stroke="#000" stroke-width=".8" xlink:href="#s"/><g transform="matrix(.1 0 0 -.1 599.2 110.475873)"><use xlink:href="#f"/><use x="50" xlink:href="#c"/><use x="100" xlink:href="#o"/></g></g><g><use x="592.2" y="64.532" stroke="#000" stroke-width=".8" xlink:href="#s"/><g transform="matrix(.1 0 0 -.1 599.2 67.969414)"><use xlink:href="#f"/><use x="50" xlink:href="#e"/><use x="100" xlink:href="#o"/></g></g><g><use x="592.2" y="22.025" stroke="#000" stroke-width=".8" xlink:href="#s"/><g transform="matrix(.1 0 0 -.1 599.2 25.462955)"><use xlink:href="#d"/><use x="50" xlink:href="#o"/></g></g></g><g fill="none" stroke-linecap="square"><path stroke="gray" stroke-linejoin="round" stroke-width="2" d="m59.563636 22.025455.436176 27.20866.436176-27.20866.436176 22.904392h.436176l.436177-22.586184.436176-.318208.436176 45.235053.436176-14.104008.436176-24.280261h.436176l.436176-6.850784h6.106464l.436176 1.781402h.872352l.436176 15.111831.436176 101.878521h1.308528l.436177-22.542285h.436176l.436176-22.566605.436176-37.651967.436176-23.851696h.436176l.436176 28.432204h.436176l.436176 22.58304.436176 8.105859.436176-34.600762h.436176l.436176-36.679542h1.308528l.436176 36.040898.436176-24.639355h.436176l.436176 43.93099h.436176l.436176-23.253531.436176-32.079002h2.18088l.436176 25.31791h.872353l.436176-23.246156.436176-2.071754.436176 19.05241.436176-19.05241.436176 57.17529.436176-3.757429.436176-10.807003h.436176l.436176-4.816875h.872352l.436176 50.329558h.872352l.436176-24.815239.436176 12.391748.436176 21.59156.436176 81.350362 1.308528-68.032006h.436176l.436176-6.964244.436176-23.564337h.436176l.872352-50.677973h.436176l.436177 6.398037.436176 34.071234.436176-55.180073.436176 9.479899.436176-24.172509.436176 27.451596.436176-27.451596.436176 17.204814.436176 36.351827.436176-22.59635.436176-30.960291h.436176l.436176 29.339954h.436176l.436176-29.339954h.436176l.436176 11.603047.436176 3.288527.436176-14.891574h2.617056l.436176 13.436029h3.489409l.436176-13.436029h.436176l.436176 25.030092h.436176l.436176-25.030092.436176 19.240242.436176-15.595934.436176-3.644308h7.414992l.436176 23.830877h.436177l.436176-23.830877h.436176l.436176 54.040714.436176-23.031689.436176-31.009025.436176 36.657291.436176-5.668428.436176-12.708755h.436176l.436176-18.280108h.872352l.436176 22.980773.436176-22.980773h.436176l.436176 68.804453.436176-24.058808h.436176l.436176-5.776711.436176-23.875251h.436176l.436176-15.093683h.436176l.436176 19.418917.436176 43.604076.872352-47.926448h.436176l.436177-15.096545.436176 21.802976.436176 8.450302h.436176l.436176 96.477811.436176-22.494605h.436176l.436176-5.3187.436176-26.00599h.436176l.436176 4.653031.872352-11.972163.436176 47.279806.436176-27.412476h.436176l.436176 72.980467.436176-23.225124h.872352l.436176-4.904364.436176-1.841692.436176 89.963734.436176-21.491438h.872352l.436176.339917.436176-35.361443.436176-25.234252h.436176l.436177 36.191916.436176-24.088803.436176-37.476277h.436176l.436176 15.043713.436176-47.720079h.436176l.436176 52.33318.436176 19.411932h.872352l.436176-19.701858.436176-31.366091h.436176l.436176-5.472989.436176 13.188088.436176-.541825.436176-49.500791.436176-12.408352.436176-23.256334.436176 40.281632.872352-21.45397.436176 18.052663.436176 29.814967.436176 18.921585.436176 40.469017.436176-1.06379.436176-25.676033.436177 3.110366.436176 29.03377.436176-20.513682.436176-10.541076.436176.671986.436176-22.06559.436176-39.919368.436176 8.204812 1.308528-68.648516.436176 28.704705.436176-16.787538h.436176l.436176-11.917167h.872352l.436176 26.732154.436176-26.732154h.872352l.436176 3.670794.436176 14.819791.436176-18.490585.436176 24.196025.436176-8.12154.436176-1.971358.436176-14.103127h.872352l.436177 1.984134.436176-1.984134h.436176l.436176 15.273349.436176-15.273349h.436176l.436176 22.617469.436176-22.617469h1.744704l.436176 17.501126.436176-17.00471.436176 5.038006.436176-5.534422.436176 6.951705.436176 71.361148.436176-22.893067.436176-10.560718h.436176l.872352 72.704707.436176 33.750269.436176-.329748.436176-24.352254.436176-45.335093.872352-47.108688.436176 2.714769.436177 48.936588.436176-41.684849.436176-25.95767h.436176l.436176-17.240249.436176 19.790213.436176-15.158813.436176 12.367713.436176 96.08385.436176-1.378001.436176-4.698911.872352-47.339464.436176-10.346334.436176-1.695649.436176 6.806323.436176-7.015824.436176-48.371953h.872352l.436176 1.576753.436176 27.201953.436176 4.153749.436176 1.478628.436176-22.451345h.436176l.436176 35.485504.436176-47.445242h1.308529l.436176 42.389982h.436176l.436176-7.290491.436176 73.494473.436176 10.233731h.872352l.436176 29.913028.436176-.463558.436176-58.174214.436176 24.28627.436176 1.875334.436176 8.978164.436176-52.470407.436176 14.41361.436176-10.09166.436176 42.007467.436176-15.164929.436176-37.048788h.436176l.436176-24.871161.436176 31.231745.436176-31.146543.436176 15.494204.872352-57.596257h.436176l.436176 78.578079.872353.106864.436176-24.53762.436176-3.359005.436176-22.750023.436176 3.724233.436176 52.973734.436176-9.42902.436176 6.298298.872352-44.364845h.872352l.436176-15.602902.436176-21.637793h.436176l.436176 15.929889h.436176l.436176-15.929889h1.308528l.436176 27.122895.436176.685447.436176-20.156623.436176 73.542063.436176-10.184951.872352-11.603797h.872353l.436176-22.184672.436176 13.524237.436176-50.744599h.436176l.872352 130.152982 1.744704-90.25388.436176-24.594143.436176 7.225226.436176-22.530185h.436176l.436176 1.631608.436176 21.073663.436176-22.705271h.872352l.436176 32.115923h.872352l.436176 17.440971h.436176l.436176-26.440303.436176-1.936149.436176-21.180442h1.744705l.436176 67.348545.436176-23.724214.436176-43.624331h.872352l.436176 18.58993h.872352l.436176 3.528865h.436176l.436176-22.118795h.872352l.436176 3.202823.436176-3.202823.436176 13.721606.436176 84.703443h.872352l.436176-28.542758h.436176l.436176-30.611657.436176-39.270634h.872352l.436176 28.866883.436176-5.074827.436177-22.341671.436176 31.801418.436176-23.891862.436176 12.815031.436176-22.174972h3.053232l.436176 2.195476.436176 21.679657.436176 129.808395.436176-2.80567.436176-25.083243.436176-.405258.436176-9.045521h.436176l.436176-13.747886.436176-22.427759.436176-4.594059.436176 17.784708.436176 73.01067.436176 4.992866.436176-41.302474.436176 72.418941.436176-26.543184.436177 8.573651.436176-25.088783h.436176l.436176 30.533554.436176 5.128585.436176-.497518.436176.133885.436176-29.236773h.436176l.436176 27.855276.436176-3.283756.872352-44.788702.436176-42.052639.436176-10.150527.436176 31.459836.436176-7.773946.436176 19.19111.436176-22.088422.436176 13.216636.436176 21.097451.436176-19.197284.872352-61.009148.436176-31.628891.436176 38.555889.436176-13.395665.436176 23.838802h.436176l.436176 7.593647.872353-92.921927h.872352l.436176 8.0377.872352-8.0377h.436176l.436176 50.254819.872352-50.254819.436176 42.409573.436176 24.539237.436176-4.987552.436176-19.933362.436176 40.746377.436176 9.884028.436176-45.631017.436176-21.945929.436176 9.049974.436176-34.131329h2.18088l.436176 9.785833.436176-9.785833h1.308529l.436176 12.865084.436176 65.06082.436176 16.484353.436176-2.544315.872352-42.446595.436176 47.360486.436176.400466.436176-26.067958.436176 26.813305.436176 18.146179.436176-10.353254.436176-27.083337.872352 36.549293.436176-15.298828h.436176l.436176-10.798815.436176 6.014766.436176-2.43946.436176-24.562207.436176 11.612305.436176-.97443.436176-15.544541.436176-45.62221.436176-1.708272.436176 44.825731.436176 1.377022.436177 5.440821.436176-11.666455.436176 9.820239.436176-30.808095.436176-8.06628.436176 18.710975.436176-27.074721.436176 25.447086.436176 12.903107.436176-11.018247.872352-45.754018h.436176l.436176 3.665579.436176.324524.436176-3.990103h.436176l.436176 15.829626.436176-7.467404.436176 30.973136h.872352l.436176-39.335358.436176 11.943085.436176-.847911.436176-11.095174.436176 43.236246.436176 21.859052h.436176l.436176-22.394824.436177 6.034846.436176-48.73532.436176 17.210123h.436176l.436176 9.277243.436176-12.065676h.436176l.436176-3.406324.436176 5.272582h.436176l.436176-1.944179h.436176l.436176-14.343769h.436176l.436176 28.48733.436176 2.640567.436176-16.96397.436176 74.043457.436176-13.941311.436176-24.699394.436176 8.850262.436176 62.278982.436176 20.20614.436176-22.532202.436176 55.254358h.436176l.436176 37.516892.436176-9.768423.436176-23.170743.436177 17.786741.436176 6.840886.436176-48.606143.436176 2.07741.436176-22.769258.436176-15.987011h.436176l.436176 6.355544.436176 4.435504.436176-49.13059.436176-22.496895.436176-1.679907.872352-55.028226h.872352l.436176 57.108958.436176 3.231491.436176-28.899553.436176 6.567565.436176-.943716.436176-37.064745h.872352l.436176 1.563324h.436176l.436176-1.563324h1.308528l.436177 47.251425.436176-6.999125.436176-2.891422.436176 27.155744h.436176l.436176 59.712316h.872352l.436176 11.503916.436176-12.63351.436176 30.535276.436176 126.180972.436176-20.914034.436176-26.864707h.436176l.436176-30.805547h.436176l.436176-24.564308h.436176l.436176-32.252041.436176-.373498.436176-22.802502.436176 7.216447.436176 5.340041.436176-24.984983.436176 53.228635.436176-4.965003.436176-7.689064.436176.936465.436176 25.938074.436177-26.35366h.436176l.436176-10.217764.436176-6.505465.436176 36.031125.436176-24.296763h.436176l.436176 22.622566h.436176l.436176 11.993772h1.744704l.436176 28.421665h1.308528l.436176 30.916293.436176-21.687428h1.308528l.436176 49.196657h.436176l.436176-24.852267h.872352l.436176-22.759079h.436177l.436176-12.771518h.436176l.436176-21.727536.436176-60.344226.436176-7.857941.436176-21.73728h.436176l.436176 12.777299.872352-36.073683.436176 20.849355.872352-53.8005.436176 33.633877.436176 6.099239.436176 46.334643h1.308528l.436176-26.1159h.436176l.436176-11.469036h.436176l.436176 6.073202.436176-21.766382.436176-46.042102.436176-24.83073.436176 22.781872.436176-22.781872h.436177l.436176 22.362962h.436176l.436176.781338h1.308528l.436176-23.1443.436176 16.860837.436176 21.922718.436176-38.783555.436176 15.77871.436176-15.77871.436176 35.801937.436176 9.20689.436176-45.008827.436176 5.623789.436176-5.623789h2.617056l.436176 53.521241h3.489409l.436176-24.127495.436176 9.551.436176-16.051856.436176-22.89289.436176 24.103923.436176-24.103923h1.744704l.436176 99.676009h2.617056l.436176 14.054979h.872352l.436176-1.198687.436176 20.450692.436176-15.161334h2.180881l.436176-32.19611h.872352l.436176 14.907714.436176-7.598132h.436176l.872352-45.357316h.436176l.436176-22.908235h1.744704l.436176 19.288077.436176-5.992162.436176-13.588656h.436176l.436176 82.999721.436176-32.548383.436176-23.108094.436176-51.720083h.872352l.436176 1.896313.436176-1.896313h.436176l.436176 2.970785h.436177l.436176 22.100778.436176-25.071563h.872352l.436176 22.451921.436176 39.782489.436176 20.870668.436176-15.698378.436176 5.595261.436176-22.803029.436176 35.531241 1.308528 51.499878h1.308528l.436176-22.879099h.872352l.436176-25.028132.436176 22.49058.436176-4.299167.436176-1.119308.436176-25.329986.436176-45.567856h.872352l.436177-35.497083h.872352l.436176 14.773775h.436176l.436176 1.959921h.436176l.436176 12.221539.436176-6.818172h.436176l.436176-16.061159h1.308528l.436176-6.075904h.436176l.436176 7.17959.436176-1.190279.436176 5.681636.436176 8.081929.436176-16.288743.436176 19.565663.436176-23.029796h.436176l.436176 1.693738.436176 6.677756.436176-8.371494.436176 6.930206.436176 17.262905.436176-24.193111h1.308529l.436176.235548.436176 1.341746h.436176l.436176-1.577294h1.744704l.436176 19.566743h.436176l.436176-6.59952.436176 26.982683.436176 11.312436.436176-14.090232h.436176l.436176-10.124804.436176-27.047306.436176 20.081125.436176-6.511451.436176 43.991231.436176-21.303286.436176-11.833269.436176 3.684492.436176-28.108842.436176 3.640232.436176 29.113046.436176 6.120926.436177-7.113648.436176-31.760556h2.617056l.436176 13.267427.436176 100.963686.436176-10.090924h1.744704l.436176-2.750804.436176-34.090621h.872352l.436176-23.061072h.436176l.436176 8.37627.436176-6.49269h.436176l.436176-23.650216.872352 110.198303.436176 74.537278h1.308529l.436176-16.002897h.436176l.436176 15.792984h.436176l.436176-46.81513.436176 22.632152.436176-8.327768.436176 10.845841.436176-12.869267.436176 68.729131.436176 12.2794.436176 9.060006.436176-9.042974.436176-13.032493h.436176l.436176-15.636589.436176 71.690057.436176-20.826418.436176-1.159138.436176-45.118696.436176-21.822072h.436176l.436176-28.430304.436176 9.725592.436176 41.573859.436176 11.521154.436176-3.060358h.436176l.436177-26.227433h.436176l.436176 20.355574.436176-14.600043.436176 20.94307.436176-5.740466.436176 4.547449.436176 21.574661.872352-47.291807.436176 26.335199.872352-56.333288.436176 47.114524.436176 18.460633.436176-42.74412.436176-30.462357.436176-4.386937.872352 82.357633.436176-19.28746h.436176l.872352-38.246388.436176-4.174619.436176-7.944291.436176 5.867364.436176-5.349218.436176 33.58794.436177-8.76989.436176-22.133676.436176 12.894845.436176-11.563961.436176-15.332299.436176-1.640021.436176 5.237886.436176 1.758498.436176 19.134559.436176 1.000868.436176-1.184813.436176-23.767409.436176 4.017346.436176-20.220195.872352-23.256643.436176 21.606346.436176-1.637609.436176 9.023435.436176 6.343738.436176 21.026379.436176-5.401024.436176 52.47261.436176-4.831842h.436176l.436176 48.330701.436176-9.312399.436176-23.313671.436176-37.762379 1.308529-67.597922.436176 13.275548.872352-50.5006.436176-26.7024.436176-18.820804.436176 13.515731.436176 50.426598.436176-37.071345.436176-23.1764h.436176l.436176-3.808694.436176-16.932565.436176-7.067141.436176-20.258226.436176 15.68555.436176-.482965.436176-7.471817.436176-23.000257.436176 15.731109.436176-15.731109.436176 5.205593.436176-5.205593h1.744704l.436176 8.207607.436176 10.600407.436177-6.743304h.436176l.436176 3.728585.436176 4.761393.436176 32.780615h.436176l.436176 4.266945.436176 66.940058.436176-26.937735h.436176l.436176-24.296015.436176-.650692.436176-11.317023.436176-25.498838.436176-15.347363.436176 21.515362.436176-3.02213.436176-25.718357.436176 28.973552.436176-9.45355.436176-.84374.436176 10.543886.436176 2.542133.872352-41.548299.436176-3.483497.436176 65.252912.436176-22.382845.436176 5.46393h.436177l.436176-28.763104.436176 5.201865.436176 2.351988.436176 27.683402.436176-23.494422.436176 46.417109h.436176l.436176 36.219619h.436176l.436176-23.684232h.436176l.436176 1.862859.436176-21.778438.436176 9.974119.872352-49.222132.436176-7.7786h.436176l.436176-23.32403h4.797937l.436176 24.213186h5.234112l.436176 6.869267h.872352l.436176 44.909039.872352-53.615472h.872352l.436176-22.37602h1.308528l.436176 25.61441.436176-25.61441h.872353l.436176 25.41624.436176-25.41624h.872352" clip-path="url(#a)"/><path stroke="#000" stroke-linejoin="miter" stroke-width=".8" d="m34.2 333.36v-326.16"/><path stroke="#000" stroke-linejoin="miter" stroke-width=".8" d="m592.2 333.36v-326.16"/><path stroke="#000" stroke-linejoin="miter" stroke-width=".8" d="m34.2 333.36h558"/><path stroke="#000" stroke-linejoin="miter" stroke-width=".8" d="m34.2 7.2h558"/></g><g stroke-linejoin="round"><path fill="none" stroke="gray" stroke-linecap="square" stroke-width="2" d="m342.9 315.73595h20"/><g transform="matrix(.1 0 0 -.1 370.9 319.23595)"><path d="m45.3125 41.015625q1.171875-4.296875.578125-6.84375-.578125-2.53125-.578125-19.328125 4.296875 1.5625 6.640625.96875 2.34375-.578125-6.640625-4.875 0-7.03125.1875-10.9375.203125-3.90625-1.359375-8.59375-1.5625-4.6875-2.9375.203125-1.359375 4.875-.96875 8 .390625 3.125.390625 9.375-7.8125-3.125-12.3125-4.6875-4.484375-1.5625-7.21875-3.328125-2.734375-1.75-4.296875-.96875-1.5625.78125-3.515625 3.3125-1.953125 2.546875 1.75 2.734375 3.71875.203125 9.578125 1.765625 0 7.03125-.59375 16.796875-.578125 9.765625-2.140625 12.5-3.90625-.390625-5.28125-.78125-1.359375-.390625-4.484375 1.75-3.125 2.15625-1.953125 2.15625 1.5625 0 6.828125.578125 5.28125.59375 16.21875 2.15625 10.9375 1.5625 24.609375 4.09375 13.671875 2.546875 17.578125 3.515625 3.90625.984375 7.03125-.96875 3.125-1.953125 0-2.9375-3.125-.96875-8.59375-1.75-5.46875-.78125-13.875-1.953125-8.390625-1.171875-14.640625-1.953125zm15.234375 13.28125q-14.0625-1.953125-20.703125-2.734375-1.5625-4.296875-3.125-.203125-1.5625 4.109375-3.515625 10.9375-1.953125 6.84375-4.109375 9.578125-2.140625 2.734375 1.765625 2.140625 3.90625-.578125 5.859375-.78125 1.953125-.1875 9.375.78125 7.421875.984375 12.109375 2.15625 4.6875 1.171875 6.4375 1.75 1.765625.59375 7.234375-2.921875 5.46875-3.515625 3.3125-5.078125-2.140625-1.5625-3.3125-3.515625-1.171875-1.953125-4.296875-7.421875-3.125-5.46875-4.5-6.84375-1.359375-1.359375-2.53125 2.15625zm6.640625-39.84375q4.6875-5.078125 11.515625-8.40625 6.84375-3.3125 12.109375-4.09375 5.28125-.78125 3.515625-1.953125-1.75-1.171875-9.953125-1.75-8.203125-.59375-10.9375 1.75-2.734375 2.34375-9.765625 9.765625-3.125-3.515625-6.640625-5.078125-3.515625-1.5625-7.03125-1.953125-3.515625-.390625-.390625 1.171875 3.125 1.5625 6.046875 3.703125 2.9375 2.15625 5.28125 6.453125-2.34375 3.125-5.078125 6.828125-2.734375 3.71875-4.6875 4.890625-1.953125 1.171875.78125 1.171875 3.125 0 5.078125-2.34375l5.859375-7.03125q1.953125 6.25 2.34375 10.15625.390625 3.90625-1.171875 3.90625-1.5625 0-5.28125-1.375-3.703125-1.359375-5.265625-1.359375-1.171875 0-3.125 1.5625-1.953125 1.5625.96875 1.75 2.9375.203125 8.40625 1.765625 5.46875 1.5625 7.21875 2.734375 1.765625 1.171875 5.078125-1.171875 3.328125-2.34375 1.953125-3.515625-1.359375-1.171875-2.34375-2.9375-.96875-1.75-2.140625-6.4375-1.171875-4.6875-2.34375-8.203125zm-30.078125 55.46875q.390625-2.34375.78125-5.078125 5.078125 0 10.9375 1.75 5.859375 1.765625 7.8125-.1875 1.953125-1.953125-4.6875-3.328125-6.640625-1.359375-13.671875-.578125.390625-4.6875 1.171875-8.203125 4.296875.390625 10.9375 1.5625 6.640625 1.171875 11.71875 1.5625 3.125 9.765625 3.125 12.890625 0 3.515625-3.90625 3.3125-3.90625-.1875-24.21875-3.703125zm-3.515625-47.265625q2.34375.78125 3.90625-.390625 1.5625-1.171875-.984375-2.546875-2.53125-1.359375-7.609375-1.359375v-9.375q4.6875 1.171875 11.71875 3.90625v17.578125q0 5.859375-1.171875 9.375-7.03125-1.171875-13.671875-1.953125 3.90625-2.734375 3.515625-3.90625-.390625-1.171875-.390625-3.90625 3.125 1.171875 5.078125 1.953125 1.953125.78125 3.703125-.78125 1.765625-1.5625-.96875-2.734375-2.734375-1.171875-7.8125-1.171875v-6.25z"/><path d="m49.609375 46.09375q12.890625 1.953125 19.53125 3.515625 6.640625 1.5625 9.765625-.78125 3.125-2.34375 1.75-3.125-1.359375-.78125-13.078125-1.765625-11.71875-.96875-18.359375-2.140625l-.78125-7.03125q8.984375-12.890625 15.421875-19.53125 6.453125-6.640625 14.0625-10.359375 7.625-3.703125 13.671875-5.84375 6.0625-2.15625-3.703125-2.15625-9.375 0-14.453125.203125-5.078125.1875-8.796875 5.453125-3.703125 5.28125-7.03125 10.75-3.3125 5.46875-9.5625 17.1875-3.90625-15.625-10.75-22.65625-6.828125-7.03125-16.015625-9.953125-9.171875-2.9375-2.34375.96875 6.84375 3.90625 11.921875 9.375 5.078125 5.46875 8.59375 13.859375 3.515625 8.40625 4.296875 18.5625-13.671875-1.953125-16.40625-2.734375-2.734375-.78125-7.625 2.34375-4.875 3.125 1.765625 2.921875 6.640625-.1875 22.65625 2.15625.390625 10.15625.1875 17.765625-.1875 7.625-2.140625 11.140625-1.953125 3.515625 1.953125 2.53125 3.90625-.96875 6.640625-2.34375 2.734375-1.359375.96875-4.6875-1.75-3.3125-2.140625-23.625z" transform="translate(100)"/><path d="m25.78125 13.671875q-.390625-3.90625-1.5625-4.6875-1.171875-.78125-2.34375 3.125-1.171875 3.90625-1.765625 11.125-.578125 7.234375-2.34375 19.53125-1.75 12.3125-4.09375 16.40625-2.34375 4.109375.78125 3.515625 3.125-.578125 5.65625-1.171875 2.546875-.578125 25.203125 2.15625 22.65625 2.734375 26.359375 4.09375 3.71875 1.375 7.234375 0 3.515625-1.359375 7.21875-4.296875 3.71875-2.921875.78125-5.859375-2.921875-2.921875-4.296875-18.546875-1.359375-15.625-2.53125-21.6875-1.171875-6.046875-4.296875-10.734375-3.125-4.6875-4.890625-.59375-1.75 4.109375-2.34375 6.640625-.578125 2.546875-6.640625 2.9375-6.046875.390625-14.25-.390625-8.203125-.78125-21.875-1.5625zm-3.515625 44.140625q1.5625-17.96875 3.125-40.625 24.609375 1.953125 32.21875 3.125 7.625 1.171875 10.75-1.375 3.125-2.53125 4.484375.59375 1.375 3.125 2.546875 11.328125 1.171875 8.203125 1.75 18.9375.59375 10.75-2.53125 12.5-3.125 1.765625-25.78125-1.359375zm37.890625-21.875q3.515625-4.296875-.203125-4.5-3.703125-.1875-18.546875-1.75-1.171875-5.46875-2.546875-1.953125-1.359375 3.515625-2.734375 9.375-1.359375 5.859375-3.125 8.390625-1.75 2.546875-.1875 2.546875 1.953125 0 4.296875-.59375 2.34375-.578125 9.171875.984375 6.84375 1.5625 8.796875 2.921875 1.953125 1.375 4.6875.390625 2.734375-.96875 5.078125-2.921875 2.34375-1.953125.1875-3.90625-2.140625-1.953125-4.875-8.984375zm-19.140625-2.734375q8.984375 1.171875 15.625 2.34375.78125 7.03125.390625 9.171875-.390625 2.15625-4.109375 1.5625-3.703125-.578125-13.078125-2.53125.390625-5.078125 1.171875-10.546875z" transform="translate(200)"/><path d="m69.53125 46.09375q12.109375 3.515625 16.015625 5.265625 3.90625 1.765625 6.046875.203125 2.15625-1.5625-.578125-2.9375-2.734375-1.359375-12.890625-4.09375 4.6875-2.734375 3.90625-4.296875-.78125-1.5625-1.5625-8.203125-.78125-6.640625-3.125-14.84375 4.6875-5.859375 8.78125-8.59375 4.109375-2.734375 8.796875-4.109375 4.6875-1.359375-1.765625-1.953125-6.4375-.578125-9.953125.203125-3.515625.78125-8.984375 10.546875-3.125-5.078125-8.796875-6.84375-5.65625-1.75-1.171875 1.5625 4.5 3.328125 8.015625 9.1875-3.90625 9.375-6.453125 13.46875-2.53125 4.109375-3.703125 5.46875-1.171875 1.375 1.5625.984375 2.734375-.390625 3.703125-2.9375.984375-2.53125 6.453125-12.296875 2.734375 7.421875 2.734375 22.265625-4.6875-1.171875-7.8125.78125-4.6875-4.6875-6.640625-5.46875-1.953125-.78125 1.359375 3.3125 3.328125 4.109375 8.59375 15.828125 5.28125 11.71875 3.90625 15.234375-1.359375 3.515625 1.171875 2.734375 2.546875-.78125 4.890625-3.125 2.34375-2.34375.78125-3.90625-1.5625-1.5625-5.859375-10.15625-4.296875-8.59375-7.421875-13.28125zm-46.09375-1.953125q-4.296875-1.171875-7.03125-1.171875-2.34375 0-5.28125.96875-2.921875.984375 1.5625 2.15625 4.5 1.171875 10.75 3.515625 0 8.203125-.390625 15.8125-.390625 7.625-2.15625 10.359375-1.75 2.734375 2.15625 1.75 3.90625-.96875 5.65625-2.34375 1.765625-1.359375.203125-4.296875-1.5625-2.921875-1.171875-19.71875 6.25 1.5625 6.046875-.59375-.1875-2.140625-6.046875-4.875v-9.375q5.078125 3.125 5.65625 2.734375.59375-.390625-5.65625-6.25 0-15.625.390625-21.296875.390625-5.65625-.390625-9.171875-.78125-3.515625-3.125-6.046875-2.34375-2.546875-3.515625 1.75-1.171875 4.296875-5.28125 8-4.09375 3.71875.390625 2.15625 4.5-1.5625 5.671875-.59375 1.171875.984375 1.359375 8.59375.203125 7.625.203125 12.703125-9.765625-7.8125-11.328125-10.15625-1.5625-2.34375-5.671875.96875-4.09375 3.328125-1.359375 3.71875 2.734375.390625 7.21875 2.34375 4.5 1.953125 11.140625 7.421875zm20.3125-17.1875q2.734375.390625 4.484375.78125 1.765625.390625 2.9375-.78125 1.171875-1.171875-1.375-2.15625-2.53125-.96875-6.046875-.1875l-.390625-7.421875q2.734375.390625 4.484375.78125 1.765625.390625 2.734375-.78125.984375-1.171875-.96875-1.953125-1.953125-.78125-6.25-.390625 0-6.640625-1.765625-12.890625-1.75-6.25-3.3125-2.34375-1.5625 3.90625-.203125 8.203125 1.375 4.296875 2.15625 14.0625.78125 9.765625-.78125 12.109375-1.5625 2.34375.390625 1.953125 1.953125-.390625 3.3125-.59375 1.375-.1875 5.078125.78125 3.71875.984375 5.078125 1.953125 1.375.984375 5.28125-.96875 3.90625-1.953125 2.921875-4.109375-.96875-2.140625-1.171875-9.953125-.1875-7.8125.203125-13.09375.390625-5.265625-.390625-8.78125-.78125-3.515625-2.546875-5.078125-1.75-1.5625-2.53125.78125-.78125 2.34375-3.71875 5.078125-2.921875 2.734375-.96875 2.34375 1.953125-.390625 3.515625-.390625 1.5625 0 1.953125 4.875.390625 4.890625.1875 14.0625-.1875 9.1875-1.359375 10.546875-1.171875 1.375-10.9375-.96875zm7.421875 32.03125q1.171875-1.953125 1.5625-2.9375.390625-.96875-1.953125-3.3125-2.34375-2.34375-4.890625-4.5-2.53125-2.140625-1.359375-2.140625 1.171875 0 14.0625 3.515625-4.296875 4.6875-2.15625 4.875 2.15625.203125 5.28125-1.75 3.125-1.953125 2.140625-5.46875-.96875-3.515625-4.09375.78125-17.578125-5.859375-20.3125-8.59375-2.734375-2.734375-4.296875.390625-1.5625 3.125 1.75 4.875 3.328125 1.765625 7.234375 6.0625 3.90625 4.296875 3.90625 7.8125-7.03125-1.171875-9.1875 0-2.140625 1.171875.59375 1.75 2.734375.59375 8.203125 2.15625 5.46875 1.5625 10.546875 2.921875 5.078125 1.375 7.421875 0 2.34375-1.359375.1875-2.53125-2.140625-1.171875-14.640625-3.90625zm-4.6875 14.84375q-2.734375 3.125 2.140625 2.734375 4.890625-.390625 6.453125-2.15625 1.5625-1.75.96875-4.09375-.578125-2.34375-3.703125-.78125-3.125 1.5625-5.859375 4.296875z" transform="translate(300)"/><use x="400" xlink:href="#p"/><path d="m51.953125 54.296875q11.71875 1.171875 16.984375 1.75 5.28125.59375 10.9375 1.5625 5.671875.984375 9.765625-2.34375 4.109375-3.3125-4.09375-3.3125-7.8125 0-14.0625-.390625-6.25-.390625-21.09375-1.5625-4.296875-10.546875-11.71875-21.875 1.171875-1.953125 5.078125-1.375 3.90625.59375 10.9375 1.765625 7.03125 1.171875 10.15625 2.53125 3.125 1.375 6.046875.203125 2.9375-1.171875 6.640625-3.90625 3.71875-2.734375.390625-5.28125-3.3125-2.53125-7.609375-14.25 3.90625-3.125 2.34375-4.109375-1.5625-.96875-5.078125-.96875-3.125 0-25.78125-1.5625-2.34375-6.640625-3.515625-2.140625-1.171875 4.484375-1.765625 11.3125-.578125 6.84375-2.53125 11.921875-2.734375-4.296875-8.59375-9.765625-5.859375-5.46875-12.3125-8.59375-6.4375-3.125.390625 2.734375 6.84375 5.859375 15.625 17.1875 8.796875 11.328125 14.65625 25-22.65625-2.734375-25.78125-3.328125-3.125-.578125-6.84375 2.546875-3.703125 3.125.203125 2.921875 3.90625-.1875 11.90625.390625 8.015625.59375 22.46875 2.15625 5.46875 13.671875 3.90625 17.96875-1.5625 4.296875 1.953125 3.125 3.515625-1.171875 6.046875-3.328125 2.546875-2.140625.78125-4.09375-1.75-1.953125-6.4375-12.890625zm-10.15625-49.609375q12.109375 1.171875 23.4375 2.734375 1.5625 7.421875 1.953125 12.890625.390625 5.46875-3.90625 5.46875-3.90625 0-22.65625-2.34375.390625-9.375 1.171875-18.75z" transform="translate(500)"/><use x="600" xlink:href="#q"/><use x="700" xlink:href="#r"/></g></g></g></g></svg>