<svg xmlns="http://www.w3.org/2000/svg" xmlns:xlink="http://www.w3.org/1999/xlink" width="688.8" height="482.877" version="1.1" viewBox="0 0 516.6 362.158"><metadata><rdf:RDF xmlns:cc="http://creativecommons.org/ns#" xmlns:dc="http://purl.org/dc/elements/1.1/" xmlns:rdf="http://www.w3.org/1999/02/22-rdf-syntax-ns#"><cc:Work><dc:type rdf:resource="http://purl.org/dc/dcmitype/StillImage"/><dc:date>2023-04-09T21:33:22.720524</dc:date><dc:format>image/svg+xml</dc:format><dc:creator><cc:Agent><dc:title>Matplotlib v3.7.1, https://matplotlib.org/</dc:title></cc:Agent></dc:creator></cc:Work></rdf:RDF></metadata><defs><style type="text/css">*{stroke-linejoin:round;stroke-linecap:butt}</style></defs><g id="figure_1"><g id="patch_1"><path d="M 0 362.158125 L 516.6 362.158125 L 516.6 -0 L 0 -0 z" style="fill:#fff"/></g><g id="axes_1"><g id="patch_2"><path d="M 7.2 354.958125 L 509.4 354.958125 L 509.4 22.318125 L 7.2 22.318125 z" style="fill:#fff"/></g><g id="matplotlib.axis_1"><g id="xtick_1"><g id="line2d_1"><defs><path id="m033d2c1826" d="M 0 0 L 0 3.5" style="stroke:#000;stroke-width:.8"/></defs><g><use x="30.027" y="245.524" xlink:href="#m033d2c1826" style="stroke:#000;stroke-width:.8"/></g></g><g id="text_1"><g transform="translate(17.885866 260.12206) scale(0.1 -0.1)"><defs><path id="DejaVuSans-2212" d="M 678 2272 L 4684 2272 L 4684 1741 L 678 1741 L 678 2272 z" transform="scale(0.015625)"/><path id="DejaVuSans-32" d="M 1228 531 L 3431 531 L 3431 0 L 469 0 L 469 531 Q 828 903 1448 1529 Q 2069 2156 2228 2338 Q 2531 2678 2651 2914 Q 2772 3150 2772 3378 Q 2772 3750 2511 3984 Q 2250 4219 1831 4219 Q 1534 4219 1204 4116 Q 875 4013 500 3803 L 500 4441 Q 881 4594 1212 4672 Q 1544 4750 1819 4750 Q 2544 4750 2975 4387 Q 3406 4025 3406 3419 Q 3406 3131 3298 2873 Q 3191 2616 2906 2266 Q 2828 2175 2409 1742 Q 1991 1309 1228 531 z" transform="scale(0.015625)"/><path id="DejaVuSans-2e" d="M 684 794 L 1344 794 L 1344 0 L 684 0 L 684 794 z" transform="scale(0.015625)"/><path id="DejaVuSans-30" d="M 2034 4250 Q 1547 4250 1301 3770 Q 1056 3291 1056 2328 Q 1056 1369 1301 889 Q 1547 409 2034 409 Q 2525 409 2770 889 Q 3016 1369 3016 2328 Q 3016 3291 2770 3770 Q 2525 4250 2034 4250 z M 2034 4750 Q 2819 4750 3233 4129 Q 3647 3509 3647 2328 Q 3647 1150 3233 529 Q 2819 -91 2034 -91 Q 1250 -91 836 529 Q 422 1150 422 2328 Q 422 3509 836 4129 Q 1250 4750 2034 4750 z" transform="scale(0.015625)"/></defs><use xlink:href="#DejaVuSans-2212"/><use x="83.789" xlink:href="#DejaVuSans-32"/><use x="147.412" xlink:href="#DejaVuSans-2e"/><use x="179.199" xlink:href="#DejaVuSans-30"/></g></g></g><g id="xtick_2"><g id="line2d_2"><g><use x="87.095" y="245.524" xlink:href="#m033d2c1826" style="stroke:#000;stroke-width:.8"/></g></g><g id="text_2"><g transform="translate(74.954048 260.12206) scale(0.1 -0.1)"><defs><path id="DejaVuSans-31" d="M 794 531 L 1825 531 L 1825 4091 L 703 3866 L 703 4441 L 1819 4666 L 2450 4666 L 2450 531 L 3481 531 L 3481 0 L 794 0 L 794 531 z" transform="scale(0.015625)"/><path id="DejaVuSans-35" d="M 691 4666 L 3169 4666 L 3169 4134 L 1269 4134 L 1269 2991 Q 1406 3038 1543 3061 Q 1681 3084 1819 3084 Q 2600 3084 3056 2656 Q 3513 2228 3513 1497 Q 3513 744 3044 326 Q 2575 -91 1722 -91 Q 1428 -91 1123 -41 Q 819 9 494 109 L 494 744 Q 775 591 1075 516 Q 1375 441 1709 441 Q 2250 441 2565 725 Q 2881 1009 2881 1497 Q 2881 1984 2565 2268 Q 2250 2553 1709 2553 Q 1456 2553 1204 2497 Q 953 2441 691 2322 L 691 4666 z" transform="scale(0.015625)"/></defs><use xlink:href="#DejaVuSans-2212"/><use x="83.789" xlink:href="#DejaVuSans-31"/><use x="147.412" xlink:href="#DejaVuSans-2e"/><use x="179.199" xlink:href="#DejaVuSans-35"/></g></g></g><g id="xtick_3"><g id="line2d_3"><g><use x="144.164" y="245.524" xlink:href="#m033d2c1826" style="stroke:#000;stroke-width:.8"/></g></g><g id="text_3"><g transform="translate(132.02223 260.12206) scale(0.1 -0.1)"><use xlink:href="#DejaVuSans-2212"/><use x="83.789" xlink:href="#DejaVuSans-31"/><use x="147.412" xlink:href="#DejaVuSans-2e"/><use x="179.199" xlink:href="#DejaVuSans-30"/></g></g></g><g id="xtick_4"><g id="line2d_4"><g><use x="201.232" y="245.524" xlink:href="#m033d2c1826" style="stroke:#000;stroke-width:.8"/></g></g><g id="text_4"><g transform="translate(189.090412 260.12206) scale(0.1 -0.1)"><use xlink:href="#DejaVuSans-2212"/><use x="83.789" xlink:href="#DejaVuSans-30"/><use x="147.412" xlink:href="#DejaVuSans-2e"/><use x="179.199" xlink:href="#DejaVuSans-35"/></g></g></g><g id="xtick_5"><g id="line2d_5"><g><use x="258.3" y="245.524" xlink:href="#m033d2c1826" style="stroke:#000;stroke-width:.8"/></g></g><g id="text_5"><g transform="translate(250.348438 260.12206) scale(0.1 -0.1)"><use xlink:href="#DejaVuSans-30"/><use x="63.623" xlink:href="#DejaVuSans-2e"/><use x="95.41" xlink:href="#DejaVuSans-30"/></g></g></g><g id="xtick_6"><g id="line2d_6"><g><use x="315.368" y="245.524" xlink:href="#m033d2c1826" style="stroke:#000;stroke-width:.8"/></g></g><g id="text_6"><g transform="translate(307.416619 260.12206) scale(0.1 -0.1)"><use xlink:href="#DejaVuSans-30"/><use x="63.623" xlink:href="#DejaVuSans-2e"/><use x="95.41" xlink:href="#DejaVuSans-35"/></g></g></g><g id="xtick_7"><g id="line2d_7"><g><use x="372.436" y="245.524" xlink:href="#m033d2c1826" style="stroke:#000;stroke-width:.8"/></g></g><g id="text_7"><g transform="translate(364.484801 260.12206) scale(0.1 -0.1)"><use xlink:href="#DejaVuSans-31"/><use x="63.623" xlink:href="#DejaVuSans-2e"/><use x="95.41" xlink:href="#DejaVuSans-30"/></g></g></g><g id="xtick_8"><g id="line2d_8"><g><use x="429.505" y="245.524" xlink:href="#m033d2c1826" style="stroke:#000;stroke-width:.8"/></g></g><g id="text_8"><g transform="translate(421.552983 260.12206) scale(0.1 -0.1)"><use xlink:href="#DejaVuSans-31"/><use x="63.623" xlink:href="#DejaVuSans-2e"/><use x="95.41" xlink:href="#DejaVuSans-35"/></g></g></g><g id="xtick_9"><g id="line2d_9"><g><use x="486.573" y="245.524" xlink:href="#m033d2c1826" style="stroke:#000;stroke-width:.8"/></g></g><g id="text_9"><g transform="translate(478.621165 260.12206) scale(0.1 -0.1)"><use xlink:href="#DejaVuSans-32"/><use x="63.623" xlink:href="#DejaVuSans-2e"/><use x="95.41" xlink:href="#DejaVuSans-30"/></g></g></g></g><g id="matplotlib.axis_2"><g id="ytick_1"><g id="line2d_10"><defs><path id="m5929d8b6b7" d="M 0 0 L -3.5 0" style="stroke:#000;stroke-width:.8"/></defs><g><use x="258.3" y="343.357" xlink:href="#m5929d8b6b7" style="stroke:#000;stroke-width:.8"/></g></g><g id="text_10"><g transform="translate(227.017188 347.156663) scale(0.1 -0.1)"><use xlink:href="#DejaVuSans-2212"/><use x="83.789" xlink:href="#DejaVuSans-31"/><use x="147.412" xlink:href="#DejaVuSans-2e"/><use x="179.199" xlink:href="#DejaVuSans-30"/></g></g></g><g id="ytick_2"><g id="line2d_11"><g><use x="258.3" y="294.441" xlink:href="#m5929d8b6b7" style="stroke:#000;stroke-width:.8"/></g></g><g id="text_11"><g transform="translate(227.017188 298.239752) scale(0.1 -0.1)"><use xlink:href="#DejaVuSans-2212"/><use x="83.789" xlink:href="#DejaVuSans-30"/><use x="147.412" xlink:href="#DejaVuSans-2e"/><use x="179.199" xlink:href="#DejaVuSans-35"/></g></g></g><g id="ytick_3"><g id="line2d_12"><g><use x="258.3" y="245.524" xlink:href="#m5929d8b6b7" style="stroke:#000;stroke-width:.8"/></g></g><g id="text_12"><g transform="translate(235.396875 249.322841) scale(0.1 -0.1)"><use xlink:href="#DejaVuSans-30"/><use x="63.623" xlink:href="#DejaVuSans-2e"/><use x="95.41" xlink:href="#DejaVuSans-30"/></g></g></g><g id="ytick_4"><g id="line2d_13"><g><use x="258.3" y="196.607" xlink:href="#m5929d8b6b7" style="stroke:#000;stroke-width:.8"/></g></g><g id="text_13"><g transform="translate(235.396875 200.40593) scale(0.1 -0.1)"><use xlink:href="#DejaVuSans-30"/><use x="63.623" xlink:href="#DejaVuSans-2e"/><use x="95.41" xlink:href="#DejaVuSans-35"/></g></g></g><g id="ytick_5"><g id="line2d_14"><g><use x="258.3" y="147.69" xlink:href="#m5929d8b6b7" style="stroke:#000;stroke-width:.8"/></g></g><g id="text_14"><g transform="translate(235.396875 151.489019) scale(0.1 -0.1)"><use xlink:href="#DejaVuSans-31"/><use x="63.623" xlink:href="#DejaVuSans-2e"/><use x="95.41" xlink:href="#DejaVuSans-30"/></g></g></g><g id="ytick_6"><g id="line2d_15"><g><use x="258.3" y="98.773" xlink:href="#m5929d8b6b7" style="stroke:#000;stroke-width:.8"/></g></g><g id="text_15"><g transform="translate(235.396875 102.572107) scale(0.1 -0.1)"><use xlink:href="#DejaVuSans-31"/><use x="63.623" xlink:href="#DejaVuSans-2e"/><use x="95.41" xlink:href="#DejaVuSans-35"/></g></g></g><g id="ytick_7"><g id="line2d_16"><g><use x="258.3" y="49.856" xlink:href="#m5929d8b6b7" style="stroke:#000;stroke-width:.8"/></g></g><g id="text_16"><g transform="translate(235.396875 53.655196) scale(0.1 -0.1)"><use xlink:href="#DejaVuSans-32"/><use x="63.623" xlink:href="#DejaVuSans-2e"/><use x="95.41" xlink:href="#DejaVuSans-30"/></g></g></g></g><g id="line2d_17"><path d="M 7.2 245.523622 L 509.4 245.523622" clip-path="url(#p681134738a)" style="fill:none;stroke:#000;stroke-width:1.5;stroke-linecap:square"/></g><g id="line2d_18"><path d="M 258.3 354.958125 L 258.3 22.318125" clip-path="url(#p681134738a)" style="fill:none;stroke:#000;stroke-width:1.5;stroke-linecap:square"/></g><g id="line2d_19"><path d="M 30.027273 233.861545 L 49.221376 232.020579 L 67.501474 230.046172 L 85.32457 227.901517 L 103.147666 225.531824 L 120.970762 222.933218 L 138.793857 220.107124 L 157.073956 216.980342 L 176.268059 213.465906 L 196.83317 209.469156 L 220.597297 204.613406 L 253.044472 197.732727 L 302.400737 187.272142 L 326.164865 182.477681 L 346.729975 178.551198 L 365.924079 175.113233 L 384.204177 172.065969 L 402.027273 169.320998 L 419.850369 166.8047 L 437.673464 164.51648 L 455.49656 162.450816 L 473.776658 160.553527 L 486.572727 159.351877 L 486.572727 159.351877" clip-path="url(#p681134738a)" style="fill:none;stroke:#1f77b4;stroke-width:1.5;stroke-linecap:square"/></g><g id="line2d_20"><path d="M 30.027273 339.838125 L 44.194349 338.869205 L 56.990418 337.773274 L 68.415479 336.57844 L 78.926536 335.264179 L 88.98059 333.781332 L 98.120639 332.212713 L 106.803686 330.501552 L 115.02973 328.657985 L 122.798771 326.696781 L 130.567813 324.501178 L 137.879853 322.20224 L 145.191892 319.660583 L 152.046929 317.042849 L 158.901966 314.184996 L 165.757002 311.075932 L 172.612039 307.706469 L 179.010074 304.320721 L 185.865111 300.431413 L 192.720147 296.271096 L 199.575184 291.843556 L 206.430221 287.157165 L 213.74226 281.888134 L 221.511302 276.009156 L 229.737346 269.507964 L 239.334398 261.632305 L 251.673464 251.19729 L 279.550614 227.515917 L 289.147666 219.707595 L 297.830713 212.932111 L 305.599754 207.151781 L 312.911794 201.985199 L 319.76683 197.401034 L 326.621867 193.079644 L 333.476904 189.027518 L 340.331941 185.246735 L 347.186978 181.735461 L 354.042015 178.488519 L 360.897052 175.497958 L 367.752088 172.753636 L 374.607125 170.243756 L 381.919165 167.810341 L 389.231204 165.612292 L 397.000246 163.515685 L 404.769287 161.645087 L 412.995332 159.888561 L 421.678378 158.259808 L 430.818428 156.768102 L 440.872482 155.359163 L 451.383538 154.111383 L 462.8086 152.977782 L 475.604668 151.938681 L 486.572727 151.209119 L 486.572727 151.209119" clip-path="url(#p681134738a)" style="fill:none;stroke:#ff7f0e;stroke-width:1.5;stroke-linecap:square"/></g><g id="line2d_21"><path d="M 30.027273 245.523622 L 258.071499 245.523622 L 258.528501 245.327759 L 486.572727 49.855977 L 486.572727 49.855977" clip-path="url(#p681134738a)" style="fill:none;stroke:#2ca02c;stroke-width:4;stroke-linecap:square"/></g><g id="line2d_22"><path d="M 30.027273 265.090387 L 258.071499 245.543208 L 258.528501 245.327759 L 486.572727 49.855977 L 486.572727 49.855977" clip-path="url(#p681134738a)" style="fill:none;stroke:#d62728;stroke-width:1.5;stroke-linecap:square"/></g><g id="line2d_23"><path d="M 30.027273 233.10577 L 46.479361 231.314065 L 62.017445 229.404003 L 77.098526 227.326864 L 91.265602 225.156695 L 104.975676 222.83766 L 118.228747 220.375863 L 131.024816 217.779728 L 143.820885 214.954961 L 156.159951 212.002605 L 168.042015 208.937213 L 179.924079 205.644282 L 191.806143 202.115297 L 203.231204 198.492295 L 214.656265 194.638025 L 226.081327 190.547514 L 237.506388 186.216841 L 248.93145 181.643215 L 260.356511 176.825028 L 271.781572 171.761889 L 283.206634 166.454629 L 294.631695 160.905286 L 306.513759 154.880626 L 318.395823 148.602475 L 330.277887 142.076896 L 342.616953 135.046106 L 355.413022 127.490909 L 368.209091 119.677916 L 381.462162 111.326891 L 395.172236 102.42531 L 409.339312 92.96329 L 424.420393 82.616204 L 439.958477 71.68175 L 456.410565 59.826756 L 473.776658 47.032605 L 486.572727 37.438125 L 486.572727 37.438125" clip-path="url(#p681134738a)" style="fill:none;stroke:#9467bd;stroke-width:1.5;stroke-linecap:square"/></g><g id="line2d_24"><path d="M 7.2 147.6898 L 509.4 147.6898" clip-path="url(#p681134738a)" style="fill:none;stroke-dasharray:5.55,2.4;stroke-dashoffset:0;stroke:gray;stroke-width:1.5"/></g><g id="line2d_25"><path d="M 7.2 343.357444 L 509.4 343.357444" clip-path="url(#p681134738a)" style="fill:none;stroke-dasharray:5.55,2.4;stroke-dashoffset:0;stroke:gray;stroke-width:1.5"/></g><g id="patch_3"><path d="M 258.3 354.958125 L 258.3 22.318125" style="fill:none;stroke:#000;stroke-width:.8;stroke-linejoin:miter;stroke-linecap:square"/></g><g id="patch_4"><path d="M 7.2 245.523622 L 509.4 245.523622" style="fill:none;stroke:#000;stroke-width:.8;stroke-linejoin:miter;stroke-linecap:square"/></g><g id="text_17"><g transform="translate(197.71125 16.318125) scale(0.12 -0.12)"><defs><path id="DejaVuSans-41" d="M 2188 4044 L 1331 1722 L 3047 1722 L 2188 4044 z M 1831 4666 L 2547 4666 L 4325 0 L 3669 0 L 3244 1197 L 1141 1197 L 716 0 L 50 0 L 1831 4666 z" transform="scale(0.015625)"/><path id="DejaVuSans-63" d="M 3122 3366 L 3122 2828 Q 2878 2963 2633 3030 Q 2388 3097 2138 3097 Q 1578 3097 1268 2742 Q 959 2388 959 1747 Q 959 1106 1268 751 Q 1578 397 2138 397 Q 2388 397 2633 464 Q 2878 531 3122 666 L 3122 134 Q 2881 22 2623 -34 Q 2366 -91 2075 -91 Q 1284 -91 818 406 Q 353 903 353 1747 Q 353 2603 823 3093 Q 1294 3584 2113 3584 Q 2378 3584 2631 3529 Q 2884 3475 3122 3366 z" transform="scale(0.015625)"/><path id="DejaVuSans-74" d="M 1172 4494 L 1172 3500 L 2356 3500 L 2356 3053 L 1172 3053 L 1172 1153 Q 1172 725 1289 603 Q 1406 481 1766 481 L 2356 481 L 2356 0 L 1766 0 Q 1100 0 847 248 Q 594 497 594 1153 L 594 3053 L 172 3053 L 172 3500 L 594 3500 L 594 4494 L 1172 4494 z" transform="scale(0.015625)"/><path id="DejaVuSans-69" d="M 603 3500 L 1178 3500 L 1178 0 L 603 0 L 603 3500 z M 603 4863 L 1178 4863 L 1178 4134 L 603 4134 L 603 4863 z" transform="scale(0.015625)"/><path id="DejaVuSans-76" d="M 191 3500 L 800 3500 L 1894 563 L 2988 3500 L 3597 3500 L 2284 0 L 1503 0 L 191 3500 z" transform="scale(0.015625)"/><path id="DejaVuSans-61" d="M 2194 1759 Q 1497 1759 1228 1600 Q 959 1441 959 1056 Q 959 750 1161 570 Q 1363 391 1709 391 Q 2188 391 2477 730 Q 2766 1069 2766 1631 L 2766 1759 L 2194 1759 z M 3341 1997 L 3341 0 L 2766 0 L 2766 531 Q 2569 213 2275 61 Q 1981 -91 1556 -91 Q 1019 -91 701 211 Q 384 513 384 1019 Q 384 1609 779 1909 Q 1175 2209 1959 2209 L 2766 2209 L 2766 2266 Q 2766 2663 2505 2880 Q 2244 3097 1772 3097 Q 1472 3097 1187 3025 Q 903 2953 641 2809 L 641 3341 Q 956 3463 1253 3523 Q 1550 3584 1831 3584 Q 2591 3584 2966 3190 Q 3341 2797 3341 1997 z" transform="scale(0.015625)"/><path id="DejaVuSans-6f" d="M 1959 3097 Q 1497 3097 1228 2736 Q 959 2375 959 1747 Q 959 1119 1226 758 Q 1494 397 1959 397 Q 2419 397 2687 759 Q 2956 1122 2956 1747 Q 2956 2369 2687 2733 Q 2419 3097 1959 3097 z M 1959 3584 Q 2709 3584 3137 3096 Q 3566 2609 3566 1747 Q 3566 888 3137 398 Q 2709 -91 1959 -91 Q 1206 -91 779 398 Q 353 888 353 1747 Q 353 2609 779 3096 Q 1206 3584 1959 3584 z" transform="scale(0.015625)"/><path id="DejaVuSans-6e" d="M 3513 2113 L 3513 0 L 2938 0 L 2938 2094 Q 2938 2591 2744 2837 Q 2550 3084 2163 3084 Q 1697 3084 1428 2787 Q 1159 2491 1159 1978 L 1159 0 L 581 0 L 581 3500 L 1159 3500 L 1159 2956 Q 1366 3272 1645 3428 Q 1925 3584 2291 3584 Q 2894 3584 3203 3211 Q 3513 2838 3513 2113 z" transform="scale(0.015625)"/><path id="DejaVuSans-20" transform="scale(0.015625)"/><path id="DejaVuSans-46" d="M 628 4666 L 3309 4666 L 3309 4134 L 1259 4134 L 1259 2759 L 3109 2759 L 3109 2228 L 1259 2228 L 1259 0 L 628 0 L 628 4666 z" transform="scale(0.015625)"/><path id="DejaVuSans-75" d="M 544 1381 L 544 3500 L 1119 3500 L 1119 1403 Q 1119 906 1312 657 Q 1506 409 1894 409 Q 2359 409 2629 706 Q 2900 1003 2900 1516 L 2900 3500 L 3475 3500 L 3475 0 L 2900 0 L 2900 538 Q 2691 219 2414 64 Q 2138 -91 1772 -91 Q 1169 -91 856 284 Q 544 659 544 1381 z M 1991 3584 L 1991 3584 z" transform="scale(0.015625)"/><path id="DejaVuSans-73" d="M 2834 3397 L 2834 2853 Q 2591 2978 2328 3040 Q 2066 3103 1784 3103 Q 1356 3103 1142 2972 Q 928 2841 928 2578 Q 928 2378 1081 2264 Q 1234 2150 1697 2047 L 1894 2003 Q 2506 1872 2764 1633 Q 3022 1394 3022 966 Q 3022 478 2636 193 Q 2250 -91 1575 -91 Q 1294 -91 989 -36 Q 684 19 347 128 L 347 722 Q 666 556 975 473 Q 1284 391 1588 391 Q 1994 391 2212 530 Q 2431 669 2431 922 Q 2431 1156 2273 1281 Q 2116 1406 1581 1522 L 1381 1569 Q 847 1681 609 1914 Q 372 2147 372 2553 Q 372 3047 722 3315 Q 1072 3584 1716 3584 Q 2034 3584 2315 3537 Q 2597 3491 2834 3397 z" transform="scale(0.015625)"/></defs><use xlink:href="#DejaVuSans-41"/><use x="66.658" xlink:href="#DejaVuSans-63"/><use x="121.639" xlink:href="#DejaVuSans-74"/><use x="160.848" xlink:href="#DejaVuSans-69"/><use x="188.631" xlink:href="#DejaVuSans-76"/><use x="247.811" xlink:href="#DejaVuSans-61"/><use x="309.09" xlink:href="#DejaVuSans-74"/><use x="348.299" xlink:href="#DejaVuSans-69"/><use x="376.082" xlink:href="#DejaVuSans-6f"/><use x="437.264" xlink:href="#DejaVuSans-6e"/><use x="500.643" xlink:href="#DejaVuSans-20"/><use x="532.43" xlink:href="#DejaVuSans-46"/><use x="584.449" xlink:href="#DejaVuSans-75"/><use x="647.828" xlink:href="#DejaVuSans-6e"/><use x="711.207" xlink:href="#DejaVuSans-63"/><use x="766.188" xlink:href="#DejaVuSans-74"/><use x="805.396" xlink:href="#DejaVuSans-69"/><use x="833.18" xlink:href="#DejaVuSans-6f"/><use x="894.361" xlink:href="#DejaVuSans-6e"/><use x="957.74" xlink:href="#DejaVuSans-73"/></g></g><g id="legend_1"><g id="patch_5"><path d="M 14.2 103.70875 L 103.445313 103.70875 Q 105.445313 103.70875 105.445313 101.70875 L 105.445313 29.318125 Q 105.445313 27.318125 103.445313 27.318125 L 14.2 27.318125 Q 12.2 27.318125 12.2 29.318125 L 12.2 101.70875 Q 12.2 103.70875 14.2 103.70875 z" style="fill:#fff;opacity:.8;stroke:#ccc;stroke-linejoin:miter"/></g><g id="line2d_26"><path d="M 16.2 35.416562 L 26.2 35.416562 L 36.2 35.416562" style="fill:none;stroke:#1f77b4;stroke-width:1.5;stroke-linecap:square"/></g><g id="text_18"><g transform="translate(44.2 38.916562) scale(0.1 -0.1)"><defs><path id="DejaVuSans-4c" d="M 628 4666 L 1259 4666 L 1259 531 L 3531 531 L 3531 0 L 628 0 L 628 4666 z" transform="scale(0.015625)"/><path id="DejaVuSans-67" d="M 2906 1791 Q 2906 2416 2648 2759 Q 2391 3103 1925 3103 Q 1463 3103 1205 2759 Q 947 2416 947 1791 Q 947 1169 1205 825 Q 1463 481 1925 481 Q 2391 481 2648 825 Q 2906 1169 2906 1791 z M 3481 434 Q 3481 -459 3084 -895 Q 2688 -1331 1869 -1331 Q 1566 -1331 1297 -1286 Q 1028 -1241 775 -1147 L 775 -588 Q 1028 -725 1275 -790 Q 1522 -856 1778 -856 Q 2344 -856 2625 -561 Q 2906 -266 2906 331 L 2906 616 Q 2728 306 2450 153 Q 2172 0 1784 0 Q 1141 0 747 490 Q 353 981 353 1791 Q 353 2603 747 3093 Q 1141 3584 1784 3584 Q 2172 3584 2450 3431 Q 2728 3278 2906 2969 L 2906 3500 L 3481 3500 L 3481 434 z" transform="scale(0.015625)"/></defs><use xlink:href="#DejaVuSans-4c"/><use x="53.963" xlink:href="#DejaVuSans-6f"/><use x="115.145" xlink:href="#DejaVuSans-67"/><use x="178.621" xlink:href="#DejaVuSans-69"/><use x="206.404" xlink:href="#DejaVuSans-73"/><use x="258.504" xlink:href="#DejaVuSans-74"/><use x="297.713" xlink:href="#DejaVuSans-69"/><use x="325.496" xlink:href="#DejaVuSans-63"/></g></g><g id="line2d_27"><path d="M 16.2 50.094688 L 26.2 50.094688 L 36.2 50.094688" style="fill:none;stroke:#ff7f0e;stroke-width:1.5;stroke-linecap:square"/></g><g id="text_19"><g transform="translate(44.2 53.594688) scale(0.1 -0.1)"><defs><path id="DejaVuSans-54" d="M -19 4666 L 3928 4666 L 3928 4134 L 2272 4134 L 2272 0 L 1638 0 L 1638 4134 L -19 4134 L -19 4666 z" transform="scale(0.015625)"/><path id="DejaVuSans-68" d="M 3513 2113 L 3513 0 L 2938 0 L 2938 2094 Q 2938 2591 2744 2837 Q 2550 3084 2163 3084 Q 1697 3084 1428 2787 Q 1159 2491 1159 1978 L 1159 0 L 581 0 L 581 4863 L 1159 4863 L 1159 2956 Q 1366 3272 1645 3428 Q 1925 3584 2291 3584 Q 2894 3584 3203 3211 Q 3513 2838 3513 2113 z" transform="scale(0.015625)"/></defs><use xlink:href="#DejaVuSans-54"/><use x="44.584" xlink:href="#DejaVuSans-61"/><use x="105.863" xlink:href="#DejaVuSans-6e"/><use x="169.242" xlink:href="#DejaVuSans-68"/></g></g><g id="line2d_28"><path d="M 16.2 64.772812 L 26.2 64.772812 L 36.2 64.772812" style="fill:none;stroke:#2ca02c;stroke-width:4;stroke-linecap:square"/></g><g id="text_20"><g transform="translate(44.2 68.272812) scale(0.1 -0.1)"><defs><path id="DejaVuSans-52" d="M 2841 2188 Q 3044 2119 3236 1894 Q 3428 1669 3622 1275 L 4263 0 L 3584 0 L 2988 1197 Q 2756 1666 2539 1819 Q 2322 1972 1947 1972 L 1259 1972 L 1259 0 L 628 0 L 628 4666 L 2053 4666 Q 2853 4666 3247 4331 Q 3641 3997 3641 3322 Q 3641 2881 3436 2590 Q 3231 2300 2841 2188 z M 1259 4147 L 1259 2491 L 2053 2491 Q 2509 2491 2742 2702 Q 2975 2913 2975 3322 Q 2975 3731 2742 3939 Q 2509 4147 2053 4147 L 1259 4147 z" transform="scale(0.015625)"/><path id="DejaVuSans-65" d="M 3597 1894 L 3597 1613 L 953 1613 Q 991 1019 1311 708 Q 1631 397 2203 397 Q 2534 397 2845 478 Q 3156 559 3463 722 L 3463 178 Q 3153 47 2828 -22 Q 2503 -91 2169 -91 Q 1331 -91 842 396 Q 353 884 353 1716 Q 353 2575 817 3079 Q 1281 3584 2069 3584 Q 2775 3584 3186 3129 Q 3597 2675 3597 1894 z M 3022 2063 Q 3016 2534 2758 2815 Q 2500 3097 2075 3097 Q 1594 3097 1305 2825 Q 1016 2553 972 2059 L 3022 2063 z" transform="scale(0.015625)"/><path id="DejaVuSans-55" d="M 556 4666 L 1191 4666 L 1191 1831 Q 1191 1081 1462 751 Q 1734 422 2344 422 Q 2950 422 3222 751 Q 3494 1081 3494 1831 L 3494 4666 L 4128 4666 L 4128 1753 Q 4128 841 3676 375 Q 3225 -91 2344 -91 Q 1459 -91 1007 375 Q 556 841 556 1753 L 556 4666 z" transform="scale(0.015625)"/></defs><use xlink:href="#DejaVuSans-52"/><use x="64.982" xlink:href="#DejaVuSans-65"/><use x="126.506" xlink:href="#DejaVuSans-4c"/><use x="177.219" xlink:href="#DejaVuSans-55"/></g></g><g id="line2d_29"><path d="M 16.2 79.450938 L 26.2 79.450938 L 36.2 79.450938" style="fill:none;stroke:#d62728;stroke-width:1.5;stroke-linecap:square"/></g><g id="text_21"><g transform="translate(44.2 82.950938) scale(0.1 -0.1)"><defs><path id="DejaVuSans-6b" d="M 581 4863 L 1159 4863 L 1159 1991 L 2875 3500 L 3609 3500 L 1753 1863 L 3688 0 L 2938 0 L 1159 1709 L 1159 0 L 581 0 L 581 4863 z" transform="scale(0.015625)"/><path id="DejaVuSans-79" d="M 2059 -325 Q 1816 -950 1584 -1140 Q 1353 -1331 966 -1331 L 506 -1331 L 506 -850 L 844 -850 Q 1081 -850 1212 -737 Q 1344 -625 1503 -206 L 1606 56 L 191 3500 L 800 3500 L 1894 763 L 2988 3500 L 3597 3500 L 2059 -325 z" transform="scale(0.015625)"/></defs><use xlink:href="#DejaVuSans-4c"/><use x="53.963" xlink:href="#DejaVuSans-65"/><use x="115.486" xlink:href="#DejaVuSans-61"/><use x="176.766" xlink:href="#DejaVuSans-6b"/><use x="231.051" xlink:href="#DejaVuSans-79"/><use x="290.23" xlink:href="#DejaVuSans-20"/><use x="322.018" xlink:href="#DejaVuSans-52"/><use x="387" xlink:href="#DejaVuSans-65"/><use x="448.523" xlink:href="#DejaVuSans-4c"/><use x="499.236" xlink:href="#DejaVuSans-55"/></g></g><g id="line2d_30"><path d="M 16.2 94.129063 L 26.2 94.129063 L 36.2 94.129063" style="fill:none;stroke:#9467bd;stroke-width:1.5;stroke-linecap:square"/></g><g id="text_22"><g transform="translate(44.2 97.629063) scale(0.1 -0.1)"><defs><path id="DejaVuSans-53" d="M 3425 4513 L 3425 3897 Q 3066 4069 2747 4153 Q 2428 4238 2131 4238 Q 1616 4238 1336 4038 Q 1056 3838 1056 3469 Q 1056 3159 1242 3001 Q 1428 2844 1947 2747 L 2328 2669 Q 3034 2534 3370 2195 Q 3706 1856 3706 1288 Q 3706 609 3251 259 Q 2797 -91 1919 -91 Q 1588 -91 1214 -16 Q 841 59 441 206 L 441 856 Q 825 641 1194 531 Q 1563 422 1919 422 Q 2459 422 2753 634 Q 3047 847 3047 1241 Q 3047 1584 2836 1778 Q 2625 1972 2144 2069 L 1759 2144 Q 1053 2284 737 2584 Q 422 2884 422 3419 Q 422 4038 858 4394 Q 1294 4750 2059 4750 Q 2388 4750 2728 4690 Q 3069 4631 3425 4513 z" transform="scale(0.015625)"/><path id="DejaVuSans-66" d="M 2375 4863 L 2375 4384 L 1825 4384 Q 1516 4384 1395 4259 Q 1275 4134 1275 3809 L 1275 3500 L 2222 3500 L 2222 3053 L 1275 3053 L 1275 0 L 697 0 L 697 3053 L 147 3053 L 147 3500 L 697 3500 L 697 3744 Q 697 4328 969 4595 Q 1241 4863 1831 4863 L 2375 4863 z" transform="scale(0.015625)"/><path id="DejaVuSans-70" d="M 1159 525 L 1159 -1331 L 581 -1331 L 581 3500 L 1159 3500 L 1159 2969 Q 1341 3281 1617 3432 Q 1894 3584 2278 3584 Q 2916 3584 3314 3078 Q 3713 2572 3713 1747 Q 3713 922 3314 415 Q 2916 -91 2278 -91 Q 1894 -91 1617 61 Q 1341 213 1159 525 z M 3116 1747 Q 3116 2381 2855 2742 Q 2594 3103 2138 3103 Q 1681 3103 1420 2742 Q 1159 2381 1159 1747 Q 1159 1113 1420 752 Q 1681 391 2138 391 Q 2594 391 2855 752 Q 3116 1113 3116 1747 z" transform="scale(0.015625)"/><path id="DejaVuSans-6c" d="M 603 4863 L 1178 4863 L 1178 0 L 603 0 L 603 4863 z" transform="scale(0.015625)"/></defs><use xlink:href="#DejaVuSans-53"/><use x="63.477" xlink:href="#DejaVuSans-6f"/><use x="124.658" xlink:href="#DejaVuSans-66"/><use x="158.113" xlink:href="#DejaVuSans-74"/><use x="197.322" xlink:href="#DejaVuSans-70"/><use x="260.799" xlink:href="#DejaVuSans-6c"/><use x="288.582" xlink:href="#DejaVuSans-75"/><use x="351.961" xlink:href="#DejaVuSans-73"/></g></g></g></g></g><defs><clipPath id="p681134738a"><rect width="502.2" height="332.64" x="7.2" y="22.318"/></clipPath></defs></svg>